%TF.GenerationSoftware,KiCad,Pcbnew,10.0.3-10.0.3~ubuntu24.04.1*%
%TF.CreationDate,2026-05-29T22:33:17-04:00*%
%TF.ProjectId,phyduino_pico,70687964-7569-46e6-9f5f-7069636f2e6b,E*%
%TF.SameCoordinates,Original*%
%TF.FileFunction,Copper,L1,Top*%
%TF.FilePolarity,Positive*%
%FSLAX46Y46*%
G04 Gerber Fmt 4.6, Leading zero omitted, Abs format (unit mm)*
G04 Created by KiCad (PCBNEW 10.0.3-10.0.3~ubuntu24.04.1) date 2026-05-29 22:33:17*
%MOMM*%
%LPD*%
G01*
G04 APERTURE LIST*
G04 Aperture macros list*
%AMRoundRect*
0 Rectangle with rounded corners*
0 $1 Rounding radius*
0 $2 $3 $4 $5 $6 $7 $8 $9 X,Y pos of 4 corners*
0 Add a 4 corners polygon primitive as box body*
4,1,4,$2,$3,$4,$5,$6,$7,$8,$9,$2,$3,0*
0 Add four circle primitives for the rounded corners*
1,1,$1+$1,$2,$3*
1,1,$1+$1,$4,$5*
1,1,$1+$1,$6,$7*
1,1,$1+$1,$8,$9*
0 Add four rect primitives between the rounded corners*
20,1,$1+$1,$2,$3,$4,$5,0*
20,1,$1+$1,$4,$5,$6,$7,0*
20,1,$1+$1,$6,$7,$8,$9,0*
20,1,$1+$1,$8,$9,$2,$3,0*%
G04 Aperture macros list end*
%TA.AperFunction,SMDPad,CuDef*%
%ADD10RoundRect,0.250000X-0.325000X-0.450000X0.325000X-0.450000X0.325000X0.450000X-0.325000X0.450000X0*%
%TD*%
%TA.AperFunction,SMDPad,CuDef*%
%ADD11RoundRect,0.135000X0.185000X-0.135000X0.185000X0.135000X-0.185000X0.135000X-0.185000X-0.135000X0*%
%TD*%
%TA.AperFunction,SMDPad,CuDef*%
%ADD12RoundRect,0.140000X-0.170000X0.140000X-0.170000X-0.140000X0.170000X-0.140000X0.170000X0.140000X0*%
%TD*%
%TA.AperFunction,ComponentPad*%
%ADD13R,1.700000X1.700000*%
%TD*%
%TA.AperFunction,ComponentPad*%
%ADD14O,1.700000X1.700000*%
%TD*%
%TA.AperFunction,SMDPad,CuDef*%
%ADD15RoundRect,0.250000X-0.337500X-0.475000X0.337500X-0.475000X0.337500X0.475000X-0.337500X0.475000X0*%
%TD*%
%TA.AperFunction,SMDPad,CuDef*%
%ADD16RoundRect,0.250000X-0.450000X0.350000X-0.450000X-0.350000X0.450000X-0.350000X0.450000X0.350000X0*%
%TD*%
%TA.AperFunction,SMDPad,CuDef*%
%ADD17RoundRect,0.135000X-0.135000X-0.185000X0.135000X-0.185000X0.135000X0.185000X-0.135000X0.185000X0*%
%TD*%
%TA.AperFunction,SMDPad,CuDef*%
%ADD18RoundRect,0.135000X-0.185000X0.135000X-0.185000X-0.135000X0.185000X-0.135000X0.185000X0.135000X0*%
%TD*%
%TA.AperFunction,SMDPad,CuDef*%
%ADD19RoundRect,0.140000X-0.140000X-0.170000X0.140000X-0.170000X0.140000X0.170000X-0.140000X0.170000X0*%
%TD*%
%TA.AperFunction,SMDPad,CuDef*%
%ADD20R,5.500000X5.500000*%
%TD*%
%TA.AperFunction,SMDPad,CuDef*%
%ADD21RoundRect,0.062500X-0.350000X-0.062500X0.350000X-0.062500X0.350000X0.062500X-0.350000X0.062500X0*%
%TD*%
%TA.AperFunction,SMDPad,CuDef*%
%ADD22RoundRect,0.062500X-0.062500X-0.350000X0.062500X-0.350000X0.062500X0.350000X-0.062500X0.350000X0*%
%TD*%
%TA.AperFunction,HeatsinkPad*%
%ADD23R,2.700000X2.700000*%
%TD*%
%TA.AperFunction,SMDPad,CuDef*%
%ADD24RoundRect,0.147500X-0.172500X0.147500X-0.172500X-0.147500X0.172500X-0.147500X0.172500X0.147500X0*%
%TD*%
%TA.AperFunction,SMDPad,CuDef*%
%ADD25RoundRect,0.100000X-0.100000X0.425000X-0.100000X-0.425000X0.100000X-0.425000X0.100000X0.425000X0*%
%TD*%
%TA.AperFunction,SMDPad,CuDef*%
%ADD26RoundRect,0.050000X0.250000X-0.050000X0.250000X0.050000X-0.250000X0.050000X-0.250000X-0.050000X0*%
%TD*%
%TA.AperFunction,SMDPad,CuDef*%
%ADD27RoundRect,0.250000X-0.475000X0.337500X-0.475000X-0.337500X0.475000X-0.337500X0.475000X0.337500X0*%
%TD*%
%TA.AperFunction,SMDPad,CuDef*%
%ADD28RoundRect,0.150000X0.425000X-0.150000X0.425000X0.150000X-0.425000X0.150000X-0.425000X-0.150000X0*%
%TD*%
%TA.AperFunction,SMDPad,CuDef*%
%ADD29RoundRect,0.075000X0.500000X-0.075000X0.500000X0.075000X-0.500000X0.075000X-0.500000X-0.075000X0*%
%TD*%
%TA.AperFunction,SMDPad,CuDef*%
%ADD30RoundRect,0.250000X0.750000X-0.840000X0.750000X0.840000X-0.750000X0.840000X-0.750000X-0.840000X0*%
%TD*%
%TA.AperFunction,SMDPad,CuDef*%
%ADD31RoundRect,0.250000X0.337500X0.475000X-0.337500X0.475000X-0.337500X-0.475000X0.337500X-0.475000X0*%
%TD*%
%TA.AperFunction,SMDPad,CuDef*%
%ADD32RoundRect,0.250000X0.450000X-0.350000X0.450000X0.350000X-0.450000X0.350000X-0.450000X-0.350000X0*%
%TD*%
%TA.AperFunction,SMDPad,CuDef*%
%ADD33R,0.350000X0.500000*%
%TD*%
%TA.AperFunction,SMDPad,CuDef*%
%ADD34R,0.400000X0.300000*%
%TD*%
%TA.AperFunction,SMDPad,CuDef*%
%ADD35R,2.450000X1.980000*%
%TD*%
%TA.AperFunction,SMDPad,CuDef*%
%ADD36R,0.380000X0.430000*%
%TD*%
%TA.AperFunction,SMDPad,CuDef*%
%ADD37RoundRect,0.225000X-0.375000X0.225000X-0.375000X-0.225000X0.375000X-0.225000X0.375000X0.225000X0*%
%TD*%
%TA.AperFunction,SMDPad,CuDef*%
%ADD38RoundRect,0.140000X0.140000X0.170000X-0.140000X0.170000X-0.140000X-0.170000X0.140000X-0.170000X0*%
%TD*%
%TA.AperFunction,SMDPad,CuDef*%
%ADD39RoundRect,0.100000X0.100000X-0.712500X0.100000X0.712500X-0.100000X0.712500X-0.100000X-0.712500X0*%
%TD*%
%TA.AperFunction,SMDPad,CuDef*%
%ADD40RoundRect,0.250000X-0.350000X-0.450000X0.350000X-0.450000X0.350000X0.450000X-0.350000X0.450000X0*%
%TD*%
%TA.AperFunction,SMDPad,CuDef*%
%ADD41RoundRect,0.225000X0.375000X-0.225000X0.375000X0.225000X-0.375000X0.225000X-0.375000X-0.225000X0*%
%TD*%
%TA.AperFunction,SMDPad,CuDef*%
%ADD42RoundRect,0.093750X-0.156250X-0.093750X0.156250X-0.093750X0.156250X0.093750X-0.156250X0.093750X0*%
%TD*%
%TA.AperFunction,SMDPad,CuDef*%
%ADD43RoundRect,0.075000X-0.250000X-0.075000X0.250000X-0.075000X0.250000X0.075000X-0.250000X0.075000X0*%
%TD*%
%TA.AperFunction,SMDPad,CuDef*%
%ADD44RoundRect,0.150000X-0.825000X-0.150000X0.825000X-0.150000X0.825000X0.150000X-0.825000X0.150000X0*%
%TD*%
%TA.AperFunction,SMDPad,CuDef*%
%ADD45RoundRect,0.250000X0.475000X-0.337500X0.475000X0.337500X-0.475000X0.337500X-0.475000X-0.337500X0*%
%TD*%
%TA.AperFunction,SMDPad,CuDef*%
%ADD46RoundRect,0.125000X0.250000X0.125000X-0.250000X0.125000X-0.250000X-0.125000X0.250000X-0.125000X0*%
%TD*%
%TA.AperFunction,HeatsinkPad*%
%ADD47R,3.400000X4.300000*%
%TD*%
%TA.AperFunction,SMDPad,CuDef*%
%ADD48RoundRect,0.147500X-0.147500X-0.172500X0.147500X-0.172500X0.147500X0.172500X-0.147500X0.172500X0*%
%TD*%
%TA.AperFunction,SMDPad,CuDef*%
%ADD49RoundRect,0.150000X0.150000X-0.587500X0.150000X0.587500X-0.150000X0.587500X-0.150000X-0.587500X0*%
%TD*%
%TA.AperFunction,SMDPad,CuDef*%
%ADD50RoundRect,0.135000X0.135000X0.185000X-0.135000X0.185000X-0.135000X-0.185000X0.135000X-0.185000X0*%
%TD*%
%TA.AperFunction,SMDPad,CuDef*%
%ADD51RoundRect,0.140000X0.170000X-0.140000X0.170000X0.140000X-0.170000X0.140000X-0.170000X-0.140000X0*%
%TD*%
%TA.AperFunction,SMDPad,CuDef*%
%ADD52RoundRect,0.250000X0.412500X1.100000X-0.412500X1.100000X-0.412500X-1.100000X0.412500X-1.100000X0*%
%TD*%
%TA.AperFunction,SMDPad,CuDef*%
%ADD53RoundRect,0.147500X0.147500X0.172500X-0.147500X0.172500X-0.147500X-0.172500X0.147500X-0.172500X0*%
%TD*%
%TA.AperFunction,ComponentPad*%
%ADD54C,2.000000*%
%TD*%
%TA.AperFunction,SMDPad,CuDef*%
%ADD55RoundRect,0.250000X-0.300000X0.400000X-0.300000X-0.400000X0.300000X-0.400000X0.300000X0.400000X0*%
%TD*%
%TA.AperFunction,SMDPad,CuDef*%
%ADD56RoundRect,0.050000X-0.050000X0.387500X-0.050000X-0.387500X0.050000X-0.387500X0.050000X0.387500X0*%
%TD*%
%TA.AperFunction,SMDPad,CuDef*%
%ADD57RoundRect,0.050000X-0.387500X0.050000X-0.387500X-0.050000X0.387500X-0.050000X0.387500X0.050000X0*%
%TD*%
%TA.AperFunction,HeatsinkPad*%
%ADD58R,3.200000X3.200000*%
%TD*%
%TA.AperFunction,SMDPad,CuDef*%
%ADD59R,1.500000X0.700000*%
%TD*%
%TA.AperFunction,SMDPad,CuDef*%
%ADD60R,0.800000X1.000000*%
%TD*%
%TA.AperFunction,SMDPad,CuDef*%
%ADD61RoundRect,0.250000X0.350000X0.450000X-0.350000X0.450000X-0.350000X-0.450000X0.350000X-0.450000X0*%
%TD*%
%TA.AperFunction,SMDPad,CuDef*%
%ADD62RoundRect,0.150000X-0.625000X0.150000X-0.625000X-0.150000X0.625000X-0.150000X0.625000X0.150000X0*%
%TD*%
%TA.AperFunction,SMDPad,CuDef*%
%ADD63RoundRect,0.250000X-0.650000X0.350000X-0.650000X-0.350000X0.650000X-0.350000X0.650000X0.350000X0*%
%TD*%
%TA.AperFunction,ViaPad*%
%ADD64C,0.550000*%
%TD*%
%TA.AperFunction,Conductor*%
%ADD65C,0.130000*%
%TD*%
%TA.AperFunction,Conductor*%
%ADD66C,0.200000*%
%TD*%
%TA.AperFunction,Conductor*%
%ADD67C,0.300000*%
%TD*%
%TA.AperFunction,Conductor*%
%ADD68C,0.600000*%
%TD*%
%TA.AperFunction,Conductor*%
%ADD69C,0.400000*%
%TD*%
%TA.AperFunction,Conductor*%
%ADD70C,1.000000*%
%TD*%
G04 APERTURE END LIST*
D10*
%TO.P,D5,1,K_1*%
%TO.N,GND*%
X57644500Y-83080000D03*
%TO.P,D5,2,A_2*%
%TO.N,/5V_LED*%
X59694500Y-83080000D03*
%TD*%
D11*
%TO.P,R51,1*%
%TO.N,/+VBUS_SRC*%
X92670000Y-50090000D03*
%TO.P,R51,2*%
%TO.N,/USBPD_VBUS_VS_DISCH*%
X92670000Y-49070000D03*
%TD*%
D12*
%TO.P,C18,1*%
%TO.N,+3.3V*%
X70920000Y-65850000D03*
%TO.P,C18,2*%
%TO.N,GND*%
X70920000Y-66810000D03*
%TD*%
%TO.P,C14,1*%
%TO.N,/AIN2_A5*%
X93920000Y-77600000D03*
%TO.P,C14,2*%
%TO.N,GND*%
X93920000Y-78560000D03*
%TD*%
D13*
%TO.P,J2,1,Pin_1_1*%
%TO.N,unconnected-(J2-Pin_1-Pad1)*%
X65360000Y-82540000D03*
D14*
%TO.P,J2,2,Pin_2_2*%
%TO.N,unconnected-(J2-Pin_2-Pad2)*%
X67900000Y-82540000D03*
%TO.P,J2,3,Pin_3_3*%
%TO.N,~{RESET}*%
X70440000Y-82540000D03*
%TO.P,J2,4,Pin_4_4*%
%TO.N,+3.3V*%
X72980000Y-82540000D03*
%TO.P,J2,5,Pin_5_5*%
%TO.N,+5V*%
X75520000Y-82540000D03*
%TO.P,J2,6,Pin_6_6*%
%TO.N,GND*%
X78060000Y-82540000D03*
%TO.P,J2,7,Pin_7_7*%
X80600000Y-82540000D03*
%TO.P,J2,8,Pin_8_8*%
%TO.N,VBUS*%
X83140000Y-82540000D03*
%TD*%
D15*
%TO.P,C31,1*%
%TO.N,+3.3V*%
X86382500Y-66580000D03*
%TO.P,C31,2*%
%TO.N,GND*%
X88457500Y-66580000D03*
%TD*%
D16*
%TO.P,R7,1*%
%TO.N,/3V3_DCDC_FB*%
X47671000Y-53330000D03*
%TO.P,R7,2*%
%TO.N,GND*%
X47671000Y-55330000D03*
%TD*%
D12*
%TO.P,C21,1*%
%TO.N,/PMUX_SS*%
X73670000Y-73100000D03*
%TO.P,C21,2*%
%TO.N,GND*%
X73670000Y-74060000D03*
%TD*%
D17*
%TO.P,R11,1*%
%TO.N,+3.3V*%
X82660000Y-67580000D03*
%TO.P,R11,2*%
%TO.N,/ADC.MISO*%
X83680000Y-67580000D03*
%TD*%
%TO.P,R25,1*%
%TO.N,/USB_R_D_N*%
X82660000Y-62330000D03*
%TO.P,R25,2*%
%TO.N,/USB_SP_D_N*%
X83680000Y-62330000D03*
%TD*%
D18*
%TO.P,R41,1*%
%TO.N,Net-(C42-Pad1)*%
X97670000Y-48821000D03*
%TO.P,R41,2*%
%TO.N,/USBPD_SINK_G*%
X97670000Y-49841000D03*
%TD*%
D19*
%TO.P,C35,1*%
%TO.N,+3.3V*%
X82690000Y-58580000D03*
%TO.P,C35,2*%
%TO.N,GND*%
X83650000Y-58580000D03*
%TD*%
%TO.P,C28,1*%
%TO.N,+1V1*%
X81690000Y-59830000D03*
%TO.P,C28,2*%
%TO.N,GND*%
X82650000Y-59830000D03*
%TD*%
D20*
%TO.P,L2,1,1_1*%
%TO.N,/5V0_DCDC_SW*%
X58167000Y-66078000D03*
%TO.P,L2,2,2_2*%
%TO.N,/DCDC_5VOUT*%
X58167000Y-76078000D03*
%TD*%
D19*
%TO.P,C30,1*%
%TO.N,+3.3VA*%
X81440000Y-64830000D03*
%TO.P,C30,2*%
%TO.N,GND*%
X82400000Y-64830000D03*
%TD*%
D21*
%TO.P,U6,1,CC1DB_1*%
%TO.N,/USBPD_CC1*%
X85707500Y-47331000D03*
%TO.P,U6,2,CC1_2*%
X85707500Y-47831000D03*
%TO.P,U6,3,NC_3*%
%TO.N,GND*%
X85707500Y-48331000D03*
%TO.P,U6,4,CC2_4*%
%TO.N,/USBPD_CC2*%
X85707500Y-48831000D03*
%TO.P,U6,5,CC2DB_5*%
X85707500Y-49331000D03*
%TO.P,U6,6,RESET_6*%
%TO.N,USBPD_RST*%
X85707500Y-49831000D03*
D22*
%TO.P,U6,7,SCL_7*%
%TO.N,/USBPD.SCL*%
X86420000Y-50543500D03*
%TO.P,U6,8,SDA_8*%
%TO.N,/USBPD.SDA*%
X86920000Y-50543500D03*
%TO.P,U6,9,DISCH_9*%
%TO.N,/USBPD_DISCH*%
X87420000Y-50543500D03*
%TO.P,U6,10,GND_10*%
%TO.N,GND*%
X87920000Y-50543500D03*
%TO.P,U6,11,ATTACH_11*%
%TO.N,/unconnected-(U5-ATTACH-Pad11)*%
X88420000Y-50543500D03*
%TO.P,U6,12,ADDR0_12*%
%TO.N,GND*%
X88920000Y-50543500D03*
D21*
%TO.P,U6,13,ADDR1_13*%
X89632500Y-49831000D03*
%TO.P,U6,14,POWER_OK3_14*%
%TO.N,/USBPD_POK3*%
X89632500Y-49331000D03*
%TO.P,U6,15,GPIO_15*%
%TO.N,/unconnected-(U5-GPIO-Pad15)*%
X89632500Y-48831000D03*
%TO.P,U6,16,VBUS_EN_SNK_16*%
%TO.N,/USBPD_VBUS_EN_SNK*%
X89632500Y-48331000D03*
%TO.P,U6,17,A_B_SIDE_17*%
%TO.N,/unconnected-(U5-A_B_SIDE-Pad17)*%
X89632500Y-47831000D03*
%TO.P,U6,18,VBUS_VS_DISCH_18*%
%TO.N,/USBPD_VBUS_VS_DISCH*%
X89632500Y-47331000D03*
D22*
%TO.P,U6,19,ALERT_19*%
%TO.N,/USBPD.~{INT}*%
X88920000Y-46618500D03*
%TO.P,U6,20,POWER_OK2_20*%
%TO.N,/USBPD_POK2*%
X88420000Y-46618500D03*
%TO.P,U6,21,VREG_1V2_21*%
%TO.N,/USBPD_VREG_1V2*%
X87920000Y-46618500D03*
%TO.P,U6,22,VSYS_22*%
%TO.N,GND*%
X87420000Y-46618500D03*
%TO.P,U6,23,VREG_2V7_23*%
%TO.N,/USBPD_VREG_2V7*%
X86920000Y-46618500D03*
%TO.P,U6,24,VDD_24*%
%TO.N,/+VBUS_SRC*%
X86420000Y-46618500D03*
D23*
%TO.P,U6,25,GND_25*%
%TO.N,GND*%
X87670000Y-48581000D03*
%TD*%
D18*
%TO.P,R48,1*%
%TO.N,GND*%
X87671000Y-77570000D03*
%TO.P,R48,2*%
%TO.N,/A4*%
X87671000Y-78590000D03*
%TD*%
D17*
%TO.P,R22,1*%
%TO.N,/USB_R_D_P*%
X82660000Y-61080000D03*
%TO.P,R22,2*%
%TO.N,/USB_SP_D_P*%
X83680000Y-61080000D03*
%TD*%
D24*
%TO.P,D7,1,K_1*%
%TO.N,Net-(D7-K)*%
X79154000Y-43714500D03*
%TO.P,D7,2,A_2*%
%TO.N,+3.3V*%
X79154000Y-44684500D03*
%TD*%
D16*
%TO.P,R3,1*%
%TO.N,/3V3_DCDC_SS*%
X40920000Y-53330000D03*
%TO.P,R3,2*%
%TO.N,/Net-(C1-Pad1)*%
X40920000Y-55330000D03*
%TD*%
D12*
%TO.P,C41,1*%
%TO.N,GND*%
X87420000Y-43850000D03*
%TO.P,C41,2*%
%TO.N,/USBPD_VREG_2V7*%
X87420000Y-44810000D03*
%TD*%
D25*
%TO.P,U3,1,OUT_1*%
%TO.N,+5V*%
X70270000Y-70455000D03*
%TO.P,U3,2,IN2_2*%
%TO.N,VBUS*%
X69570000Y-70455000D03*
D26*
%TO.P,U3,3,CP2_3*%
%TO.N,GND*%
X68770000Y-70330000D03*
%TO.P,U3,4,OV2_4*%
%TO.N,/PMUX_OV2*%
X68770000Y-70830000D03*
%TO.P,U3,5,OV1_5*%
%TO.N,/PMUX_OV1*%
X68770000Y-71330000D03*
%TO.P,U3,6,PR1_6*%
%TO.N,GND*%
X68770000Y-71830000D03*
D25*
%TO.P,U3,7,IN1_7*%
%TO.N,/DCDC_5VOUT*%
X69570000Y-71705000D03*
%TO.P,U3,8,OUT_8*%
%TO.N,+5V*%
X70270000Y-71705000D03*
D26*
%TO.P,U3,9,ST_9*%
%TO.N,GND*%
X71070000Y-71830000D03*
%TO.P,U3,10,ILM_10*%
%TO.N,/PMUX_LIM*%
X71070000Y-71330000D03*
%TO.P,U3,11,SS_11*%
%TO.N,/PMUX_SS*%
X71070000Y-70830000D03*
%TO.P,U3,12,GND_12*%
%TO.N,GND*%
X71070000Y-70330000D03*
%TD*%
D27*
%TO.P,C5,1*%
%TO.N,/3V3_DCDC_COMP*%
X45420000Y-53292500D03*
%TO.P,C5,2*%
%TO.N,GND*%
X45420000Y-55367500D03*
%TD*%
D28*
%TO.P,J6,A1,GND_A1*%
%TO.N,GND*%
X98639000Y-63032000D03*
%TO.P,J6,A4,VBUS_A4*%
%TO.N,/+VBUS_SRC*%
X98639000Y-62232000D03*
D29*
%TO.P,J6,A5,CC1_A5*%
%TO.N,/USBPD_CC1*%
X98639000Y-61082000D03*
%TO.P,J6,A6,D+_A6*%
%TO.N,/USB_D_P*%
X98639000Y-60082000D03*
%TO.P,J6,A7,D-_A7*%
%TO.N,/USB_D_N*%
X98639000Y-59582000D03*
%TO.P,J6,A8*%
%TO.N,N/C*%
X98639000Y-58582000D03*
D28*
%TO.P,J6,A9,VBUS_A9*%
%TO.N,/+VBUS_SRC*%
X98639000Y-57432000D03*
%TO.P,J6,A12,GND_A12*%
%TO.N,GND*%
X98639000Y-56632000D03*
%TO.P,J6,B1,GND_B1*%
X98639000Y-56632000D03*
%TO.P,J6,B4,VBUS_B4*%
%TO.N,/+VBUS_SRC*%
X98639000Y-57432000D03*
D29*
%TO.P,J6,B5,CC2_B5*%
%TO.N,/USBPD_CC2*%
X98639000Y-58082000D03*
%TO.P,J6,B6,D+_B6*%
%TO.N,/USB_D_P*%
X98639000Y-59082000D03*
%TO.P,J6,B7,D-_B7*%
%TO.N,/USB_D_N*%
X98639000Y-60582000D03*
%TO.P,J6,B8*%
%TO.N,N/C*%
X98639000Y-61582000D03*
D28*
%TO.P,J6,B9,VBUS_B9*%
%TO.N,/+VBUS_SRC*%
X98639000Y-62232000D03*
%TO.P,J6,B12,GND_B12*%
%TO.N,GND*%
X98639000Y-63032000D03*
D30*
%TO.P,J6,S1,SHIELD_S1*%
%TO.N,GNDPWR*%
X103144000Y-64942000D03*
%TO.P,J6,S2,SHIELD_S2*%
%TO.N,unconnected-(J6-SHIELD-PadS2)*%
X99214000Y-64942000D03*
%TO.P,J6,S3,SHIELD_S3*%
%TO.N,unconnected-(J6-SHIELD-PadS3)*%
X99214000Y-54722000D03*
%TO.P,J6,S4,SHIELD_S4*%
%TO.N,unconnected-(J6-SHIELD-PadS4)*%
X103144000Y-54722000D03*
%TD*%
D31*
%TO.P,C6,1*%
%TO.N,/5V0_DCDC_SW*%
X45707500Y-67080000D03*
%TO.P,C6,2*%
%TO.N,/5V0_DCDC_BOOST*%
X43632500Y-67080000D03*
%TD*%
D17*
%TO.P,R30,1*%
%TO.N,+3.3V*%
X84662000Y-52578000D03*
%TO.P,R30,2*%
%TO.N,/USBPD.SCL*%
X85682000Y-52578000D03*
%TD*%
D32*
%TO.P,R4,1*%
%TO.N,/5V_ENA*%
X39170000Y-69583000D03*
%TO.P,R4,2*%
%TO.N,VBUS*%
X39170000Y-67583000D03*
%TD*%
D13*
%TO.P,J5,1,Pin_1_1*%
%TO.N,/D0*%
X100920000Y-34280000D03*
D14*
%TO.P,J5,2,Pin_2_2*%
%TO.N,/D1*%
X98380000Y-34280000D03*
%TO.P,J5,3,Pin_3_3*%
%TO.N,/D2*%
X95840000Y-34280000D03*
%TO.P,J5,4,Pin_4_4*%
%TO.N,/D3*%
X93300000Y-34280000D03*
%TO.P,J5,5,Pin_5_5*%
%TO.N,/D4*%
X90760000Y-34280000D03*
%TO.P,J5,6,Pin_6_6*%
%TO.N,/D5*%
X88220000Y-34280000D03*
%TO.P,J5,7,Pin_7_7*%
%TO.N,/D6*%
X85680000Y-34280000D03*
%TO.P,J5,8,Pin_8_8*%
%TO.N,/D7*%
X83140000Y-34280000D03*
%TD*%
D33*
%TO.P,Q1,1,S_1*%
%TO.N,/+VBUS_SRC*%
X94197000Y-49232000D03*
%TO.P,Q1,2,S_2*%
X94847000Y-49232000D03*
%TO.P,Q1,3,S_3*%
X95497000Y-49232000D03*
%TO.P,Q1,4,G_4*%
%TO.N,/USBPD_SINK_G*%
X96147000Y-49232000D03*
D34*
%TO.P,Q1,5,D_5*%
%TO.N,VBUS*%
X96147000Y-46332000D03*
%TO.P,Q1,6,D_6*%
X95497000Y-46332000D03*
%TO.P,Q1,7,D_7*%
X94847000Y-46332000D03*
%TO.P,Q1,8,D_8*%
X94197000Y-46332000D03*
D35*
%TO.P,Q1,9,D_9*%
X95172000Y-47472000D03*
D36*
%TO.P,Q1,9_1,D_9_1*%
X93757000Y-47832000D03*
%TO.P,Q1,9_2,D_9_2*%
X96587000Y-47832000D03*
%TD*%
D32*
%TO.P,R8,1*%
%TO.N,+3.3V*%
X49920000Y-55330000D03*
%TO.P,R8,2*%
%TO.N,/3V3_DCDC_FB*%
X49920000Y-53330000D03*
%TD*%
D18*
%TO.P,R17,1*%
%TO.N,Net-(D6-K)*%
X81770000Y-43566000D03*
%TO.P,R17,2*%
%TO.N,/USBPD_POK2*%
X81770000Y-44586000D03*
%TD*%
D13*
%TO.P,J3,1,Pin_1_1*%
%TO.N,/D8*%
X79080000Y-34280000D03*
D14*
%TO.P,J3,2,Pin_2_2*%
%TO.N,/D9*%
X76540000Y-34280000D03*
%TO.P,J3,3,Pin_3_3*%
%TO.N,/D10*%
X74000000Y-34280000D03*
%TO.P,J3,4,Pin_4_4*%
%TO.N,/D11*%
X71460000Y-34280000D03*
%TO.P,J3,5,Pin_5_5*%
%TO.N,/D12*%
X68920000Y-34280000D03*
%TO.P,J3,6,Pin_6_6*%
%TO.N,/D13*%
X66380000Y-34280000D03*
%TO.P,J3,7,Pin_7_7*%
%TO.N,GND*%
X63840000Y-34280000D03*
%TO.P,J3,8,Pin_8_8*%
%TO.N,/AREF*%
X61300000Y-34280000D03*
%TO.P,J3,9,Pin_9_9*%
%TO.N,/D18*%
X58760000Y-34280000D03*
%TO.P,J3,10,Pin_10_10*%
%TO.N,/D19*%
X56220000Y-34280000D03*
%TD*%
D17*
%TO.P,R40,1*%
%TO.N,/+VBUS_SRC*%
X96563000Y-52579000D03*
%TO.P,R40,2*%
%TO.N,/USBPD_SINK_G*%
X97583000Y-52579000D03*
%TD*%
D16*
%TO.P,R6,1*%
%TO.N,/5V0_DCDC_SS*%
X40920000Y-75329000D03*
%TO.P,R6,2*%
%TO.N,/Net-(C2-Pad1)*%
X40920000Y-77329000D03*
%TD*%
D37*
%TO.P,D4,1,K_1*%
%TO.N,/5V0_DCDC_SW*%
X49920000Y-69430000D03*
%TO.P,D4,2,A_2*%
%TO.N,GND*%
X49920000Y-72730000D03*
%TD*%
D38*
%TO.P,C16,1*%
%TO.N,/CPU_XOUT*%
X68675000Y-62280000D03*
%TO.P,C16,2*%
%TO.N,GND*%
X67715000Y-62280000D03*
%TD*%
D27*
%TO.P,C4,1*%
%TO.N,/3V3_DCDC_SS*%
X43170000Y-53292500D03*
%TO.P,C4,2*%
%TO.N,GND*%
X43170000Y-55367500D03*
%TD*%
D24*
%TO.P,D6,1,K_1*%
%TO.N,Net-(D6-K)*%
X82911000Y-43713000D03*
%TO.P,D6,2,A_2*%
%TO.N,+3.3V*%
X82911000Y-44683000D03*
%TD*%
D18*
%TO.P,R47,1*%
%TO.N,GND*%
X91421000Y-77570000D03*
%TO.P,R47,2*%
%TO.N,/A5*%
X91421000Y-78590000D03*
%TD*%
D10*
%TO.P,D1,1,K_1*%
%TO.N,GND*%
X39895000Y-83080000D03*
%TO.P,D1,2,A_2*%
%TO.N,/VBUS_LED*%
X41945000Y-83080000D03*
%TD*%
D38*
%TO.P,R44,1*%
%TO.N,/USBPD_CC1*%
X83649000Y-47330000D03*
%TO.P,R44,2*%
%TO.N,GND*%
X82689000Y-47330000D03*
%TD*%
D39*
%TO.P,U5,1,AIN0_1*%
%TO.N,/AIN0_A3*%
X84197500Y-74717500D03*
%TO.P,U5,2,AIN1_2*%
%TO.N,/AIN1_A4*%
X84832500Y-74717500D03*
%TO.P,U5,3,AIN2_3*%
%TO.N,/AIN2_A5*%
X85467500Y-74717500D03*
%TO.P,U5,4,AIN3_4*%
%TO.N,/AIN3_VBUS*%
X86102500Y-74717500D03*
%TO.P,U5,5,NC_5*%
%TO.N,unconnected-(U5-NC-Pad5)*%
X86737500Y-74717500D03*
%TO.P,U5,6,NC_6*%
%TO.N,unconnected-(U5-NC-Pad6)*%
X87372500Y-74717500D03*
%TO.P,U5,7,REF-_7*%
%TO.N,GND*%
X88007500Y-74717500D03*
%TO.P,U5,8,~{CNVST}_8*%
%TO.N,/ADC.~{CNVST}*%
X88642500Y-74717500D03*
%TO.P,U5,9,REF+_9*%
%TO.N,/AREF*%
X88642500Y-69442500D03*
%TO.P,U5,10,GND_10*%
%TO.N,GND*%
X88007500Y-69442500D03*
%TO.P,U5,11,VDD_11*%
%TO.N,+3.3V*%
X87372500Y-69442500D03*
%TO.P,U5,12,~{CS}_12*%
%TO.N,/ADC.~{CS}*%
X86737500Y-69442500D03*
%TO.P,U5,13,SCLK_13*%
%TO.N,/ADC.SCK*%
X86102500Y-69442500D03*
%TO.P,U5,14,DIN_14*%
%TO.N,/ADC.MOSI*%
X85467500Y-69442500D03*
%TO.P,U5,15,DOUT_15*%
%TO.N,/ADC.MISO*%
X84832500Y-69442500D03*
%TO.P,U5,16,~{EOC}_16*%
%TO.N,/ADC.~{EOC}*%
X84197500Y-69442500D03*
%TD*%
D40*
%TO.P,R14,1*%
%TO.N,GND*%
X80170000Y-72080000D03*
%TO.P,R14,2*%
%TO.N,/VBUS_MONITOR*%
X82170000Y-72080000D03*
%TD*%
D18*
%TO.P,R34,1*%
%TO.N,/AIN3_VBUS*%
X95170000Y-77570000D03*
%TO.P,R34,2*%
%TO.N,/VBUS_MONITOR*%
X95170000Y-78590000D03*
%TD*%
D41*
%TO.P,Z1,1,K_1*%
%TO.N,/+VBUS_SRC*%
X99671000Y-49977500D03*
%TO.P,Z1,2,A_2*%
%TO.N,GND*%
X99671000Y-46677500D03*
%TD*%
D42*
%TO.P,U8,1,I/O1_1*%
%TO.N,/USB_SP_D_P*%
X88320000Y-61792500D03*
D43*
%TO.P,U8,2,GND_2*%
%TO.N,GND*%
X88245000Y-62330000D03*
D42*
%TO.P,U8,3,I/O2_3*%
%TO.N,/USB_SP_D_N*%
X88320000Y-62867500D03*
%TO.P,U8,4,I/O2_4*%
%TO.N,/USB_D_N*%
X90020000Y-62867500D03*
D43*
%TO.P,U8,5,VBUS_5*%
%TO.N,+3.3V*%
X90095000Y-62330000D03*
D42*
%TO.P,U8,6,I/O1_6*%
%TO.N,/USB_D_P*%
X90020000Y-61792500D03*
%TD*%
D31*
%TO.P,C33,1*%
%TO.N,GND*%
X92707500Y-74580000D03*
%TO.P,C33,2*%
%TO.N,/AREF*%
X90632500Y-74580000D03*
%TD*%
D17*
%TO.P,R24,1*%
%TO.N,+3.3V*%
X82660000Y-66330000D03*
%TO.P,R24,2*%
%TO.N,/ADC.MOSI*%
X83680000Y-66330000D03*
%TD*%
D38*
%TO.P,C17,1*%
%TO.N,+3.3V*%
X68650000Y-64080000D03*
%TO.P,C17,2*%
%TO.N,GND*%
X67690000Y-64080000D03*
%TD*%
D44*
%TO.P,U2,1,BOOT_1*%
%TO.N,/5V0_DCDC_BOOST*%
X42195000Y-69175000D03*
%TO.P,U2,2,VIN_2*%
%TO.N,VBUS*%
X42195000Y-70445000D03*
%TO.P,U2,3,EN_3*%
%TO.N,/5V_ENA*%
X42195000Y-71715000D03*
%TO.P,U2,4,SS_4*%
%TO.N,/5V0_DCDC_SS*%
X42195000Y-72985000D03*
%TO.P,U2,5,VSENSE_5*%
%TO.N,/5V0_DCDC_FB*%
X47145000Y-72985000D03*
%TO.P,U2,6,COMP_6*%
%TO.N,/5V0_DCDC_COMP*%
X47145000Y-71715000D03*
%TO.P,U2,7,GND_7*%
%TO.N,GND*%
X47145000Y-70445000D03*
%TO.P,U2,8,PH_8*%
%TO.N,/5V0_DCDC_SW*%
X47145000Y-69175000D03*
%TD*%
D17*
%TO.P,R12,1*%
%TO.N,/PMUX_OV2*%
X65660000Y-68330000D03*
%TO.P,R12,2*%
%TO.N,VBUS*%
X66680000Y-68330000D03*
%TD*%
D15*
%TO.P,C11,1*%
%TO.N,/DCDC_5VOUT*%
X66132500Y-76080000D03*
%TO.P,C11,2*%
%TO.N,GND*%
X68207500Y-76080000D03*
%TD*%
D45*
%TO.P,C34,1*%
%TO.N,+3.3V*%
X98418000Y-77360500D03*
%TO.P,C34,2*%
%TO.N,GND*%
X98418000Y-75285500D03*
%TD*%
D31*
%TO.P,C27,1*%
%TO.N,/VBUS_MONITOR*%
X82207500Y-69830000D03*
%TO.P,C27,2*%
%TO.N,GND*%
X80132500Y-69830000D03*
%TD*%
D46*
%TO.P,U9,1,~{CS}_1*%
%TO.N,/XIP_~{CS}*%
X91887000Y-59989000D03*
%TO.P,U9,2,DO(IO1)_2*%
%TO.N,/XIP_SD1*%
X91887000Y-58719000D03*
%TO.P,U9,3,IO2_3*%
%TO.N,/XIP_SD2*%
X91887000Y-57449000D03*
%TO.P,U9,4,GND_4*%
%TO.N,GND*%
X91887000Y-56179000D03*
%TO.P,U9,5,DI(IO0)_5*%
%TO.N,/XIP_SD0*%
X86487000Y-56179000D03*
%TO.P,U9,6,CLK_6*%
%TO.N,/XIP_SCK*%
X86487000Y-57449000D03*
%TO.P,U9,7,IO3_7*%
%TO.N,/XIP_SD3*%
X86487000Y-58719000D03*
%TO.P,U9,8,VCC_8*%
%TO.N,+3.3V*%
X86487000Y-59989000D03*
D47*
%TO.P,U9,9,EP_9*%
%TO.N,GND*%
X89187000Y-58084000D03*
%TD*%
D27*
%TO.P,C10,1*%
%TO.N,+3.3V*%
X59670000Y-59042500D03*
%TO.P,C10,2*%
%TO.N,GND*%
X59670000Y-61117500D03*
%TD*%
D13*
%TO.P,J4,1,Pin_1_1*%
%TO.N,/A0*%
X88220000Y-82540000D03*
D14*
%TO.P,J4,2,Pin_2_2*%
%TO.N,/A1*%
X90760000Y-82540000D03*
%TO.P,J4,3,Pin_3_3*%
%TO.N,/A2*%
X93300000Y-82540000D03*
%TO.P,J4,4,Pin_4_4*%
%TO.N,/A3*%
X95840000Y-82540000D03*
%TO.P,J4,5,Pin_5_5*%
%TO.N,/A4*%
X98380000Y-82540000D03*
%TO.P,J4,6,Pin_6_6*%
%TO.N,/A5*%
X100920000Y-82540000D03*
%TD*%
D12*
%TO.P,C23,1*%
%TO.N,+3.3V*%
X74645000Y-65175000D03*
%TO.P,C23,2*%
%TO.N,GND*%
X74645000Y-66135000D03*
%TD*%
D18*
%TO.P,R27,1*%
%TO.N,/AIN0_A3*%
X85172000Y-77570000D03*
%TO.P,R27,2*%
%TO.N,/A3*%
X85172000Y-78590000D03*
%TD*%
%TO.P,R50,1*%
%TO.N,VBUS*%
X92669000Y-46572000D03*
%TO.P,R50,2*%
%TO.N,/USBPD_DISCH*%
X92669000Y-47592000D03*
%TD*%
D48*
%TO.P,D8,1,K_1*%
%TO.N,GND*%
X102431000Y-49578000D03*
%TO.P,D8,2,A_2*%
%TO.N,Net-(D8-A)*%
X103401000Y-49578000D03*
%TD*%
D49*
%TO.P,U7,1,K_1*%
%TO.N,/AREF*%
X90720000Y-69767500D03*
%TO.P,U7,2,A_2*%
%TO.N,GND*%
X92620000Y-69767500D03*
%TO.P,U7,3,NC_3*%
%TO.N,unconnected-(U7-NC-Pad3)*%
X91670000Y-67892500D03*
%TD*%
D50*
%TO.P,R19,1*%
%TO.N,/PMUX_OV1*%
X66680000Y-72080000D03*
%TO.P,R19,2*%
%TO.N,/DCDC_5VOUT*%
X65660000Y-72080000D03*
%TD*%
%TO.P,R28,1*%
%TO.N,+3.3V*%
X88181000Y-52581000D03*
%TO.P,R28,2*%
%TO.N,/USBPD.SDA*%
X87161000Y-52581000D03*
%TD*%
D51*
%TO.P,C19,1*%
%TO.N,+3.3V*%
X72420000Y-54060000D03*
%TO.P,C19,2*%
%TO.N,GND*%
X72420000Y-53100000D03*
%TD*%
D52*
%TO.P,C2,1*%
%TO.N,GND*%
X42482500Y-63180000D03*
%TO.P,C2,2*%
%TO.N,VBUS*%
X39357500Y-63180000D03*
%TD*%
D18*
%TO.P,R43,1*%
%TO.N,/AIN2_A5*%
X92670000Y-77570000D03*
%TO.P,R43,2*%
%TO.N,/A5*%
X92670000Y-78590000D03*
%TD*%
D19*
%TO.P,C15,1*%
%TO.N,/CPU_XIN*%
X67715000Y-56780000D03*
%TO.P,C15,2*%
%TO.N,GND*%
X68675000Y-56780000D03*
%TD*%
D40*
%TO.P,R23,1*%
%TO.N,/AREF*%
X90670000Y-72080000D03*
%TO.P,R23,2*%
%TO.N,+3.3V*%
X92670000Y-72080000D03*
%TD*%
D51*
%TO.P,C26,1*%
%TO.N,+3.3V*%
X80659000Y-54060000D03*
%TO.P,C26,2*%
%TO.N,GND*%
X80659000Y-53100000D03*
%TD*%
D12*
%TO.P,C40,1*%
%TO.N,/AIN3_VBUS*%
X96418000Y-77600000D03*
%TO.P,C40,2*%
%TO.N,GND*%
X96418000Y-78560000D03*
%TD*%
%TO.P,C13,1*%
%TO.N,/AIN0_A3*%
X86420000Y-77600000D03*
%TO.P,C13,2*%
%TO.N,GND*%
X86420000Y-78560000D03*
%TD*%
D20*
%TO.P,L1,1,1_1*%
%TO.N,/3V3_DCDC_SW*%
X58193000Y-43770000D03*
%TO.P,L1,2,2_2*%
%TO.N,+3.3V*%
X58193000Y-53770000D03*
%TD*%
D15*
%TO.P,C12,1*%
%TO.N,/DCDC_5VOUT*%
X66132500Y-78830000D03*
%TO.P,C12,2*%
%TO.N,GND*%
X68207500Y-78830000D03*
%TD*%
D27*
%TO.P,C8,1*%
%TO.N,/5V0_DCDC_COMP*%
X45420000Y-75292500D03*
%TO.P,C8,2*%
%TO.N,GND*%
X45420000Y-77367500D03*
%TD*%
D50*
%TO.P,R26,1*%
%TO.N,USBPD_RST*%
X83680000Y-50581000D03*
%TO.P,R26,2*%
%TO.N,GND*%
X82660000Y-50581000D03*
%TD*%
D44*
%TO.P,U1,1,BOOT_1*%
%TO.N,/3V3_DCDC_BOOST*%
X41945000Y-46925000D03*
%TO.P,U1,2,VIN_2*%
%TO.N,VBUS*%
X41945000Y-48195000D03*
%TO.P,U1,3,EN_3*%
%TO.N,/3V3_ENA*%
X41945000Y-49465000D03*
%TO.P,U1,4,SS_4*%
%TO.N,/3V3_DCDC_SS*%
X41945000Y-50735000D03*
%TO.P,U1,5,VSENSE_5*%
%TO.N,/3V3_DCDC_FB*%
X46895000Y-50735000D03*
%TO.P,U1,6,COMP_6*%
%TO.N,/3V3_DCDC_COMP*%
X46895000Y-49465000D03*
%TO.P,U1,7,GND_7*%
%TO.N,GND*%
X46895000Y-48195000D03*
%TO.P,U1,8,PH_8*%
%TO.N,/3V3_DCDC_SW*%
X46895000Y-46925000D03*
%TD*%
D32*
%TO.P,R5,1*%
%TO.N,GND*%
X39170000Y-73583000D03*
%TO.P,R5,2*%
%TO.N,/5V_ENA*%
X39170000Y-71583000D03*
%TD*%
D53*
%TO.P,FB1,1*%
%TO.N,+3.3V*%
X80905000Y-67580000D03*
%TO.P,FB1,2*%
%TO.N,+3.3VA*%
X79935000Y-67580000D03*
%TD*%
D31*
%TO.P,C3,1*%
%TO.N,/3V3_DCDC_SW*%
X45457500Y-44580000D03*
%TO.P,C3,2*%
%TO.N,/3V3_DCDC_BOOST*%
X43382500Y-44580000D03*
%TD*%
D51*
%TO.P,C22,1*%
%TO.N,+3.3V*%
X74695000Y-54060000D03*
%TO.P,C22,2*%
%TO.N,GND*%
X74695000Y-53100000D03*
%TD*%
D54*
%TO.P,SW2,1,1_1*%
%TO.N,GND*%
X97922000Y-68329000D03*
X104422000Y-68329000D03*
%TO.P,SW2,2,2_2*%
%TO.N,~{RESET}*%
X97922000Y-72829000D03*
X104422000Y-72829000D03*
%TD*%
D18*
%TO.P,R13,1*%
%TO.N,/BOOTMODE*%
X93924000Y-58070000D03*
%TO.P,R13,2*%
%TO.N,/XIP_~{CS}*%
X93924000Y-59090000D03*
%TD*%
D17*
%TO.P,R38,1*%
%TO.N,/USBPD_VBUS_EN_SNK*%
X96562000Y-51328000D03*
%TO.P,R38,2*%
%TO.N,/USBPD_SINK_G*%
X97582000Y-51328000D03*
%TD*%
D12*
%TO.P,C25,1*%
%TO.N,+3.3V*%
X78245000Y-65175000D03*
%TO.P,C25,2*%
%TO.N,GND*%
X78245000Y-66135000D03*
%TD*%
D37*
%TO.P,D3,1,K_1*%
%TO.N,/3V3_DCDC_SW*%
X49955000Y-47180000D03*
%TO.P,D3,2,A_2*%
%TO.N,GND*%
X49955000Y-50480000D03*
%TD*%
D11*
%TO.P,R16,1*%
%TO.N,GND*%
X72420000Y-74090000D03*
%TO.P,R16,2*%
%TO.N,/PMUX_LIM*%
X72420000Y-73070000D03*
%TD*%
D32*
%TO.P,R1,1*%
%TO.N,/3V3_ENA*%
X39170000Y-47578000D03*
%TO.P,R1,2*%
%TO.N,VBUS*%
X39170000Y-45578000D03*
%TD*%
D38*
%TO.P,R33,1*%
%TO.N,/USBPD_CC2*%
X83647000Y-49328000D03*
%TO.P,R33,2*%
%TO.N,GND*%
X82687000Y-49328000D03*
%TD*%
D55*
%TO.P,Y1,1,1_1*%
%TO.N,/CPU_XIN*%
X67370000Y-58480000D03*
%TO.P,Y1,2,2_2*%
%TO.N,GND*%
X67370000Y-60580000D03*
%TO.P,Y1,3,3_3*%
%TO.N,/CPU_XOUT*%
X69020000Y-60580000D03*
%TO.P,Y1,4,4_4*%
%TO.N,GND*%
X69020000Y-58480000D03*
%TD*%
D10*
%TO.P,D2,1,K_1*%
%TO.N,GND*%
X45895000Y-83080000D03*
%TO.P,D2,2,A_2*%
%TO.N,/3V3_LED*%
X47945000Y-83080000D03*
%TD*%
D56*
%TO.P,U4,1,IOVDD_1*%
%TO.N,+3.3V*%
X78245000Y-56392500D03*
%TO.P,U4,2,GPIO0_2*%
%TO.N,/D1*%
X77845000Y-56392500D03*
%TO.P,U4,3,GPIO1_3*%
%TO.N,/D0*%
X77445000Y-56392500D03*
%TO.P,U4,4,GPIO2_4*%
%TO.N,/USBPD.SDA*%
X77045000Y-56392500D03*
%TO.P,U4,5,GPIO3_5*%
%TO.N,/USBPD.SCL*%
X76645000Y-56392500D03*
%TO.P,U4,6,GPIO4_6*%
%TO.N,/USBPD.~{INT}*%
X76245000Y-56392500D03*
%TO.P,U4,7,GPIO5_7*%
%TO.N,/LED*%
X75845000Y-56392500D03*
%TO.P,U4,8,GPIO6_8*%
%TO.N,/D2*%
X75445000Y-56392500D03*
%TO.P,U4,9,GPIO7_9*%
%TO.N,/D3*%
X75045000Y-56392500D03*
%TO.P,U4,10,IOVDD_10*%
%TO.N,+3.3V*%
X74645000Y-56392500D03*
%TO.P,U4,11,GPIO8_11*%
%TO.N,/D4*%
X74245000Y-56392500D03*
%TO.P,U4,12,GPIO9_12*%
%TO.N,/D5*%
X73845000Y-56392500D03*
%TO.P,U4,13,GPIO10_13*%
%TO.N,/D6*%
X73445000Y-56392500D03*
%TO.P,U4,14,GPIO11_14*%
%TO.N,/D11*%
X73045000Y-56392500D03*
D57*
%TO.P,U4,15,GPIO12_15*%
%TO.N,/D12*%
X72207500Y-57230000D03*
%TO.P,U4,16,GPIO13_16*%
%TO.N,/D10*%
X72207500Y-57630000D03*
%TO.P,U4,17,GPIO14_17*%
%TO.N,/D13*%
X72207500Y-58030000D03*
%TO.P,U4,18,GPIO15_18*%
%TO.N,/D7*%
X72207500Y-58430000D03*
%TO.P,U4,19,TESTEN_19*%
%TO.N,GND*%
X72207500Y-58830000D03*
%TO.P,U4,20,XIN_20*%
%TO.N,/CPU_XIN*%
X72207500Y-59230000D03*
%TO.P,U4,21,XOUT_21*%
%TO.N,/CPU_XOUT*%
X72207500Y-59630000D03*
%TO.P,U4,22,IOVDD_22*%
%TO.N,+3.3V*%
X72207500Y-60030000D03*
%TO.P,U4,23,DVDD_23*%
%TO.N,+1V1*%
X72207500Y-60430000D03*
%TO.P,U4,24,SWCLK_24*%
%TO.N,/DEBUG_SWCLK*%
X72207500Y-60830000D03*
%TO.P,U4,25,SWDIO_25*%
%TO.N,/DEBUG_SWDIO*%
X72207500Y-61230000D03*
%TO.P,U4,26,RUN_26*%
%TO.N,~{RESET}*%
X72207500Y-61630000D03*
%TO.P,U4,27,GPIO16_27*%
%TO.N,/D8*%
X72207500Y-62030000D03*
%TO.P,U4,28,GPIO17_28*%
%TO.N,/D9*%
X72207500Y-62430000D03*
D56*
%TO.P,U4,29,GPIO18_29*%
%TO.N,/ADC.~{CNVST}*%
X73045000Y-63267500D03*
%TO.P,U4,30,GPIO19_30*%
%TO.N,/ADC.~{EOC}*%
X73445000Y-63267500D03*
%TO.P,U4,31,GPIO20_31*%
%TO.N,/ADC.MISO*%
X73845000Y-63267500D03*
%TO.P,U4,32,GPIO21_32*%
%TO.N,/ADC.~{CS}*%
X74245000Y-63267500D03*
%TO.P,U4,33,IOVDD_33*%
%TO.N,+3.3V*%
X74645000Y-63267500D03*
%TO.P,U4,34,GPIO22_34*%
%TO.N,/ADC.SCK*%
X75045000Y-63267500D03*
%TO.P,U4,35,GPIO23_35*%
%TO.N,/ADC.MOSI*%
X75445000Y-63267500D03*
%TO.P,U4,36,GPIO24_36*%
%TO.N,/D18*%
X75845000Y-63267500D03*
%TO.P,U4,37,GPIO25_37*%
%TO.N,/D19*%
X76245000Y-63267500D03*
%TO.P,U4,38,GPIO26/ADC0_38*%
%TO.N,/A0*%
X76645000Y-63267500D03*
%TO.P,U4,39,GPIO27/ADC1_39*%
%TO.N,/A1*%
X77045000Y-63267500D03*
%TO.P,U4,40,GPIO28/ADC2_40*%
%TO.N,/A2*%
X77445000Y-63267500D03*
%TO.P,U4,41,GPIO29/ADC3_41*%
%TO.N,USBPD_RST*%
X77845000Y-63267500D03*
%TO.P,U4,42,IOVDD_42*%
%TO.N,+3.3V*%
X78245000Y-63267500D03*
D57*
%TO.P,U4,43,ADC_AVDD_43*%
%TO.N,+3.3VA*%
X79082500Y-62430000D03*
%TO.P,U4,44,VREG_VIN_44*%
%TO.N,+3.3V*%
X79082500Y-62030000D03*
%TO.P,U4,45,VREF_OUT_45*%
%TO.N,+1V1*%
X79082500Y-61630000D03*
%TO.P,U4,46,USB_DM_46*%
%TO.N,/USB_R_D_N*%
X79082500Y-61230000D03*
%TO.P,U4,47,USB_DP_47*%
%TO.N,/USB_R_D_P*%
X79082500Y-60830000D03*
%TO.P,U4,48,USB_VDD_48*%
%TO.N,+3.3V*%
X79082500Y-60430000D03*
%TO.P,U4,49,IOVDD_49*%
X79082500Y-60030000D03*
%TO.P,U4,50,DVDD_50*%
%TO.N,+1V1*%
X79082500Y-59630000D03*
%TO.P,U4,51,QSPI_SD3_51*%
%TO.N,/XIP_SD3*%
X79082500Y-59230000D03*
%TO.P,U4,52,QSPI_SCLK_52*%
%TO.N,/XIP_SCK*%
X79082500Y-58830000D03*
%TO.P,U4,53,QSPI_SD0_53*%
%TO.N,/XIP_SD0*%
X79082500Y-58430000D03*
%TO.P,U4,54,QSPI_SD2_54*%
%TO.N,/XIP_SD2*%
X79082500Y-58030000D03*
%TO.P,U4,55,QSPI_SD1_55*%
%TO.N,/XIP_SD1*%
X79082500Y-57630000D03*
%TO.P,U4,56,QSPI_SS_N_56*%
%TO.N,/XIP_~{CS}*%
X79082500Y-57230000D03*
D58*
%TO.P,U4,57,GND_57*%
%TO.N,GND*%
X75645000Y-59830000D03*
%TD*%
D51*
%TO.P,C42,1*%
%TO.N,Net-(C42-Pad1)*%
X97670000Y-47561000D03*
%TO.P,C42,2*%
%TO.N,VBUS*%
X97670000Y-46601000D03*
%TD*%
D17*
%TO.P,R18,1*%
%TO.N,GND*%
X65660000Y-70830000D03*
%TO.P,R18,2*%
%TO.N,/PMUX_OV1*%
X66680000Y-70830000D03*
%TD*%
D59*
%TO.P,SW1,1,A_1*%
%TO.N,+3.3V*%
X100064000Y-41830000D03*
%TO.P,SW1,2,B_2*%
%TO.N,/BOOTMODE*%
X100064000Y-40830000D03*
%TO.P,SW1,3,C_3*%
%TO.N,GND*%
X100064000Y-39830000D03*
D60*
%TO.P,SW1,MP,MountPin_MP*%
%TO.N,/unconnected-(SW2-MountPin-PadMP)_2*%
X100814000Y-43630000D03*
%TO.N,/unconnected-(SW2-MountPin-PadMP)_2_1*%
X103014000Y-43630000D03*
%TO.N,/unconnected-(SW2-MountPin-PadMP)_2_3*%
X100814000Y-38030000D03*
%TO.N,/unconnected-(SW2-MountPin-PadMP)_2_2*%
X103014000Y-38030000D03*
%TD*%
D50*
%TO.P,R42,1*%
%TO.N,Net-(D8-A)*%
X103425000Y-48333000D03*
%TO.P,R42,2*%
%TO.N,/LED*%
X102405000Y-48333000D03*
%TD*%
D18*
%TO.P,R20,1*%
%TO.N,Net-(D7-K)*%
X80424000Y-43566000D03*
%TO.P,R20,2*%
%TO.N,/USBPD_POK3*%
X80424000Y-44586000D03*
%TD*%
D17*
%TO.P,R39,1*%
%TO.N,GND*%
X65660000Y-69580000D03*
%TO.P,R39,2*%
%TO.N,/PMUX_OV2*%
X66680000Y-69580000D03*
%TD*%
D27*
%TO.P,C9,1*%
%TO.N,+3.3V*%
X56670000Y-59042500D03*
%TO.P,C9,2*%
%TO.N,GND*%
X56670000Y-61117500D03*
%TD*%
D61*
%TO.P,R15,1*%
%TO.N,/VBUS_MONITOR*%
X82170000Y-74330000D03*
%TO.P,R15,2*%
%TO.N,VBUS*%
X80170000Y-74330000D03*
%TD*%
D51*
%TO.P,C24,1*%
%TO.N,+3.3V*%
X78420000Y-54060000D03*
%TO.P,C24,2*%
%TO.N,GND*%
X78420000Y-53100000D03*
%TD*%
D18*
%TO.P,R21,1*%
%TO.N,+3.3V*%
X89669000Y-43821000D03*
%TO.P,R21,2*%
%TO.N,/USBPD.~{INT}*%
X89669000Y-44841000D03*
%TD*%
D16*
%TO.P,R10,1*%
%TO.N,/5V0_DCDC_FB*%
X47669000Y-75330000D03*
%TO.P,R10,2*%
%TO.N,GND*%
X47669000Y-77330000D03*
%TD*%
D27*
%TO.P,C7,1*%
%TO.N,/5V0_DCDC_SS*%
X43171000Y-75293500D03*
%TO.P,C7,2*%
%TO.N,GND*%
X43171000Y-77368500D03*
%TD*%
D32*
%TO.P,R9,1*%
%TO.N,/DCDC_5VOUT*%
X49919000Y-77328000D03*
%TO.P,R9,2*%
%TO.N,/5V0_DCDC_FB*%
X49919000Y-75328000D03*
%TD*%
D52*
%TO.P,C1,1*%
%TO.N,GND*%
X42482500Y-41580000D03*
%TO.P,C1,2*%
%TO.N,VBUS*%
X39357500Y-41580000D03*
%TD*%
D62*
%TO.P,J1,1,Pin_1_1*%
%TO.N,/DEBUG_SWCLK*%
X42670000Y-34330000D03*
%TO.P,J1,2,Pin_2_2*%
%TO.N,GND*%
X42670000Y-35330000D03*
%TO.P,J1,3,Pin_3_3*%
%TO.N,/DEBUG_SWDIO*%
X42670000Y-36330000D03*
D63*
%TO.P,J1,MP*%
%TO.N,N/C*%
X38795000Y-33030000D03*
X38795000Y-37630000D03*
%TD*%
D12*
%TO.P,C32,1*%
%TO.N,GND*%
X88420000Y-43850000D03*
%TO.P,C32,2*%
%TO.N,/USBPD_VREG_1V2*%
X88420000Y-44810000D03*
%TD*%
D32*
%TO.P,R2,1*%
%TO.N,GND*%
X39170000Y-51578000D03*
%TO.P,R2,2*%
%TO.N,/3V3_ENA*%
X39170000Y-49578000D03*
%TD*%
D18*
%TO.P,R29,1*%
%TO.N,/AIN1_A4*%
X88917000Y-77570000D03*
%TO.P,R29,2*%
%TO.N,/A4*%
X88917000Y-78590000D03*
%TD*%
D12*
%TO.P,C44,1*%
%TO.N,/AIN1_A4*%
X90172000Y-77600000D03*
%TO.P,C44,2*%
%TO.N,GND*%
X90172000Y-78560000D03*
%TD*%
%TO.P,C43,1*%
%TO.N,GND*%
X86421000Y-43850000D03*
%TO.P,C43,2*%
%TO.N,/+VBUS_SRC*%
X86421000Y-44810000D03*
%TD*%
D18*
%TO.P,R49,1*%
%TO.N,GND*%
X83918000Y-77570000D03*
%TO.P,R49,2*%
%TO.N,/A3*%
X83918000Y-78590000D03*
%TD*%
D19*
%TO.P,C29,1*%
%TO.N,+1V1*%
X81440000Y-63580000D03*
%TO.P,C29,2*%
%TO.N,GND*%
X82400000Y-63580000D03*
%TD*%
D12*
%TO.P,C20,1*%
%TO.N,+1V1*%
X72170000Y-64850000D03*
%TO.P,C20,2*%
%TO.N,GND*%
X72170000Y-65810000D03*
%TD*%
D64*
%TO.N,GND*%
X45890000Y-81706000D03*
X83353000Y-63572000D03*
X66774000Y-62277000D03*
X72418000Y-52102000D03*
X83924000Y-76746000D03*
X89160000Y-56830000D03*
X84358000Y-58582000D03*
X60909000Y-61108000D03*
X47673000Y-78582000D03*
X92620000Y-68494000D03*
X39168000Y-52828000D03*
X87671000Y-76756000D03*
X81812000Y-50578000D03*
X102160000Y-68550000D03*
X78424000Y-52445000D03*
X87670000Y-48581000D03*
X91425000Y-76684000D03*
X93922000Y-79454000D03*
X89160000Y-59330000D03*
X43170000Y-56582000D03*
X40910000Y-74080000D03*
X67967000Y-71827000D03*
X89169000Y-62857000D03*
X42470000Y-43280000D03*
X76920000Y-61080000D03*
X45423000Y-56578000D03*
X42470000Y-39840000D03*
X80672000Y-52443000D03*
X66820000Y-64083000D03*
X88420000Y-47830000D03*
X72171000Y-66706000D03*
X98418000Y-74236000D03*
X69352000Y-76072000D03*
X72426000Y-74879000D03*
X99672000Y-45826000D03*
X78247000Y-67029000D03*
X74642000Y-67026000D03*
X97626000Y-56629000D03*
X75645000Y-59830000D03*
X81820000Y-47335000D03*
X86414000Y-79394000D03*
X76920000Y-58580000D03*
X83609000Y-59827000D03*
X68771000Y-55871000D03*
X56331000Y-83079000D03*
X38915000Y-83072000D03*
X45683000Y-70430000D03*
X88010000Y-70961000D03*
X79181000Y-72077000D03*
X47669000Y-56579000D03*
X70090000Y-58479000D03*
X96421000Y-79458000D03*
X88424000Y-43126000D03*
X74420000Y-58580000D03*
X45405000Y-48191000D03*
X43163000Y-78588000D03*
X40910000Y-52170000D03*
X43665000Y-63174000D03*
X86920000Y-49330000D03*
X42485000Y-64961000D03*
X89187000Y-58084000D03*
X73250000Y-58830000D03*
X71920000Y-71829000D03*
X101693000Y-49572000D03*
X87419000Y-43133000D03*
X45418000Y-78592000D03*
X42487000Y-61431000D03*
X49956000Y-51554000D03*
X83346000Y-64828000D03*
X67998000Y-70055000D03*
X64711000Y-70830000D03*
X101900000Y-57840000D03*
X71893000Y-70331000D03*
X88419500Y-49330500D03*
X88012000Y-73195000D03*
X74420000Y-61080000D03*
X87914000Y-51335000D03*
X69372000Y-78831000D03*
X92863000Y-56176000D03*
X86920000Y-47830000D03*
X43924000Y-35334000D03*
X55413000Y-61101000D03*
X66138000Y-60582000D03*
X97607000Y-63035000D03*
X98919000Y-39829000D03*
X64750000Y-69576000D03*
X89452000Y-66577000D03*
X73663000Y-74872000D03*
X39170000Y-74726000D03*
X93803000Y-74578000D03*
X70923000Y-67486000D03*
X90165000Y-79452000D03*
X49917000Y-73749000D03*
X79176000Y-69830000D03*
X81815000Y-49326000D03*
X74695000Y-52074000D03*
%TO.N,/5V_LED*%
X60950000Y-83080000D03*
%TO.N,/+VBUS_SRC*%
X94920000Y-52830000D03*
X91920000Y-53830000D03*
X94920000Y-53830000D03*
X92920000Y-52830000D03*
X93920000Y-53830000D03*
X93920000Y-52830000D03*
X97609000Y-62232000D03*
X97607000Y-57435000D03*
X94190000Y-50860000D03*
X92920000Y-53830000D03*
X86421000Y-45631000D03*
X99669000Y-51084000D03*
%TO.N,+3.3V*%
X83818000Y-52575000D03*
X81714000Y-66402000D03*
X98429000Y-78388000D03*
X54920000Y-57580000D03*
X89669000Y-42976000D03*
X80971000Y-66875000D03*
X89038000Y-52582000D03*
X85366000Y-66581000D03*
X89174000Y-61811000D03*
X74694000Y-55023000D03*
X71102000Y-60101000D03*
X58170000Y-57580000D03*
X81984000Y-58582000D03*
X83623000Y-44680000D03*
X80070000Y-62026000D03*
X98923000Y-41830000D03*
X78245000Y-64276000D03*
X78470000Y-44679000D03*
X59670000Y-57580000D03*
X93784000Y-72082000D03*
X74645000Y-64302000D03*
X80136000Y-60018000D03*
X78420000Y-54726000D03*
X70921000Y-64951000D03*
X72420000Y-54999000D03*
X87374000Y-68051000D03*
X80668000Y-54726000D03*
X85342000Y-59987000D03*
X74640000Y-57400000D03*
X78873000Y-56586000D03*
X56670000Y-57580000D03*
X69623000Y-64074000D03*
X44480000Y-83060000D03*
X99890000Y-68580000D03*
%TO.N,~{RESET}*%
X72144000Y-67582000D03*
%TO.N,+5V*%
X70920000Y-75330000D03*
X70920000Y-76830000D03*
X70920000Y-76080000D03*
%TO.N,VBUS*%
X47170000Y-41330000D03*
X45920000Y-41330000D03*
X68170000Y-67330000D03*
X93170000Y-44580000D03*
X48670000Y-41330000D03*
X69670000Y-68830000D03*
X39359000Y-64978000D03*
X39350000Y-43370000D03*
X40411000Y-45577000D03*
X44670000Y-41330000D03*
X68920000Y-68080000D03*
X48670000Y-60080000D03*
X43667000Y-70439000D03*
X80175000Y-75584000D03*
X39910000Y-81550000D03*
X43404000Y-48205000D03*
X44920000Y-60080000D03*
X39358000Y-61405000D03*
X40366000Y-67578000D03*
X96920000Y-44580000D03*
X95670000Y-44580000D03*
X39360000Y-39780000D03*
X94420000Y-44580000D03*
X47420000Y-60080000D03*
X46170000Y-60080000D03*
%TO.N,/ADC.MISO*%
X75872000Y-69223000D03*
X85082000Y-70980000D03*
%TO.N,+1V1*%
X78090000Y-59630000D03*
X78140000Y-61630000D03*
X72168000Y-63916000D03*
X73220000Y-60650000D03*
X80492000Y-63574000D03*
X80994000Y-60398000D03*
%TO.N,/USBPD_CC1*%
X97446000Y-61080000D03*
X84608000Y-47330000D03*
%TO.N,/USBPD_CC2*%
X84619000Y-49328000D03*
X94975000Y-58051000D03*
%TO.N,USBPD_RST*%
X83679000Y-51385000D03*
X77920000Y-57640000D03*
%TO.N,/USBPD_DISCH*%
X91855000Y-47594000D03*
X89947000Y-51857000D03*
%TO.N,/USBPD_POK3*%
X80422000Y-45452000D03*
X90447000Y-49325000D03*
%TO.N,/USBPD_VBUS_EN_SNK*%
X91673000Y-51751000D03*
X96561000Y-50594000D03*
%TO.N,/USBPD.~{INT}*%
X78995000Y-48530000D03*
X89672000Y-45675000D03*
%TO.N,/USBPD_POK2*%
X81774000Y-45460000D03*
X88418000Y-45630000D03*
%TO.N,/Net-(C1-Pad1)*%
X40921000Y-56457000D03*
%TO.N,/USB_D_P*%
X100079000Y-59982000D03*
X96590160Y-58982000D03*
X100079000Y-59982000D03*
%TO.N,/USB_D_N*%
X100079000Y-60682000D03*
X96590160Y-59682000D03*
X100079000Y-60682000D03*
%TO.N,GNDPWR*%
X103143000Y-63064000D03*
%TO.N,/D0*%
X77293000Y-44482000D03*
X77545000Y-53579000D03*
%TO.N,/D1*%
X77920000Y-55521000D03*
X76693000Y-46832000D03*
%TO.N,/D7*%
X67773000Y-36693000D03*
%TO.N,/D8*%
X70996000Y-62111000D03*
X73077000Y-47203000D03*
%TO.N,/D9*%
X73078000Y-44124000D03*
X71018000Y-63031000D03*
%TO.N,/D10*%
X70095000Y-36880000D03*
%TO.N,/AREF*%
X90719000Y-68524000D03*
X68509000Y-47540000D03*
%TO.N,/D18*%
X76051000Y-64852000D03*
X69346000Y-50680000D03*
%TO.N,/D19*%
X68845000Y-51485000D03*
X76474557Y-65383980D03*
%TO.N,/Net-(C2-Pad1)*%
X40925000Y-78584000D03*
%TO.N,/VBUS_LED*%
X41945000Y-81543000D03*
%TO.N,/AIN3_VBUS*%
X95168000Y-76756000D03*
X86100000Y-73279000D03*
%TO.N,/ADC.~{CNVST}*%
X75950000Y-70726000D03*
X86522000Y-72211000D03*
%TO.N,/ADC.~{CS}*%
X86748000Y-70979000D03*
X74408000Y-67894000D03*
%TO.N,/ADC.SCK*%
X75321000Y-67428000D03*
X86100000Y-67997000D03*
%TO.N,/ADC.MOSI*%
X84938000Y-67513000D03*
X75949000Y-66954000D03*
%TO.N,/ADC.~{EOC}*%
X75344000Y-69804000D03*
X84197000Y-70969000D03*
%TO.N,/VBUS_MONITOR*%
X95177000Y-79448000D03*
X82164000Y-75581000D03*
%TO.N,/XIP_~{CS}*%
X80345000Y-57002000D03*
X92871000Y-59993000D03*
%TO.N,/XIP_SD1*%
X92882000Y-58691000D03*
X82072000Y-56934000D03*
%TO.N,/XIP_SD2*%
X92901000Y-57454000D03*
X84622000Y-57196000D03*
%TO.N,/BOOTMODE*%
X101340000Y-40829000D03*
X97169000Y-55328000D03*
%TO.N,/3V3_LED*%
X48974000Y-83071000D03*
%TO.N,/LED*%
X101673000Y-48329000D03*
X79116000Y-47455000D03*
%TD*%
%TO.N,/D5*%
D65*
X73845000Y-56392500D02*
X73845000Y-55472000D01*
X73845000Y-55472000D02*
X73751000Y-55378000D01*
X73751000Y-49119000D02*
X74924000Y-47946000D01*
X73751000Y-55378000D02*
X73751000Y-49119000D01*
X74924000Y-42309000D02*
X80453000Y-36780000D01*
X74924000Y-47946000D02*
X74924000Y-42309000D01*
X80453000Y-36780000D02*
X85720000Y-36780000D01*
X85720000Y-36780000D02*
X88220000Y-34280000D01*
%TO.N,GND*%
X82400000Y-63580000D02*
X83345000Y-63580000D01*
X83606000Y-59830000D02*
X83609000Y-59827000D01*
X83345000Y-63580000D02*
X83353000Y-63572000D01*
D66*
X82400000Y-64830000D02*
X83344000Y-64830000D01*
D65*
X45409000Y-48195000D02*
X45405000Y-48191000D01*
X42482500Y-61435500D02*
X42487000Y-61431000D01*
X98418000Y-75285500D02*
X98418000Y-74236000D01*
X60899500Y-61117500D02*
X60909000Y-61108000D01*
X72170000Y-66705000D02*
X72171000Y-66706000D01*
X89632500Y-49831000D02*
X88920000Y-49831000D01*
D66*
X39170000Y-51578000D02*
X39170000Y-52826000D01*
D65*
X100064000Y-39830000D02*
X98920000Y-39830000D01*
X72420000Y-74090000D02*
X72420000Y-74873000D01*
X43171000Y-78580000D02*
X43163000Y-78588000D01*
X83918000Y-76752000D02*
X83924000Y-76746000D01*
X88007500Y-73199500D02*
X88012000Y-73195000D01*
X73670000Y-74865000D02*
X73663000Y-74872000D01*
X72170000Y-65810000D02*
X72170000Y-66705000D01*
D67*
X45895000Y-83080000D02*
X45895000Y-81711000D01*
D68*
X42482500Y-41580000D02*
X42482500Y-43267500D01*
X99671000Y-46677500D02*
X99671000Y-45827000D01*
D65*
X70920000Y-67483000D02*
X70923000Y-67486000D01*
X38923000Y-83080000D02*
X38915000Y-83072000D01*
X45420000Y-77367500D02*
X45420000Y-78590000D01*
X47669000Y-77330000D02*
X47669000Y-78578000D01*
X56332000Y-83080000D02*
X56331000Y-83079000D01*
X78420000Y-52449000D02*
X78424000Y-52445000D01*
D68*
X42482500Y-63180000D02*
X42482500Y-64958500D01*
D65*
X87420000Y-43850000D02*
X87420000Y-43134000D01*
X102431000Y-49578000D02*
X101699000Y-49578000D01*
D67*
X88245000Y-62330000D02*
X88642000Y-62330000D01*
D68*
X42482500Y-63180000D02*
X42482500Y-61435500D01*
D65*
X67970000Y-71830000D02*
X67967000Y-71827000D01*
X72207500Y-58830000D02*
X73250000Y-58830000D01*
X89449000Y-66580000D02*
X89452000Y-66577000D01*
X42482500Y-64958500D02*
X42485000Y-64961000D01*
X47671000Y-56577000D02*
X47669000Y-56579000D01*
X65660000Y-70830000D02*
X64711000Y-70830000D01*
X67715000Y-62280000D02*
X66777000Y-62280000D01*
X43920000Y-35330000D02*
X43924000Y-35334000D01*
D68*
X92707500Y-74580000D02*
X93801000Y-74580000D01*
X99671000Y-45827000D02*
X99672000Y-45826000D01*
X49920000Y-72730000D02*
X49920000Y-73746000D01*
D66*
X45420000Y-55367500D02*
X45420000Y-56575000D01*
D65*
X91421000Y-76688000D02*
X91425000Y-76684000D01*
X88457500Y-66580000D02*
X89449000Y-66580000D01*
D67*
X88642000Y-62330000D02*
X89169000Y-62857000D01*
D65*
X82650000Y-59830000D02*
X83606000Y-59830000D01*
X67370000Y-60580000D02*
X66140000Y-60580000D01*
X83344000Y-64830000D02*
X83346000Y-64828000D01*
X49920000Y-73746000D02*
X49917000Y-73749000D01*
X47669000Y-78578000D02*
X47673000Y-78582000D01*
X88420000Y-43130000D02*
X88424000Y-43126000D01*
D68*
X46895000Y-48195000D02*
X45409000Y-48195000D01*
D65*
X87920000Y-51329000D02*
X87914000Y-51335000D01*
X71892000Y-70330000D02*
X71893000Y-70331000D01*
X72420000Y-52104000D02*
X72418000Y-52102000D01*
X87671000Y-76756000D02*
X87671000Y-77570000D01*
X88420000Y-43850000D02*
X88420000Y-43130000D01*
X88920000Y-50543500D02*
X88920000Y-49831000D01*
X80659000Y-53100000D02*
X80659000Y-52456000D01*
X97629000Y-56632000D02*
X97626000Y-56629000D01*
D66*
X47671000Y-55330000D02*
X47671000Y-56577000D01*
D65*
X65660000Y-69580000D02*
X64754000Y-69580000D01*
X68675000Y-56780000D02*
X68762000Y-56693000D01*
X66777000Y-62280000D02*
X66774000Y-62277000D01*
X80659000Y-52456000D02*
X80672000Y-52443000D01*
X98920000Y-39830000D02*
X98919000Y-39829000D01*
X45698000Y-70445000D02*
X45683000Y-70430000D01*
X68770000Y-71830000D02*
X67970000Y-71830000D01*
X88007500Y-74717500D02*
X88007500Y-73199500D01*
X83918000Y-77570000D02*
X83918000Y-76752000D01*
X93920000Y-79452000D02*
X93922000Y-79454000D01*
D68*
X42482500Y-39852500D02*
X42470000Y-39840000D01*
D65*
X39170000Y-52826000D02*
X39168000Y-52828000D01*
X72420000Y-53100000D02*
X72420000Y-52104000D01*
X88419500Y-49330500D02*
X87670000Y-48581000D01*
X88007500Y-70958500D02*
X88010000Y-70961000D01*
D68*
X68207500Y-76080000D02*
X69344000Y-76080000D01*
X49955000Y-50480000D02*
X49955000Y-51553000D01*
D65*
X69371000Y-78830000D02*
X69372000Y-78831000D01*
X87420000Y-43134000D02*
X87419000Y-43133000D01*
X73670000Y-74060000D02*
X73670000Y-74865000D01*
X64754000Y-69580000D02*
X64750000Y-69576000D01*
X88007500Y-69442500D02*
X88007500Y-70958500D01*
D68*
X68207500Y-78830000D02*
X69371000Y-78830000D01*
D65*
X93920000Y-78560000D02*
X93920000Y-79452000D01*
X87420000Y-43850000D02*
X86421000Y-43850000D01*
X90172000Y-79445000D02*
X90165000Y-79452000D01*
X91421000Y-77570000D02*
X91421000Y-76688000D01*
X91887000Y-56179000D02*
X92860000Y-56179000D01*
X45895000Y-81711000D02*
X45890000Y-81706000D01*
X80132500Y-69830000D02*
X79176000Y-69830000D01*
X49955000Y-51553000D02*
X49956000Y-51554000D01*
X87920000Y-50543500D02*
X87920000Y-51329000D01*
D67*
X98639000Y-56632000D02*
X97629000Y-56632000D01*
D65*
X83650000Y-58580000D02*
X84356000Y-58580000D01*
X82687000Y-49328000D02*
X81817000Y-49328000D01*
X92860000Y-56179000D02*
X92863000Y-56176000D01*
X43171000Y-77368500D02*
X43171000Y-78580000D01*
X81817000Y-49328000D02*
X81815000Y-49326000D01*
D66*
X43170000Y-55367500D02*
X43170000Y-56582000D01*
D65*
X67690000Y-64080000D02*
X66823000Y-64080000D01*
X101699000Y-49578000D02*
X101693000Y-49572000D01*
D68*
X42482500Y-41580000D02*
X42482500Y-39852500D01*
D65*
X42670000Y-35330000D02*
X43920000Y-35330000D01*
X43659000Y-63180000D02*
X43665000Y-63174000D01*
X70089000Y-58480000D02*
X70090000Y-58479000D01*
X86420000Y-78560000D02*
X86420000Y-79388000D01*
X85707500Y-48331000D02*
X87420000Y-48331000D01*
X71919000Y-71830000D02*
X71920000Y-71829000D01*
X87420000Y-48331000D02*
X87670000Y-48581000D01*
X93801000Y-74580000D02*
X93803000Y-74578000D01*
X82689000Y-47330000D02*
X81825000Y-47330000D01*
X80170000Y-72080000D02*
X79184000Y-72080000D01*
X87420000Y-46618500D02*
X87420000Y-48331000D01*
X68762000Y-56693000D02*
X68762000Y-55880000D01*
X88920000Y-49831000D02*
X88419500Y-49330500D01*
D68*
X42482500Y-63180000D02*
X43659000Y-63180000D01*
D66*
X39170000Y-73583000D02*
X39170000Y-74726000D01*
D65*
X66823000Y-64080000D02*
X66820000Y-64083000D01*
D67*
X97610000Y-63032000D02*
X97607000Y-63035000D01*
X92620000Y-69767500D02*
X92620000Y-68494000D01*
D65*
X96418000Y-78560000D02*
X96418000Y-79455000D01*
X74645000Y-67023000D02*
X74642000Y-67026000D01*
X68273000Y-70330000D02*
X67998000Y-70055000D01*
X69344000Y-76080000D02*
X69352000Y-76072000D01*
D68*
X56670000Y-61117500D02*
X55429500Y-61117500D01*
D65*
X81815000Y-50581000D02*
X81812000Y-50578000D01*
X69020000Y-58480000D02*
X70089000Y-58480000D01*
X72420000Y-74873000D02*
X72426000Y-74879000D01*
X81825000Y-47330000D02*
X81820000Y-47335000D01*
X74695000Y-53100000D02*
X74695000Y-52074000D01*
X78420000Y-53100000D02*
X78420000Y-52449000D01*
D68*
X55429500Y-61117500D02*
X55413000Y-61101000D01*
D65*
X71070000Y-71830000D02*
X71919000Y-71830000D01*
X68762000Y-55880000D02*
X68771000Y-55871000D01*
X71070000Y-70330000D02*
X71892000Y-70330000D01*
X45420000Y-56575000D02*
X45423000Y-56578000D01*
X78245000Y-67027000D02*
X78247000Y-67029000D01*
X90172000Y-78560000D02*
X90172000Y-79445000D01*
X84356000Y-58580000D02*
X84358000Y-58582000D01*
X70920000Y-66810000D02*
X70920000Y-67483000D01*
X86420000Y-79388000D02*
X86414000Y-79394000D01*
X66140000Y-60580000D02*
X66138000Y-60582000D01*
X79184000Y-72080000D02*
X79181000Y-72077000D01*
X78245000Y-66135000D02*
X78245000Y-67027000D01*
D68*
X59670000Y-61117500D02*
X60899500Y-61117500D01*
D65*
X82660000Y-50581000D02*
X81815000Y-50581000D01*
X45420000Y-78590000D02*
X45418000Y-78592000D01*
X68770000Y-70330000D02*
X68273000Y-70330000D01*
D68*
X42482500Y-43267500D02*
X42470000Y-43280000D01*
D65*
X96418000Y-79455000D02*
X96421000Y-79458000D01*
D67*
X39895000Y-83080000D02*
X38923000Y-83080000D01*
D68*
X47145000Y-70445000D02*
X45698000Y-70445000D01*
D67*
X57644500Y-83080000D02*
X56332000Y-83080000D01*
D65*
X74645000Y-66135000D02*
X74645000Y-67023000D01*
D67*
X98639000Y-63032000D02*
X97610000Y-63032000D01*
%TO.N,/5V_LED*%
D66*
X59694500Y-83080000D02*
X60950000Y-83080000D01*
%TO.N,/+VBUS_SRC*%
D67*
X94197000Y-49232000D02*
X94197000Y-50007000D01*
X95497000Y-49232000D02*
X95497000Y-49917000D01*
X94200000Y-50010000D02*
X94197000Y-50007000D01*
X98639000Y-62232000D02*
X97609000Y-62232000D01*
X98639000Y-57432000D02*
X97610000Y-57432000D01*
D65*
X86421000Y-46617500D02*
X86420000Y-46618500D01*
X86421000Y-44810000D02*
X86421000Y-45631000D01*
D68*
X99671000Y-51082000D02*
X99669000Y-51084000D01*
D67*
X92670000Y-50090000D02*
X92670000Y-50970000D01*
D66*
X95477000Y-52579000D02*
X95470000Y-52586000D01*
D65*
X86421000Y-45631000D02*
X86421000Y-46617500D01*
D68*
X99671000Y-49977500D02*
X99671000Y-51082000D01*
D67*
X94847000Y-49232000D02*
X94847000Y-49977000D01*
D65*
X94847000Y-49977000D02*
X94850000Y-49980000D01*
D67*
X95497000Y-49917000D02*
X95510000Y-49930000D01*
D66*
X96563000Y-52579000D02*
X95477000Y-52579000D01*
D67*
X92670000Y-50970000D02*
X92662000Y-50978000D01*
D65*
X97610000Y-57432000D02*
X97607000Y-57435000D01*
%TO.N,/USBPD_VBUS_VS_DISCH*%
X89632500Y-47331000D02*
X90428000Y-47331000D01*
X90428000Y-47331000D02*
X92167000Y-49070000D01*
X92167000Y-49070000D02*
X92670000Y-49070000D01*
%TO.N,+3.3V*%
X71173000Y-60030000D02*
X71102000Y-60101000D01*
X80659000Y-54060000D02*
X80659000Y-54717000D01*
X93782000Y-72080000D02*
X93784000Y-72082000D01*
X82660000Y-66330000D02*
X82660000Y-67580000D01*
X98418000Y-78377000D02*
X98429000Y-78388000D01*
X82690000Y-58580000D02*
X81986000Y-58580000D01*
X81786000Y-66330000D02*
X81714000Y-66402000D01*
X79154000Y-44684500D02*
X78475500Y-44684500D01*
X79898000Y-60430000D02*
X80136000Y-60192000D01*
X68650000Y-64080000D02*
X69617000Y-64080000D01*
X70920000Y-64952000D02*
X70921000Y-64951000D01*
X100064000Y-41830000D02*
X98923000Y-41830000D01*
X74695000Y-54060000D02*
X74695000Y-55022000D01*
X78245000Y-56392500D02*
X78515500Y-56392500D01*
D67*
X89693000Y-62330000D02*
X89174000Y-61811000D01*
D65*
X74695000Y-55022000D02*
X74694000Y-55023000D01*
X80995000Y-66899000D02*
X80971000Y-66875000D01*
X87372500Y-69442500D02*
X87372500Y-68052500D01*
X69617000Y-64080000D02*
X69623000Y-64074000D01*
X78713000Y-56590000D02*
X78869000Y-56590000D01*
X80995000Y-67490000D02*
X80995000Y-66899000D01*
X83821000Y-52578000D02*
X83818000Y-52575000D01*
X70920000Y-65850000D02*
X70920000Y-64952000D01*
X78420000Y-54060000D02*
X78420000Y-54726000D01*
X78245000Y-63267500D02*
X78245000Y-64276000D01*
X80136000Y-60192000D02*
X80136000Y-60018000D01*
X78515500Y-56392500D02*
X78713000Y-56590000D01*
X86382500Y-66580000D02*
X85367000Y-66580000D01*
X82911000Y-44683000D02*
X83620000Y-44683000D01*
X80124000Y-60030000D02*
X80136000Y-60018000D01*
X82660000Y-66330000D02*
X81786000Y-66330000D01*
X79082500Y-62030000D02*
X80066000Y-62030000D01*
X84662000Y-52578000D02*
X83821000Y-52578000D01*
X87372500Y-68052500D02*
X87374000Y-68051000D01*
X72207500Y-60030000D02*
X71173000Y-60030000D01*
D67*
X49920000Y-55330000D02*
X52269000Y-55330000D01*
D65*
X80905000Y-67580000D02*
X80995000Y-67490000D01*
X72420000Y-54060000D02*
X72420000Y-54999000D01*
X80659000Y-54717000D02*
X80668000Y-54726000D01*
X74645000Y-57395000D02*
X74640000Y-57400000D01*
X78245000Y-64276000D02*
X78245000Y-65175000D01*
X85344000Y-59989000D02*
X85342000Y-59987000D01*
D68*
X92670000Y-72080000D02*
X93782000Y-72080000D01*
D65*
X98418000Y-77360500D02*
X98418000Y-78377000D01*
X52269000Y-55330000D02*
X52272000Y-55333000D01*
X81986000Y-58580000D02*
X81984000Y-58582000D01*
X79082500Y-60430000D02*
X79898000Y-60430000D01*
X78869000Y-56590000D02*
X78873000Y-56586000D01*
X89669000Y-43821000D02*
X89669000Y-42976000D01*
X85367000Y-66580000D02*
X85366000Y-66581000D01*
X83620000Y-44683000D02*
X83623000Y-44680000D01*
X74645000Y-63267500D02*
X74645000Y-64302000D01*
D67*
X90095000Y-62330000D02*
X89693000Y-62330000D01*
D65*
X79082500Y-60030000D02*
X80124000Y-60030000D01*
X80066000Y-62030000D02*
X80070000Y-62026000D01*
X88181000Y-52581000D02*
X89037000Y-52581000D01*
D67*
X86487000Y-59989000D02*
X85344000Y-59989000D01*
D65*
X74645000Y-64302000D02*
X74645000Y-65175000D01*
X89037000Y-52581000D02*
X89038000Y-52582000D01*
X74645000Y-56392500D02*
X74645000Y-57395000D01*
X78475500Y-44684500D02*
X78470000Y-44679000D01*
%TO.N,/AIN2_A5*%
X92670000Y-76960000D02*
X91731000Y-76021000D01*
X91731000Y-76021000D02*
X85824000Y-76021000D01*
X85824000Y-76021000D02*
X85467500Y-75664500D01*
X92700000Y-77600000D02*
X92670000Y-77570000D01*
X93920000Y-77600000D02*
X92700000Y-77600000D01*
X85467500Y-75664500D02*
X85467500Y-74717500D01*
X92670000Y-77570000D02*
X92670000Y-76960000D01*
%TO.N,~{RESET}*%
X72144000Y-67582000D02*
X72144000Y-68995000D01*
X72144000Y-68995000D02*
X74497000Y-71348000D01*
X71547000Y-64606000D02*
X71547000Y-66985000D01*
X71547000Y-66985000D02*
X72144000Y-67582000D01*
X70472000Y-61970319D02*
X70472000Y-63531000D01*
X70472000Y-63531000D02*
X71547000Y-64606000D01*
X72207500Y-61630000D02*
X70812319Y-61630000D01*
X74497000Y-71348000D02*
X74497000Y-78483000D01*
X70812319Y-61630000D02*
X70472000Y-61970319D01*
X74497000Y-78483000D02*
X70440000Y-82540000D01*
%TO.N,+5V*%
D69*
X70270000Y-71705000D02*
X70270000Y-72680000D01*
X70270000Y-70455000D02*
X70270000Y-71705000D01*
D67*
X70270000Y-72680000D02*
X70420000Y-72830000D01*
%TO.N,VBUS*%
D66*
X39170000Y-45578000D02*
X40410000Y-45578000D01*
D65*
X43394000Y-48195000D02*
X43404000Y-48205000D01*
D68*
X41945000Y-48195000D02*
X43394000Y-48195000D01*
D69*
X69570000Y-68930000D02*
X69670000Y-68830000D01*
D67*
X95497000Y-46332000D02*
X95497000Y-45687000D01*
D66*
X92669000Y-46572000D02*
X92669000Y-45690000D01*
D67*
X66680000Y-68330000D02*
X67841000Y-68330000D01*
D65*
X80170000Y-74330000D02*
X80170000Y-75579000D01*
D67*
X94847000Y-45718000D02*
X94852000Y-45713000D01*
X96147000Y-46332000D02*
X96147000Y-45674000D01*
D65*
X80170000Y-75579000D02*
X80175000Y-75584000D01*
D67*
X94197000Y-46332000D02*
X94197000Y-45727000D01*
D65*
X39357500Y-61405500D02*
X39358000Y-61405000D01*
D68*
X39357500Y-63180000D02*
X39357500Y-64976500D01*
D65*
X39170000Y-67583000D02*
X40361000Y-67583000D01*
X67841000Y-68330000D02*
X67844000Y-68327000D01*
D68*
X39357500Y-41580000D02*
X39357500Y-39782500D01*
D65*
X39357500Y-64976500D02*
X39359000Y-64978000D01*
D67*
X94197000Y-45727000D02*
X94195000Y-45725000D01*
D68*
X43661000Y-70445000D02*
X43667000Y-70439000D01*
D66*
X97670000Y-46601000D02*
X97670000Y-45673000D01*
D67*
X96147000Y-45674000D02*
X96153000Y-45668000D01*
D69*
X69570000Y-70455000D02*
X69570000Y-68930000D01*
D68*
X39357500Y-39782500D02*
X39360000Y-39780000D01*
D65*
X40361000Y-67583000D02*
X40366000Y-67578000D01*
D68*
X39357500Y-43362500D02*
X39350000Y-43370000D01*
D65*
X40410000Y-45578000D02*
X40411000Y-45577000D01*
D68*
X42195000Y-70445000D02*
X43661000Y-70445000D01*
X39357500Y-63180000D02*
X39357500Y-61405500D01*
D67*
X95497000Y-45687000D02*
X95503000Y-45681000D01*
D68*
X39357500Y-41580000D02*
X39357500Y-43362500D01*
D67*
X94847000Y-46332000D02*
X94847000Y-45718000D01*
%TO.N,/3V3_DCDC_FB*%
D66*
X46895000Y-51566000D02*
X47671000Y-52342000D01*
X49920000Y-53330000D02*
X47671000Y-53330000D01*
X46895000Y-50735000D02*
X46895000Y-51566000D01*
X47671000Y-52342000D02*
X47671000Y-53330000D01*
%TO.N,/PMUX_SS*%
D65*
X73670000Y-71908000D02*
X72592000Y-70830000D01*
X73670000Y-73100000D02*
X73670000Y-71908000D01*
X72592000Y-70830000D02*
X71070000Y-70830000D01*
%TO.N,/ADC.MISO*%
X73747000Y-63998000D02*
X73747000Y-67940000D01*
X73747000Y-67940000D02*
X75030000Y-69223000D01*
X83680000Y-67580000D02*
X84323000Y-67580000D01*
X75030000Y-69223000D02*
X75872000Y-69223000D01*
X84832500Y-70730500D02*
X85082000Y-70980000D01*
X73845000Y-63267500D02*
X73845000Y-63900000D01*
X73845000Y-63900000D02*
X73747000Y-63998000D01*
X84323000Y-67580000D02*
X84832500Y-68089500D01*
X84832500Y-68089500D02*
X84832500Y-69442500D01*
X84832500Y-69442500D02*
X84832500Y-70730500D01*
%TO.N,/USB_R_D_N*%
D66*
X81589000Y-61880000D02*
X82039000Y-62330000D01*
X82039000Y-62330000D02*
X82660000Y-62330000D01*
X79082500Y-61230000D02*
X79738751Y-61230000D01*
X79738751Y-61230000D02*
X79763751Y-61205000D01*
X79763751Y-61205000D02*
X80218512Y-61205000D01*
X80893512Y-61880000D02*
X81589000Y-61880000D01*
X80218512Y-61205000D02*
X80893512Y-61880000D01*
%TO.N,/USB_SP_D_N*%
X85281512Y-61880000D02*
X85906512Y-62505000D01*
X85906512Y-62505000D02*
X87582499Y-62505000D01*
X84314000Y-62330000D02*
X84764000Y-61880000D01*
X83680000Y-62330000D02*
X84314000Y-62330000D01*
X87944999Y-62867500D02*
X88320000Y-62867500D01*
X87582499Y-62505000D02*
X87944999Y-62867500D01*
X84764000Y-61880000D02*
X85281512Y-61880000D01*
%TO.N,Net-(C42-Pad1)*%
X97670000Y-47561000D02*
X97670000Y-48821000D01*
%TO.N,/USBPD_SINK_G*%
X97583000Y-51329000D02*
X97582000Y-51328000D01*
X97670000Y-49841000D02*
X96308000Y-49841000D01*
X97583000Y-52579000D02*
X97583000Y-51329000D01*
X96147000Y-49680000D02*
X96147000Y-49232000D01*
X96308000Y-49841000D02*
X96147000Y-49680000D01*
X97582000Y-51328000D02*
X97582000Y-49929000D01*
X97582000Y-49929000D02*
X97670000Y-49841000D01*
%TO.N,+1V1*%
D65*
X81440000Y-63580000D02*
X80498000Y-63580000D01*
X81562000Y-59830000D02*
X80994000Y-60398000D01*
X72207500Y-60430000D02*
X73000000Y-60430000D01*
X81690000Y-59830000D02*
X81562000Y-59830000D01*
X79082500Y-61630000D02*
X78140000Y-61630000D01*
X80498000Y-63580000D02*
X80492000Y-63574000D01*
X79082500Y-59630000D02*
X78090000Y-59630000D01*
X72170000Y-63918000D02*
X72168000Y-63916000D01*
X73000000Y-60430000D02*
X73220000Y-60650000D01*
X72170000Y-64850000D02*
X72170000Y-63918000D01*
%TO.N,/5V0_DCDC_SW*%
X49920000Y-67835000D02*
X49915000Y-67830000D01*
D68*
X47145000Y-69175000D02*
X47145000Y-67895000D01*
D65*
X47031000Y-67080000D02*
X47034000Y-67083000D01*
D68*
X49920000Y-69430000D02*
X49920000Y-67835000D01*
D67*
X45707500Y-67080000D02*
X47031000Y-67080000D01*
D65*
X47145000Y-67895000D02*
X47147000Y-67893000D01*
%TO.N,/DCDC_5VOUT*%
X52285000Y-77328000D02*
X52286000Y-77329000D01*
X65660000Y-72776000D02*
X65658000Y-72778000D01*
D66*
X49919000Y-77328000D02*
X52285000Y-77328000D01*
D69*
X69570000Y-71705000D02*
X69570000Y-72680000D01*
D65*
X65660000Y-72080000D02*
X65660000Y-72776000D01*
D69*
X69570000Y-72680000D02*
X69170000Y-73080000D01*
%TO.N,+3.3VA*%
D66*
X81440000Y-64830000D02*
X80269000Y-64830000D01*
X79082500Y-62430000D02*
X79082500Y-63257500D01*
D65*
X79935000Y-66308000D02*
X79936000Y-66307000D01*
X80269000Y-64830000D02*
X80267000Y-64832000D01*
X79082500Y-63257500D02*
X79088000Y-63263000D01*
D67*
X79935000Y-67580000D02*
X79935000Y-66308000D01*
%TO.N,/USBPD_CC1*%
D65*
X97448000Y-61082000D02*
X97446000Y-61080000D01*
X84608000Y-47330000D02*
X85706500Y-47330000D01*
X85706500Y-47330000D02*
X85707500Y-47331000D01*
X98639000Y-61082000D02*
X97448000Y-61082000D01*
X85707500Y-47831000D02*
X85707500Y-47331000D01*
X83649000Y-47330000D02*
X84608000Y-47330000D01*
%TO.N,/USBPD_CC2*%
X83647000Y-49328000D02*
X84619000Y-49328000D01*
X85707500Y-49331000D02*
X85707500Y-48831000D01*
X98639000Y-58082000D02*
X95006000Y-58082000D01*
X85704500Y-49328000D02*
X85707500Y-49331000D01*
X95006000Y-58082000D02*
X94975000Y-58051000D01*
X84619000Y-49328000D02*
X85704500Y-49328000D01*
%TO.N,USBPD_RST*%
X77845000Y-62365000D02*
X77600000Y-62120000D01*
X83680000Y-50581000D02*
X83680000Y-51384000D01*
X77920000Y-58910000D02*
X77920000Y-57640000D01*
X83680000Y-51384000D02*
X83679000Y-51385000D01*
X85127000Y-49831000D02*
X84377000Y-50581000D01*
X84377000Y-50581000D02*
X83680000Y-50581000D01*
X85707500Y-49831000D02*
X85127000Y-49831000D01*
X77600000Y-59230000D02*
X77920000Y-58910000D01*
X77845000Y-63267500D02*
X77845000Y-62365000D01*
X77600000Y-62120000D02*
X77600000Y-59230000D01*
%TO.N,/USBPD.SCL*%
X86420000Y-51840000D02*
X85682000Y-52578000D01*
X81043000Y-51448000D02*
X82920000Y-53325000D01*
X77971000Y-51448000D02*
X81043000Y-51448000D01*
X86420000Y-50543500D02*
X86420000Y-51840000D01*
X84935000Y-53325000D02*
X85682000Y-52578000D01*
X82920000Y-53325000D02*
X84935000Y-53325000D01*
X76645000Y-56392500D02*
X76645000Y-52774000D01*
X76645000Y-52774000D02*
X77971000Y-51448000D01*
%TO.N,/USBPD.SDA*%
X87161000Y-52579000D02*
X87158000Y-52576000D01*
X87161000Y-52581000D02*
X87161000Y-52579000D01*
X87161000Y-52581000D02*
X87161000Y-51873000D01*
X78124000Y-51799000D02*
X80905000Y-51799000D01*
X80905000Y-51799000D02*
X82771000Y-53665000D01*
X86920000Y-51632000D02*
X86920000Y-50543500D01*
X87161000Y-51873000D02*
X86920000Y-51632000D01*
X77045000Y-52878000D02*
X78124000Y-51799000D01*
X77045000Y-56392500D02*
X77045000Y-52878000D01*
X82771000Y-53665000D02*
X86091000Y-53665000D01*
X87161000Y-52595000D02*
X87161000Y-52581000D01*
X86091000Y-53665000D02*
X87161000Y-52595000D01*
%TO.N,/USBPD_DISCH*%
X91857000Y-47592000D02*
X91855000Y-47594000D01*
X87769319Y-51855000D02*
X89945000Y-51855000D01*
X87420000Y-51505681D02*
X87769319Y-51855000D01*
X89945000Y-51855000D02*
X89947000Y-51857000D01*
X87420000Y-50543500D02*
X87420000Y-51505681D01*
X92669000Y-47592000D02*
X91857000Y-47592000D01*
%TO.N,/USBPD_POK3*%
X80424000Y-44586000D02*
X80424000Y-45450000D01*
X80424000Y-45450000D02*
X80422000Y-45452000D01*
X89632500Y-49331000D02*
X90441000Y-49331000D01*
X90441000Y-49331000D02*
X90447000Y-49325000D01*
%TO.N,/USBPD_VBUS_EN_SNK*%
D66*
X96562000Y-50595000D02*
X96561000Y-50594000D01*
D65*
X89632500Y-48331000D02*
X90471000Y-48331000D01*
X91673000Y-49533000D02*
X91673000Y-51751000D01*
D66*
X96562000Y-51328000D02*
X96562000Y-50595000D01*
D65*
X90471000Y-48331000D02*
X91673000Y-49533000D01*
%TO.N,/USBPD.~{INT}*%
X89204000Y-45675000D02*
X89672000Y-45675000D01*
X89669000Y-45672000D02*
X89672000Y-45675000D01*
X89669000Y-44841000D02*
X89669000Y-45672000D01*
X76245000Y-51280000D02*
X78995000Y-48530000D01*
X88920000Y-45959000D02*
X89204000Y-45675000D01*
X88920000Y-46618500D02*
X88920000Y-45959000D01*
X76245000Y-56392500D02*
X76245000Y-51280000D01*
%TO.N,/USBPD_POK2*%
X81770000Y-45456000D02*
X81774000Y-45460000D01*
X88420000Y-46618500D02*
X88420000Y-45632000D01*
X88420000Y-45632000D02*
X88418000Y-45630000D01*
X81770000Y-44586000D02*
X81770000Y-45456000D01*
%TO.N,/USBPD_VREG_1V2*%
X87920000Y-46618500D02*
X87920000Y-45310000D01*
X87920000Y-45310000D02*
X88420000Y-44810000D01*
%TO.N,/USBPD_VREG_2V7*%
X87420000Y-45603000D02*
X87420000Y-44810000D01*
X86920000Y-46103000D02*
X87420000Y-45603000D01*
X86920000Y-46618500D02*
X86920000Y-46103000D01*
%TO.N,/A4*%
X88917000Y-79526000D02*
X88917000Y-78590000D01*
X89669000Y-80278000D02*
X88917000Y-79526000D01*
X87671000Y-78590000D02*
X88917000Y-78590000D01*
X96118000Y-80278000D02*
X89669000Y-80278000D01*
X98380000Y-82540000D02*
X96118000Y-80278000D01*
%TO.N,/USB_R_D_P*%
D66*
X81038488Y-61530000D02*
X81575000Y-61530000D01*
X82024000Y-61081000D02*
X82178999Y-61081000D01*
X82179999Y-61080000D02*
X82660000Y-61080000D01*
X81575000Y-61530000D02*
X82024000Y-61081000D01*
X79082500Y-60830000D02*
X79738751Y-60830000D01*
X79738751Y-60830000D02*
X79763751Y-60855000D01*
X80363488Y-60855000D02*
X81038488Y-61530000D01*
X82178999Y-61081000D02*
X82179999Y-61080000D01*
X79763751Y-60855000D02*
X80363488Y-60855000D01*
%TO.N,/USB_SP_D_P*%
X83680000Y-61080000D02*
X84308000Y-61080000D01*
X87582499Y-62155000D02*
X87944999Y-61792500D01*
X86051488Y-62155000D02*
X87582499Y-62155000D01*
X84308000Y-61080000D02*
X84758000Y-61530000D01*
X87944999Y-61792500D02*
X88320000Y-61792500D01*
X85426488Y-61530000D02*
X86051488Y-62155000D01*
X84758000Y-61530000D02*
X85426488Y-61530000D01*
%TO.N,Net-(D7-K)*%
D65*
X79880000Y-43566000D02*
X79731500Y-43714500D01*
X79731500Y-43714500D02*
X79154000Y-43714500D01*
X80424000Y-43566000D02*
X79880000Y-43566000D01*
%TO.N,/3V3_DCDC_SS*%
D66*
X43170000Y-52463000D02*
X42389000Y-51682000D01*
X43170000Y-53292500D02*
X43170000Y-52463000D01*
D65*
X43132500Y-53330000D02*
X43170000Y-53292500D01*
D66*
X42389000Y-51682000D02*
X42380000Y-51682000D01*
X41947000Y-50737000D02*
X41945000Y-50735000D01*
D67*
X40920000Y-53330000D02*
X43132500Y-53330000D01*
D66*
X41947000Y-51249000D02*
X41947000Y-50737000D01*
X42380000Y-51682000D02*
X41947000Y-51249000D01*
%TO.N,/Net-(C1-Pad1)*%
D65*
X40920000Y-56456000D02*
X40921000Y-56457000D01*
X40920000Y-55330000D02*
X40920000Y-56456000D01*
%TO.N,/PMUX_OV2*%
X65660000Y-68827000D02*
X65660000Y-68330000D01*
X66680000Y-69057000D02*
X66578000Y-68955000D01*
X65788000Y-68955000D02*
X65660000Y-68827000D01*
X66578000Y-68955000D02*
X65788000Y-68955000D01*
X66680000Y-69580000D02*
X66680000Y-69057000D01*
X67917000Y-70830000D02*
X66680000Y-69593000D01*
X66680000Y-69593000D02*
X66680000Y-69580000D01*
X68770000Y-70830000D02*
X67917000Y-70830000D01*
%TO.N,/PMUX_OV1*%
X68770000Y-71330000D02*
X67895000Y-71330000D01*
X67395000Y-70830000D02*
X66680000Y-70830000D01*
X67895000Y-71330000D02*
X67395000Y-70830000D01*
X66680000Y-70830000D02*
X66680000Y-72080000D01*
%TO.N,/PMUX_LIM*%
X72420000Y-73070000D02*
X72420000Y-71664319D01*
X72085681Y-71330000D02*
X71070000Y-71330000D01*
X72420000Y-71664319D02*
X72085681Y-71330000D01*
%TO.N,/3V3_DCDC_COMP*%
D66*
X46895000Y-49465000D02*
X45684000Y-49465000D01*
X45684000Y-49465000D02*
X45424000Y-49725000D01*
X45424000Y-50015000D02*
X45420000Y-50019000D01*
X45420000Y-50019000D02*
X45420000Y-53292500D01*
X45424000Y-49725000D02*
X45424000Y-50015000D01*
%TO.N,/USB_D_P*%
X97701499Y-60157000D02*
X97776499Y-60082000D01*
X91016500Y-61792500D02*
X91379000Y-62155000D01*
X94844000Y-62155000D02*
X96842000Y-60157000D01*
X97026000Y-58983000D02*
X96591160Y-58983000D01*
X97701499Y-59157000D02*
X97200000Y-59157000D01*
X97776499Y-60082000D02*
X98639000Y-60082000D01*
X99501501Y-60082000D02*
X99502501Y-60081000D01*
X99502501Y-60081000D02*
X99553000Y-60081000D01*
X99651000Y-59983000D02*
X100078000Y-59983000D01*
X97776499Y-59082000D02*
X97701499Y-59157000D01*
X96591160Y-58983000D02*
X96590160Y-58982000D01*
X98639000Y-59082000D02*
X97776499Y-59082000D01*
X99553000Y-60081000D02*
X99651000Y-59983000D01*
X91379000Y-62155000D02*
X94844000Y-62155000D01*
X90020000Y-61792500D02*
X91016500Y-61792500D01*
X96842000Y-60157000D02*
X97701499Y-60157000D01*
X97200000Y-59157000D02*
X97026000Y-58983000D01*
X100078000Y-59983000D02*
X100079000Y-59982000D01*
X98639000Y-60082000D02*
X99501501Y-60082000D01*
%TO.N,/USB_D_N*%
X90020000Y-62867500D02*
X90999500Y-62867500D01*
X99650000Y-60679000D02*
X99651000Y-60678000D01*
X96602160Y-59670000D02*
X96590160Y-59682000D01*
X98639000Y-60582000D02*
X99553000Y-60582000D01*
X97776499Y-59582000D02*
X97701499Y-59507000D01*
X98639000Y-59582000D02*
X97776499Y-59582000D01*
X94988975Y-62505000D02*
X96986974Y-60507000D01*
X97029000Y-59670000D02*
X96602160Y-59670000D01*
X91362000Y-62505000D02*
X94988975Y-62505000D01*
X97701499Y-60507000D02*
X97776499Y-60582000D01*
X97776499Y-60582000D02*
X98639000Y-60582000D01*
X97701499Y-59507000D02*
X97192000Y-59507000D01*
X100075000Y-60678000D02*
X100079000Y-60682000D01*
X96986974Y-60507000D02*
X97701499Y-60507000D01*
X99651000Y-60678000D02*
X100075000Y-60678000D01*
X97192000Y-59507000D02*
X97029000Y-59670000D01*
X99553000Y-60582000D02*
X99650000Y-60679000D01*
X90999500Y-62867500D02*
X91362000Y-62505000D01*
%TO.N,GNDPWR*%
D65*
X103144000Y-63065000D02*
X103143000Y-63064000D01*
D70*
X103144000Y-64942000D02*
X103144000Y-63065000D01*
%TO.N,/5V0_DCDC_BOOST*%
D67*
X42195000Y-67557000D02*
X42672000Y-67080000D01*
X42195000Y-69175000D02*
X42195000Y-67557000D01*
X42672000Y-67080000D02*
X43632500Y-67080000D01*
%TO.N,/5V_ENA*%
D66*
X40615000Y-71715000D02*
X40483000Y-71583000D01*
X42195000Y-71715000D02*
X40615000Y-71715000D01*
X39170000Y-71583000D02*
X39170000Y-69583000D01*
X40483000Y-71583000D02*
X39170000Y-71583000D01*
%TO.N,/D0*%
D65*
X77495000Y-54983000D02*
X77496000Y-54983000D01*
X93694000Y-41506000D02*
X79350000Y-41506000D01*
X77445000Y-55033000D02*
X77495000Y-54983000D01*
X77546000Y-53580000D02*
X77545000Y-53579000D01*
X77445000Y-56392500D02*
X77445000Y-55033000D01*
X77293000Y-43563000D02*
X77293000Y-44482000D01*
X79350000Y-41506000D02*
X77293000Y-43563000D01*
X77546000Y-54933000D02*
X77546000Y-53580000D01*
X77496000Y-54983000D02*
X77546000Y-54933000D01*
X100920000Y-34280000D02*
X93694000Y-41506000D01*
%TO.N,/D1*%
X79349000Y-40680000D02*
X76693000Y-43336000D01*
X77845000Y-55596000D02*
X77920000Y-55521000D01*
X76693000Y-43336000D02*
X76693000Y-46832000D01*
X91980000Y-40680000D02*
X79349000Y-40680000D01*
X77845000Y-56392500D02*
X77845000Y-55596000D01*
X98380000Y-34280000D02*
X91980000Y-40680000D01*
%TO.N,/D2*%
X75445000Y-55369000D02*
X75588000Y-55226000D01*
X76187000Y-43114000D02*
X79548000Y-39753000D01*
X75445000Y-56392500D02*
X75445000Y-55369000D01*
X76187000Y-49497000D02*
X76187000Y-43114000D01*
X79548000Y-39753000D02*
X90367000Y-39753000D01*
X75588000Y-50096000D02*
X76187000Y-49497000D01*
X75588000Y-55226000D02*
X75588000Y-50096000D01*
X90367000Y-39753000D02*
X95840000Y-34280000D01*
%TO.N,/D3*%
X75722000Y-48833000D02*
X75722000Y-42925000D01*
X75269000Y-55112681D02*
X75269000Y-49286000D01*
X75269000Y-49286000D02*
X75722000Y-48833000D01*
X79722000Y-38925000D02*
X88655000Y-38925000D01*
X75045000Y-56392500D02*
X75045000Y-55336681D01*
X75045000Y-55336681D02*
X75269000Y-55112681D01*
X88655000Y-38925000D02*
X93300000Y-34280000D01*
X75722000Y-42925000D02*
X79722000Y-38925000D01*
%TO.N,/D4*%
X75352000Y-42643000D02*
X80137000Y-37858000D01*
X75352000Y-48356000D02*
X75352000Y-42643000D01*
X87182000Y-37858000D02*
X90760000Y-34280000D01*
X74106000Y-55318000D02*
X74106000Y-49602000D01*
X74106000Y-49602000D02*
X75352000Y-48356000D01*
X80137000Y-37858000D02*
X87182000Y-37858000D01*
X74245000Y-56392500D02*
X74245000Y-55457000D01*
X74245000Y-55457000D02*
X74106000Y-55318000D01*
%TO.N,/D6*%
X73445000Y-48768000D02*
X74519000Y-47694000D01*
X74519000Y-41928000D02*
X80696000Y-35751000D01*
X80696000Y-35751000D02*
X84209000Y-35751000D01*
X73445000Y-56392500D02*
X73445000Y-48768000D01*
X74519000Y-47694000D02*
X74519000Y-41928000D01*
X84209000Y-35751000D02*
X85680000Y-34280000D01*
%TO.N,/D7*%
X70047000Y-57303000D02*
X70047000Y-38967000D01*
X70047000Y-38967000D02*
X67773000Y-36693000D01*
X71174000Y-58430000D02*
X70047000Y-57303000D01*
X72207500Y-58430000D02*
X71174000Y-58430000D01*
%TO.N,Net-(D6-K)*%
X82307000Y-43566000D02*
X81770000Y-43566000D01*
X82454000Y-43713000D02*
X82307000Y-43566000D01*
X82911000Y-43713000D02*
X82454000Y-43713000D01*
%TO.N,/D8*%
X73934000Y-46346000D02*
X73077000Y-47203000D01*
X79080000Y-35806000D02*
X73934000Y-40952000D01*
X79080000Y-34280000D02*
X79080000Y-35806000D01*
X71077000Y-62030000D02*
X70996000Y-62111000D01*
X72207500Y-62030000D02*
X71077000Y-62030000D01*
X73934000Y-40952000D02*
X73934000Y-46346000D01*
%TO.N,/D9*%
X76540000Y-34280000D02*
X76540000Y-35899000D01*
X71027000Y-63031000D02*
X71018000Y-63031000D01*
X76540000Y-35899000D02*
X73078000Y-39361000D01*
X71628000Y-62430000D02*
X71027000Y-63031000D01*
X73078000Y-39361000D02*
X73078000Y-44124000D01*
X72207500Y-62430000D02*
X71628000Y-62430000D01*
%TO.N,/D10*%
X71495000Y-57630000D02*
X71019000Y-57154000D01*
X71019000Y-37804000D02*
X70095000Y-36880000D01*
X71019000Y-57154000D02*
X71019000Y-37804000D01*
X72207500Y-57630000D02*
X71495000Y-57630000D01*
%TO.N,/D11*%
X72132000Y-50430000D02*
X72132000Y-36254000D01*
X73045000Y-56392500D02*
X73045000Y-51343000D01*
X73045000Y-51343000D02*
X72132000Y-50430000D01*
X71460000Y-35582000D02*
X71460000Y-34280000D01*
X72132000Y-36254000D02*
X71460000Y-35582000D01*
%TO.N,/D12*%
X71598000Y-57230000D02*
X71317000Y-56949000D01*
X71311000Y-56774000D02*
X71311000Y-36671000D01*
X72207500Y-57230000D02*
X71598000Y-57230000D01*
X71317000Y-56780000D02*
X71311000Y-56774000D01*
X71311000Y-36671000D02*
X68920000Y-34280000D01*
X71317000Y-56949000D02*
X71317000Y-56780000D01*
%TO.N,/D13*%
X72207500Y-58030000D02*
X71298000Y-58030000D01*
X71298000Y-58030000D02*
X70641000Y-57373000D01*
X70641000Y-38541000D02*
X66380000Y-34280000D01*
X70641000Y-57373000D02*
X70641000Y-38541000D01*
%TO.N,/AREF*%
D68*
X90720000Y-69767500D02*
X90720000Y-72030000D01*
D69*
X89822500Y-69767500D02*
X89497500Y-69442500D01*
D68*
X65353000Y-35842000D02*
X68509000Y-38998000D01*
D65*
X90632500Y-72117500D02*
X90670000Y-72080000D01*
D68*
X90632500Y-74580000D02*
X90632500Y-72117500D01*
D65*
X90720000Y-68525000D02*
X90719000Y-68524000D01*
D68*
X61300000Y-34280000D02*
X62862000Y-35842000D01*
X62862000Y-35842000D02*
X65353000Y-35842000D01*
X90720000Y-69767500D02*
X90720000Y-68525000D01*
D69*
X89497500Y-69442500D02*
X88642500Y-69442500D01*
D65*
X90720000Y-72030000D02*
X90670000Y-72080000D01*
D68*
X68509000Y-38998000D02*
X68509000Y-47540000D01*
D69*
X90720000Y-69767500D02*
X89822500Y-69767500D01*
%TO.N,/D18*%
D65*
X64909000Y-37007000D02*
X67072000Y-39170000D01*
X76051000Y-64413000D02*
X76051000Y-64852000D01*
X75845000Y-63267500D02*
X75845000Y-64207000D01*
X67072000Y-48406000D02*
X69346000Y-50680000D01*
X61487000Y-37007000D02*
X64909000Y-37007000D01*
X67072000Y-39170000D02*
X67072000Y-48406000D01*
X58760000Y-34280000D02*
X61487000Y-37007000D01*
X75845000Y-64207000D02*
X76051000Y-64413000D01*
%TO.N,/D19*%
X56220000Y-34280000D02*
X59437000Y-37497000D01*
X76521000Y-64383000D02*
X76521000Y-65337537D01*
X66515000Y-39541000D02*
X66515000Y-49165000D01*
X66515000Y-49165000D02*
X68835000Y-51485000D01*
X76245000Y-63267500D02*
X76245000Y-64107000D01*
X76521000Y-65337537D02*
X76474557Y-65383980D01*
X76245000Y-64107000D02*
X76521000Y-64383000D01*
X68835000Y-51485000D02*
X68845000Y-51485000D01*
X59437000Y-37497000D02*
X64471000Y-37497000D01*
X64471000Y-37497000D02*
X66515000Y-39541000D01*
%TO.N,/5V0_DCDC_SS*%
D66*
X42195000Y-73497000D02*
X42195000Y-72985000D01*
X43171000Y-75293500D02*
X43171000Y-74473000D01*
X40920000Y-75329000D02*
X43135500Y-75329000D01*
D65*
X43135500Y-75329000D02*
X43171000Y-75293500D01*
D66*
X43171000Y-74473000D02*
X42195000Y-73497000D01*
%TO.N,/Net-(C2-Pad1)*%
D65*
X40920000Y-78579000D02*
X40925000Y-78584000D01*
X40920000Y-77329000D02*
X40920000Y-78579000D01*
%TO.N,/CPU_XOUT*%
X72207500Y-59630000D02*
X72206500Y-59631000D01*
X69969000Y-59631000D02*
X69020000Y-60580000D01*
X72206500Y-59631000D02*
X69969000Y-59631000D01*
X68675000Y-60925000D02*
X69020000Y-60580000D01*
X68675000Y-62280000D02*
X68675000Y-60925000D01*
%TO.N,/A5*%
X100920000Y-82540000D02*
X98332000Y-79952000D01*
X93333000Y-79952000D02*
X92670000Y-79289000D01*
X92670000Y-79289000D02*
X92670000Y-78590000D01*
X98332000Y-79952000D02*
X93333000Y-79952000D01*
X91421000Y-78590000D02*
X92670000Y-78590000D01*
%TO.N,/VBUS_LED*%
D67*
X41945000Y-83080000D02*
X41945000Y-81543000D01*
%TO.N,/AIN0_A3*%
D65*
X85172000Y-76941000D02*
X84197500Y-75966500D01*
X85172000Y-77570000D02*
X85172000Y-76941000D01*
X85202000Y-77600000D02*
X85172000Y-77570000D01*
X86420000Y-77600000D02*
X85202000Y-77600000D01*
X84197500Y-75966500D02*
X84197500Y-74717500D01*
%TO.N,/AIN1_A4*%
X88301000Y-76287000D02*
X87866681Y-76287000D01*
X87476319Y-76286000D02*
X87475319Y-76287000D01*
X84832500Y-75655500D02*
X84832500Y-74717500D01*
X88917000Y-77570000D02*
X88917000Y-76903000D01*
X88917000Y-76903000D02*
X88301000Y-76287000D01*
X87866681Y-76287000D02*
X87865681Y-76286000D01*
X90142000Y-77570000D02*
X90172000Y-77600000D01*
X85464000Y-76287000D02*
X84832500Y-75655500D01*
X87865681Y-76286000D02*
X87476319Y-76286000D01*
X88917000Y-77570000D02*
X90142000Y-77570000D01*
X87475319Y-76287000D02*
X85464000Y-76287000D01*
%TO.N,/AIN3_VBUS*%
X95170000Y-76758000D02*
X95168000Y-76756000D01*
X95170000Y-77570000D02*
X95170000Y-76758000D01*
X86102500Y-73281500D02*
X86100000Y-73279000D01*
X96418000Y-77600000D02*
X95200000Y-77600000D01*
X86102500Y-74717500D02*
X86102500Y-73281500D01*
X95200000Y-77600000D02*
X95170000Y-77570000D01*
%TO.N,/ADC.~{CNVST}*%
X73045000Y-63267500D02*
X73045000Y-68622000D01*
X75149000Y-70726000D02*
X75950000Y-70726000D01*
X88642500Y-74717500D02*
X88642500Y-72826500D01*
X88642500Y-72826500D02*
X88027000Y-72211000D01*
X73045000Y-68622000D02*
X75149000Y-70726000D01*
X88027000Y-72211000D02*
X86522000Y-72211000D01*
%TO.N,/ADC.~{CS}*%
X74047000Y-64203000D02*
X74047000Y-67533000D01*
X74245000Y-63267500D02*
X74245000Y-64005000D01*
X86737500Y-69442500D02*
X86737500Y-70968500D01*
X74245000Y-64005000D02*
X74047000Y-64203000D01*
X86737500Y-70968500D02*
X86748000Y-70979000D01*
X74047000Y-67533000D02*
X74408000Y-67894000D01*
%TO.N,/ADC.SCK*%
X75045000Y-63267500D02*
X75053000Y-63275500D01*
X75321000Y-64327000D02*
X75321000Y-67428000D01*
X75053000Y-63275500D02*
X75053000Y-64059000D01*
X86102500Y-69442500D02*
X86102500Y-67999500D01*
X86102500Y-67999500D02*
X86100000Y-67997000D01*
X75053000Y-64059000D02*
X75321000Y-64327000D01*
%TO.N,/ADC.MOSI*%
X75581000Y-64079000D02*
X75581000Y-65372000D01*
X84938000Y-66914000D02*
X84938000Y-67513000D01*
X85467500Y-68042500D02*
X84938000Y-67513000D01*
X75445000Y-63267500D02*
X75445000Y-63943000D01*
X75581000Y-65372000D02*
X75949000Y-65740000D01*
X84354000Y-66330000D02*
X84938000Y-66914000D01*
X85467500Y-69442500D02*
X85467500Y-68042500D01*
X83680000Y-66330000D02*
X84354000Y-66330000D01*
X75949000Y-65740000D02*
X75949000Y-66954000D01*
X75445000Y-63943000D02*
X75581000Y-64079000D01*
%TO.N,/ADC.~{EOC}*%
X73445000Y-68353000D02*
X74896000Y-69804000D01*
X73445000Y-63267500D02*
X73445000Y-68353000D01*
X84197500Y-70968500D02*
X84197000Y-70969000D01*
X84197500Y-69442500D02*
X84197500Y-70968500D01*
X74896000Y-69804000D02*
X75344000Y-69804000D01*
%TO.N,/VBUS_MONITOR*%
X95170000Y-78590000D02*
X95170000Y-79441000D01*
X82170000Y-72080000D02*
X82170000Y-74330000D01*
X82170000Y-74330000D02*
X82170000Y-75575000D01*
X82170000Y-75575000D02*
X82164000Y-75581000D01*
X95170000Y-79441000D02*
X95177000Y-79448000D01*
X82207500Y-72042500D02*
X82170000Y-72080000D01*
X82207500Y-69830000D02*
X82207500Y-72042500D01*
%TO.N,/5V0_DCDC_FB*%
X49917000Y-75330000D02*
X49919000Y-75328000D01*
D66*
X47669000Y-74074000D02*
X47145000Y-73550000D01*
X47145000Y-73550000D02*
X47145000Y-72985000D01*
X47669000Y-75330000D02*
X47669000Y-74074000D01*
X47669000Y-75330000D02*
X49917000Y-75330000D01*
%TO.N,/5V0_DCDC_COMP*%
X45420000Y-72083000D02*
X45788000Y-71715000D01*
X45788000Y-71715000D02*
X47145000Y-71715000D01*
X45420000Y-75292500D02*
X45420000Y-72083000D01*
%TO.N,/XIP_~{CS}*%
D65*
X93747000Y-59993000D02*
X93924000Y-59816000D01*
X93924000Y-59816000D02*
X93924000Y-59090000D01*
X79950000Y-57002000D02*
X80345000Y-57002000D01*
X92867000Y-59989000D02*
X92871000Y-59993000D01*
X79722000Y-57230000D02*
X79950000Y-57002000D01*
X91887000Y-59989000D02*
X92867000Y-59989000D01*
X79082500Y-57230000D02*
X79722000Y-57230000D01*
X92871000Y-59993000D02*
X93747000Y-59993000D01*
%TO.N,/XIP_SD1*%
X92854000Y-58719000D02*
X92882000Y-58691000D01*
X79082500Y-57630000D02*
X80381681Y-57630000D01*
X80381681Y-57630000D02*
X81077681Y-56934000D01*
X91887000Y-58719000D02*
X92854000Y-58719000D01*
X81077681Y-56934000D02*
X82072000Y-56934000D01*
%TO.N,/XIP_SD2*%
X82593000Y-57405000D02*
X82795000Y-57203000D01*
X79082500Y-58030000D02*
X80499000Y-58030000D01*
X81124000Y-57405000D02*
X82593000Y-57405000D01*
X80499000Y-58030000D02*
X81124000Y-57405000D01*
X82795000Y-57203000D02*
X84615000Y-57203000D01*
X91887000Y-57449000D02*
X92896000Y-57449000D01*
X92896000Y-57449000D02*
X92901000Y-57454000D01*
X84615000Y-57203000D02*
X84622000Y-57196000D01*
%TO.N,/XIP_SD0*%
X85521000Y-56541000D02*
X85883000Y-56179000D01*
X81372000Y-57716000D02*
X84845000Y-57716000D01*
X84845000Y-57716000D02*
X85521000Y-57040000D01*
X85521000Y-57040000D02*
X85521000Y-56541000D01*
X80658000Y-58430000D02*
X81372000Y-57716000D01*
X79082500Y-58430000D02*
X80658000Y-58430000D01*
X85883000Y-56179000D02*
X86487000Y-56179000D01*
%TO.N,/XIP_SCK*%
X85304000Y-58021000D02*
X85876000Y-57449000D01*
X80835000Y-58830000D02*
X81644000Y-58021000D01*
X85876000Y-57449000D02*
X86487000Y-57449000D01*
X81644000Y-58021000D02*
X85304000Y-58021000D01*
X79082500Y-58830000D02*
X80835000Y-58830000D01*
%TO.N,/XIP_SD3*%
X85826000Y-58719000D02*
X86487000Y-58719000D01*
X79082500Y-59230000D02*
X85315000Y-59230000D01*
X85315000Y-59230000D02*
X85826000Y-58719000D01*
%TO.N,/A0*%
X85295000Y-80832000D02*
X87003000Y-82540000D01*
X76645000Y-63267500D02*
X76645000Y-64003000D01*
X76947000Y-66484000D02*
X76495000Y-66936000D01*
X76947000Y-64305000D02*
X76947000Y-66484000D01*
X76645000Y-64003000D02*
X76947000Y-64305000D01*
X76495000Y-66936000D02*
X76495000Y-74939000D01*
X82388000Y-80832000D02*
X85295000Y-80832000D01*
X76495000Y-74939000D02*
X82388000Y-80832000D01*
X87003000Y-82540000D02*
X88220000Y-82540000D01*
%TO.N,/A1*%
X90760000Y-82540000D02*
X89549000Y-81329000D01*
X77309000Y-64298000D02*
X77045000Y-64034000D01*
X77045000Y-67068000D02*
X77309000Y-66804000D01*
X77045000Y-74519000D02*
X77045000Y-67068000D01*
X89549000Y-81329000D02*
X86414000Y-81329000D01*
X77045000Y-64034000D02*
X77045000Y-63267500D01*
X83052000Y-80526000D02*
X77045000Y-74519000D01*
X85611000Y-80526000D02*
X83052000Y-80526000D01*
X86414000Y-81329000D02*
X85611000Y-80526000D01*
X77309000Y-66804000D02*
X77309000Y-64298000D01*
%TO.N,/A2*%
X83623000Y-80235000D02*
X77627000Y-74239000D01*
X93300000Y-82540000D02*
X91731000Y-80971000D01*
X91731000Y-80971000D02*
X86643000Y-80971000D01*
X86643000Y-80971000D02*
X85907000Y-80235000D01*
X85907000Y-80235000D02*
X83623000Y-80235000D01*
X77627000Y-74239000D02*
X77627000Y-64147000D01*
X77627000Y-64147000D02*
X77445000Y-63965000D01*
X77445000Y-63965000D02*
X77445000Y-63267500D01*
%TO.N,/A3*%
X86823000Y-80648000D02*
X85961000Y-79786000D01*
X85546000Y-79786000D02*
X85172000Y-79412000D01*
X93948000Y-80648000D02*
X86823000Y-80648000D01*
X83918000Y-78590000D02*
X85172000Y-78590000D01*
X85961000Y-79786000D02*
X85546000Y-79786000D01*
X85172000Y-79412000D02*
X85172000Y-78590000D01*
X95840000Y-82540000D02*
X93948000Y-80648000D01*
%TO.N,Net-(D8-A)*%
X103401000Y-48357000D02*
X103425000Y-48333000D01*
X103401000Y-49578000D02*
X103401000Y-48357000D01*
%TO.N,/CPU_XIN*%
X72207500Y-59230000D02*
X70040000Y-59230000D01*
X67624000Y-56871000D02*
X67715000Y-56780000D01*
X70040000Y-59230000D02*
X69889000Y-59381000D01*
X67370000Y-58480000D02*
X67624000Y-58226000D01*
X69889000Y-59381000D02*
X68271000Y-59381000D01*
X68271000Y-59381000D02*
X67370000Y-58480000D01*
X67624000Y-58226000D02*
X67624000Y-56871000D01*
%TO.N,/3V3_DCDC_SW*%
X46895000Y-45180000D02*
X46902000Y-45173000D01*
D68*
X49955000Y-47180000D02*
X49955000Y-45150000D01*
D65*
X46892000Y-44580000D02*
X46893000Y-44579000D01*
D67*
X45457500Y-44580000D02*
X46892000Y-44580000D01*
D65*
X49955000Y-45150000D02*
X49941000Y-45136000D01*
D68*
X46895000Y-46925000D02*
X46895000Y-45180000D01*
%TO.N,/3V3_DCDC_BOOST*%
D66*
X41945000Y-46925000D02*
X41945000Y-45062000D01*
X42427000Y-44580000D02*
X43382500Y-44580000D01*
X41945000Y-45062000D02*
X42427000Y-44580000D01*
%TO.N,/3V3_ENA*%
X41945000Y-49465000D02*
X39283000Y-49465000D01*
X39170000Y-47578000D02*
X39170000Y-49578000D01*
D65*
X39283000Y-49465000D02*
X39170000Y-49578000D01*
%TO.N,/BOOTMODE*%
X100064000Y-40830000D02*
X101339000Y-40830000D01*
X101339000Y-40830000D02*
X101340000Y-40829000D01*
X95386000Y-55328000D02*
X97169000Y-55328000D01*
X93924000Y-58070000D02*
X93924000Y-56790000D01*
X93924000Y-56790000D02*
X95386000Y-55328000D01*
%TO.N,/3V3_LED*%
D67*
X47945000Y-83080000D02*
X48965000Y-83080000D01*
D65*
X48965000Y-83080000D02*
X48974000Y-83071000D01*
%TO.N,/LED*%
X101677000Y-48333000D02*
X101673000Y-48329000D01*
X75914000Y-50657000D02*
X79116000Y-47455000D01*
X75840000Y-56387500D02*
X75840000Y-55470000D01*
X75840000Y-55470000D02*
X75914000Y-55396000D01*
X75845000Y-56392500D02*
X75840000Y-56387500D01*
X75914000Y-55396000D02*
X75914000Y-50657000D01*
X102405000Y-48333000D02*
X101677000Y-48333000D01*
%TO.N,/DEBUG_SWCLK*%
X61943000Y-38128000D02*
X47964000Y-38128000D01*
X70839000Y-60830000D02*
X69947000Y-61722000D01*
X72207500Y-60830000D02*
X70839000Y-60830000D01*
X65625000Y-41810000D02*
X61943000Y-38128000D01*
X47964000Y-38128000D02*
X44166000Y-34330000D01*
X65625000Y-62223000D02*
X65625000Y-41810000D01*
X69947000Y-62504000D02*
X69370000Y-63081000D01*
X69947000Y-61722000D02*
X69947000Y-62504000D01*
X66483000Y-63081000D02*
X65625000Y-62223000D01*
X44166000Y-34330000D02*
X42670000Y-34330000D01*
X69370000Y-63081000D02*
X66483000Y-63081000D01*
%TO.N,/DEBUG_SWDIO*%
X72207500Y-61230000D02*
X70806696Y-61230000D01*
X65157000Y-62268000D02*
X65157000Y-42092000D01*
X70207000Y-62761000D02*
X69580000Y-63388000D01*
X45445000Y-36330000D02*
X42670000Y-36330000D01*
X47845000Y-38730000D02*
X45445000Y-36330000D01*
X66277000Y-63388000D02*
X65157000Y-62268000D01*
X69580000Y-63388000D02*
X66277000Y-63388000D01*
X61795000Y-38730000D02*
X47845000Y-38730000D01*
X65157000Y-42092000D02*
X61795000Y-38730000D01*
X70806696Y-61230000D02*
X70207000Y-61829696D01*
X70207000Y-61829696D02*
X70207000Y-62761000D01*
%TD*%
%TA.AperFunction,Conductor*%
%TO.N,/5V0_DCDC_SW*%
G36*
X54859121Y-63350002D02*
G01*
X54905614Y-63403658D01*
X54917000Y-63456000D01*
X54917000Y-65328000D01*
X58041000Y-65328000D01*
X58109121Y-65348002D01*
X58155614Y-65401658D01*
X58167000Y-65454000D01*
X58167000Y-66702000D01*
X58146998Y-66770121D01*
X58093342Y-66816614D01*
X58041000Y-66828000D01*
X54917000Y-66828000D01*
X54917000Y-68875837D01*
X54923956Y-68940531D01*
X54911350Y-69010400D01*
X54862972Y-69062362D01*
X54798678Y-69080000D01*
X52046000Y-69080000D01*
X51977879Y-69059998D01*
X51931386Y-69006342D01*
X51920000Y-68954000D01*
X51920000Y-68080000D01*
X46795000Y-68080000D01*
X46726879Y-68059998D01*
X46680386Y-68006342D01*
X46669000Y-67954000D01*
X46669000Y-63456000D01*
X46689002Y-63387879D01*
X46742658Y-63341386D01*
X46795000Y-63330000D01*
X54791000Y-63330000D01*
X54859121Y-63350002D01*
G37*
%TD.AperFunction*%
%TD*%
%TA.AperFunction,Conductor*%
%TO.N,VBUS*%
G36*
X70068691Y-66601907D02*
G01*
X70104655Y-66651407D01*
X70109500Y-66682000D01*
X70109500Y-67014684D01*
X70112356Y-67050989D01*
X70112358Y-67050996D01*
X70157506Y-67206394D01*
X70159980Y-67212112D01*
X70158543Y-67212733D01*
X70170000Y-67254604D01*
X70170000Y-67286751D01*
X70168098Y-67306065D01*
X70147500Y-67409616D01*
X70147500Y-67562382D01*
X70168098Y-67665933D01*
X70170000Y-67685247D01*
X70170000Y-69337498D01*
X70151093Y-69395689D01*
X70101593Y-69431653D01*
X70083921Y-69435651D01*
X70013241Y-69444955D01*
X70013233Y-69444957D01*
X69867161Y-69505462D01*
X69840809Y-69525682D01*
X69796682Y-69559542D01*
X69739008Y-69579966D01*
X69736416Y-69580000D01*
X68660729Y-69580000D01*
X68602538Y-69561093D01*
X68590725Y-69551003D01*
X68492360Y-69452637D01*
X68492355Y-69452633D01*
X68492352Y-69452630D01*
X68365337Y-69367761D01*
X68365336Y-69367760D01*
X68365334Y-69367759D01*
X68224205Y-69309302D01*
X68074382Y-69279500D01*
X68074380Y-69279500D01*
X67921620Y-69279500D01*
X67921617Y-69279500D01*
X67788314Y-69306016D01*
X67727553Y-69298824D01*
X67682623Y-69257291D01*
X67670000Y-69208918D01*
X67670000Y-66682000D01*
X67688907Y-66623809D01*
X67738407Y-66587845D01*
X67769000Y-66583000D01*
X70010500Y-66583000D01*
X70068691Y-66601907D01*
G37*
%TD.AperFunction*%
%TD*%
%TA.AperFunction,Conductor*%
%TO.N,/+VBUS_SRC*%
G36*
X95616039Y-49848685D02*
G01*
X95661794Y-49901489D01*
X95673000Y-49953000D01*
X95673000Y-54460000D01*
X95653315Y-54527039D01*
X95600511Y-54572794D01*
X95549000Y-54584000D01*
X91294000Y-54584000D01*
X91226961Y-54564315D01*
X91181206Y-54511511D01*
X91170000Y-54460000D01*
X91170000Y-53632362D01*
X91171000Y-53628956D01*
X91171000Y-52454000D01*
X91190685Y-52386961D01*
X91243489Y-52341206D01*
X91295000Y-52330000D01*
X92162000Y-52330000D01*
X92162000Y-50954000D01*
X92181685Y-50886961D01*
X92234489Y-50841206D01*
X92286000Y-50830000D01*
X93170000Y-50830000D01*
X93170000Y-49953000D01*
X93189685Y-49885961D01*
X93242489Y-49840206D01*
X93294000Y-49829000D01*
X95549000Y-49829000D01*
X95616039Y-49848685D01*
G37*
%TD.AperFunction*%
%TD*%
%TA.AperFunction,Conductor*%
%TO.N,VBUS*%
G36*
X98116039Y-43615685D02*
G01*
X98161794Y-43668489D01*
X98173000Y-43720000D01*
X98173000Y-45721000D01*
X98153315Y-45788039D01*
X98100511Y-45833794D01*
X98049000Y-45845000D01*
X92298000Y-45845000D01*
X92230961Y-45825315D01*
X92185206Y-45772511D01*
X92174000Y-45721000D01*
X92174000Y-43720000D01*
X92193685Y-43652961D01*
X92246489Y-43607206D01*
X92298000Y-43596000D01*
X98049000Y-43596000D01*
X98116039Y-43615685D01*
G37*
%TD.AperFunction*%
%TD*%
%TA.AperFunction,Conductor*%
%TO.N,/DCDC_5VOUT*%
G36*
X65938481Y-72585102D02*
G01*
X65957171Y-72590589D01*
X65970899Y-72598908D01*
X65984097Y-72602037D01*
X66012404Y-72624058D01*
X66019334Y-72631250D01*
X66037056Y-72654540D01*
X66038864Y-72657598D01*
X66038881Y-72657616D01*
X66152386Y-72771121D01*
X66152393Y-72771127D01*
X66152396Y-72771130D01*
X66152400Y-72771133D01*
X66152402Y-72771135D01*
X66290607Y-72852869D01*
X66444796Y-72897665D01*
X66480819Y-72900500D01*
X66879180Y-72900499D01*
X66915204Y-72897665D01*
X67069393Y-72852869D01*
X67207598Y-72771135D01*
X67321135Y-72657598D01*
X67321223Y-72657448D01*
X67322021Y-72656454D01*
X67325994Y-72651334D01*
X67326081Y-72651402D01*
X67343680Y-72629500D01*
X67357918Y-72616205D01*
X67414850Y-72585700D01*
X67423591Y-72583628D01*
X67424570Y-72583396D01*
X67453625Y-72580000D01*
X67758904Y-72580000D01*
X67771246Y-72580606D01*
X67783509Y-72581813D01*
X67795740Y-72583626D01*
X67890620Y-72602500D01*
X67890621Y-72602500D01*
X68043375Y-72602500D01*
X68043379Y-72602500D01*
X68043380Y-72602500D01*
X68138261Y-72583626D01*
X68150491Y-72581813D01*
X68162756Y-72580606D01*
X68175096Y-72580000D01*
X69425385Y-72580000D01*
X69460877Y-72585102D01*
X69476121Y-72589578D01*
X69535846Y-72627960D01*
X69535858Y-72627974D01*
X69537063Y-72629365D01*
X69564946Y-72685072D01*
X69566618Y-72692755D01*
X69569500Y-72719548D01*
X69569500Y-72748995D01*
X69591239Y-72858286D01*
X69584911Y-72929000D01*
X69563474Y-72964694D01*
X69554521Y-72975176D01*
X69521632Y-73018146D01*
X69521625Y-73018157D01*
X69458149Y-73147261D01*
X69458145Y-73147270D01*
X69439243Y-73205446D01*
X69434977Y-73219242D01*
X69434976Y-73219244D01*
X69414500Y-73361666D01*
X69414500Y-74454000D01*
X69394498Y-74522121D01*
X69340842Y-74568614D01*
X69288500Y-74580000D01*
X66670000Y-74580000D01*
X66670000Y-80685884D01*
X66669999Y-80685886D01*
X66670000Y-80685887D01*
X66664895Y-80721385D01*
X66660420Y-80736624D01*
X66622035Y-80796350D01*
X66622025Y-80796358D01*
X66620634Y-80797563D01*
X66564931Y-80825446D01*
X66557249Y-80827118D01*
X66530452Y-80830000D01*
X52134757Y-80830000D01*
X52119948Y-80829127D01*
X52115035Y-80828545D01*
X52114037Y-80828347D01*
X52113767Y-80828395D01*
X52106480Y-80827533D01*
X52103454Y-80826241D01*
X52103242Y-80826199D01*
X52090125Y-80824491D01*
X52082858Y-80822636D01*
X52065803Y-80816959D01*
X52014519Y-80795716D01*
X51983679Y-80777418D01*
X51971309Y-80767450D01*
X51960974Y-80752566D01*
X51946865Y-80741195D01*
X51930820Y-80709138D01*
X51930818Y-80709135D01*
X51926445Y-80695997D01*
X51920000Y-80656214D01*
X51920000Y-79417500D01*
X65051388Y-79417500D01*
X65055492Y-79457690D01*
X65110643Y-79624124D01*
X65202678Y-79773337D01*
X65202680Y-79773340D01*
X65202683Y-79773344D01*
X65202688Y-79773350D01*
X65202693Y-79773355D01*
X65202703Y-79773366D01*
X65326632Y-79897295D01*
X65326643Y-79897305D01*
X65326649Y-79897311D01*
X65326655Y-79897316D01*
X65475876Y-79989357D01*
X65475878Y-79989358D01*
X65544999Y-80012261D01*
X65545000Y-80012261D01*
X65545000Y-79417500D01*
X65051388Y-79417500D01*
X51920000Y-79417500D01*
X51920000Y-78875851D01*
X54917000Y-78875851D01*
X54923398Y-78935365D01*
X54923399Y-78935368D01*
X54973648Y-79070091D01*
X54973648Y-79070092D01*
X55059809Y-79185189D01*
X55174906Y-79271350D01*
X55174908Y-79271350D01*
X55174910Y-79271352D01*
X55309628Y-79321599D01*
X55309630Y-79321599D01*
X55309633Y-79321600D01*
X55338380Y-79324690D01*
X55369159Y-79327999D01*
X55369176Y-79328000D01*
X57417000Y-79328000D01*
X58917000Y-79328000D01*
X60964822Y-79328000D01*
X60964824Y-79328000D01*
X60964840Y-79327999D01*
X60989295Y-79325369D01*
X61024365Y-79321600D01*
X61024365Y-79321599D01*
X61024371Y-79321599D01*
X61159088Y-79271352D01*
X61274190Y-79185187D01*
X61360352Y-79070089D01*
X61410599Y-78935371D01*
X61416999Y-78875840D01*
X61417000Y-78875823D01*
X61417000Y-78242497D01*
X65051385Y-78242497D01*
X65051386Y-78242499D01*
X65051387Y-78242499D01*
X65051388Y-78242500D01*
X65545000Y-78242500D01*
X65545000Y-77647737D01*
X65544999Y-77647736D01*
X65544998Y-77647736D01*
X65475886Y-77670637D01*
X65475879Y-77670640D01*
X65326661Y-77762678D01*
X65326643Y-77762693D01*
X65326632Y-77762703D01*
X65202703Y-77886632D01*
X65202693Y-77886643D01*
X65202678Y-77886661D01*
X65110642Y-78035875D01*
X65055493Y-78202307D01*
X65055492Y-78202315D01*
X65051385Y-78242497D01*
X61417000Y-78242497D01*
X61417000Y-76828000D01*
X58917000Y-76828000D01*
X58917000Y-79328000D01*
X57417000Y-79328000D01*
X57417000Y-76828000D01*
X54917000Y-76828000D01*
X54917000Y-78875851D01*
X51920000Y-78875851D01*
X51920000Y-76667500D01*
X65051388Y-76667500D01*
X65055492Y-76707690D01*
X65110643Y-76874124D01*
X65202678Y-77023337D01*
X65202680Y-77023340D01*
X65202683Y-77023344D01*
X65202688Y-77023350D01*
X65202693Y-77023355D01*
X65202703Y-77023366D01*
X65326632Y-77147295D01*
X65326643Y-77147305D01*
X65326649Y-77147311D01*
X65326655Y-77147316D01*
X65475876Y-77239357D01*
X65475878Y-77239358D01*
X65544999Y-77262261D01*
X65545000Y-77262261D01*
X65545000Y-76667500D01*
X65051388Y-76667500D01*
X51920000Y-76667500D01*
X51920000Y-75492497D01*
X65051385Y-75492497D01*
X65051386Y-75492499D01*
X65051387Y-75492499D01*
X65051388Y-75492500D01*
X65545000Y-75492500D01*
X65545000Y-74897737D01*
X65544999Y-74897736D01*
X65544998Y-74897736D01*
X65475886Y-74920637D01*
X65475879Y-74920640D01*
X65326661Y-75012678D01*
X65326643Y-75012693D01*
X65326632Y-75012703D01*
X65202703Y-75136632D01*
X65202693Y-75136643D01*
X65202678Y-75136661D01*
X65110642Y-75285875D01*
X65055493Y-75452307D01*
X65055492Y-75452315D01*
X65051385Y-75492497D01*
X51920000Y-75492497D01*
X51920000Y-73724115D01*
X51925103Y-73688621D01*
X51929577Y-73673382D01*
X51967956Y-73613656D01*
X51969365Y-73612436D01*
X52025086Y-73584549D01*
X52032770Y-73582878D01*
X52059548Y-73580000D01*
X54772885Y-73580000D01*
X54804527Y-73584549D01*
X54808377Y-73585102D01*
X54823621Y-73589578D01*
X54883346Y-73627960D01*
X54883358Y-73627974D01*
X54884563Y-73629365D01*
X54912446Y-73685072D01*
X54914118Y-73692755D01*
X54917000Y-73719548D01*
X54917000Y-75328000D01*
X61417000Y-75328000D01*
X61417000Y-73653303D01*
X61419770Y-73634039D01*
X61418718Y-73633888D01*
X61420000Y-73624972D01*
X61420000Y-72724115D01*
X61425103Y-72688621D01*
X61429577Y-72673382D01*
X61467956Y-72613656D01*
X61469365Y-72612436D01*
X61525086Y-72584549D01*
X61532770Y-72582878D01*
X61559548Y-72580000D01*
X65902990Y-72580000D01*
X65938481Y-72585102D01*
G37*
%TD.AperFunction*%
%TD*%
%TA.AperFunction,Conductor*%
%TO.N,+5V*%
G36*
X71602696Y-72598907D02*
G01*
X71638660Y-72648407D01*
X71639573Y-72706618D01*
X71624783Y-72757529D01*
X71602334Y-72834797D01*
X71599500Y-72870824D01*
X71599500Y-73269175D01*
X71601269Y-73291660D01*
X71602335Y-73305204D01*
X71647131Y-73459393D01*
X71656213Y-73474750D01*
X71670000Y-73525145D01*
X71670000Y-73634854D01*
X71656215Y-73685246D01*
X71647131Y-73700607D01*
X71647131Y-73700608D01*
X71602334Y-73854797D01*
X71599500Y-73890824D01*
X71599500Y-74289175D01*
X71602009Y-74321067D01*
X71602335Y-74325204D01*
X71647131Y-74479393D01*
X71647132Y-74479394D01*
X71656213Y-74494749D01*
X71670000Y-74545145D01*
X71670000Y-74694833D01*
X71668098Y-74714147D01*
X71650500Y-74802616D01*
X71650500Y-74955382D01*
X71668098Y-75043851D01*
X71670000Y-75063165D01*
X71670000Y-77246000D01*
X71651093Y-77304191D01*
X71601593Y-77340155D01*
X71571000Y-77345000D01*
X70019000Y-77345000D01*
X69960809Y-77326093D01*
X69924845Y-77276593D01*
X69920000Y-77246000D01*
X69920000Y-76677086D01*
X69938907Y-76618895D01*
X69948996Y-76607082D01*
X69965789Y-76590289D01*
X70053394Y-76459179D01*
X70113737Y-76313497D01*
X70144500Y-76158842D01*
X70144500Y-76001158D01*
X70113737Y-75846503D01*
X70053394Y-75700821D01*
X70053393Y-75700819D01*
X70053390Y-75700814D01*
X70002530Y-75624698D01*
X69965789Y-75569711D01*
X69948996Y-75552918D01*
X69921219Y-75498401D01*
X69920000Y-75482914D01*
X69920000Y-73361664D01*
X69938907Y-73303473D01*
X69948996Y-73291660D01*
X69971481Y-73269175D01*
X70114113Y-73126543D01*
X70190774Y-73011812D01*
X70190775Y-73011811D01*
X70243580Y-72884328D01*
X70270500Y-72748993D01*
X70270500Y-72679000D01*
X70289407Y-72620809D01*
X70338907Y-72584845D01*
X70369500Y-72580000D01*
X71544505Y-72580000D01*
X71602696Y-72598907D01*
G37*
%TD.AperFunction*%
%TD*%
%TA.AperFunction,Conductor*%
%TO.N,/3V3_DCDC_SW*%
G36*
X60947971Y-39787029D02*
G01*
X60955000Y-39804000D01*
X60955000Y-40496000D01*
X60947971Y-40512971D01*
X60931000Y-40520000D01*
X58943001Y-40520000D01*
X58943000Y-40520001D01*
X58943000Y-43746000D01*
X58935971Y-43762971D01*
X58919000Y-43770000D01*
X58193001Y-43770000D01*
X58193000Y-43770001D01*
X58193000Y-44496000D01*
X58185971Y-44512971D01*
X58169000Y-44520000D01*
X54943001Y-44520000D01*
X54943000Y-44520001D01*
X54943000Y-46506000D01*
X54935971Y-46522971D01*
X54919000Y-46530000D01*
X51979000Y-46530000D01*
X51962029Y-46522971D01*
X51955000Y-46506000D01*
X51955000Y-45530001D01*
X51955000Y-45530000D01*
X51954999Y-45530000D01*
X46479000Y-45530000D01*
X46462029Y-45522971D01*
X46455000Y-45506000D01*
X46455000Y-42804000D01*
X46462029Y-42787029D01*
X46479000Y-42780000D01*
X50193999Y-42780000D01*
X50194000Y-42780000D01*
X50194000Y-40972169D01*
X54943000Y-40972169D01*
X54943000Y-43019999D01*
X54943001Y-43020000D01*
X57442999Y-43020000D01*
X57443000Y-43019999D01*
X57443000Y-40520001D01*
X57442999Y-40520000D01*
X55395169Y-40520000D01*
X55335631Y-40526400D01*
X55335626Y-40526401D01*
X55200911Y-40576647D01*
X55200907Y-40576649D01*
X55085813Y-40662809D01*
X55085809Y-40662813D01*
X54999649Y-40777907D01*
X54999647Y-40777911D01*
X54949401Y-40912626D01*
X54949400Y-40912631D01*
X54943000Y-40972169D01*
X50194000Y-40972169D01*
X50194000Y-39804000D01*
X50201029Y-39787029D01*
X50218000Y-39780000D01*
X60931000Y-39780000D01*
X60947971Y-39787029D01*
G37*
%TD.AperFunction*%
%TD*%
%TA.AperFunction,Conductor*%
%TO.N,+3.3VA*%
G36*
X79912971Y-63087029D02*
G01*
X79920000Y-63104000D01*
X79920000Y-63482013D01*
X79919182Y-63488224D01*
X79916500Y-63498234D01*
X79916500Y-63649766D01*
X79919182Y-63659774D01*
X79920000Y-63665986D01*
X79920000Y-64330000D01*
X80396000Y-64330000D01*
X80412971Y-64337029D01*
X80420000Y-64354000D01*
X80420000Y-66556000D01*
X80412971Y-66572971D01*
X80396000Y-66580000D01*
X78944000Y-66580000D01*
X78927029Y-66572971D01*
X78920000Y-66556000D01*
X78920000Y-63104000D01*
X78927029Y-63087029D01*
X78944000Y-63080000D01*
X79896000Y-63080000D01*
X79912971Y-63087029D01*
G37*
%TD.AperFunction*%
%TD*%
%TA.AperFunction,Conductor*%
%TO.N,+3.3V*%
G36*
X54935971Y-51587029D02*
G01*
X54943000Y-51604000D01*
X54943000Y-53019999D01*
X54943001Y-53020000D01*
X58169000Y-53020000D01*
X58185971Y-53027029D01*
X58193000Y-53044000D01*
X58193000Y-53769999D01*
X58193001Y-53770000D01*
X58919000Y-53770000D01*
X58935971Y-53777029D01*
X58943000Y-53794000D01*
X58943000Y-57019999D01*
X58943001Y-57020000D01*
X60990831Y-57020000D01*
X61050372Y-57013598D01*
X61137613Y-56981059D01*
X61155970Y-56981715D01*
X61168487Y-56995159D01*
X61170000Y-57003546D01*
X61170000Y-59306000D01*
X61162971Y-59322971D01*
X61146000Y-59330000D01*
X51945000Y-59330000D01*
X51928029Y-59322971D01*
X51921000Y-59306000D01*
X51921000Y-58454999D01*
X55487737Y-58454999D01*
X55487738Y-58455000D01*
X56082499Y-58455000D01*
X56082500Y-58454999D01*
X57257500Y-58454999D01*
X57257501Y-58455000D01*
X57852262Y-58455000D01*
X57852262Y-58454999D01*
X58487737Y-58454999D01*
X58487738Y-58455000D01*
X59082499Y-58455000D01*
X59082500Y-58454999D01*
X60257500Y-58454999D01*
X60257501Y-58455000D01*
X60852262Y-58455000D01*
X60852262Y-58454999D01*
X60829356Y-58385874D01*
X60737318Y-58236658D01*
X60613341Y-58112681D01*
X60464125Y-58020643D01*
X60297694Y-57965493D01*
X60257500Y-57961386D01*
X60257500Y-58454999D01*
X59082500Y-58454999D01*
X59082500Y-57961386D01*
X59042305Y-57965493D01*
X58875874Y-58020643D01*
X58726658Y-58112681D01*
X58602681Y-58236658D01*
X58510643Y-58385874D01*
X58487737Y-58454999D01*
X57852262Y-58454999D01*
X57829356Y-58385874D01*
X57737318Y-58236658D01*
X57613341Y-58112681D01*
X57464125Y-58020643D01*
X57297694Y-57965493D01*
X57257500Y-57961386D01*
X57257500Y-58454999D01*
X56082500Y-58454999D01*
X56082500Y-57961386D01*
X56042305Y-57965493D01*
X55875874Y-58020643D01*
X55726658Y-58112681D01*
X55602681Y-58236658D01*
X55510643Y-58385874D01*
X55487737Y-58454999D01*
X51921000Y-58454999D01*
X51921000Y-54520001D01*
X54943000Y-54520001D01*
X54943000Y-56567830D01*
X54949400Y-56627368D01*
X54949401Y-56627373D01*
X54999647Y-56762088D01*
X54999649Y-56762092D01*
X55085809Y-56877186D01*
X55085813Y-56877190D01*
X55200907Y-56963350D01*
X55200911Y-56963352D01*
X55335626Y-57013598D01*
X55335631Y-57013599D01*
X55395169Y-57020000D01*
X57442999Y-57020000D01*
X57443000Y-57019999D01*
X57443000Y-54520001D01*
X57442999Y-54520000D01*
X54943001Y-54520000D01*
X54943000Y-54520001D01*
X51921000Y-54520001D01*
X51921000Y-51604000D01*
X51928029Y-51587029D01*
X51945000Y-51580000D01*
X54919000Y-51580000D01*
X54935971Y-51587029D01*
G37*
%TD.AperFunction*%
%TD*%
M02*
