M48
; DRILL file {KiCad 7.0.7} date Mon Nov 27 17:28:22 2023
; FORMAT={-:-/ absolute / inch / decimal}
; #@! TF.CreationDate,2023-11-27T17:28:22-05:00
; #@! TF.GenerationSoftware,Kicad,Pcbnew,7.0.7
; #@! TF.FileFunction,Plated,1,4,PTH
FMAT,2
INCH
; #@! TA.AperFunction,Plated,PTH,ViaDrill
T1C0.0098
; #@! TA.AperFunction,Plated,PTH,ComponentDrill
T2C0.0157
; #@! TA.AperFunction,Plated,PTH,ComponentDrill
T3C0.0236
; #@! TA.AperFunction,Plated,PTH,ComponentDrill
T4C0.0394
; #@! TA.AperFunction,Plated,PTH,ComponentDrill
T5C0.0433
%
G90
G05
T1
X1.5321Y-3.2709
X1.5421Y-2.0799
X1.5421Y-2.9421
X1.5496Y-2.4173
X1.5496Y-2.5583
X1.55Y-1.5661
X1.55Y-1.7079
X1.5717Y-3.2108
X1.5894Y-2.6606
X1.5913Y-1.7945
X1.611Y-2.0543
X1.611Y-2.2226
X1.611Y-2.9165
X1.611Y-3.0937
X1.6514Y-3.2108
X1.672Y-1.5681
X1.672Y-1.7039
X1.6724Y-2.4177
X1.6724Y-2.5575
X1.6996Y-2.2276
X1.6996Y-3.0937
X1.7094Y-1.8978
X1.7193Y-2.4874
X1.7193Y-2.7728
X1.7518Y-3.2699
X1.7606Y-1.6252
X1.7685Y-2.3654
X1.7872Y-1.8978
X1.7882Y-2.2276
X1.7882Y-3.0937
X1.798Y-2.7728
X1.8069Y-3.2167
X1.8108Y-1.6252
X1.8177Y-2.3654
X1.862Y-1.6252
X1.8669Y-2.3654
X1.8768Y-2.2276
X1.8768Y-3.0937
X1.9161Y-2.3654
X1.9191Y-1.6252
X1.928Y-3.2709
X1.9654Y-2.9028
X1.9673Y-2.0307
X2.1622Y-2.2669
X2.1819Y-2.4067
X2.2183Y-3.2709
X2.2311Y-2.2669
X2.2902Y-2.2669
X2.3492Y-2.2669
X2.3984Y-2.4067
X2.3994Y-3.2709
X2.549Y-2.7394
X2.549Y-2.7886
X2.6041Y-2.385
X2.6287Y-2.452
X2.6307Y-2.5228
X2.6682Y-1.4446
X2.676Y-2.828
X2.677Y-2.7581
X2.6839Y-2.6409
X2.6972Y-1.8719
X2.7075Y-2.2
X2.7104Y-2.0268
X2.7134Y-2.6705
X2.7301Y-1.9953
X2.7301Y-2.9953
X2.7311Y-3.1035
X2.7409Y-2.5228
X2.7429Y-2.7
X2.7596Y-1.452
X2.7596Y-2.3024
X2.7921Y-2.5573
X2.7921Y-2.6646
X2.7921Y-2.8772
X2.7921Y-2.9165
X2.7951Y-2.4451
X2.7961Y-2.4815
X2.7996Y-2.3661
X2.8305Y-2.7689
X2.8315Y-2.828
X2.8404Y-2.6606
X2.8413Y-2.5159
X2.8413Y-2.6262
X2.8512Y-2.0514
X2.8512Y-2.1656
X2.8512Y-2.948
X2.8768Y-1.7374
X2.8768Y-1.8585
X2.8827Y-2.388
X2.8837Y-2.3161
X2.9004Y-2.948
X2.9299Y-2.3063
X2.9299Y-2.4047
X2.9388Y-2.26
X2.9388Y-2.5317
X2.9388Y-2.639
X2.9407Y-2.0504
X2.9407Y-2.1665
X2.9555Y-2.699
X2.9654Y-2.6547
X2.9663Y-2.7482
X2.9722Y-2.7846
X2.9791Y-2.3555
X2.987Y-2.7256
X2.99Y-2.636
X2.9943Y-2.5533
X3.0107Y-2.5745
X3.0283Y-2.3063
X3.0283Y-2.4047
X3.0677Y-2.2693
X3.0746Y-2.3476
X3.0766Y-2.4264
X3.0776Y-1.8329
X3.0805Y-2.5307
X3.0805Y-2.639
X3.0874Y-2.0504
X3.0874Y-2.1665
X3.1055Y-2.228
X3.1091Y-1.8713
X3.1169Y-2.7492
X3.1169Y-2.8378
X3.1256Y-2.0317
X3.1278Y-2.1094
X3.1441Y-1.9943
X3.1524Y-2.4421
X3.1553Y-2.3634
X3.1563Y-2.9756
X3.1632Y-2.2443
X3.1665Y-2.0547
X3.1665Y-2.1622
X3.1673Y-2.0189
X3.1691Y-2.5031
X3.1878Y-2.6331
X3.1888Y-2.3781
X3.1917Y-1.7594
X3.2173Y-2.6145
X3.2181Y-2.3063
X3.2311Y-2.2416
X3.235Y-1.9953
X3.235Y-2.9756
X3.2575Y-2.1394
X3.2579Y-2.1882
X3.2709Y-2.0012
X3.2709Y-2.0406
X3.2793Y-1.9421
X3.2813Y-2.5031
X3.2813Y-2.5524
X3.2921Y-2.3555
X3.3043Y-1.761
X3.3138Y-3.0209
X3.3148Y-2.7945
X3.3256Y-2.1024
X3.3307Y-2.3063
X3.3315Y-2.252
X3.3438Y-2.6582
X3.3492Y-2.7945
X3.3531Y-1.952
X3.3531Y-2.0307
X3.3602Y-2.3618
X3.361Y-2.6213
X3.363Y-3.0209
X3.363Y-3.1291
X3.3673Y-2.1882
X3.369Y-1.8152
X3.3764Y-1.8772
X3.3768Y-2.139
X3.3896Y-2.6774
X3.3925Y-1.9913
X3.4063Y-2.8427
X3.4122Y-3.0209
X3.4152Y-2.7945
X3.4161Y-1.8762
X3.4319Y-1.952
X3.4319Y-2.0307
X3.4398Y-2.6793
X3.4614Y-3.0209
X3.4614Y-3.1291
X3.4644Y-2.1695
X3.465Y-2.7937
X3.465Y-2.8819
X3.4673Y-1.8762
X3.5016Y-1.9421
X3.5106Y-2.2374
X3.5106Y-2.2866
X3.5106Y-2.3358
X3.5106Y-2.4333
X3.5106Y-2.4746
X3.5106Y-3.0209
X3.511Y-1.9902
X3.5145Y-1.8152
X3.5215Y-2.6213
X3.5303Y-1.8831
X3.5598Y-3.0209
X3.5598Y-3.1291
X3.5618Y-2.0181
X3.5618Y-2.0629
X3.5622Y-1.9618
X3.5628Y-2.1675
X3.5707Y-2.697
X3.6091Y-3.0209
X3.6091Y-3.1291
X3.6228Y-2.4402
X3.6228Y-2.4677
X3.6264Y-1.9555
X3.6264Y-2.0075
X3.6386Y-2.1291
X3.6445Y-3.0976
X3.6465Y-2.697
X3.6559Y-2.2118
X3.6563Y-2.3614
X3.6572Y-2.3111
X3.6575Y-2.2618
X3.678Y-1.8339
X3.678Y-2.1291
X3.6917Y-2.8378
X3.6927Y-2.9362
X3.7067Y-2.1937
X3.7094Y-3.0455
X3.7122Y-2.4835
X3.716Y-2.3652
X3.7173Y-2.0898
X3.7173Y-2.1291
X3.7173Y-2.2463
X3.7213Y-1.5012
X3.7272Y-1.8339
X3.7484Y-1.5228
X3.7567Y-2.9224
X3.7575Y-2.2406
X3.7675Y-2.0996
X3.7764Y-1.8339
X3.8246Y-3.0455
X3.8256Y-1.8339
X3.8935Y-1.8437
X3.8974Y-1.4825
X3.8974Y-1.7541
X3.8976Y-1.6677
X3.923Y-3.0445
X3.9339Y-1.9323
X3.9339Y-2.139
X3.9437Y-1.7896
X4.0146Y-2.764
X4.0638Y-1.8437
T2
X3.8067Y-2.265
X3.8067Y-2.2965
X3.8067Y-2.328
X3.8067Y-2.3594
X3.8067Y-2.3909
X3.8067Y-2.4224
X3.8067Y-2.4539
X3.8067Y-2.4854
X3.8343Y-2.2807
X3.8343Y-2.3122
X3.8343Y-2.3437
X3.8343Y-2.4067
X3.8343Y-2.4382
X3.8343Y-2.4697
T4
X1.5732Y-1.3496
X1.6732Y-1.3496
X1.7732Y-1.3496
X1.8732Y-1.3496
X1.9732Y-1.3496
X2.2134Y-1.3496
X2.3134Y-1.3496
X2.4134Y-1.3496
X2.5134Y-1.3496
X2.5732Y-3.2496
X2.6134Y-1.3496
X2.6732Y-3.2496
X2.7134Y-1.3496
X2.7732Y-3.2496
X2.8134Y-1.3496
X2.8732Y-3.2496
X2.9134Y-1.3496
X2.9732Y-3.2496
X3.0134Y-1.3496
X3.0732Y-3.2496
X3.1134Y-1.3496
X3.1732Y-3.2496
X3.2732Y-1.3496
X3.2732Y-3.2496
X3.3732Y-1.3496
X3.4732Y-1.3496
X3.4732Y-3.2496
X3.5732Y-1.3496
X3.5732Y-3.2496
X3.6732Y-1.3496
X3.6732Y-3.2496
X3.7732Y-1.3496
X3.7732Y-3.2496
X3.8732Y-1.3496
X3.8732Y-3.2496
X3.9732Y-1.3496
X3.9732Y-3.2496
T5
X3.8453Y-2.6783
X3.8453Y-2.8555
X4.1012Y-2.6783
X4.1012Y-2.8555
T3
G00X3.8638Y-2.2071
M15
G01X3.8402Y-2.2071
M16
G05
G00X3.8638Y-2.5433
M15
G01X3.8402Y-2.5433
M16
G05
G00X4.05Y-2.2071
M15
G01X4.0264Y-2.2071
M16
G05
G00X4.05Y-2.5433
M15
G01X4.0264Y-2.5433
M16
G05
T0
M30
