%TF.GenerationSoftware,KiCad,Pcbnew,7.0.7*%
%TF.CreationDate,2023-11-27T17:28:18-05:00*%
%TF.ProjectId,Phyduino_Pico_RevD1,50687964-7569-46e6-9f5f-5069636f5f52,rev?*%
%TF.SameCoordinates,Original*%
%TF.FileFunction,Soldermask,Top*%
%TF.FilePolarity,Negative*%
%FSLAX46Y46*%
G04 Gerber Fmt 4.6, Leading zero omitted, Abs format (unit mm)*
G04 Created by KiCad (PCBNEW 7.0.7) date 2023-11-27 17:28:18*
%MOMM*%
%LPD*%
G01*
G04 APERTURE LIST*
G04 Aperture macros list*
%AMRoundRect*
0 Rectangle with rounded corners*
0 $1 Rounding radius*
0 $2 $3 $4 $5 $6 $7 $8 $9 X,Y pos of 4 corners*
0 Add a 4 corners polygon primitive as box body*
4,1,4,$2,$3,$4,$5,$6,$7,$8,$9,$2,$3,0*
0 Add four circle primitives for the rounded corners*
1,1,$1+$1,$2,$3*
1,1,$1+$1,$4,$5*
1,1,$1+$1,$6,$7*
1,1,$1+$1,$8,$9*
0 Add four rect primitives between the rounded corners*
20,1,$1+$1,$2,$3,$4,$5,0*
20,1,$1+$1,$4,$5,$6,$7,0*
20,1,$1+$1,$6,$7,$8,$9,0*
20,1,$1+$1,$8,$9,$2,$3,0*%
G04 Aperture macros list end*
%ADD10C,0.400000*%
%ADD11RoundRect,0.210000X-0.197500X-0.160000X0.197500X-0.160000X0.197500X0.160000X-0.197500X0.160000X0*%
%ADD12RoundRect,0.300000X-0.325000X-0.450000X0.325000X-0.450000X0.325000X0.450000X-0.325000X0.450000X0*%
%ADD13RoundRect,0.210000X0.160000X-0.197500X0.160000X0.197500X-0.160000X0.197500X-0.160000X-0.197500X0*%
%ADD14RoundRect,0.205000X-0.155000X0.212500X-0.155000X-0.212500X0.155000X-0.212500X0.155000X0.212500X0*%
%ADD15RoundRect,0.050000X0.850000X-0.850000X0.850000X0.850000X-0.850000X0.850000X-0.850000X-0.850000X0*%
%ADD16O,1.800000X1.800000*%
%ADD17RoundRect,0.300000X-0.337500X-0.475000X0.337500X-0.475000X0.337500X0.475000X-0.337500X0.475000X0*%
%ADD18RoundRect,0.300000X-0.450000X0.350000X-0.450000X-0.350000X0.450000X-0.350000X0.450000X0.350000X0*%
%ADD19RoundRect,0.210000X-0.160000X0.197500X-0.160000X-0.197500X0.160000X-0.197500X0.160000X0.197500X0*%
%ADD20RoundRect,0.205000X-0.212500X-0.155000X0.212500X-0.155000X0.212500X0.155000X-0.212500X0.155000X0*%
%ADD21RoundRect,0.050000X2.750000X-2.750000X2.750000X2.750000X-2.750000X2.750000X-2.750000X-2.750000X0*%
%ADD22RoundRect,0.112500X0.350000X0.062500X-0.350000X0.062500X-0.350000X-0.062500X0.350000X-0.062500X0*%
%ADD23RoundRect,0.112500X0.062500X0.350000X-0.062500X0.350000X-0.062500X-0.350000X0.062500X-0.350000X0*%
%ADD24RoundRect,0.050000X1.350000X1.350000X-1.350000X1.350000X-1.350000X-1.350000X1.350000X-1.350000X0*%
%ADD25RoundRect,0.210000X0.160000X-0.222500X0.160000X0.222500X-0.160000X0.222500X-0.160000X-0.222500X0*%
%ADD26C,3.300000*%
%ADD27RoundRect,0.205000X0.212500X0.155000X-0.212500X0.155000X-0.212500X-0.155000X0.212500X-0.155000X0*%
%ADD28RoundRect,0.150000X-0.100000X0.425000X-0.100000X-0.425000X0.100000X-0.425000X0.100000X0.425000X0*%
%ADD29RoundRect,0.100000X0.250000X-0.050000X0.250000X0.050000X-0.250000X0.050000X-0.250000X-0.050000X0*%
%ADD30RoundRect,0.300000X-0.475000X0.337500X-0.475000X-0.337500X0.475000X-0.337500X0.475000X0.337500X0*%
%ADD31RoundRect,0.300000X0.337500X0.475000X-0.337500X0.475000X-0.337500X-0.475000X0.337500X-0.475000X0*%
%ADD32RoundRect,0.210000X0.197500X0.160000X-0.197500X0.160000X-0.197500X-0.160000X0.197500X-0.160000X0*%
%ADD33RoundRect,0.300000X0.450000X-0.350000X0.450000X0.350000X-0.450000X0.350000X-0.450000X-0.350000X0*%
%ADD34RoundRect,0.050000X-0.850000X0.850000X-0.850000X-0.850000X0.850000X-0.850000X0.850000X0.850000X0*%
%ADD35RoundRect,0.050000X0.175000X-0.250000X0.175000X0.250000X-0.175000X0.250000X-0.175000X-0.250000X0*%
%ADD36RoundRect,0.050000X-0.200000X-0.150000X0.200000X-0.150000X0.200000X0.150000X-0.200000X0.150000X0*%
%ADD37RoundRect,0.050000X1.225000X-0.990000X1.225000X0.990000X-1.225000X0.990000X-1.225000X-0.990000X0*%
%ADD38RoundRect,0.050000X-0.190000X-0.215000X0.190000X-0.215000X0.190000X0.215000X-0.190000X0.215000X0*%
%ADD39C,0.900000*%
%ADD40RoundRect,0.050000X0.600000X-0.500000X0.600000X0.500000X-0.600000X0.500000X-0.600000X-0.500000X0*%
%ADD41RoundRect,0.050000X-0.600000X0.450000X-0.600000X-0.450000X0.600000X-0.450000X0.600000X0.450000X0*%
%ADD42RoundRect,0.205000X0.155000X-0.212500X0.155000X0.212500X-0.155000X0.212500X-0.155000X-0.212500X0*%
%ADD43RoundRect,0.050000X0.205000X-0.800000X0.205000X0.800000X-0.205000X0.800000X-0.205000X-0.800000X0*%
%ADD44RoundRect,0.300000X-0.350000X-0.450000X0.350000X-0.450000X0.350000X0.450000X-0.350000X0.450000X0*%
%ADD45RoundRect,0.050000X0.600000X-0.450000X0.600000X0.450000X-0.600000X0.450000X-0.600000X-0.450000X0*%
%ADD46RoundRect,0.050000X-0.250000X-0.187500X0.250000X-0.187500X0.250000X0.187500X-0.250000X0.187500X0*%
%ADD47RoundRect,0.050000X-0.325000X-0.150000X0.325000X-0.150000X0.325000X0.150000X-0.325000X0.150000X0*%
%ADD48RoundRect,0.050000X0.600000X-0.150000X0.600000X0.150000X-0.600000X0.150000X-0.600000X-0.150000X0*%
%ADD49C,0.750000*%
%ADD50RoundRect,0.050000X0.500000X-0.100000X0.500000X0.100000X-0.500000X0.100000X-0.500000X-0.100000X0*%
%ADD51O,1.700000X1.100000*%
%ADD52RoundRect,0.200000X-0.825000X-0.150000X0.825000X-0.150000X0.825000X0.150000X-0.825000X0.150000X0*%
%ADD53RoundRect,0.175000X0.375000X0.125000X-0.375000X0.125000X-0.375000X-0.125000X0.375000X-0.125000X0*%
%ADD54RoundRect,0.050000X1.700000X2.150000X-1.700000X2.150000X-1.700000X-2.150000X1.700000X-2.150000X0*%
%ADD55RoundRect,0.200000X0.150000X-0.587500X0.150000X0.587500X-0.150000X0.587500X-0.150000X-0.587500X0*%
%ADD56RoundRect,0.300000X0.412500X1.100000X-0.412500X1.100000X-0.412500X-1.100000X0.412500X-1.100000X0*%
%ADD57RoundRect,0.210000X0.222500X0.160000X-0.222500X0.160000X-0.222500X-0.160000X0.222500X-0.160000X0*%
%ADD58C,2.100000*%
%ADD59RoundRect,0.050000X-0.550000X0.650000X-0.550000X-0.650000X0.550000X-0.650000X0.550000X0.650000X0*%
%ADD60RoundRect,0.100000X-0.050000X0.387500X-0.050000X-0.387500X0.050000X-0.387500X0.050000X0.387500X0*%
%ADD61RoundRect,0.100000X-0.387500X0.050000X-0.387500X-0.050000X0.387500X-0.050000X0.387500X0.050000X0*%
%ADD62RoundRect,0.050000X-1.600000X1.600000X-1.600000X-1.600000X1.600000X-1.600000X1.600000X1.600000X0*%
%ADD63RoundRect,0.300000X0.350000X0.450000X-0.350000X0.450000X-0.350000X-0.450000X0.350000X-0.450000X0*%
G04 APERTURE END LIST*
D10*
X37420000Y-85080000D02*
X37420000Y-31740000D01*
X103460000Y-44440000D02*
X106000000Y-46980000D01*
X103460000Y-31740000D02*
X103460000Y-44440000D01*
X37420000Y-85080000D02*
X103460000Y-85080000D01*
X103460000Y-85080000D02*
X103460000Y-82540000D01*
X37420000Y-31740000D02*
X103460000Y-31740000D01*
X103460000Y-82540000D02*
X106000000Y-80000000D01*
X106000000Y-46980000D02*
X106000000Y-80000000D01*
D11*
%TO.C,R45*%
X65572500Y-69580000D03*
X66767500Y-69580000D03*
%TD*%
D12*
%TO.C,D5*%
X57645000Y-83080000D03*
X59695000Y-83080000D03*
%TD*%
D13*
%TO.C,R24*%
X92920000Y-52177500D03*
X92920000Y-50982500D03*
%TD*%
D14*
%TO.C,C16*%
X70920000Y-65762500D03*
X70920000Y-66897500D03*
%TD*%
D15*
%TO.C,J2*%
X65360000Y-82540000D03*
D16*
X67900000Y-82540000D03*
X70440000Y-82540000D03*
X72980000Y-82540000D03*
X75520000Y-82540000D03*
X78060000Y-82540000D03*
X80600000Y-82540000D03*
X83140000Y-82540000D03*
%TD*%
D17*
%TO.C,C31*%
X86382500Y-66580000D03*
X88457500Y-66580000D03*
%TD*%
D18*
%TO.C,R7*%
X47670000Y-53330000D03*
X47670000Y-55330000D03*
%TD*%
D14*
%TO.C,C40*%
X73670000Y-73012500D03*
X73670000Y-74147500D03*
%TD*%
D11*
%TO.C,R39*%
X82572500Y-67580000D03*
X83767500Y-67580000D03*
%TD*%
%TO.C,R19*%
X82572500Y-62330000D03*
X83767500Y-62330000D03*
%TD*%
D19*
%TO.C,R29*%
X97920000Y-50982500D03*
X97920000Y-52177500D03*
%TD*%
D20*
%TO.C,C30*%
X82602500Y-58580000D03*
X83737500Y-58580000D03*
%TD*%
%TO.C,C23*%
X81602500Y-59830000D03*
X82737500Y-59830000D03*
%TD*%
D21*
%TO.C,L2*%
X58170000Y-66080000D03*
X58170000Y-76080000D03*
%TD*%
D20*
%TO.C,C25*%
X81352500Y-64830000D03*
X82487500Y-64830000D03*
%TD*%
D22*
%TO.C,U4*%
X88132500Y-51830000D03*
X88132500Y-51330000D03*
X88132500Y-50830000D03*
X88132500Y-50330000D03*
X88132500Y-49830000D03*
X88132500Y-49330000D03*
D23*
X87420000Y-48617500D03*
X86920000Y-48617500D03*
X86420000Y-48617500D03*
X85920000Y-48617500D03*
X85420000Y-48617500D03*
X84920000Y-48617500D03*
D22*
X84207500Y-49330000D03*
X84207500Y-49830000D03*
X84207500Y-50330000D03*
X84207500Y-50830000D03*
X84207500Y-51330000D03*
X84207500Y-51830000D03*
D23*
X84920000Y-52542500D03*
X85420000Y-52542500D03*
X85920000Y-52542500D03*
X86420000Y-52542500D03*
X86920000Y-52542500D03*
X87420000Y-52542500D03*
D24*
X86170000Y-50580000D03*
%TD*%
D19*
%TO.C,R52*%
X86670000Y-77482500D03*
X86670000Y-78677500D03*
%TD*%
D11*
%TO.C,R18*%
X82572500Y-61080000D03*
X83767500Y-61080000D03*
%TD*%
D25*
%TO.C,D7*%
X83920000Y-46652500D03*
X83920000Y-45507500D03*
%TD*%
D26*
%TO.C,H1*%
X51390000Y-82540000D03*
%TD*%
D18*
%TO.C,R3*%
X40920000Y-53330000D03*
X40920000Y-55330000D03*
%TD*%
D27*
%TO.C,C28*%
X87987500Y-54330000D03*
X86852500Y-54330000D03*
%TD*%
D28*
%TO.C,U8*%
X70270000Y-70455000D03*
X69570000Y-70455000D03*
D29*
X68770000Y-70330000D03*
X68770000Y-70830000D03*
X68770000Y-71330000D03*
X68770000Y-71830000D03*
D28*
X69570000Y-71705000D03*
X70270000Y-71705000D03*
D29*
X71070000Y-71830000D03*
X71070000Y-71330000D03*
X71070000Y-70830000D03*
X71070000Y-70330000D03*
%TD*%
D30*
%TO.C,C5*%
X45420000Y-53292500D03*
X45420000Y-55367500D03*
%TD*%
D31*
%TO.C,C6*%
X45707500Y-67080000D03*
X43632500Y-67080000D03*
%TD*%
D32*
%TO.C,R20*%
X89267500Y-46830000D03*
X88072500Y-46830000D03*
%TD*%
D33*
%TO.C,R4*%
X39170000Y-69580000D03*
X39170000Y-67580000D03*
%TD*%
D34*
%TO.C,J5*%
X100920000Y-34280000D03*
D16*
X98380000Y-34280000D03*
X95840000Y-34280000D03*
X93300000Y-34280000D03*
X90760000Y-34280000D03*
X88220000Y-34280000D03*
X85680000Y-34280000D03*
X83140000Y-34280000D03*
%TD*%
D35*
%TO.C,Q1*%
X94445000Y-51230000D03*
X95095000Y-51230000D03*
X95745000Y-51230000D03*
X96395000Y-51230000D03*
D36*
X96395000Y-48330000D03*
X95745000Y-48330000D03*
X95095000Y-48330000D03*
X94445000Y-48330000D03*
D37*
X95420000Y-49470000D03*
D38*
X94005000Y-49830000D03*
X96835000Y-49830000D03*
%TD*%
D33*
%TO.C,R8*%
X49920000Y-55330000D03*
X49920000Y-53330000D03*
%TD*%
D19*
%TO.C,R11*%
X80920000Y-48232500D03*
X80920000Y-49427500D03*
%TD*%
D34*
%TO.C,J3*%
X79080000Y-34280000D03*
D16*
X76540000Y-34280000D03*
X74000000Y-34280000D03*
X71460000Y-34280000D03*
X68920000Y-34280000D03*
X66380000Y-34280000D03*
X63840000Y-34280000D03*
X61300000Y-34280000D03*
X58760000Y-34280000D03*
X56220000Y-34280000D03*
%TD*%
D11*
%TO.C,R26*%
X96572500Y-54580000D03*
X97767500Y-54580000D03*
%TD*%
D18*
%TO.C,R6*%
X40920000Y-75330000D03*
X40920000Y-77330000D03*
%TD*%
D39*
%TO.C,SW1*%
X101595250Y-42580000D03*
X101595250Y-39580000D03*
D40*
X98995250Y-43580000D03*
X98995250Y-41080000D03*
X98995250Y-38580000D03*
%TD*%
D41*
%TO.C,D4*%
X49920000Y-69430000D03*
X49920000Y-72730000D03*
%TD*%
D27*
%TO.C,C15*%
X68762500Y-62280000D03*
X67627500Y-62280000D03*
%TD*%
D30*
%TO.C,C4*%
X43170000Y-53292500D03*
X43170000Y-55367500D03*
%TD*%
D25*
%TO.C,D6*%
X81070000Y-46652500D03*
X81070000Y-45507500D03*
%TD*%
D19*
%TO.C,R53*%
X89170000Y-77482500D03*
X89170000Y-78677500D03*
%TD*%
D12*
%TO.C,D1*%
X39895000Y-83080000D03*
X41945000Y-83080000D03*
%TD*%
D42*
%TO.C,R21*%
X89670000Y-49830000D03*
X89670000Y-48695000D03*
%TD*%
D43*
%TO.C,U5*%
X84197500Y-74734300D03*
X84832500Y-74734300D03*
X85467500Y-74734300D03*
X86102500Y-74734300D03*
X86737500Y-74734300D03*
X87372500Y-74734300D03*
X88007500Y-74734300D03*
X88642500Y-74734300D03*
X88642500Y-69425700D03*
X88007500Y-69425700D03*
X87372500Y-69425700D03*
X86737500Y-69425700D03*
X86102500Y-69425700D03*
X85467500Y-69425700D03*
X84832500Y-69425700D03*
X84197500Y-69425700D03*
%TD*%
D44*
%TO.C,R14*%
X80170000Y-72080000D03*
X82170000Y-72080000D03*
%TD*%
D19*
%TO.C,R47*%
X91670000Y-77482500D03*
X91670000Y-78677500D03*
%TD*%
D45*
%TO.C,Z1*%
X99920000Y-53230000D03*
X99920000Y-49930000D03*
%TD*%
D46*
%TO.C,U9*%
X88320000Y-61792500D03*
D47*
X88245000Y-62330000D03*
D46*
X88320000Y-62867500D03*
X90020000Y-62867500D03*
D47*
X90095000Y-62330000D03*
D46*
X90020000Y-61792500D03*
%TD*%
D31*
%TO.C,C33*%
X92707500Y-74580000D03*
X90632500Y-74580000D03*
%TD*%
D11*
%TO.C,R38*%
X82572500Y-66330000D03*
X83767500Y-66330000D03*
%TD*%
D48*
%TO.C,J6*%
X95440000Y-63080000D03*
X95440000Y-62580000D03*
X95440000Y-62080000D03*
X95440000Y-61580000D03*
X95440000Y-61080000D03*
X95440000Y-60580000D03*
X95440000Y-60080000D03*
X95440000Y-59580000D03*
X95440000Y-59080000D03*
X95440000Y-58580000D03*
X95440000Y-58080000D03*
X95440000Y-57580000D03*
D49*
X96690000Y-57530000D03*
X97390000Y-57930000D03*
X97390000Y-58730000D03*
X96690000Y-59130000D03*
X97390000Y-59530000D03*
X96690000Y-59930000D03*
X96690000Y-60730000D03*
X97390000Y-61130000D03*
X96690000Y-61530000D03*
X97390000Y-61930000D03*
X97390000Y-62730000D03*
X96690000Y-63130000D03*
X96690000Y-62330000D03*
D50*
X100020000Y-60330000D03*
X103120000Y-60330000D03*
D49*
X96690000Y-58330000D03*
D51*
X97840000Y-64600000D03*
X102570000Y-64600000D03*
X97840000Y-56060000D03*
X102570000Y-56060000D03*
%TD*%
D27*
%TO.C,C18*%
X68737500Y-64080000D03*
X67602500Y-64080000D03*
%TD*%
D52*
%TO.C,U2*%
X42195000Y-69175000D03*
X42195000Y-70445000D03*
X42195000Y-71715000D03*
X42195000Y-72985000D03*
X47145000Y-72985000D03*
X47145000Y-71715000D03*
X47145000Y-70445000D03*
X47145000Y-69175000D03*
%TD*%
D11*
%TO.C,R40*%
X65572500Y-68330000D03*
X66767500Y-68330000D03*
%TD*%
D17*
%TO.C,C11*%
X66132500Y-76080000D03*
X68207500Y-76080000D03*
%TD*%
D30*
%TO.C,C34*%
X95420000Y-75292500D03*
X95420000Y-77367500D03*
%TD*%
D31*
%TO.C,C27*%
X82207500Y-69830000D03*
X80132500Y-69830000D03*
%TD*%
D53*
%TO.C,U6*%
X91995000Y-59985000D03*
X91995000Y-58715000D03*
X91995000Y-57445000D03*
X91995000Y-56175000D03*
X86345000Y-56175000D03*
X86345000Y-57445000D03*
X86345000Y-58715000D03*
X86345000Y-59985000D03*
D54*
X89170000Y-58080000D03*
%TD*%
D30*
%TO.C,C10*%
X59670000Y-59042500D03*
X59670000Y-61117500D03*
%TD*%
D15*
%TO.C,J4*%
X88220000Y-82540000D03*
D16*
X90760000Y-82540000D03*
X93300000Y-82540000D03*
X95840000Y-82540000D03*
X98380000Y-82540000D03*
X100920000Y-82540000D03*
%TD*%
D14*
%TO.C,C20*%
X74645000Y-65087500D03*
X74645000Y-66222500D03*
%TD*%
D19*
%TO.C,R49*%
X85420000Y-77482500D03*
X85420000Y-78677500D03*
%TD*%
%TO.C,R25*%
X92920000Y-48482500D03*
X92920000Y-49677500D03*
%TD*%
D12*
%TO.C,D8*%
X100145000Y-46830000D03*
X102195000Y-46830000D03*
%TD*%
D55*
%TO.C,U7*%
X90720000Y-69767500D03*
X92620000Y-69767500D03*
X91670000Y-67892500D03*
%TD*%
D11*
%TO.C,R16*%
X85572500Y-46830000D03*
X86767500Y-46830000D03*
%TD*%
D42*
%TO.C,C14*%
X72420000Y-54147500D03*
X72420000Y-53012500D03*
%TD*%
D56*
%TO.C,C2*%
X42482500Y-63180000D03*
X39357500Y-63180000D03*
%TD*%
D19*
%TO.C,R48*%
X90420000Y-77482500D03*
X90420000Y-78677500D03*
%TD*%
D20*
%TO.C,C13*%
X67627500Y-56780000D03*
X68762500Y-56780000D03*
%TD*%
D44*
%TO.C,R23*%
X90670000Y-72080000D03*
X92670000Y-72080000D03*
%TD*%
D42*
%TO.C,C22*%
X80430000Y-54147500D03*
X80430000Y-53012500D03*
%TD*%
D21*
%TO.C,L1*%
X58195000Y-43780000D03*
X58195000Y-53780000D03*
%TD*%
D17*
%TO.C,C12*%
X66132500Y-78830000D03*
X68207500Y-78830000D03*
%TD*%
D30*
%TO.C,C8*%
X45420000Y-75292500D03*
X45420000Y-77367500D03*
%TD*%
D11*
%TO.C,R17*%
X83572500Y-55580000D03*
X84767500Y-55580000D03*
%TD*%
D52*
%TO.C,U1*%
X41945000Y-46925000D03*
X41945000Y-48195000D03*
X41945000Y-49465000D03*
X41945000Y-50735000D03*
X46895000Y-50735000D03*
X46895000Y-49465000D03*
X46895000Y-48195000D03*
X46895000Y-46925000D03*
%TD*%
D33*
%TO.C,R5*%
X39170000Y-73580000D03*
X39170000Y-71580000D03*
%TD*%
D57*
%TO.C,FB1*%
X80992500Y-67580000D03*
X79847500Y-67580000D03*
%TD*%
D31*
%TO.C,C3*%
X45457500Y-44580000D03*
X43382500Y-44580000D03*
%TD*%
D42*
%TO.C,C19*%
X74695000Y-54147500D03*
X74695000Y-53012500D03*
%TD*%
D26*
%TO.C,H2*%
X103460000Y-51520000D03*
%TD*%
D58*
%TO.C,SW2*%
X97670000Y-68030000D03*
X104170000Y-68030000D03*
X97670000Y-72530000D03*
X104170000Y-72530000D03*
%TD*%
D19*
%TO.C,R28*%
X93670000Y-57982500D03*
X93670000Y-59177500D03*
%TD*%
D11*
%TO.C,R27*%
X96572500Y-53330000D03*
X97767500Y-53330000D03*
%TD*%
D14*
%TO.C,C24*%
X78245000Y-65087500D03*
X78245000Y-66222500D03*
%TD*%
D41*
%TO.C,D3*%
X49955000Y-47180000D03*
X49955000Y-50480000D03*
%TD*%
D13*
%TO.C,R46*%
X72420000Y-74177500D03*
X72420000Y-72982500D03*
%TD*%
D33*
%TO.C,R1*%
X39170000Y-47580000D03*
X39170000Y-45580000D03*
%TD*%
D14*
%TO.C,R22*%
X89670000Y-51262500D03*
X89670000Y-52397500D03*
%TD*%
D59*
%TO.C,Y1*%
X67370000Y-58480000D03*
X67370000Y-60580000D03*
X69020000Y-60580000D03*
X69020000Y-58480000D03*
%TD*%
D12*
%TO.C,D2*%
X45895000Y-83080000D03*
X47945000Y-83080000D03*
%TD*%
D26*
%TO.C,H3*%
X103460000Y-77460000D03*
%TD*%
D60*
%TO.C,U3*%
X78245000Y-56392500D03*
X77845000Y-56392500D03*
X77445000Y-56392500D03*
X77045000Y-56392500D03*
X76645000Y-56392500D03*
X76245000Y-56392500D03*
X75845000Y-56392500D03*
X75445000Y-56392500D03*
X75045000Y-56392500D03*
X74645000Y-56392500D03*
X74245000Y-56392500D03*
X73845000Y-56392500D03*
X73445000Y-56392500D03*
X73045000Y-56392500D03*
D61*
X72207500Y-57230000D03*
X72207500Y-57630000D03*
X72207500Y-58030000D03*
X72207500Y-58430000D03*
X72207500Y-58830000D03*
X72207500Y-59230000D03*
X72207500Y-59630000D03*
X72207500Y-60030000D03*
X72207500Y-60430000D03*
X72207500Y-60830000D03*
X72207500Y-61230000D03*
X72207500Y-61630000D03*
X72207500Y-62030000D03*
X72207500Y-62430000D03*
D60*
X73045000Y-63267500D03*
X73445000Y-63267500D03*
X73845000Y-63267500D03*
X74245000Y-63267500D03*
X74645000Y-63267500D03*
X75045000Y-63267500D03*
X75445000Y-63267500D03*
X75845000Y-63267500D03*
X76245000Y-63267500D03*
X76645000Y-63267500D03*
X77045000Y-63267500D03*
X77445000Y-63267500D03*
X77845000Y-63267500D03*
X78245000Y-63267500D03*
D61*
X79082500Y-62430000D03*
X79082500Y-62030000D03*
X79082500Y-61630000D03*
X79082500Y-61230000D03*
X79082500Y-60830000D03*
X79082500Y-60430000D03*
X79082500Y-60030000D03*
X79082500Y-59630000D03*
X79082500Y-59230000D03*
X79082500Y-58830000D03*
X79082500Y-58430000D03*
X79082500Y-58030000D03*
X79082500Y-57630000D03*
X79082500Y-57230000D03*
D62*
X75645000Y-59830000D03*
%TD*%
D42*
%TO.C,C35*%
X97920000Y-49647500D03*
X97920000Y-48512500D03*
%TD*%
D19*
%TO.C,R12*%
X82170000Y-48232500D03*
X82170000Y-49427500D03*
%TD*%
D30*
%TO.C,C9*%
X56670000Y-59042500D03*
X56670000Y-61117500D03*
%TD*%
D63*
%TO.C,R15*%
X82170000Y-74330000D03*
X80170000Y-74330000D03*
%TD*%
D42*
%TO.C,C21*%
X78420000Y-54147500D03*
X78420000Y-53012500D03*
%TD*%
D30*
%TO.C,C36*%
X98420000Y-75292500D03*
X98420000Y-77367500D03*
%TD*%
D13*
%TO.C,R13*%
X81670000Y-54177500D03*
X81670000Y-52982500D03*
%TD*%
D18*
%TO.C,R9*%
X47670000Y-75330000D03*
X47670000Y-77330000D03*
%TD*%
D30*
%TO.C,C7*%
X43170000Y-75292500D03*
X43170000Y-77367500D03*
%TD*%
D33*
%TO.C,R10*%
X49920000Y-77330000D03*
X49920000Y-75330000D03*
%TD*%
D56*
%TO.C,C1*%
X42482500Y-41580000D03*
X39357500Y-41580000D03*
%TD*%
D34*
%TO.C,J1*%
X50120000Y-34280000D03*
D16*
X47580000Y-34280000D03*
X45040000Y-34280000D03*
X42500000Y-34280000D03*
X39960000Y-34280000D03*
%TD*%
D20*
%TO.C,C29*%
X83602500Y-54330000D03*
X84737500Y-54330000D03*
%TD*%
D33*
%TO.C,R2*%
X39170000Y-51580000D03*
X39170000Y-49580000D03*
%TD*%
D19*
%TO.C,R50*%
X87920000Y-77482500D03*
X87920000Y-78677500D03*
%TD*%
D27*
%TO.C,C32*%
X90487500Y-54330000D03*
X89352500Y-54330000D03*
%TD*%
D19*
%TO.C,R51*%
X84170000Y-77482500D03*
X84170000Y-78677500D03*
%TD*%
D20*
%TO.C,C26*%
X81352500Y-63580000D03*
X82487500Y-63580000D03*
%TD*%
D14*
%TO.C,C17*%
X72170000Y-64762500D03*
X72170000Y-65897500D03*
%TD*%
D32*
%TO.C,R44*%
X66767500Y-72080000D03*
X65572500Y-72080000D03*
%TD*%
D11*
%TO.C,R42*%
X65572500Y-70830000D03*
X66767500Y-70830000D03*
%TD*%
M02*
