%TF.GenerationSoftware,KiCad,Pcbnew,10.0.3-10.0.3~ubuntu24.04.1*%
%TF.CreationDate,2026-05-29T22:33:17-04:00*%
%TF.ProjectId,phyduino_pico,70687964-7569-46e6-9f5f-7069636f2e6b,E*%
%TF.SameCoordinates,Original*%
%TF.FileFunction,Copper,L4,Bot*%
%TF.FilePolarity,Positive*%
%FSLAX46Y46*%
G04 Gerber Fmt 4.6, Leading zero omitted, Abs format (unit mm)*
G04 Created by KiCad (PCBNEW 10.0.3-10.0.3~ubuntu24.04.1) date 2026-05-29 22:33:17*
%MOMM*%
%LPD*%
G01*
G04 APERTURE LIST*
G04 Aperture macros list*
%AMRoundRect*
0 Rectangle with rounded corners*
0 $1 Rounding radius*
0 $2 $3 $4 $5 $6 $7 $8 $9 X,Y pos of 4 corners*
0 Add a 4 corners polygon primitive as box body*
4,1,4,$2,$3,$4,$5,$6,$7,$8,$9,$2,$3,0*
0 Add four circle primitives for the rounded corners*
1,1,$1+$1,$2,$3*
1,1,$1+$1,$4,$5*
1,1,$1+$1,$6,$7*
1,1,$1+$1,$8,$9*
0 Add four rect primitives between the rounded corners*
20,1,$1+$1,$2,$3,$4,$5,0*
20,1,$1+$1,$4,$5,$6,$7,0*
20,1,$1+$1,$6,$7,$8,$9,0*
20,1,$1+$1,$8,$9,$2,$3,0*%
G04 Aperture macros list end*
%TA.AperFunction,ComponentPad*%
%ADD10R,1.700000X1.700000*%
%TD*%
%TA.AperFunction,ComponentPad*%
%ADD11O,1.700000X1.700000*%
%TD*%
%TA.AperFunction,ComponentPad*%
%ADD12C,2.000000*%
%TD*%
%TA.AperFunction,SMDPad,CuDef*%
%ADD13RoundRect,0.250000X0.350000X0.450000X-0.350000X0.450000X-0.350000X-0.450000X0.350000X-0.450000X0*%
%TD*%
%TA.AperFunction,SMDPad,CuDef*%
%ADD14RoundRect,0.250000X0.337500X0.475000X-0.337500X0.475000X-0.337500X-0.475000X0.337500X-0.475000X0*%
%TD*%
%TA.AperFunction,SMDPad,CuDef*%
%ADD15RoundRect,0.250000X0.475000X-0.337500X0.475000X0.337500X-0.475000X0.337500X-0.475000X-0.337500X0*%
%TD*%
%TA.AperFunction,SMDPad,CuDef*%
%ADD16RoundRect,0.250000X-0.450000X0.350000X-0.450000X-0.350000X0.450000X-0.350000X0.450000X0.350000X0*%
%TD*%
%TA.AperFunction,ViaPad*%
%ADD17C,0.550000*%
%TD*%
%TA.AperFunction,Conductor*%
%ADD18C,0.200000*%
%TD*%
%TA.AperFunction,Conductor*%
%ADD19C,1.000000*%
%TD*%
%TA.AperFunction,Conductor*%
%ADD20C,0.130000*%
%TD*%
%TA.AperFunction,Conductor*%
%ADD21C,0.600000*%
%TD*%
%TA.AperFunction,Conductor*%
%ADD22C,0.300000*%
%TD*%
G04 APERTURE END LIST*
D10*
%TO.P,J2,1,Pin_1_1*%
%TO.N,unconnected-(J2-Pin_1-Pad1)*%
X65360000Y-82540000D03*
D11*
%TO.P,J2,2,Pin_2_2*%
%TO.N,unconnected-(J2-Pin_2-Pad2)*%
X67900000Y-82540000D03*
%TO.P,J2,3,Pin_3_3*%
%TO.N,~{RESET}*%
X70440000Y-82540000D03*
%TO.P,J2,4,Pin_4_4*%
%TO.N,+3.3V*%
X72980000Y-82540000D03*
%TO.P,J2,5,Pin_5_5*%
%TO.N,+5V*%
X75520000Y-82540000D03*
%TO.P,J2,6,Pin_6_6*%
%TO.N,GND*%
X78060000Y-82540000D03*
%TO.P,J2,7,Pin_7_7*%
X80600000Y-82540000D03*
%TO.P,J2,8,Pin_8_8*%
%TO.N,VBUS*%
X83140000Y-82540000D03*
%TD*%
D10*
%TO.P,J5,1,Pin_1_1*%
%TO.N,/D0*%
X100920000Y-34280000D03*
D11*
%TO.P,J5,2,Pin_2_2*%
%TO.N,/D1*%
X98380000Y-34280000D03*
%TO.P,J5,3,Pin_3_3*%
%TO.N,/D2*%
X95840000Y-34280000D03*
%TO.P,J5,4,Pin_4_4*%
%TO.N,/D3*%
X93300000Y-34280000D03*
%TO.P,J5,5,Pin_5_5*%
%TO.N,/D4*%
X90760000Y-34280000D03*
%TO.P,J5,6,Pin_6_6*%
%TO.N,/D5*%
X88220000Y-34280000D03*
%TO.P,J5,7,Pin_7_7*%
%TO.N,/D6*%
X85680000Y-34280000D03*
%TO.P,J5,8,Pin_8_8*%
%TO.N,/D7*%
X83140000Y-34280000D03*
%TD*%
D10*
%TO.P,J3,1,Pin_1_1*%
%TO.N,/D8*%
X79080000Y-34280000D03*
D11*
%TO.P,J3,2,Pin_2_2*%
%TO.N,/D9*%
X76540000Y-34280000D03*
%TO.P,J3,3,Pin_3_3*%
%TO.N,/D10*%
X74000000Y-34280000D03*
%TO.P,J3,4,Pin_4_4*%
%TO.N,/D11*%
X71460000Y-34280000D03*
%TO.P,J3,5,Pin_5_5*%
%TO.N,/D12*%
X68920000Y-34280000D03*
%TO.P,J3,6,Pin_6_6*%
%TO.N,/D13*%
X66380000Y-34280000D03*
%TO.P,J3,7,Pin_7_7*%
%TO.N,GND*%
X63840000Y-34280000D03*
%TO.P,J3,8,Pin_8_8*%
%TO.N,/AREF*%
X61300000Y-34280000D03*
%TO.P,J3,9,Pin_9_9*%
%TO.N,/D18*%
X58760000Y-34280000D03*
%TO.P,J3,10,Pin_10_10*%
%TO.N,/D19*%
X56220000Y-34280000D03*
%TD*%
D10*
%TO.P,J4,1,Pin_1_1*%
%TO.N,/A0*%
X88220000Y-82540000D03*
D11*
%TO.P,J4,2,Pin_2_2*%
%TO.N,/A1*%
X90760000Y-82540000D03*
%TO.P,J4,3,Pin_3_3*%
%TO.N,/A2*%
X93300000Y-82540000D03*
%TO.P,J4,4,Pin_4_4*%
%TO.N,/A3*%
X95840000Y-82540000D03*
%TO.P,J4,5,Pin_5_5*%
%TO.N,/A4*%
X98380000Y-82540000D03*
%TO.P,J4,6,Pin_6_6*%
%TO.N,/A5*%
X100920000Y-82540000D03*
%TD*%
D12*
%TO.P,SW2,1,1_1*%
%TO.N,GND*%
X97922000Y-68329000D03*
X104422000Y-68329000D03*
%TO.P,SW2,2,2_2*%
%TO.N,~{RESET}*%
X97922000Y-72829000D03*
X104422000Y-72829000D03*
%TD*%
D13*
%TO.P,R37,1*%
%TO.N,/VBUS_LED*%
X41920000Y-83080000D03*
%TO.P,R37,2*%
%TO.N,VBUS*%
X39920000Y-83080000D03*
%TD*%
D14*
%TO.P,C37,1*%
%TO.N,GNDPWR*%
X103957500Y-61345000D03*
%TO.P,C37,2*%
%TO.N,GND*%
X101882500Y-61345000D03*
%TD*%
D15*
%TO.P,C39,1*%
%TO.N,/Net-(C2-Pad1)*%
X40914000Y-77371500D03*
%TO.P,C39,2*%
%TO.N,GND*%
X40914000Y-75296500D03*
%TD*%
%TO.P,C38,1*%
%TO.N,/Net-(C1-Pad1)*%
X40913000Y-55371500D03*
%TO.P,C38,2*%
%TO.N,GND*%
X40913000Y-53296500D03*
%TD*%
D13*
%TO.P,R31,1*%
%TO.N,GNDPWR*%
X103920000Y-59086000D03*
%TO.P,R31,2*%
%TO.N,GND*%
X101920000Y-59086000D03*
%TD*%
%TO.P,R36,1*%
%TO.N,/3V3_LED*%
X47920000Y-83080000D03*
%TO.P,R36,2*%
%TO.N,+3.3V*%
X45920000Y-83080000D03*
%TD*%
D16*
%TO.P,R32,1*%
%TO.N,+3.3V*%
X99912000Y-69584000D03*
%TO.P,R32,2*%
%TO.N,~{RESET}*%
X99912000Y-71584000D03*
%TD*%
D15*
%TO.P,C36,1*%
%TO.N,~{RESET}*%
X102164000Y-71619500D03*
%TO.P,C36,2*%
%TO.N,GND*%
X102164000Y-69544500D03*
%TD*%
D13*
%TO.P,R35,1*%
%TO.N,/5V_LED*%
X59664000Y-83085000D03*
%TO.P,R35,2*%
%TO.N,+5V*%
X57664000Y-83085000D03*
%TD*%
D17*
%TO.N,GND*%
X45890000Y-81706000D03*
X83353000Y-63572000D03*
X66774000Y-62277000D03*
X72418000Y-52102000D03*
X83924000Y-76746000D03*
X89160000Y-56830000D03*
X84358000Y-58582000D03*
X60909000Y-61108000D03*
X47673000Y-78582000D03*
X92620000Y-68494000D03*
X39168000Y-52828000D03*
X87671000Y-76756000D03*
X81812000Y-50578000D03*
X102160000Y-68550000D03*
X78424000Y-52445000D03*
X87670000Y-48581000D03*
X91425000Y-76684000D03*
X93922000Y-79454000D03*
X89160000Y-59330000D03*
X43170000Y-56582000D03*
X40910000Y-74080000D03*
X67967000Y-71827000D03*
X89169000Y-62857000D03*
X42470000Y-43280000D03*
X76920000Y-61080000D03*
X45423000Y-56578000D03*
X42470000Y-39840000D03*
X80672000Y-52443000D03*
X66820000Y-64083000D03*
X88420000Y-47830000D03*
X72171000Y-66706000D03*
X98418000Y-74236000D03*
X69352000Y-76072000D03*
X72426000Y-74879000D03*
X99672000Y-45826000D03*
X78247000Y-67029000D03*
X74642000Y-67026000D03*
X97626000Y-56629000D03*
X75645000Y-59830000D03*
X81820000Y-47335000D03*
X86414000Y-79394000D03*
X76920000Y-58580000D03*
X83609000Y-59827000D03*
X68771000Y-55871000D03*
X56331000Y-83079000D03*
X38915000Y-83072000D03*
X45683000Y-70430000D03*
X88010000Y-70961000D03*
X79181000Y-72077000D03*
X47669000Y-56579000D03*
X70090000Y-58479000D03*
X96421000Y-79458000D03*
X88424000Y-43126000D03*
X74420000Y-58580000D03*
X45405000Y-48191000D03*
X43163000Y-78588000D03*
X40910000Y-52170000D03*
X43665000Y-63174000D03*
X86920000Y-49330000D03*
X42485000Y-64961000D03*
X89187000Y-58084000D03*
X73250000Y-58830000D03*
X71920000Y-71829000D03*
X101693000Y-49572000D03*
X87419000Y-43133000D03*
X45418000Y-78592000D03*
X42487000Y-61431000D03*
X49956000Y-51554000D03*
X83346000Y-64828000D03*
X67998000Y-70055000D03*
X64711000Y-70830000D03*
X101900000Y-57840000D03*
X71893000Y-70331000D03*
X88419500Y-49330500D03*
X88012000Y-73195000D03*
X74420000Y-61080000D03*
X87914000Y-51335000D03*
X69372000Y-78831000D03*
X92863000Y-56176000D03*
X86920000Y-47830000D03*
X43924000Y-35334000D03*
X55413000Y-61101000D03*
X66138000Y-60582000D03*
X97607000Y-63035000D03*
X98919000Y-39829000D03*
X64750000Y-69576000D03*
X89452000Y-66577000D03*
X73663000Y-74872000D03*
X39170000Y-74726000D03*
X93803000Y-74578000D03*
X70923000Y-67486000D03*
X90165000Y-79452000D03*
X49917000Y-73749000D03*
X79176000Y-69830000D03*
X81815000Y-49326000D03*
X74695000Y-52074000D03*
%TO.N,/5V_LED*%
X60950000Y-83080000D03*
%TO.N,/+VBUS_SRC*%
X94920000Y-52830000D03*
X91920000Y-53830000D03*
X94920000Y-53830000D03*
X92920000Y-52830000D03*
X93920000Y-53830000D03*
X93920000Y-52830000D03*
X97609000Y-62232000D03*
X97607000Y-57435000D03*
X94190000Y-50860000D03*
X92920000Y-53830000D03*
X86421000Y-45631000D03*
X99669000Y-51084000D03*
%TO.N,+3.3V*%
X83818000Y-52575000D03*
X81714000Y-66402000D03*
X98429000Y-78388000D03*
X54920000Y-57580000D03*
X89669000Y-42976000D03*
X80971000Y-66875000D03*
X89038000Y-52582000D03*
X85366000Y-66581000D03*
X89174000Y-61811000D03*
X74694000Y-55023000D03*
X71102000Y-60101000D03*
X58170000Y-57580000D03*
X81984000Y-58582000D03*
X83623000Y-44680000D03*
X80070000Y-62026000D03*
X98923000Y-41830000D03*
X78245000Y-64276000D03*
X78470000Y-44679000D03*
X59670000Y-57580000D03*
X93784000Y-72082000D03*
X74645000Y-64302000D03*
X80136000Y-60018000D03*
X78420000Y-54726000D03*
X70921000Y-64951000D03*
X72420000Y-54999000D03*
X87374000Y-68051000D03*
X80668000Y-54726000D03*
X85342000Y-59987000D03*
X74640000Y-57400000D03*
X78873000Y-56586000D03*
X56670000Y-57580000D03*
X69623000Y-64074000D03*
X44480000Y-83060000D03*
X99890000Y-68580000D03*
%TO.N,~{RESET}*%
X72144000Y-67582000D03*
%TO.N,+5V*%
X70920000Y-75330000D03*
X70920000Y-76830000D03*
X70920000Y-76080000D03*
%TO.N,VBUS*%
X47170000Y-41330000D03*
X45920000Y-41330000D03*
X68170000Y-67330000D03*
X93170000Y-44580000D03*
X48670000Y-41330000D03*
X69670000Y-68830000D03*
X39359000Y-64978000D03*
X39350000Y-43370000D03*
X40411000Y-45577000D03*
X44670000Y-41330000D03*
X68920000Y-68080000D03*
X48670000Y-60080000D03*
X43667000Y-70439000D03*
X80175000Y-75584000D03*
X39910000Y-81550000D03*
X43404000Y-48205000D03*
X44920000Y-60080000D03*
X39358000Y-61405000D03*
X40366000Y-67578000D03*
X96920000Y-44580000D03*
X95670000Y-44580000D03*
X39360000Y-39780000D03*
X94420000Y-44580000D03*
X47420000Y-60080000D03*
X46170000Y-60080000D03*
%TO.N,/ADC.MISO*%
X75872000Y-69223000D03*
X85082000Y-70980000D03*
%TO.N,+1V1*%
X78090000Y-59630000D03*
X78140000Y-61630000D03*
X72168000Y-63916000D03*
X73220000Y-60650000D03*
X80492000Y-63574000D03*
X80994000Y-60398000D03*
%TO.N,/USBPD_CC1*%
X97446000Y-61080000D03*
X84608000Y-47330000D03*
%TO.N,/USBPD_CC2*%
X84619000Y-49328000D03*
X94975000Y-58051000D03*
%TO.N,USBPD_RST*%
X83679000Y-51385000D03*
X77920000Y-57640000D03*
%TO.N,/USBPD_DISCH*%
X91855000Y-47594000D03*
X89947000Y-51857000D03*
%TO.N,/USBPD_POK3*%
X80422000Y-45452000D03*
X90447000Y-49325000D03*
%TO.N,/USBPD_VBUS_EN_SNK*%
X91673000Y-51751000D03*
X96561000Y-50594000D03*
%TO.N,/USBPD.~{INT}*%
X78995000Y-48530000D03*
X89672000Y-45675000D03*
%TO.N,/USBPD_POK2*%
X81774000Y-45460000D03*
X88418000Y-45630000D03*
%TO.N,/Net-(C1-Pad1)*%
X40921000Y-56457000D03*
%TO.N,/USB_D_P*%
X100079000Y-59982000D03*
X96590160Y-58982000D03*
X100079000Y-59982000D03*
%TO.N,/USB_D_N*%
X100079000Y-60682000D03*
X96590160Y-59682000D03*
X100079000Y-60682000D03*
%TO.N,GNDPWR*%
X103143000Y-63064000D03*
%TO.N,/D0*%
X77293000Y-44482000D03*
X77545000Y-53579000D03*
%TO.N,/D1*%
X77920000Y-55521000D03*
X76693000Y-46832000D03*
%TO.N,/D7*%
X67773000Y-36693000D03*
%TO.N,/D8*%
X70996000Y-62111000D03*
X73077000Y-47203000D03*
%TO.N,/D9*%
X73078000Y-44124000D03*
X71018000Y-63031000D03*
%TO.N,/D10*%
X70095000Y-36880000D03*
%TO.N,/AREF*%
X90719000Y-68524000D03*
X68509000Y-47540000D03*
%TO.N,/D18*%
X76051000Y-64852000D03*
X69346000Y-50680000D03*
%TO.N,/D19*%
X68845000Y-51485000D03*
X76474557Y-65383980D03*
%TO.N,/Net-(C2-Pad1)*%
X40925000Y-78584000D03*
%TO.N,/VBUS_LED*%
X41945000Y-81543000D03*
%TO.N,/AIN3_VBUS*%
X95168000Y-76756000D03*
X86100000Y-73279000D03*
%TO.N,/ADC.~{CNVST}*%
X75950000Y-70726000D03*
X86522000Y-72211000D03*
%TO.N,/ADC.~{CS}*%
X86748000Y-70979000D03*
X74408000Y-67894000D03*
%TO.N,/ADC.SCK*%
X75321000Y-67428000D03*
X86100000Y-67997000D03*
%TO.N,/ADC.MOSI*%
X84938000Y-67513000D03*
X75949000Y-66954000D03*
%TO.N,/ADC.~{EOC}*%
X75344000Y-69804000D03*
X84197000Y-70969000D03*
%TO.N,/VBUS_MONITOR*%
X95177000Y-79448000D03*
X82164000Y-75581000D03*
%TO.N,/XIP_~{CS}*%
X80345000Y-57002000D03*
X92871000Y-59993000D03*
%TO.N,/XIP_SD1*%
X92882000Y-58691000D03*
X82072000Y-56934000D03*
%TO.N,/XIP_SD2*%
X92901000Y-57454000D03*
X84622000Y-57196000D03*
%TO.N,/BOOTMODE*%
X101340000Y-40829000D03*
X97169000Y-55328000D03*
%TO.N,/3V3_LED*%
X48974000Y-83071000D03*
%TO.N,/LED*%
X101673000Y-48329000D03*
X79116000Y-47455000D03*
%TD*%
%TO.N,GND*%
D18*
X40914000Y-74084000D02*
X40910000Y-74080000D01*
D19*
X101920000Y-57860000D02*
X101900000Y-57840000D01*
X101882500Y-61345000D02*
X101882500Y-59123500D01*
D20*
X40913000Y-52173000D02*
X40910000Y-52170000D01*
D19*
X101920000Y-59086000D02*
X101920000Y-57860000D01*
D18*
X40914000Y-75296500D02*
X40914000Y-74084000D01*
D20*
X102164000Y-68554000D02*
X102160000Y-68550000D01*
X101882500Y-59123500D02*
X101920000Y-59086000D01*
X102164000Y-69544500D02*
X102164000Y-68554000D01*
D18*
X40913000Y-53296500D02*
X40913000Y-52173000D01*
%TO.N,/5V_LED*%
D21*
X59664000Y-83085000D02*
X60945000Y-83085000D01*
X60945000Y-83085000D02*
X60950000Y-83080000D01*
%TO.N,/+VBUS_SRC*%
D20*
X89120000Y-46170000D02*
X90010000Y-47060000D01*
X94190000Y-48580000D02*
X94190000Y-50860000D01*
X90010000Y-47060000D02*
X92670000Y-47060000D01*
X88590000Y-44960000D02*
X89120000Y-45490000D01*
X89120000Y-45490000D02*
X89120000Y-46170000D01*
X86421000Y-45631000D02*
X86421000Y-45629000D01*
X86421000Y-45629000D02*
X87090000Y-44960000D01*
X87090000Y-44960000D02*
X88590000Y-44960000D01*
X92670000Y-47060000D02*
X94190000Y-48580000D01*
%TO.N,+3.3V*%
D22*
X45920000Y-83080000D02*
X44500000Y-83080000D01*
D20*
X99912000Y-69584000D02*
X99912000Y-68602000D01*
X99912000Y-68602000D02*
X99890000Y-68580000D01*
X44500000Y-83080000D02*
X44480000Y-83060000D01*
%TO.N,~{RESET}*%
X102164000Y-71619500D02*
X103212500Y-71619500D01*
X95510000Y-72680000D02*
X95040000Y-72680000D01*
X95659000Y-72829000D02*
X95510000Y-72680000D01*
X78680000Y-72690000D02*
X77450000Y-71460000D01*
X73242000Y-67582000D02*
X72144000Y-67582000D01*
X75490000Y-71460000D02*
X74740000Y-70710000D01*
X95030000Y-72690000D02*
X78680000Y-72690000D01*
X74740000Y-70710000D02*
X74740000Y-69080000D01*
X77450000Y-71460000D02*
X75490000Y-71460000D01*
X103212500Y-71619500D02*
X104422000Y-72829000D01*
X95040000Y-72680000D02*
X95030000Y-72690000D01*
X99912000Y-72428000D02*
X99511000Y-72829000D01*
X99912000Y-71584000D02*
X99912000Y-72428000D01*
X97922000Y-72829000D02*
X95659000Y-72829000D01*
X99511000Y-72829000D02*
X97922000Y-72829000D01*
X99947500Y-71619500D02*
X99912000Y-71584000D01*
X102164000Y-71619500D02*
X99947500Y-71619500D01*
X74740000Y-69080000D02*
X73242000Y-67582000D01*
%TO.N,+5V*%
D21*
X57664000Y-83085000D02*
X57664000Y-81196000D01*
X58080000Y-80780000D02*
X70120000Y-80780000D01*
X57664000Y-81196000D02*
X58080000Y-80780000D01*
%TO.N,VBUS*%
D22*
X39920000Y-83080000D02*
X39920000Y-81560000D01*
D20*
X39920000Y-81560000D02*
X39910000Y-81550000D01*
%TO.N,/ADC.MISO*%
X84462000Y-70360000D02*
X78760000Y-70360000D01*
X85082000Y-70980000D02*
X84462000Y-70360000D01*
X78760000Y-70360000D02*
X77623000Y-69223000D01*
X77623000Y-69223000D02*
X75872000Y-69223000D01*
%TO.N,/USBPD_CC1*%
X87780000Y-54580000D02*
X85340000Y-52140000D01*
X96430000Y-61080000D02*
X95490000Y-60140000D01*
X85340000Y-52140000D02*
X85340000Y-48062000D01*
X97446000Y-61080000D02*
X96430000Y-61080000D01*
X85340000Y-48062000D02*
X84608000Y-47330000D01*
X92960000Y-54580000D02*
X87780000Y-54580000D01*
X95490000Y-60140000D02*
X95490000Y-57110000D01*
X95490000Y-57110000D02*
X92960000Y-54580000D01*
%TO.N,/USBPD_CC2*%
X94975000Y-57195000D02*
X92790000Y-55010000D01*
X94975000Y-58051000D02*
X94975000Y-57195000D01*
X84610000Y-49337000D02*
X84619000Y-49328000D01*
X87340000Y-55010000D02*
X84610000Y-52280000D01*
X84610000Y-52280000D02*
X84610000Y-49337000D01*
X92790000Y-55010000D02*
X87340000Y-55010000D01*
%TO.N,USBPD_RST*%
X77920000Y-57640000D02*
X78930000Y-57640000D01*
X82540000Y-54030000D02*
X82540000Y-52524000D01*
X82540000Y-52524000D02*
X83679000Y-51385000D01*
X78930000Y-57640000D02*
X82540000Y-54030000D01*
%TO.N,/USBPD_DISCH*%
X91060000Y-50744000D02*
X89947000Y-51857000D01*
X91855000Y-47595000D02*
X91060000Y-48390000D01*
X91060000Y-48390000D02*
X91060000Y-50744000D01*
X91855000Y-47594000D02*
X91855000Y-47595000D01*
%TO.N,/USBPD_POK3*%
X81790000Y-46820000D02*
X80422000Y-45452000D01*
X89615000Y-49325000D02*
X89270000Y-48980000D01*
X89270000Y-48980000D02*
X89270000Y-47490000D01*
X88600000Y-46820000D02*
X81790000Y-46820000D01*
X90447000Y-49325000D02*
X89615000Y-49325000D01*
X89270000Y-47490000D02*
X88600000Y-46820000D01*
%TO.N,/USBPD_VBUS_EN_SNK*%
X91673000Y-51751000D02*
X94289000Y-51751000D01*
X94289000Y-51751000D02*
X95446000Y-50594000D01*
X95446000Y-50594000D02*
X96561000Y-50594000D01*
%TO.N,/USBPD.~{INT}*%
X79740000Y-45390000D02*
X79740000Y-47785000D01*
X81070000Y-44060000D02*
X79740000Y-45390000D01*
X79740000Y-47785000D02*
X78995000Y-48530000D01*
X89672000Y-45675000D02*
X89672000Y-44722000D01*
X89672000Y-44722000D02*
X89010000Y-44060000D01*
X89010000Y-44060000D02*
X81070000Y-44060000D01*
%TO.N,/USBPD_POK2*%
X88418000Y-45630000D02*
X88400000Y-45630000D01*
X88400000Y-45630000D02*
X87710000Y-46320000D01*
X87710000Y-46320000D02*
X82634000Y-46320000D01*
X82634000Y-46320000D02*
X81774000Y-45460000D01*
%TO.N,/Net-(C1-Pad1)*%
D18*
X40913000Y-55371500D02*
X40913000Y-56449000D01*
D20*
X40913000Y-56449000D02*
X40921000Y-56457000D01*
%TO.N,/USB_D_P*%
D18*
X98844488Y-60157000D02*
X99473000Y-60157000D01*
X97852488Y-59165000D02*
X98844488Y-60157000D01*
X96590160Y-58982000D02*
X96592160Y-58980000D01*
X99473000Y-60157000D02*
X99648000Y-59982000D01*
X96592160Y-58980000D02*
X97010000Y-58980000D01*
X97342000Y-59157000D02*
X97350000Y-59165000D01*
X97350000Y-59165000D02*
X97852488Y-59165000D01*
X99648000Y-59982000D02*
X100079000Y-59982000D01*
X97187000Y-59157000D02*
X97342000Y-59157000D01*
X97010000Y-58980000D02*
X97187000Y-59157000D01*
%TO.N,/USB_D_N*%
X97208062Y-59507000D02*
X97193000Y-59507000D01*
X99465000Y-60507000D02*
X98699512Y-60507000D01*
X97193000Y-59507000D02*
X97020000Y-59680000D01*
X97020000Y-59680000D02*
X96592160Y-59680000D01*
X96592160Y-59680000D02*
X96590160Y-59682000D01*
X100079000Y-60682000D02*
X99640000Y-60682000D01*
X98699512Y-60507000D02*
X97707512Y-59515000D01*
X97216062Y-59515000D02*
X97208062Y-59507000D01*
X97707512Y-59515000D02*
X97216062Y-59515000D01*
X99640000Y-60682000D02*
X99465000Y-60507000D01*
%TO.N,GNDPWR*%
D19*
X103143000Y-63064000D02*
X103957500Y-62249500D01*
D20*
X103957500Y-62249500D02*
X103957500Y-61345000D01*
X103920000Y-61307500D02*
X103957500Y-61345000D01*
D19*
X103920000Y-59086000D02*
X103920000Y-61307500D01*
%TO.N,/D0*%
D20*
X77545000Y-53579000D02*
X77545000Y-52965000D01*
X77290000Y-52710000D02*
X77290000Y-44485000D01*
X77545000Y-52965000D02*
X77290000Y-52710000D01*
X77290000Y-44485000D02*
X77293000Y-44482000D01*
%TO.N,/D1*%
X77910000Y-54730000D02*
X76690000Y-53510000D01*
X77910000Y-55511000D02*
X77910000Y-54730000D01*
X76690000Y-46835000D02*
X76693000Y-46832000D01*
X77920000Y-55521000D02*
X77910000Y-55511000D01*
X76690000Y-53510000D02*
X76690000Y-46835000D01*
%TO.N,/D7*%
X67773000Y-36693000D02*
X68690000Y-37610000D01*
X79810000Y-37610000D02*
X83140000Y-34280000D01*
X68690000Y-37610000D02*
X79810000Y-37610000D01*
%TO.N,/D8*%
X70450000Y-60070000D02*
X71840000Y-58680000D01*
X71840000Y-58680000D02*
X71840000Y-48440000D01*
X71840000Y-48440000D02*
X73077000Y-47203000D01*
X70450000Y-61570000D02*
X70450000Y-60070000D01*
X70991000Y-62111000D02*
X70450000Y-61570000D01*
X70996000Y-62111000D02*
X70991000Y-62111000D01*
%TO.N,/D9*%
X71190000Y-47080000D02*
X73078000Y-45192000D01*
X71190000Y-58520000D02*
X71190000Y-47080000D01*
X70160000Y-59550000D02*
X71190000Y-58520000D01*
X73078000Y-45192000D02*
X73078000Y-44124000D01*
X70160000Y-62173000D02*
X70160000Y-59550000D01*
X71018000Y-63031000D02*
X70160000Y-62173000D01*
%TO.N,/D10*%
X71400000Y-36880000D02*
X74000000Y-34280000D01*
X70095000Y-36880000D02*
X71400000Y-36880000D01*
%TO.N,/AREF*%
D21*
X65400000Y-58420000D02*
X65400000Y-51770000D01*
X67490000Y-60510000D02*
X65400000Y-58420000D01*
X68509000Y-48661000D02*
X68509000Y-47540000D01*
X78690000Y-66190000D02*
X73090000Y-66190000D01*
X73090000Y-66190000D02*
X72770000Y-65870000D01*
X79170000Y-65700000D02*
X79170000Y-65710000D01*
X79290000Y-65580000D02*
X79170000Y-65700000D01*
X67490000Y-62970000D02*
X67490000Y-60510000D01*
X79170000Y-65710000D02*
X78690000Y-66190000D01*
X89284000Y-68524000D02*
X86340000Y-65580000D01*
X86340000Y-65580000D02*
X79290000Y-65580000D01*
X70390000Y-65870000D02*
X67490000Y-62970000D01*
X72770000Y-65870000D02*
X70390000Y-65870000D01*
X90719000Y-68524000D02*
X89284000Y-68524000D01*
X65400000Y-51770000D02*
X68509000Y-48661000D01*
%TO.N,/D18*%
D20*
X69620000Y-62610000D02*
X69620000Y-50954000D01*
X71800000Y-64790000D02*
X69620000Y-62610000D01*
X76051000Y-64852000D02*
X75142000Y-64852000D01*
X75080000Y-64790000D02*
X71800000Y-64790000D01*
X69620000Y-50954000D02*
X69346000Y-50680000D01*
X75142000Y-64852000D02*
X75080000Y-64790000D01*
%TO.N,/D19*%
X69270000Y-62630000D02*
X69270000Y-51910000D01*
X71060000Y-64420000D02*
X69270000Y-62630000D01*
X69270000Y-51910000D02*
X68845000Y-51485000D01*
X71684681Y-65050000D02*
X71060000Y-64425319D01*
X75293980Y-65383980D02*
X74960000Y-65050000D01*
X74960000Y-65050000D02*
X71684681Y-65050000D01*
X76474557Y-65383980D02*
X75293980Y-65383980D01*
X71060000Y-64425319D02*
X71060000Y-64420000D01*
%TO.N,/Net-(C2-Pad1)*%
X40914000Y-78573000D02*
X40925000Y-78584000D01*
X40914000Y-77371500D02*
X40914000Y-78573000D01*
%TO.N,/VBUS_LED*%
D22*
X41920000Y-83080000D02*
X41920000Y-81568000D01*
D20*
X41920000Y-81568000D02*
X41945000Y-81543000D01*
%TO.N,/AIN3_VBUS*%
X94542000Y-76130000D02*
X88951000Y-76130000D01*
X88951000Y-76130000D02*
X86100000Y-73279000D01*
X95168000Y-76756000D02*
X94542000Y-76130000D01*
%TO.N,/ADC.~{CNVST}*%
X78420000Y-71530000D02*
X77616000Y-70726000D01*
X86522000Y-72211000D02*
X86511000Y-72211000D01*
X77616000Y-70726000D02*
X75950000Y-70726000D01*
X86511000Y-72211000D02*
X85830000Y-71530000D01*
X85830000Y-71530000D02*
X78420000Y-71530000D01*
%TO.N,/ADC.~{CS}*%
X83760000Y-68560000D02*
X75074000Y-68560000D01*
X86748000Y-70979000D02*
X86179000Y-70979000D01*
X86179000Y-70979000D02*
X83760000Y-68560000D01*
X75074000Y-68560000D02*
X74408000Y-67894000D01*
%TO.N,/ADC.SCK*%
X75890000Y-67997000D02*
X75321000Y-67428000D01*
X86100000Y-67997000D02*
X75890000Y-67997000D01*
%TO.N,/ADC.MOSI*%
X76508000Y-67513000D02*
X75949000Y-66954000D01*
X84938000Y-67513000D02*
X76508000Y-67513000D01*
%TO.N,/ADC.~{EOC}*%
X78699000Y-70969000D02*
X77534000Y-69804000D01*
X84197000Y-70969000D02*
X78699000Y-70969000D01*
X77534000Y-69804000D02*
X75344000Y-69804000D01*
%TO.N,/VBUS_MONITOR*%
X86680000Y-78080000D02*
X84750000Y-76150000D01*
X84750000Y-76150000D02*
X82733000Y-76150000D01*
X82733000Y-76150000D02*
X82164000Y-75581000D01*
X95177000Y-79448000D02*
X93809000Y-78080000D01*
X93809000Y-78080000D02*
X86680000Y-78080000D01*
%TO.N,/XIP_~{CS}*%
X87150000Y-58050000D02*
X81393000Y-58050000D01*
X81393000Y-58050000D02*
X80345000Y-57002000D01*
X92871000Y-59993000D02*
X89093000Y-59993000D01*
X89093000Y-59993000D02*
X87150000Y-58050000D01*
%TO.N,/XIP_SD1*%
X88891000Y-58691000D02*
X87870000Y-57670000D01*
X82808000Y-57670000D02*
X82072000Y-56934000D01*
X92882000Y-58691000D02*
X88891000Y-58691000D01*
X87870000Y-57670000D02*
X82808000Y-57670000D01*
%TO.N,/XIP_SD2*%
X92901000Y-57454000D02*
X88794000Y-57454000D01*
X88794000Y-57454000D02*
X88536000Y-57196000D01*
X88536000Y-57196000D02*
X84622000Y-57196000D01*
%TO.N,/BOOTMODE*%
X102910000Y-50620000D02*
X102910000Y-46010000D01*
X102910000Y-46010000D02*
X100700000Y-43800000D01*
X100700000Y-43800000D02*
X100700000Y-41469000D01*
X97169000Y-55328000D02*
X99287000Y-53210000D01*
X100700000Y-41469000D02*
X101340000Y-40829000D01*
X100320000Y-53210000D02*
X102910000Y-50620000D01*
X99287000Y-53210000D02*
X100320000Y-53210000D01*
%TO.N,/3V3_LED*%
X48965000Y-83080000D02*
X48974000Y-83071000D01*
D22*
X47920000Y-83080000D02*
X48965000Y-83080000D01*
%TO.N,/LED*%
D20*
X86690000Y-43610000D02*
X86360000Y-43280000D01*
X94280000Y-46380000D02*
X91730000Y-46380000D01*
X86360000Y-43280000D02*
X80870000Y-43280000D01*
X90660000Y-45310000D02*
X90660000Y-44130000D01*
X90660000Y-44130000D02*
X90140000Y-43610000D01*
X101673000Y-48329000D02*
X96229000Y-48329000D01*
X80870000Y-43280000D02*
X79116000Y-45034000D01*
X91730000Y-46380000D02*
X90660000Y-45310000D01*
X96229000Y-48329000D02*
X94280000Y-46380000D01*
X79116000Y-45034000D02*
X79116000Y-47455000D01*
X90140000Y-43610000D02*
X86690000Y-43610000D01*
%TD*%
%TA.AperFunction,Conductor*%
%TO.N,VBUS*%
G36*
X49313106Y-59085023D02*
G01*
X49328104Y-59089427D01*
X49343094Y-59099057D01*
X49360175Y-59104067D01*
X49386855Y-59127172D01*
X49388042Y-59128541D01*
X49415518Y-59183402D01*
X49417163Y-59190960D01*
X49420000Y-59217331D01*
X49420000Y-62580000D01*
X64600808Y-62580000D01*
X64635740Y-62585021D01*
X64660984Y-62592434D01*
X64713730Y-62623730D01*
X66387436Y-64297436D01*
X66398123Y-64309621D01*
X66407944Y-64322420D01*
X66416949Y-64335897D01*
X66439502Y-64374960D01*
X66439504Y-64374963D01*
X66439505Y-64374964D01*
X66528036Y-64463495D01*
X66528037Y-64463496D01*
X66528039Y-64463497D01*
X66567097Y-64486047D01*
X66580578Y-64495054D01*
X66593373Y-64504872D01*
X66605562Y-64515562D01*
X69669998Y-67579999D01*
X69669999Y-67579999D01*
X69670000Y-67580000D01*
X70343163Y-67580489D01*
X70378091Y-67585536D01*
X70381050Y-67586407D01*
X70393085Y-67589950D01*
X70451834Y-67627764D01*
X70459378Y-67636483D01*
X70477668Y-67666111D01*
X70478110Y-67665894D01*
X70479902Y-67669529D01*
X70479905Y-67669536D01*
X70488484Y-67684395D01*
X70542503Y-67777962D01*
X70542505Y-67777964D01*
X70631036Y-67866495D01*
X70739464Y-67929095D01*
X70860399Y-67961500D01*
X70860401Y-67961500D01*
X70985599Y-67961500D01*
X70985601Y-67961500D01*
X71106536Y-67929095D01*
X71214964Y-67866495D01*
X71303495Y-67777964D01*
X71345820Y-67704653D01*
X71347328Y-67702113D01*
X71371251Y-67662877D01*
X71371384Y-67662932D01*
X71379615Y-67649422D01*
X71380092Y-67648378D01*
X71382597Y-67644271D01*
X71405824Y-67623162D01*
X71424116Y-67604431D01*
X71423440Y-67603378D01*
X71426539Y-67601387D01*
X71426548Y-67601384D01*
X71427184Y-67600975D01*
X71427613Y-67600849D01*
X71427752Y-67600708D01*
X71427804Y-67600679D01*
X71429765Y-67599579D01*
X71430073Y-67600128D01*
X71431692Y-67599654D01*
X71434304Y-67597281D01*
X71447157Y-67595121D01*
X71494226Y-67581325D01*
X71538681Y-67581358D01*
X71573601Y-67586406D01*
X71588601Y-67590822D01*
X71647346Y-67628637D01*
X71647351Y-67628643D01*
X71647352Y-67628644D01*
X71653158Y-67635354D01*
X71679162Y-67684395D01*
X71700903Y-67765531D01*
X71700905Y-67765536D01*
X71763505Y-67873964D01*
X71852036Y-67962495D01*
X71960464Y-68025095D01*
X72081399Y-68057500D01*
X72081401Y-68057500D01*
X72206599Y-68057500D01*
X72206601Y-68057500D01*
X72327536Y-68025095D01*
X72435964Y-67962495D01*
X72502039Y-67896419D01*
X72527843Y-67876645D01*
X72529047Y-67875951D01*
X72541567Y-67869115D01*
X72547120Y-67865546D01*
X72549740Y-67864038D01*
X72580870Y-67856525D01*
X72611607Y-67847500D01*
X72616610Y-67847500D01*
X72617652Y-67847649D01*
X72617660Y-67847648D01*
X72617674Y-67847653D01*
X72651542Y-67852522D01*
X72658878Y-67854675D01*
X72676796Y-67859937D01*
X72729497Y-67891188D01*
X73163719Y-68324975D01*
X74371023Y-69531072D01*
X74381115Y-69544539D01*
X74392187Y-69559313D01*
X74404801Y-69582385D01*
X74420000Y-69641869D01*
X74420000Y-71080000D01*
X75670000Y-72080000D01*
X77102077Y-72080000D01*
X77137008Y-72085021D01*
X77162635Y-72092546D01*
X77213828Y-72122316D01*
X79759286Y-74580000D01*
X84369305Y-79031052D01*
X84390947Y-79058930D01*
X84403773Y-79081471D01*
X84420000Y-79142796D01*
X84420000Y-83688170D01*
X84419999Y-83688176D01*
X84420000Y-83688179D01*
X84414975Y-83723114D01*
X84410570Y-83738112D01*
X84372827Y-83796855D01*
X84372792Y-83796885D01*
X84372791Y-83796887D01*
X84372789Y-83796887D01*
X84371458Y-83798042D01*
X84316597Y-83825518D01*
X84309039Y-83827163D01*
X84282668Y-83830000D01*
X82061830Y-83830000D01*
X82061825Y-83829999D01*
X82061823Y-83830000D01*
X82026889Y-83824975D01*
X82011890Y-83820570D01*
X81953144Y-83782827D01*
X81953115Y-83782793D01*
X81953114Y-83782793D01*
X81953113Y-83782791D01*
X81951957Y-83781458D01*
X81924477Y-83726583D01*
X81922832Y-83719021D01*
X81920000Y-83692668D01*
X81920000Y-82080000D01*
X78884889Y-79142796D01*
X74170000Y-74580000D01*
X74169999Y-74580000D01*
X74112651Y-74580000D01*
X74112650Y-74579999D01*
X74112650Y-74580000D01*
X74077715Y-74574977D01*
X74052473Y-74567565D01*
X73999728Y-74536269D01*
X73954965Y-74491506D01*
X73954960Y-74491502D01*
X73918290Y-74470331D01*
X73889859Y-74440513D01*
X73806224Y-74418103D01*
X73806224Y-74418102D01*
X73742637Y-74401065D01*
X73725601Y-74396500D01*
X73725600Y-74396500D01*
X73600399Y-74396500D01*
X73519774Y-74418103D01*
X73519773Y-74418102D01*
X73479469Y-74428902D01*
X73479462Y-74428905D01*
X73371037Y-74491503D01*
X73371033Y-74491506D01*
X73331469Y-74531070D01*
X73331468Y-74531073D01*
X73303214Y-74552224D01*
X73280127Y-74564831D01*
X73220698Y-74580000D01*
X72868651Y-74580000D01*
X72833715Y-74574977D01*
X72808473Y-74567565D01*
X72755728Y-74536269D01*
X72717965Y-74498506D01*
X72717960Y-74498502D01*
X72681290Y-74477331D01*
X72652859Y-74447513D01*
X72569224Y-74425103D01*
X72569224Y-74425102D01*
X72505637Y-74408065D01*
X72488601Y-74403500D01*
X72488600Y-74403500D01*
X72363395Y-74403500D01*
X72343309Y-74408882D01*
X72308271Y-74413071D01*
X72294397Y-74412741D01*
X72227845Y-74391468D01*
X72183359Y-74337591D01*
X72183355Y-74337582D01*
X72180009Y-74329767D01*
X72170000Y-74280961D01*
X72170000Y-72320650D01*
X72175022Y-72285717D01*
X72182434Y-72260472D01*
X72213916Y-72207542D01*
X72213964Y-72207495D01*
X72300495Y-72120964D01*
X72363095Y-72012536D01*
X72395500Y-71891601D01*
X72395500Y-71766399D01*
X72363095Y-71645464D01*
X72300495Y-71537036D01*
X72218921Y-71455462D01*
X72197774Y-71427211D01*
X72185167Y-71404122D01*
X72170000Y-71344697D01*
X72170000Y-70795650D01*
X72175022Y-70760717D01*
X72182434Y-70735472D01*
X72213728Y-70682730D01*
X72239271Y-70657188D01*
X72273495Y-70622964D01*
X72336095Y-70514536D01*
X72368500Y-70393601D01*
X72368500Y-70268399D01*
X72336095Y-70147464D01*
X72280691Y-70051500D01*
X72273496Y-70039037D01*
X72216089Y-69981630D01*
X72213459Y-69978637D01*
X72211650Y-69974749D01*
X72197772Y-69956208D01*
X72185166Y-69933120D01*
X72170000Y-69873697D01*
X72170000Y-69830000D01*
X68506578Y-69830000D01*
X68506576Y-69829999D01*
X68506576Y-69830000D01*
X68471642Y-69824977D01*
X68453584Y-69819674D01*
X68398781Y-69786270D01*
X68390775Y-69777874D01*
X68382133Y-69767779D01*
X68378497Y-69763039D01*
X68378495Y-69763036D01*
X68289964Y-69674505D01*
X68289963Y-69674504D01*
X68289960Y-69674502D01*
X68253290Y-69653331D01*
X68224859Y-69623513D01*
X68141224Y-69601103D01*
X68141224Y-69601102D01*
X68071368Y-69582385D01*
X68060601Y-69579500D01*
X68060600Y-69579500D01*
X67935399Y-69579500D01*
X67854774Y-69601103D01*
X67854773Y-69601102D01*
X67814469Y-69611902D01*
X67814462Y-69611905D01*
X67706035Y-69674504D01*
X67706033Y-69674506D01*
X67614945Y-69765595D01*
X67604056Y-69778089D01*
X67588122Y-69793283D01*
X67531796Y-69824044D01*
X67521673Y-69826501D01*
X67492426Y-69830000D01*
X66239192Y-69830000D01*
X66204256Y-69824977D01*
X66179014Y-69817565D01*
X66126269Y-69786269D01*
X64670000Y-68330000D01*
X44561830Y-68330000D01*
X44561825Y-68329999D01*
X44561823Y-68330000D01*
X44526889Y-68324975D01*
X44511890Y-68320570D01*
X44453144Y-68282827D01*
X44453115Y-68282793D01*
X44453114Y-68282793D01*
X44453113Y-68282791D01*
X44451957Y-68281458D01*
X44424477Y-68226583D01*
X44422832Y-68219021D01*
X44420000Y-68192668D01*
X44420000Y-59221829D01*
X44425023Y-59186893D01*
X44429427Y-59171895D01*
X44467172Y-59113144D01*
X44467200Y-59113119D01*
X44467199Y-59113119D01*
X44468541Y-59111956D01*
X44523420Y-59084477D01*
X44530979Y-59082833D01*
X44557332Y-59080000D01*
X49278170Y-59080000D01*
X49313106Y-59085023D01*
G37*
%TD.AperFunction*%
%TD*%
%TA.AperFunction,Conductor*%
%TO.N,+1V1*%
G36*
X81575660Y-58849685D02*
G01*
X81596820Y-58869154D01*
X81597758Y-58868217D01*
X81603505Y-58873964D01*
X81692036Y-58962495D01*
X81800464Y-59025095D01*
X81828095Y-59032499D01*
X81887754Y-59068864D01*
X81918283Y-59131711D01*
X81920000Y-59152273D01*
X81920000Y-63706000D01*
X81900315Y-63773039D01*
X81847511Y-63818794D01*
X81796000Y-63830000D01*
X78434021Y-63830000D01*
X78401928Y-63825775D01*
X78353417Y-63812776D01*
X78307601Y-63800500D01*
X78182399Y-63800500D01*
X78088072Y-63825775D01*
X78055979Y-63830000D01*
X74720663Y-63830000D01*
X74707601Y-63826500D01*
X74582399Y-63826500D01*
X74569337Y-63830000D01*
X72670000Y-63830000D01*
X72670000Y-64178000D01*
X72650315Y-64245039D01*
X72597511Y-64290794D01*
X72546000Y-64302000D01*
X71794000Y-64302000D01*
X71726961Y-64282315D01*
X71681206Y-64229511D01*
X71670000Y-64178000D01*
X71670000Y-61963399D01*
X79594500Y-61963399D01*
X79594500Y-62088601D01*
X79626905Y-62209536D01*
X79689505Y-62317964D01*
X79778036Y-62406495D01*
X79886464Y-62469095D01*
X80007399Y-62501500D01*
X80007401Y-62501500D01*
X80132599Y-62501500D01*
X80132601Y-62501500D01*
X80253536Y-62469095D01*
X80361964Y-62406495D01*
X80450495Y-62317964D01*
X80513095Y-62209536D01*
X80545500Y-62088601D01*
X80545500Y-61963399D01*
X80513095Y-61842464D01*
X80450495Y-61734036D01*
X80361964Y-61645505D01*
X80253536Y-61582905D01*
X80253537Y-61582905D01*
X80213224Y-61572103D01*
X80132601Y-61550500D01*
X80007399Y-61550500D01*
X79926775Y-61572103D01*
X79886463Y-61582905D01*
X79778037Y-61645504D01*
X79778034Y-61645506D01*
X79689506Y-61734034D01*
X79689504Y-61734037D01*
X79626905Y-61842463D01*
X79626905Y-61842464D01*
X79594500Y-61963399D01*
X71670000Y-61963399D01*
X71670000Y-60454057D01*
X71689685Y-60387018D01*
X71742489Y-60341263D01*
X71794055Y-60330057D01*
X73798442Y-60330987D01*
X73865471Y-60350703D01*
X73911201Y-60403528D01*
X73922383Y-60455250D01*
X73920530Y-61330000D01*
X73946179Y-61330000D01*
X74013218Y-61349685D01*
X74033860Y-61366319D01*
X74039505Y-61371964D01*
X74128036Y-61460495D01*
X74236464Y-61523095D01*
X74357399Y-61555500D01*
X74357401Y-61555500D01*
X74482599Y-61555500D01*
X74482601Y-61555500D01*
X74603536Y-61523095D01*
X74711964Y-61460495D01*
X74800495Y-61371964D01*
X74800495Y-61371963D01*
X74806140Y-61366319D01*
X74867463Y-61332834D01*
X74893821Y-61330000D01*
X76446179Y-61330000D01*
X76513218Y-61349685D01*
X76533860Y-61366319D01*
X76539505Y-61371964D01*
X76628036Y-61460495D01*
X76736464Y-61523095D01*
X76857399Y-61555500D01*
X76857401Y-61555500D01*
X76982599Y-61555500D01*
X76982601Y-61555500D01*
X77103536Y-61523095D01*
X77211964Y-61460495D01*
X77300495Y-61371964D01*
X77300495Y-61371963D01*
X77306140Y-61366319D01*
X77367463Y-61332834D01*
X77393821Y-61330000D01*
X77418863Y-61330000D01*
X77418864Y-61330000D01*
X77412615Y-59955399D01*
X79660500Y-59955399D01*
X79660500Y-60080601D01*
X79692905Y-60201536D01*
X79755505Y-60309964D01*
X79844036Y-60398495D01*
X79952464Y-60461095D01*
X80073399Y-60493500D01*
X80073401Y-60493500D01*
X80198599Y-60493500D01*
X80198601Y-60493500D01*
X80319536Y-60461095D01*
X80427964Y-60398495D01*
X80516495Y-60309964D01*
X80579095Y-60201536D01*
X80611500Y-60080601D01*
X80611500Y-59955399D01*
X80579095Y-59834464D01*
X80516495Y-59726036D01*
X80427964Y-59637505D01*
X80319536Y-59574905D01*
X80319537Y-59574905D01*
X80279224Y-59564103D01*
X80198601Y-59542500D01*
X80073399Y-59542500D01*
X79992775Y-59564103D01*
X79952463Y-59574905D01*
X79844037Y-59637504D01*
X79844034Y-59637506D01*
X79755506Y-59726034D01*
X79755504Y-59726037D01*
X79692905Y-59834463D01*
X79692905Y-59834464D01*
X79660500Y-59955399D01*
X77412615Y-59955399D01*
X77408065Y-58954563D01*
X77427445Y-58887435D01*
X77480040Y-58841441D01*
X77532064Y-58830000D01*
X81508621Y-58830000D01*
X81575660Y-58849685D01*
G37*
%TD.AperFunction*%
%TD*%
%TA.AperFunction,Conductor*%
%TO.N,VBUS*%
G36*
X98113039Y-38849685D02*
G01*
X98158794Y-38902489D01*
X98170000Y-38954000D01*
X98170000Y-45706000D01*
X98150315Y-45773039D01*
X98097511Y-45818794D01*
X98046000Y-45830000D01*
X92294000Y-45830000D01*
X92226961Y-45810315D01*
X92181206Y-45757511D01*
X92170000Y-45706000D01*
X92170000Y-42330000D01*
X43794000Y-42330000D01*
X43726961Y-42310315D01*
X43681206Y-42257511D01*
X43670000Y-42206000D01*
X43670000Y-38954000D01*
X43689685Y-38886961D01*
X43742489Y-38841206D01*
X43794000Y-38830000D01*
X98046000Y-38830000D01*
X98113039Y-38849685D01*
G37*
%TD.AperFunction*%
%TD*%
%TA.AperFunction,Conductor*%
%TO.N,+5V*%
G36*
X71635740Y-75085021D02*
G01*
X71660984Y-75092434D01*
X71713730Y-75123730D01*
X76621074Y-80031074D01*
X76642223Y-80059325D01*
X76654831Y-80082414D01*
X76670000Y-80141843D01*
X76670000Y-83688170D01*
X76664975Y-83723114D01*
X76660570Y-83738112D01*
X76622827Y-83796855D01*
X76621458Y-83798042D01*
X76566597Y-83825518D01*
X76559039Y-83827163D01*
X76532668Y-83830000D01*
X74561830Y-83830000D01*
X74561825Y-83829999D01*
X74561823Y-83830000D01*
X74526889Y-83824975D01*
X74511890Y-83820570D01*
X74453144Y-83782827D01*
X74453115Y-83782793D01*
X74453114Y-83782793D01*
X74453113Y-83782791D01*
X74451957Y-83781458D01*
X74424477Y-83726583D01*
X74422832Y-83719021D01*
X74420000Y-83692668D01*
X74420000Y-81080000D01*
X70061830Y-81080000D01*
X70061825Y-81079999D01*
X70061823Y-81080000D01*
X70026889Y-81074975D01*
X70011890Y-81070570D01*
X69953144Y-81032827D01*
X69953115Y-81032793D01*
X69953114Y-81032793D01*
X69953113Y-81032791D01*
X69951957Y-81031458D01*
X69924477Y-80976583D01*
X69922832Y-80969021D01*
X69920000Y-80942668D01*
X69920000Y-75221829D01*
X69925023Y-75186893D01*
X69929427Y-75171895D01*
X69967172Y-75113144D01*
X69967200Y-75113119D01*
X69967199Y-75113119D01*
X69968541Y-75111956D01*
X70023420Y-75084477D01*
X70030979Y-75082833D01*
X70057332Y-75080000D01*
X71600808Y-75080000D01*
X71635740Y-75085021D01*
G37*
%TD.AperFunction*%
%TD*%
M02*
