M48
; DRILL file KiCad 10.0.3-10.0.3~ubuntu24.04.1 date 2026-05-29T23:38:29
; FORMAT={-:-/ absolute / metric / decimal}
; #@! TF.CreationDate,2026-05-29T23:38:29-04:00
; #@! TF.GenerationSoftware,Kicad,Pcbnew,10.0.3-10.0.3~ubuntu24.04.1
; #@! TF.FileFunction,Plated,1,4,PTH
FMAT,2
METRIC
; #@! TA.AperFunction,Plated,PTH,ViaDrill
T1C0.250
; #@! TA.AperFunction,Plated,PTH,ComponentDrill
T2C1.000
; #@! TA.AperFunction,Plated,PTH,ComponentDrill
T3C1.100
%
G90
G05
T1
X38.915Y-83.072
X39.168Y-52.828
X39.17Y-74.726
X39.35Y-43.37
X39.358Y-61.405
X39.359Y-64.978
X39.36Y-39.78
X39.91Y-81.55
X40.366Y-67.578
X40.411Y-45.577
X40.91Y-52.17
X40.91Y-74.08
X40.921Y-56.457
X40.925Y-78.584
X41.945Y-81.543
X42.47Y-39.84
X42.47Y-43.28
X42.485Y-64.961
X42.487Y-61.431
X43.163Y-78.588
X43.17Y-56.582
X43.404Y-48.205
X43.665Y-63.174
X43.667Y-70.439
X43.924Y-35.334
X44.48Y-83.06
X44.67Y-41.33
X44.92Y-60.08
X45.405Y-48.191
X45.418Y-78.592
X45.423Y-56.578
X45.683Y-70.43
X45.89Y-81.706
X45.92Y-41.33
X46.17Y-60.08
X47.17Y-41.33
X47.42Y-60.08
X47.669Y-56.579
X47.673Y-78.582
X48.67Y-41.33
X48.67Y-60.08
X48.974Y-83.071
X49.917Y-73.749
X49.956Y-51.554
X54.92Y-57.58
X55.413Y-61.101
X56.331Y-83.079
X56.67Y-57.58
X58.17Y-57.58
X59.67Y-57.58
X60.909Y-61.108
X60.95Y-83.08
X64.711Y-70.83
X64.75Y-69.576
X66.138Y-60.582
X66.774Y-62.277
X66.82Y-64.083
X67.773Y-36.693
X67.967Y-71.827
X67.998Y-70.055
X68.17Y-67.33
X68.509Y-47.54
X68.771Y-55.871
X68.845Y-51.485
X68.92Y-68.08
X69.346Y-50.68
X69.352Y-76.072
X69.372Y-78.831
X69.623Y-64.074
X69.67Y-68.83
X70.09Y-58.479
X70.095Y-36.88
X70.92Y-75.33
X70.92Y-76.08
X70.92Y-76.83
X70.921Y-64.951
X70.923Y-67.486
X70.996Y-62.111
X71.018Y-63.031
X71.102Y-60.101
X71.893Y-70.331
X71.92Y-71.829
X72.144Y-67.582
X72.168Y-63.916
X72.171Y-66.706
X72.418Y-52.102
X72.42Y-54.999
X72.426Y-74.879
X73.077Y-47.203
X73.078Y-44.124
X73.22Y-60.65
X73.25Y-58.83
X73.663Y-74.872
X74.408Y-67.894
X74.42Y-58.58
X74.42Y-61.08
X74.64Y-57.4
X74.642Y-67.026
X74.645Y-64.302
X74.694Y-55.023
X74.695Y-52.074
X75.321Y-67.428
X75.344Y-69.804
X75.645Y-59.83
X75.872Y-69.223
X75.949Y-66.954
X75.95Y-70.726
X76.051Y-64.852
X76.475Y-65.384
X76.693Y-46.832
X76.92Y-58.58
X76.92Y-61.08
X77.293Y-44.482
X77.545Y-53.579
X77.92Y-55.521
X77.92Y-57.64
X78.09Y-59.63
X78.14Y-61.63
X78.245Y-64.276
X78.247Y-67.029
X78.42Y-54.726
X78.424Y-52.445
X78.47Y-44.679
X78.873Y-56.586
X78.995Y-48.53
X79.116Y-47.455
X79.176Y-69.83
X79.181Y-72.077
X80.07Y-62.026
X80.136Y-60.018
X80.175Y-75.584
X80.345Y-57.002
X80.422Y-45.452
X80.492Y-63.574
X80.668Y-54.726
X80.672Y-52.443
X80.971Y-66.875
X80.994Y-60.398
X81.714Y-66.402
X81.774Y-45.46
X81.812Y-50.578
X81.815Y-49.326
X81.82Y-47.335
X81.984Y-58.582
X82.072Y-56.934
X82.164Y-75.581
X83.346Y-64.828
X83.353Y-63.572
X83.609Y-59.827
X83.623Y-44.68
X83.679Y-51.385
X83.818Y-52.575
X83.924Y-76.746
X84.197Y-70.969
X84.358Y-58.582
X84.608Y-47.33
X84.619Y-49.328
X84.622Y-57.196
X84.938Y-67.513
X85.082Y-70.98
X85.342Y-59.987
X85.366Y-66.581
X86.1Y-67.997
X86.1Y-73.279
X86.414Y-79.394
X86.421Y-45.631
X86.522Y-72.211
X86.748Y-70.979
X86.92Y-47.83
X86.92Y-49.33
X87.374Y-68.051
X87.419Y-43.133
X87.67Y-48.581
X87.671Y-76.756
X87.914Y-51.335
X88.01Y-70.961
X88.012Y-73.195
X88.418Y-45.63
X88.419Y-49.331
X88.42Y-47.83
X88.424Y-43.126
X89.038Y-52.582
X89.16Y-56.83
X89.16Y-59.33
X89.169Y-62.857
X89.174Y-61.811
X89.187Y-58.084
X89.452Y-66.577
X89.669Y-42.976
X89.672Y-45.675
X89.947Y-51.857
X90.165Y-79.452
X90.447Y-49.325
X90.719Y-68.524
X91.425Y-76.684
X91.673Y-51.751
X91.855Y-47.594
X91.92Y-53.83
X92.62Y-68.494
X92.863Y-56.176
X92.871Y-59.993
X92.882Y-58.691
X92.901Y-57.454
X92.92Y-52.83
X92.92Y-53.83
X93.17Y-44.58
X93.784Y-72.082
X93.803Y-74.578
X93.92Y-52.83
X93.92Y-53.83
X93.922Y-79.454
X94.19Y-50.86
X94.42Y-44.58
X94.92Y-52.83
X94.92Y-53.83
X94.975Y-58.051
X95.168Y-76.756
X95.177Y-79.448
X95.67Y-44.58
X96.421Y-79.458
X96.561Y-50.594
X96.59Y-58.982
X96.59Y-59.682
X96.92Y-44.58
X97.169Y-55.328
X97.446Y-61.08
X97.607Y-57.435
X97.607Y-63.035
X97.609Y-62.232
X97.626Y-56.629
X98.418Y-74.236
X98.429Y-78.388
X98.919Y-39.829
X98.923Y-41.83
X99.669Y-51.084
X99.672Y-45.826
X99.89Y-68.58
X100.079Y-59.982
X100.079Y-59.982
X100.079Y-60.682
X100.079Y-60.682
X101.34Y-40.829
X101.673Y-48.329
X101.693Y-49.572
X101.9Y-57.84
X102.16Y-68.55
X103.143Y-63.064
T2
X56.22Y-34.28
X58.76Y-34.28
X61.3Y-34.28
X63.84Y-34.28
X65.36Y-82.54
X66.38Y-34.28
X67.9Y-82.54
X68.92Y-34.28
X70.44Y-82.54
X71.46Y-34.28
X72.98Y-82.54
X74.0Y-34.28
X75.52Y-82.54
X76.54Y-34.28
X78.06Y-82.54
X79.08Y-34.28
X80.6Y-82.54
X83.14Y-34.28
X83.14Y-82.54
X85.68Y-34.28
X88.22Y-34.28
X88.22Y-82.54
X90.76Y-34.28
X90.76Y-82.54
X93.3Y-34.28
X93.3Y-82.54
X95.84Y-34.28
X95.84Y-82.54
X98.38Y-34.28
X98.38Y-82.54
X100.92Y-34.28
X100.92Y-82.54
T3
X97.922Y-68.329
X97.922Y-72.829
X104.422Y-68.329
X104.422Y-72.829
M30
