%TF.GenerationSoftware,KiCad,Pcbnew,7.0.7*%
%TF.CreationDate,2023-11-27T17:28:17-05:00*%
%TF.ProjectId,Phyduino_Pico_RevD1,50687964-7569-46e6-9f5f-5069636f5f52,rev?*%
%TF.SameCoordinates,Original*%
%TF.FileFunction,Copper,L1,Top*%
%TF.FilePolarity,Positive*%
%FSLAX46Y46*%
G04 Gerber Fmt 4.6, Leading zero omitted, Abs format (unit mm)*
G04 Created by KiCad (PCBNEW 7.0.7) date 2023-11-27 17:28:17*
%MOMM*%
%LPD*%
G01*
G04 APERTURE LIST*
G04 Aperture macros list*
%AMRoundRect*
0 Rectangle with rounded corners*
0 $1 Rounding radius*
0 $2 $3 $4 $5 $6 $7 $8 $9 X,Y pos of 4 corners*
0 Add a 4 corners polygon primitive as box body*
4,1,4,$2,$3,$4,$5,$6,$7,$8,$9,$2,$3,0*
0 Add four circle primitives for the rounded corners*
1,1,$1+$1,$2,$3*
1,1,$1+$1,$4,$5*
1,1,$1+$1,$6,$7*
1,1,$1+$1,$8,$9*
0 Add four rect primitives between the rounded corners*
20,1,$1+$1,$2,$3,$4,$5,0*
20,1,$1+$1,$4,$5,$6,$7,0*
20,1,$1+$1,$6,$7,$8,$9,0*
20,1,$1+$1,$8,$9,$2,$3,0*%
G04 Aperture macros list end*
%TA.AperFunction,SMDPad,CuDef*%
%ADD10RoundRect,0.160000X-0.197500X-0.160000X0.197500X-0.160000X0.197500X0.160000X-0.197500X0.160000X0*%
%TD*%
%TA.AperFunction,SMDPad,CuDef*%
%ADD11RoundRect,0.250000X-0.325000X-0.450000X0.325000X-0.450000X0.325000X0.450000X-0.325000X0.450000X0*%
%TD*%
%TA.AperFunction,SMDPad,CuDef*%
%ADD12RoundRect,0.160000X0.160000X-0.197500X0.160000X0.197500X-0.160000X0.197500X-0.160000X-0.197500X0*%
%TD*%
%TA.AperFunction,SMDPad,CuDef*%
%ADD13RoundRect,0.155000X-0.155000X0.212500X-0.155000X-0.212500X0.155000X-0.212500X0.155000X0.212500X0*%
%TD*%
%TA.AperFunction,ComponentPad*%
%ADD14R,1.700000X1.700000*%
%TD*%
%TA.AperFunction,ComponentPad*%
%ADD15O,1.700000X1.700000*%
%TD*%
%TA.AperFunction,SMDPad,CuDef*%
%ADD16RoundRect,0.250000X-0.337500X-0.475000X0.337500X-0.475000X0.337500X0.475000X-0.337500X0.475000X0*%
%TD*%
%TA.AperFunction,SMDPad,CuDef*%
%ADD17RoundRect,0.250000X-0.450000X0.350000X-0.450000X-0.350000X0.450000X-0.350000X0.450000X0.350000X0*%
%TD*%
%TA.AperFunction,SMDPad,CuDef*%
%ADD18RoundRect,0.160000X-0.160000X0.197500X-0.160000X-0.197500X0.160000X-0.197500X0.160000X0.197500X0*%
%TD*%
%TA.AperFunction,SMDPad,CuDef*%
%ADD19RoundRect,0.155000X-0.212500X-0.155000X0.212500X-0.155000X0.212500X0.155000X-0.212500X0.155000X0*%
%TD*%
%TA.AperFunction,SMDPad,CuDef*%
%ADD20R,5.500000X5.500000*%
%TD*%
%TA.AperFunction,SMDPad,CuDef*%
%ADD21RoundRect,0.062500X0.350000X0.062500X-0.350000X0.062500X-0.350000X-0.062500X0.350000X-0.062500X0*%
%TD*%
%TA.AperFunction,SMDPad,CuDef*%
%ADD22RoundRect,0.062500X0.062500X0.350000X-0.062500X0.350000X-0.062500X-0.350000X0.062500X-0.350000X0*%
%TD*%
%TA.AperFunction,SMDPad,CuDef*%
%ADD23R,2.700000X2.700000*%
%TD*%
%TA.AperFunction,SMDPad,CuDef*%
%ADD24RoundRect,0.160000X0.160000X-0.222500X0.160000X0.222500X-0.160000X0.222500X-0.160000X-0.222500X0*%
%TD*%
%TA.AperFunction,SMDPad,CuDef*%
%ADD25RoundRect,0.155000X0.212500X0.155000X-0.212500X0.155000X-0.212500X-0.155000X0.212500X-0.155000X0*%
%TD*%
%TA.AperFunction,SMDPad,CuDef*%
%ADD26RoundRect,0.100000X-0.100000X0.425000X-0.100000X-0.425000X0.100000X-0.425000X0.100000X0.425000X0*%
%TD*%
%TA.AperFunction,SMDPad,CuDef*%
%ADD27RoundRect,0.050000X0.250000X-0.050000X0.250000X0.050000X-0.250000X0.050000X-0.250000X-0.050000X0*%
%TD*%
%TA.AperFunction,SMDPad,CuDef*%
%ADD28RoundRect,0.250000X-0.475000X0.337500X-0.475000X-0.337500X0.475000X-0.337500X0.475000X0.337500X0*%
%TD*%
%TA.AperFunction,SMDPad,CuDef*%
%ADD29RoundRect,0.250000X0.337500X0.475000X-0.337500X0.475000X-0.337500X-0.475000X0.337500X-0.475000X0*%
%TD*%
%TA.AperFunction,SMDPad,CuDef*%
%ADD30RoundRect,0.160000X0.197500X0.160000X-0.197500X0.160000X-0.197500X-0.160000X0.197500X-0.160000X0*%
%TD*%
%TA.AperFunction,SMDPad,CuDef*%
%ADD31RoundRect,0.250000X0.450000X-0.350000X0.450000X0.350000X-0.450000X0.350000X-0.450000X-0.350000X0*%
%TD*%
%TA.AperFunction,SMDPad,CuDef*%
%ADD32R,0.350000X0.500000*%
%TD*%
%TA.AperFunction,SMDPad,CuDef*%
%ADD33R,0.400000X0.300000*%
%TD*%
%TA.AperFunction,SMDPad,CuDef*%
%ADD34R,2.450000X1.980000*%
%TD*%
%TA.AperFunction,SMDPad,CuDef*%
%ADD35R,0.380000X0.430000*%
%TD*%
%TA.AperFunction,SMDPad,CuDef*%
%ADD36R,1.200000X1.000000*%
%TD*%
%TA.AperFunction,SMDPad,CuDef*%
%ADD37R,1.200000X0.900000*%
%TD*%
%TA.AperFunction,SMDPad,CuDef*%
%ADD38RoundRect,0.155000X0.155000X-0.212500X0.155000X0.212500X-0.155000X0.212500X-0.155000X-0.212500X0*%
%TD*%
%TA.AperFunction,SMDPad,CuDef*%
%ADD39R,0.410000X1.600000*%
%TD*%
%TA.AperFunction,SMDPad,CuDef*%
%ADD40RoundRect,0.250000X-0.350000X-0.450000X0.350000X-0.450000X0.350000X0.450000X-0.350000X0.450000X0*%
%TD*%
%TA.AperFunction,SMDPad,CuDef*%
%ADD41R,0.500000X0.375000*%
%TD*%
%TA.AperFunction,SMDPad,CuDef*%
%ADD42R,0.650000X0.300000*%
%TD*%
%TA.AperFunction,SMDPad,CuDef*%
%ADD43R,1.200000X0.300000*%
%TD*%
%TA.AperFunction,ComponentPad*%
%ADD44C,0.650000*%
%TD*%
%TA.AperFunction,SMDPad,CuDef*%
%ADD45R,1.000000X0.200000*%
%TD*%
%TA.AperFunction,ComponentPad*%
%ADD46O,1.600000X1.000000*%
%TD*%
%TA.AperFunction,SMDPad,CuDef*%
%ADD47RoundRect,0.150000X-0.825000X-0.150000X0.825000X-0.150000X0.825000X0.150000X-0.825000X0.150000X0*%
%TD*%
%TA.AperFunction,SMDPad,CuDef*%
%ADD48RoundRect,0.125000X0.375000X0.125000X-0.375000X0.125000X-0.375000X-0.125000X0.375000X-0.125000X0*%
%TD*%
%TA.AperFunction,SMDPad,CuDef*%
%ADD49R,3.400000X4.300000*%
%TD*%
%TA.AperFunction,SMDPad,CuDef*%
%ADD50RoundRect,0.150000X0.150000X-0.587500X0.150000X0.587500X-0.150000X0.587500X-0.150000X-0.587500X0*%
%TD*%
%TA.AperFunction,SMDPad,CuDef*%
%ADD51RoundRect,0.250000X0.412500X1.100000X-0.412500X1.100000X-0.412500X-1.100000X0.412500X-1.100000X0*%
%TD*%
%TA.AperFunction,SMDPad,CuDef*%
%ADD52RoundRect,0.160000X0.222500X0.160000X-0.222500X0.160000X-0.222500X-0.160000X0.222500X-0.160000X0*%
%TD*%
%TA.AperFunction,ComponentPad*%
%ADD53C,2.000000*%
%TD*%
%TA.AperFunction,SMDPad,CuDef*%
%ADD54R,1.100000X1.300000*%
%TD*%
%TA.AperFunction,SMDPad,CuDef*%
%ADD55RoundRect,0.050000X-0.050000X0.387500X-0.050000X-0.387500X0.050000X-0.387500X0.050000X0.387500X0*%
%TD*%
%TA.AperFunction,SMDPad,CuDef*%
%ADD56RoundRect,0.050000X-0.387500X0.050000X-0.387500X-0.050000X0.387500X-0.050000X0.387500X0.050000X0*%
%TD*%
%TA.AperFunction,SMDPad,CuDef*%
%ADD57R,3.200000X3.200000*%
%TD*%
%TA.AperFunction,SMDPad,CuDef*%
%ADD58RoundRect,0.250000X0.350000X0.450000X-0.350000X0.450000X-0.350000X-0.450000X0.350000X-0.450000X0*%
%TD*%
%TA.AperFunction,ViaPad*%
%ADD59C,0.550000*%
%TD*%
%TA.AperFunction,Conductor*%
%ADD60C,0.600000*%
%TD*%
%TA.AperFunction,Conductor*%
%ADD61C,0.130000*%
%TD*%
%TA.AperFunction,Conductor*%
%ADD62C,0.200000*%
%TD*%
%TA.AperFunction,Conductor*%
%ADD63C,0.300000*%
%TD*%
%TA.AperFunction,Conductor*%
%ADD64C,0.400000*%
%TD*%
G04 APERTURE END LIST*
D10*
%TO.P,R45,1*%
%TO.N,GND*%
X65572500Y-69580000D03*
%TO.P,R45,2*%
%TO.N,/PMUX_OV2*%
X66767500Y-69580000D03*
%TD*%
D11*
%TO.P,D5,1,K*%
%TO.N,GND*%
X57645000Y-83080000D03*
%TO.P,D5,2,A*%
%TO.N,/5V_LED*%
X59695000Y-83080000D03*
%TD*%
D12*
%TO.P,R24,1*%
%TO.N,/+VBUS_SRC*%
X92920000Y-52177500D03*
%TO.P,R24,2*%
%TO.N,/USBPD_VBUS_VS_DISCH*%
X92920000Y-50982500D03*
%TD*%
D13*
%TO.P,C16,1*%
%TO.N,+3.3V*%
X70920000Y-65762500D03*
%TO.P,C16,2*%
%TO.N,GND*%
X70920000Y-66897500D03*
%TD*%
D14*
%TO.P,J2,1,Pin_1*%
%TO.N,unconnected-(J2-Pin_1-Pad1)*%
X65360000Y-82540000D03*
D15*
%TO.P,J2,2,Pin_2*%
%TO.N,unconnected-(J2-Pin_2-Pad2)*%
X67900000Y-82540000D03*
%TO.P,J2,3,Pin_3*%
%TO.N,~{RESET}*%
X70440000Y-82540000D03*
%TO.P,J2,4,Pin_4*%
%TO.N,+3.3V*%
X72980000Y-82540000D03*
%TO.P,J2,5,Pin_5*%
%TO.N,+5V*%
X75520000Y-82540000D03*
%TO.P,J2,6,Pin_6*%
%TO.N,GND*%
X78060000Y-82540000D03*
%TO.P,J2,7,Pin_7*%
X80600000Y-82540000D03*
%TO.P,J2,8,Pin_8*%
%TO.N,VBUS*%
X83140000Y-82540000D03*
%TD*%
D16*
%TO.P,C31,1*%
%TO.N,+3.3V*%
X86382500Y-66580000D03*
%TO.P,C31,2*%
%TO.N,GND*%
X88457500Y-66580000D03*
%TD*%
D17*
%TO.P,R7,1*%
%TO.N,/3V3_DCDC_FB*%
X47670000Y-53330000D03*
%TO.P,R7,2*%
%TO.N,GND*%
X47670000Y-55330000D03*
%TD*%
D13*
%TO.P,C40,1*%
%TO.N,/PMUX_SS*%
X73670000Y-73012500D03*
%TO.P,C40,2*%
%TO.N,GND*%
X73670000Y-74147500D03*
%TD*%
D10*
%TO.P,R39,1*%
%TO.N,+3.3V*%
X82572500Y-67580000D03*
%TO.P,R39,2*%
%TO.N,/ADC.MISO*%
X83767500Y-67580000D03*
%TD*%
%TO.P,R19,1*%
%TO.N,/USB_R_D_N*%
X82572500Y-62330000D03*
%TO.P,R19,2*%
%TO.N,/USB_SP_D_N*%
X83767500Y-62330000D03*
%TD*%
D18*
%TO.P,R29,1*%
%TO.N,Net-(C35-Pad1)*%
X97920000Y-50982500D03*
%TO.P,R29,2*%
%TO.N,/USBPD_SINK_G*%
X97920000Y-52177500D03*
%TD*%
D19*
%TO.P,C30,1*%
%TO.N,+3.3V*%
X82602500Y-58580000D03*
%TO.P,C30,2*%
%TO.N,GND*%
X83737500Y-58580000D03*
%TD*%
%TO.P,C23,1*%
%TO.N,+1V1*%
X81602500Y-59830000D03*
%TO.P,C23,2*%
%TO.N,GND*%
X82737500Y-59830000D03*
%TD*%
D20*
%TO.P,L2,1,1*%
%TO.N,/5V0_DCDC_SW*%
X58170000Y-66080000D03*
%TO.P,L2,2,2*%
%TO.N,/DCDC_5VOUT*%
X58170000Y-76080000D03*
%TD*%
D19*
%TO.P,C25,1*%
%TO.N,+3.3VA*%
X81352500Y-64830000D03*
%TO.P,C25,2*%
%TO.N,GND*%
X82487500Y-64830000D03*
%TD*%
D21*
%TO.P,U4,1,CC1DB*%
%TO.N,/USBPD_CC1*%
X88132500Y-51830000D03*
%TO.P,U4,2,CC1*%
X88132500Y-51330000D03*
%TO.P,U4,3,NC*%
%TO.N,GND*%
X88132500Y-50830000D03*
%TO.P,U4,4,CC2*%
%TO.N,/USBPD_CC2*%
X88132500Y-50330000D03*
%TO.P,U4,5,CC2DB*%
X88132500Y-49830000D03*
%TO.P,U4,6,RESET*%
%TO.N,USBPD_RST*%
X88132500Y-49330000D03*
D22*
%TO.P,U4,7,SCL*%
%TO.N,/USBPD.SCL*%
X87420000Y-48617500D03*
%TO.P,U4,8,SDA*%
%TO.N,/USBPD.SDA*%
X86920000Y-48617500D03*
%TO.P,U4,9,DISCH*%
%TO.N,/USBPD_DISCH*%
X86420000Y-48617500D03*
%TO.P,U4,10,GND*%
%TO.N,GND*%
X85920000Y-48617500D03*
%TO.P,U4,11,ATTACH*%
%TO.N,unconnected-(U4-ATTACH-Pad11)*%
X85420000Y-48617500D03*
%TO.P,U4,12,ADDR0*%
%TO.N,GND*%
X84920000Y-48617500D03*
D21*
%TO.P,U4,13,ADDR1*%
X84207500Y-49330000D03*
%TO.P,U4,14,POWER_OK3*%
%TO.N,/USBPD_POK3*%
X84207500Y-49830000D03*
%TO.P,U4,15,GPIO*%
%TO.N,unconnected-(U4-GPIO-Pad15)*%
X84207500Y-50330000D03*
%TO.P,U4,16,VBUS_EN_SNK*%
%TO.N,/USBPD_VBUS_EN_SNK*%
X84207500Y-50830000D03*
%TO.P,U4,17,A_B_SIDE*%
%TO.N,unconnected-(U4-A_B_SIDE-Pad17)*%
X84207500Y-51330000D03*
%TO.P,U4,18,VBUS_VS_DISCH*%
%TO.N,/USBPD_VBUS_VS_DISCH*%
X84207500Y-51830000D03*
D22*
%TO.P,U4,19,ALERT*%
%TO.N,/USBPD.~{INT}*%
X84920000Y-52542500D03*
%TO.P,U4,20,POWER_OK2*%
%TO.N,/USBPD_POK2*%
X85420000Y-52542500D03*
%TO.P,U4,21,VREG_1V2*%
%TO.N,/USBPD_VREG_1V2*%
X85920000Y-52542500D03*
%TO.P,U4,22,VSYS*%
%TO.N,GND*%
X86420000Y-52542500D03*
%TO.P,U4,23,VREG_2V7*%
%TO.N,/USBPD_VREG_2V7*%
X86920000Y-52542500D03*
%TO.P,U4,24,VDD*%
%TO.N,/+VBUS_SRC*%
X87420000Y-52542500D03*
D23*
%TO.P,U4,25,GND*%
%TO.N,GND*%
X86170000Y-50580000D03*
%TD*%
D18*
%TO.P,R52,1*%
%TO.N,GND*%
X86670000Y-77482500D03*
%TO.P,R52,2*%
%TO.N,/A4*%
X86670000Y-78677500D03*
%TD*%
D10*
%TO.P,R18,1*%
%TO.N,/USB_R_D_P*%
X82572500Y-61080000D03*
%TO.P,R18,2*%
%TO.N,/USB_SP_D_P*%
X83767500Y-61080000D03*
%TD*%
D24*
%TO.P,D7,1,K*%
%TO.N,Net-(D7-K)*%
X83920000Y-46652500D03*
%TO.P,D7,2,A*%
%TO.N,+3.3V*%
X83920000Y-45507500D03*
%TD*%
D17*
%TO.P,R3,1*%
%TO.N,/3V3_DCDC_SS*%
X40920000Y-53330000D03*
%TO.P,R3,2*%
%TO.N,Net-(C38-Pad1)*%
X40920000Y-55330000D03*
%TD*%
D25*
%TO.P,C28,1*%
%TO.N,GND*%
X87987500Y-54330000D03*
%TO.P,C28,2*%
%TO.N,/USBPD_VREG_2V7*%
X86852500Y-54330000D03*
%TD*%
D26*
%TO.P,U8,1,OUT*%
%TO.N,+5V*%
X70270000Y-70455000D03*
%TO.P,U8,2,IN2*%
%TO.N,VBUS*%
X69570000Y-70455000D03*
D27*
%TO.P,U8,3,CP2*%
%TO.N,GND*%
X68770000Y-70330000D03*
%TO.P,U8,4,OV2*%
%TO.N,/PMUX_OV2*%
X68770000Y-70830000D03*
%TO.P,U8,5,OV1*%
%TO.N,/PMUX_OV1*%
X68770000Y-71330000D03*
%TO.P,U8,6,PR1*%
%TO.N,GND*%
X68770000Y-71830000D03*
D26*
%TO.P,U8,7,IN1*%
%TO.N,/DCDC_5VOUT*%
X69570000Y-71705000D03*
%TO.P,U8,8,OUT*%
%TO.N,+5V*%
X70270000Y-71705000D03*
D27*
%TO.P,U8,9,ST*%
%TO.N,GND*%
X71070000Y-71830000D03*
%TO.P,U8,10,ILM*%
%TO.N,/PMUX_LIM*%
X71070000Y-71330000D03*
%TO.P,U8,11,SS*%
%TO.N,/PMUX_SS*%
X71070000Y-70830000D03*
%TO.P,U8,12,GND*%
%TO.N,GND*%
X71070000Y-70330000D03*
%TD*%
D28*
%TO.P,C5,1*%
%TO.N,/3V3_DCDC_COMP*%
X45420000Y-53292500D03*
%TO.P,C5,2*%
%TO.N,GND*%
X45420000Y-55367500D03*
%TD*%
D29*
%TO.P,C6,1*%
%TO.N,/5V0_DCDC_SW*%
X45707500Y-67080000D03*
%TO.P,C6,2*%
%TO.N,/5V0_DCDC_BOOST*%
X43632500Y-67080000D03*
%TD*%
D30*
%TO.P,R20,1*%
%TO.N,+3.3V*%
X89267500Y-46830000D03*
%TO.P,R20,2*%
%TO.N,/USBPD.SCL*%
X88072500Y-46830000D03*
%TD*%
D31*
%TO.P,R4,1*%
%TO.N,/5V_ENA*%
X39170000Y-69580000D03*
%TO.P,R4,2*%
%TO.N,VBUS*%
X39170000Y-67580000D03*
%TD*%
D14*
%TO.P,J5,1,Pin_1*%
%TO.N,/D0*%
X100920000Y-34280000D03*
D15*
%TO.P,J5,2,Pin_2*%
%TO.N,/D1*%
X98380000Y-34280000D03*
%TO.P,J5,3,Pin_3*%
%TO.N,/D2*%
X95840000Y-34280000D03*
%TO.P,J5,4,Pin_4*%
%TO.N,/D3*%
X93300000Y-34280000D03*
%TO.P,J5,5,Pin_5*%
%TO.N,/D4*%
X90760000Y-34280000D03*
%TO.P,J5,6,Pin_6*%
%TO.N,/D5*%
X88220000Y-34280000D03*
%TO.P,J5,7,Pin_7*%
%TO.N,/D6*%
X85680000Y-34280000D03*
%TO.P,J5,8,Pin_8*%
%TO.N,/D7*%
X83140000Y-34280000D03*
%TD*%
D32*
%TO.P,Q1,1,S*%
%TO.N,/+VBUS_SRC*%
X94445000Y-51230000D03*
%TO.P,Q1,2,S*%
X95095000Y-51230000D03*
%TO.P,Q1,3,S*%
X95745000Y-51230000D03*
%TO.P,Q1,4,G*%
%TO.N,/USBPD_SINK_G*%
X96395000Y-51230000D03*
D33*
%TO.P,Q1,5,D*%
%TO.N,VBUS*%
X96395000Y-48330000D03*
%TO.P,Q1,6,D*%
X95745000Y-48330000D03*
%TO.P,Q1,7,D*%
X95095000Y-48330000D03*
%TO.P,Q1,8,D*%
X94445000Y-48330000D03*
D34*
%TO.P,Q1,9,D*%
X95420000Y-49470000D03*
D35*
%TO.P,Q1,9_1,D*%
X94005000Y-49830000D03*
%TO.P,Q1,9_2,D*%
X96835000Y-49830000D03*
%TD*%
D31*
%TO.P,R8,1*%
%TO.N,+3.3V*%
X49920000Y-55330000D03*
%TO.P,R8,2*%
%TO.N,/3V3_DCDC_FB*%
X49920000Y-53330000D03*
%TD*%
D18*
%TO.P,R11,1*%
%TO.N,Net-(D6-K)*%
X80920000Y-48232500D03*
%TO.P,R11,2*%
%TO.N,/USBPD_POK2*%
X80920000Y-49427500D03*
%TD*%
D14*
%TO.P,J3,1,Pin_1*%
%TO.N,/D8*%
X79080000Y-34280000D03*
D15*
%TO.P,J3,2,Pin_2*%
%TO.N,/D9*%
X76540000Y-34280000D03*
%TO.P,J3,3,Pin_3*%
%TO.N,/D10*%
X74000000Y-34280000D03*
%TO.P,J3,4,Pin_4*%
%TO.N,/D11*%
X71460000Y-34280000D03*
%TO.P,J3,5,Pin_5*%
%TO.N,/D12*%
X68920000Y-34280000D03*
%TO.P,J3,6,Pin_6*%
%TO.N,/D13*%
X66380000Y-34280000D03*
%TO.P,J3,7,Pin_7*%
%TO.N,GND*%
X63840000Y-34280000D03*
%TO.P,J3,8,Pin_8*%
%TO.N,/AREF*%
X61300000Y-34280000D03*
%TO.P,J3,9,Pin_9*%
%TO.N,/D18*%
X58760000Y-34280000D03*
%TO.P,J3,10,Pin_10*%
%TO.N,/D19*%
X56220000Y-34280000D03*
%TD*%
D10*
%TO.P,R26,1*%
%TO.N,/+VBUS_SRC*%
X96572500Y-54580000D03*
%TO.P,R26,2*%
%TO.N,/USBPD_SINK_G*%
X97767500Y-54580000D03*
%TD*%
D17*
%TO.P,R6,1*%
%TO.N,/5V0_DCDC_SS*%
X40920000Y-75330000D03*
%TO.P,R6,2*%
%TO.N,Net-(C39-Pad1)*%
X40920000Y-77330000D03*
%TD*%
D36*
%TO.P,SW1,1,A*%
%TO.N,+3.3V*%
X98995250Y-43580000D03*
%TO.P,SW1,2,B*%
%TO.N,/BOOTMODE*%
X98995250Y-41080000D03*
%TO.P,SW1,3,C*%
%TO.N,GND*%
X98995250Y-38580000D03*
%TD*%
D37*
%TO.P,D4,1,K*%
%TO.N,/5V0_DCDC_SW*%
X49920000Y-69430000D03*
%TO.P,D4,2,A*%
%TO.N,GND*%
X49920000Y-72730000D03*
%TD*%
D25*
%TO.P,C15,1*%
%TO.N,/CPU_XOUT*%
X68762500Y-62280000D03*
%TO.P,C15,2*%
%TO.N,GND*%
X67627500Y-62280000D03*
%TD*%
D28*
%TO.P,C4,1*%
%TO.N,/3V3_DCDC_SS*%
X43170000Y-53292500D03*
%TO.P,C4,2*%
%TO.N,GND*%
X43170000Y-55367500D03*
%TD*%
D24*
%TO.P,D6,1,K*%
%TO.N,Net-(D6-K)*%
X81070000Y-46652500D03*
%TO.P,D6,2,A*%
%TO.N,+3.3V*%
X81070000Y-45507500D03*
%TD*%
D18*
%TO.P,R53,1*%
%TO.N,GND*%
X89170000Y-77482500D03*
%TO.P,R53,2*%
%TO.N,/A5*%
X89170000Y-78677500D03*
%TD*%
D11*
%TO.P,D1,1,K*%
%TO.N,GND*%
X39895000Y-83080000D03*
%TO.P,D1,2,A*%
%TO.N,/VBUS_LED*%
X41945000Y-83080000D03*
%TD*%
D38*
%TO.P,R21,1*%
%TO.N,/USBPD_CC2*%
X89670000Y-49830000D03*
%TO.P,R21,2*%
%TO.N,GND*%
X89670000Y-48695000D03*
%TD*%
D39*
%TO.P,U5,1,AIN0*%
%TO.N,/AIN0_A3*%
X84197500Y-74734300D03*
%TO.P,U5,2,AIN1*%
%TO.N,/AIN1_A4*%
X84832500Y-74734300D03*
%TO.P,U5,3,AIN2*%
%TO.N,/AIN2_A5*%
X85467500Y-74734300D03*
%TO.P,U5,4,AIN3*%
%TO.N,/AIN3_VBUS*%
X86102500Y-74734300D03*
%TO.P,U5,5,NC*%
%TO.N,unconnected-(U5-NC-Pad5)*%
X86737500Y-74734300D03*
%TO.P,U5,6,NC*%
%TO.N,unconnected-(U5-NC-Pad6)*%
X87372500Y-74734300D03*
%TO.P,U5,7,REF-*%
%TO.N,GND*%
X88007500Y-74734300D03*
%TO.P,U5,8,~{CNVST}*%
%TO.N,/ADC.~{CNVST}*%
X88642500Y-74734300D03*
%TO.P,U5,9,REF+*%
%TO.N,/AREF*%
X88642500Y-69425700D03*
%TO.P,U5,10,GND*%
%TO.N,GND*%
X88007500Y-69425700D03*
%TO.P,U5,11,VDD*%
%TO.N,+3.3V*%
X87372500Y-69425700D03*
%TO.P,U5,12,~{CS}*%
%TO.N,/ADC.~{CS}*%
X86737500Y-69425700D03*
%TO.P,U5,13,SCLK*%
%TO.N,/ADC.SCK*%
X86102500Y-69425700D03*
%TO.P,U5,14,DIN*%
%TO.N,/ADC.MOSI*%
X85467500Y-69425700D03*
%TO.P,U5,15,DOUT*%
%TO.N,/ADC.MISO*%
X84832500Y-69425700D03*
%TO.P,U5,16,~{EOC}*%
%TO.N,/ADC.~{EOC}*%
X84197500Y-69425700D03*
%TD*%
D40*
%TO.P,R14,1*%
%TO.N,GND*%
X80170000Y-72080000D03*
%TO.P,R14,2*%
%TO.N,/VBUS_MONITOR*%
X82170000Y-72080000D03*
%TD*%
D18*
%TO.P,R47,1*%
%TO.N,/AIN3_VBUS*%
X91670000Y-77482500D03*
%TO.P,R47,2*%
%TO.N,/VBUS_MONITOR*%
X91670000Y-78677500D03*
%TD*%
D37*
%TO.P,Z1,1,K*%
%TO.N,/+VBUS_SRC*%
X99920000Y-53230000D03*
%TO.P,Z1,2,A*%
%TO.N,GND*%
X99920000Y-49930000D03*
%TD*%
D41*
%TO.P,U9,1,I/O1*%
%TO.N,/USB_SP_D_P*%
X88320000Y-61792500D03*
D42*
%TO.P,U9,2,GND*%
%TO.N,GND*%
X88245000Y-62330000D03*
D41*
%TO.P,U9,3,I/O2*%
%TO.N,/USB_SP_D_N*%
X88320000Y-62867500D03*
%TO.P,U9,4,I/O2*%
%TO.N,/USB_D_N*%
X90020000Y-62867500D03*
D42*
%TO.P,U9,5,VBUS*%
%TO.N,+3.3V*%
X90095000Y-62330000D03*
D41*
%TO.P,U9,6,I/O1*%
%TO.N,/USB_D_P*%
X90020000Y-61792500D03*
%TD*%
D29*
%TO.P,C33,1*%
%TO.N,GND*%
X92707500Y-74580000D03*
%TO.P,C33,2*%
%TO.N,/AREF*%
X90632500Y-74580000D03*
%TD*%
D10*
%TO.P,R38,1*%
%TO.N,+3.3V*%
X82572500Y-66330000D03*
%TO.P,R38,2*%
%TO.N,/ADC.MOSI*%
X83767500Y-66330000D03*
%TD*%
D43*
%TO.P,J6,A1,GND*%
%TO.N,GND*%
X95440000Y-63080000D03*
%TO.P,J6,A2,TX1+*%
%TO.N,unconnected-(J6-TX1+-PadA2)*%
X95440000Y-62580000D03*
%TO.P,J6,A3,TX1-*%
%TO.N,unconnected-(J6-TX1--PadA3)*%
X95440000Y-62080000D03*
%TO.P,J6,A4,VBUS*%
%TO.N,/+VBUS_SRC*%
X95440000Y-61580000D03*
%TO.P,J6,A5,CC1*%
%TO.N,/USBPD_CC1*%
X95440000Y-61080000D03*
%TO.P,J6,A6,D+*%
%TO.N,/USB_D_P*%
X95440000Y-60580000D03*
%TO.P,J6,A7,D-*%
%TO.N,/USB_D_N*%
X95440000Y-60080000D03*
%TO.P,J6,A8,SBU1*%
%TO.N,unconnected-(J6-SBU1-PadA8)*%
X95440000Y-59580000D03*
%TO.P,J6,A9,VBUS*%
%TO.N,/+VBUS_SRC*%
X95440000Y-59080000D03*
%TO.P,J6,A10,RX2-*%
%TO.N,unconnected-(J6-RX2--PadA10)*%
X95440000Y-58580000D03*
%TO.P,J6,A11,RX2+*%
%TO.N,unconnected-(J6-RX2+-PadA11)*%
X95440000Y-58080000D03*
%TO.P,J6,A12,GND*%
%TO.N,GND*%
X95440000Y-57580000D03*
D44*
%TO.P,J6,B1,GND*%
X96690000Y-57530000D03*
%TO.P,J6,B2,TX2+*%
%TO.N,unconnected-(J6-TX2+-PadB2)*%
X97390000Y-57930000D03*
%TO.P,J6,B3,TX2-*%
%TO.N,unconnected-(J6-TX2--PadB3)*%
X97390000Y-58730000D03*
%TO.P,J6,B4,VBUS*%
%TO.N,/+VBUS_SRC*%
X96690000Y-59130000D03*
%TO.P,J6,B5,CC2*%
%TO.N,/USBPD_CC2*%
X97390000Y-59530000D03*
%TO.P,J6,B6,D+*%
%TO.N,/USB_D_P*%
X96690000Y-59930000D03*
%TO.P,J6,B7,D-*%
%TO.N,/USB_D_N*%
X96690000Y-60730000D03*
%TO.P,J6,B8,SBU2*%
%TO.N,unconnected-(J6-SBU2-PadB8)*%
X97390000Y-61130000D03*
%TO.P,J6,B9,VBUS*%
%TO.N,/+VBUS_SRC*%
X96690000Y-61530000D03*
%TO.P,J6,B10,RX1-*%
%TO.N,unconnected-(J6-RX1--PadB10)*%
X97390000Y-61930000D03*
%TO.P,J6,B11,RX1+*%
%TO.N,unconnected-(J6-RX1+-PadB11)*%
X97390000Y-62730000D03*
%TO.P,J6,B12,GND*%
%TO.N,GND*%
X96690000Y-63130000D03*
%TO.P,J6,CP,CP*%
%TO.N,unconnected-(J6-PadCP)*%
X96690000Y-62330000D03*
D45*
X100020000Y-60330000D03*
X103120000Y-60330000D03*
D44*
X96690000Y-58330000D03*
D46*
%TO.P,J6,SH,SHIELD*%
%TO.N,GNDPWR*%
X97840000Y-64600000D03*
X102570000Y-64600000D03*
X97840000Y-56060000D03*
X102570000Y-56060000D03*
%TD*%
D25*
%TO.P,C18,1*%
%TO.N,+3.3V*%
X68737500Y-64080000D03*
%TO.P,C18,2*%
%TO.N,GND*%
X67602500Y-64080000D03*
%TD*%
D47*
%TO.P,U2,1,BOOT*%
%TO.N,/5V0_DCDC_BOOST*%
X42195000Y-69175000D03*
%TO.P,U2,2,VIN*%
%TO.N,VBUS*%
X42195000Y-70445000D03*
%TO.P,U2,3,EN*%
%TO.N,/5V_ENA*%
X42195000Y-71715000D03*
%TO.P,U2,4,SS*%
%TO.N,/5V0_DCDC_SS*%
X42195000Y-72985000D03*
%TO.P,U2,5,VSENSE*%
%TO.N,/5V0_DCDC_FB*%
X47145000Y-72985000D03*
%TO.P,U2,6,COMP*%
%TO.N,/5V0_DCDC_COMP*%
X47145000Y-71715000D03*
%TO.P,U2,7,GND*%
%TO.N,GND*%
X47145000Y-70445000D03*
%TO.P,U2,8,PH*%
%TO.N,/5V0_DCDC_SW*%
X47145000Y-69175000D03*
%TD*%
D10*
%TO.P,R40,1*%
%TO.N,/PMUX_OV2*%
X65572500Y-68330000D03*
%TO.P,R40,2*%
%TO.N,VBUS*%
X66767500Y-68330000D03*
%TD*%
D16*
%TO.P,C11,1*%
%TO.N,/DCDC_5VOUT*%
X66132500Y-76080000D03*
%TO.P,C11,2*%
%TO.N,GND*%
X68207500Y-76080000D03*
%TD*%
D28*
%TO.P,C34,1*%
%TO.N,+3.3V*%
X95420000Y-75292500D03*
%TO.P,C34,2*%
%TO.N,GND*%
X95420000Y-77367500D03*
%TD*%
D29*
%TO.P,C27,1*%
%TO.N,/VBUS_MONITOR*%
X82207500Y-69830000D03*
%TO.P,C27,2*%
%TO.N,GND*%
X80132500Y-69830000D03*
%TD*%
D48*
%TO.P,U6,1,~{CS}*%
%TO.N,/XIP_~{CS}*%
X91995000Y-59985000D03*
%TO.P,U6,2,DO(IO1)*%
%TO.N,/XIP_SD1*%
X91995000Y-58715000D03*
%TO.P,U6,3,IO2*%
%TO.N,/XIP_SD2*%
X91995000Y-57445000D03*
%TO.P,U6,4,GND*%
%TO.N,GND*%
X91995000Y-56175000D03*
%TO.P,U6,5,DI(IO0)*%
%TO.N,/XIP_SD0*%
X86345000Y-56175000D03*
%TO.P,U6,6,CLK*%
%TO.N,/XIP_SCK*%
X86345000Y-57445000D03*
%TO.P,U6,7,IO3*%
%TO.N,/XIP_SD3*%
X86345000Y-58715000D03*
%TO.P,U6,8,VCC*%
%TO.N,+3.3V*%
X86345000Y-59985000D03*
D49*
%TO.P,U6,9,EP*%
%TO.N,GND*%
X89170000Y-58080000D03*
%TD*%
D28*
%TO.P,C10,1*%
%TO.N,+3.3V*%
X59670000Y-59042500D03*
%TO.P,C10,2*%
%TO.N,GND*%
X59670000Y-61117500D03*
%TD*%
D14*
%TO.P,J4,1,Pin_1*%
%TO.N,/A0*%
X88220000Y-82540000D03*
D15*
%TO.P,J4,2,Pin_2*%
%TO.N,/A1*%
X90760000Y-82540000D03*
%TO.P,J4,3,Pin_3*%
%TO.N,/A2*%
X93300000Y-82540000D03*
%TO.P,J4,4,Pin_4*%
%TO.N,/A3*%
X95840000Y-82540000D03*
%TO.P,J4,5,Pin_5*%
%TO.N,/A4*%
X98380000Y-82540000D03*
%TO.P,J4,6,Pin_6*%
%TO.N,/A5*%
X100920000Y-82540000D03*
%TD*%
D13*
%TO.P,C20,1*%
%TO.N,+3.3V*%
X74645000Y-65087500D03*
%TO.P,C20,2*%
%TO.N,GND*%
X74645000Y-66222500D03*
%TD*%
D18*
%TO.P,R49,1*%
%TO.N,/AIN0_A3*%
X85420000Y-77482500D03*
%TO.P,R49,2*%
%TO.N,/A3*%
X85420000Y-78677500D03*
%TD*%
%TO.P,R25,1*%
%TO.N,VBUS*%
X92920000Y-48482500D03*
%TO.P,R25,2*%
%TO.N,/USBPD_DISCH*%
X92920000Y-49677500D03*
%TD*%
D11*
%TO.P,D8,1,K*%
%TO.N,GND*%
X100145000Y-46830000D03*
%TO.P,D8,2,A*%
%TO.N,Net-(D8-A)*%
X102195000Y-46830000D03*
%TD*%
D50*
%TO.P,U7,1,K*%
%TO.N,/AREF*%
X90720000Y-69767500D03*
%TO.P,U7,2,A*%
%TO.N,GND*%
X92620000Y-69767500D03*
%TO.P,U7,3,NC*%
%TO.N,unconnected-(U7-NC-Pad3)*%
X91670000Y-67892500D03*
%TD*%
D10*
%TO.P,R16,1*%
%TO.N,+3.3V*%
X85572500Y-46830000D03*
%TO.P,R16,2*%
%TO.N,/USBPD.SDA*%
X86767500Y-46830000D03*
%TD*%
D38*
%TO.P,C14,1*%
%TO.N,+3.3V*%
X72420000Y-54147500D03*
%TO.P,C14,2*%
%TO.N,GND*%
X72420000Y-53012500D03*
%TD*%
D51*
%TO.P,C2,1*%
%TO.N,GND*%
X42482500Y-63180000D03*
%TO.P,C2,2*%
%TO.N,VBUS*%
X39357500Y-63180000D03*
%TD*%
D18*
%TO.P,R48,1*%
%TO.N,/AIN2_A5*%
X90420000Y-77482500D03*
%TO.P,R48,2*%
%TO.N,/A5*%
X90420000Y-78677500D03*
%TD*%
D19*
%TO.P,C13,1*%
%TO.N,/CPU_XIN*%
X67627500Y-56780000D03*
%TO.P,C13,2*%
%TO.N,GND*%
X68762500Y-56780000D03*
%TD*%
D40*
%TO.P,R23,1*%
%TO.N,/AREF*%
X90670000Y-72080000D03*
%TO.P,R23,2*%
%TO.N,+3.3V*%
X92670000Y-72080000D03*
%TD*%
D38*
%TO.P,C22,1*%
%TO.N,+3.3V*%
X80430000Y-54147500D03*
%TO.P,C22,2*%
%TO.N,GND*%
X80430000Y-53012500D03*
%TD*%
D20*
%TO.P,L1,1,1*%
%TO.N,/3V3_DCDC_SW*%
X58195000Y-43780000D03*
%TO.P,L1,2,2*%
%TO.N,+3.3V*%
X58195000Y-53780000D03*
%TD*%
D16*
%TO.P,C12,1*%
%TO.N,/DCDC_5VOUT*%
X66132500Y-78830000D03*
%TO.P,C12,2*%
%TO.N,GND*%
X68207500Y-78830000D03*
%TD*%
D28*
%TO.P,C8,1*%
%TO.N,/5V0_DCDC_COMP*%
X45420000Y-75292500D03*
%TO.P,C8,2*%
%TO.N,GND*%
X45420000Y-77367500D03*
%TD*%
D10*
%TO.P,R17,1*%
%TO.N,USBPD_RST*%
X83572500Y-55580000D03*
%TO.P,R17,2*%
%TO.N,GND*%
X84767500Y-55580000D03*
%TD*%
D47*
%TO.P,U1,1,BOOT*%
%TO.N,/3V3_DCDC_BOOST*%
X41945000Y-46925000D03*
%TO.P,U1,2,VIN*%
%TO.N,VBUS*%
X41945000Y-48195000D03*
%TO.P,U1,3,EN*%
%TO.N,/3V3_ENA*%
X41945000Y-49465000D03*
%TO.P,U1,4,SS*%
%TO.N,/3V3_DCDC_SS*%
X41945000Y-50735000D03*
%TO.P,U1,5,VSENSE*%
%TO.N,/3V3_DCDC_FB*%
X46895000Y-50735000D03*
%TO.P,U1,6,COMP*%
%TO.N,/3V3_DCDC_COMP*%
X46895000Y-49465000D03*
%TO.P,U1,7,GND*%
%TO.N,GND*%
X46895000Y-48195000D03*
%TO.P,U1,8,PH*%
%TO.N,/3V3_DCDC_SW*%
X46895000Y-46925000D03*
%TD*%
D31*
%TO.P,R5,1*%
%TO.N,GND*%
X39170000Y-73580000D03*
%TO.P,R5,2*%
%TO.N,/5V_ENA*%
X39170000Y-71580000D03*
%TD*%
D52*
%TO.P,FB1,1*%
%TO.N,+3.3V*%
X80992500Y-67580000D03*
%TO.P,FB1,2*%
%TO.N,+3.3VA*%
X79847500Y-67580000D03*
%TD*%
D29*
%TO.P,C3,1*%
%TO.N,/3V3_DCDC_SW*%
X45457500Y-44580000D03*
%TO.P,C3,2*%
%TO.N,/3V3_DCDC_BOOST*%
X43382500Y-44580000D03*
%TD*%
D38*
%TO.P,C19,1*%
%TO.N,+3.3V*%
X74695000Y-54147500D03*
%TO.P,C19,2*%
%TO.N,GND*%
X74695000Y-53012500D03*
%TD*%
D53*
%TO.P,SW2,1,1*%
%TO.N,GND*%
X97670000Y-68030000D03*
X104170000Y-68030000D03*
%TO.P,SW2,2,2*%
%TO.N,~{RESET}*%
X97670000Y-72530000D03*
X104170000Y-72530000D03*
%TD*%
D18*
%TO.P,R28,1*%
%TO.N,/BOOTMODE*%
X93670000Y-57982500D03*
%TO.P,R28,2*%
%TO.N,/XIP_~{CS}*%
X93670000Y-59177500D03*
%TD*%
D10*
%TO.P,R27,1*%
%TO.N,/USBPD_VBUS_EN_SNK*%
X96572500Y-53330000D03*
%TO.P,R27,2*%
%TO.N,/USBPD_SINK_G*%
X97767500Y-53330000D03*
%TD*%
D13*
%TO.P,C24,1*%
%TO.N,+3.3V*%
X78245000Y-65087500D03*
%TO.P,C24,2*%
%TO.N,GND*%
X78245000Y-66222500D03*
%TD*%
D37*
%TO.P,D3,1,K*%
%TO.N,/3V3_DCDC_SW*%
X49955000Y-47180000D03*
%TO.P,D3,2,A*%
%TO.N,GND*%
X49955000Y-50480000D03*
%TD*%
D12*
%TO.P,R46,1*%
%TO.N,GND*%
X72420000Y-74177500D03*
%TO.P,R46,2*%
%TO.N,/PMUX_LIM*%
X72420000Y-72982500D03*
%TD*%
D31*
%TO.P,R1,1*%
%TO.N,/3V3_ENA*%
X39170000Y-47580000D03*
%TO.P,R1,2*%
%TO.N,VBUS*%
X39170000Y-45580000D03*
%TD*%
D13*
%TO.P,R22,1*%
%TO.N,/USBPD_CC1*%
X89670000Y-51262500D03*
%TO.P,R22,2*%
%TO.N,GND*%
X89670000Y-52397500D03*
%TD*%
D54*
%TO.P,Y1,1,1*%
%TO.N,/CPU_XIN*%
X67370000Y-58480000D03*
%TO.P,Y1,2,2*%
%TO.N,GND*%
X67370000Y-60580000D03*
%TO.P,Y1,3,3*%
%TO.N,/CPU_XOUT*%
X69020000Y-60580000D03*
%TO.P,Y1,4,4*%
%TO.N,GND*%
X69020000Y-58480000D03*
%TD*%
D11*
%TO.P,D2,1,K*%
%TO.N,GND*%
X45895000Y-83080000D03*
%TO.P,D2,2,A*%
%TO.N,/3V3_LED*%
X47945000Y-83080000D03*
%TD*%
D55*
%TO.P,U3,1,IOVDD*%
%TO.N,+3.3V*%
X78245000Y-56392500D03*
%TO.P,U3,2,GPIO0*%
%TO.N,/D1*%
X77845000Y-56392500D03*
%TO.P,U3,3,GPIO1*%
%TO.N,/D0*%
X77445000Y-56392500D03*
%TO.P,U3,4,GPIO2*%
%TO.N,/USBPD.SDA*%
X77045000Y-56392500D03*
%TO.P,U3,5,GPIO3*%
%TO.N,/USBPD.SCL*%
X76645000Y-56392500D03*
%TO.P,U3,6,GPIO4*%
%TO.N,/USBPD.~{INT}*%
X76245000Y-56392500D03*
%TO.P,U3,7,GPIO5*%
%TO.N,/LED*%
X75845000Y-56392500D03*
%TO.P,U3,8,GPIO6*%
%TO.N,/D2*%
X75445000Y-56392500D03*
%TO.P,U3,9,GPIO7*%
%TO.N,/D3*%
X75045000Y-56392500D03*
%TO.P,U3,10,IOVDD*%
%TO.N,+3.3V*%
X74645000Y-56392500D03*
%TO.P,U3,11,GPIO8*%
%TO.N,/D4*%
X74245000Y-56392500D03*
%TO.P,U3,12,GPIO9*%
%TO.N,/D5*%
X73845000Y-56392500D03*
%TO.P,U3,13,GPIO10*%
%TO.N,/D6*%
X73445000Y-56392500D03*
%TO.P,U3,14,GPIO11*%
%TO.N,/D11*%
X73045000Y-56392500D03*
D56*
%TO.P,U3,15,GPIO12*%
%TO.N,/D12*%
X72207500Y-57230000D03*
%TO.P,U3,16,GPIO13*%
%TO.N,/D10*%
X72207500Y-57630000D03*
%TO.P,U3,17,GPIO14*%
%TO.N,/D13*%
X72207500Y-58030000D03*
%TO.P,U3,18,GPIO15*%
%TO.N,/D7*%
X72207500Y-58430000D03*
%TO.P,U3,19,TESTEN*%
%TO.N,GND*%
X72207500Y-58830000D03*
%TO.P,U3,20,XIN*%
%TO.N,/CPU_XIN*%
X72207500Y-59230000D03*
%TO.P,U3,21,XOUT*%
%TO.N,/CPU_XOUT*%
X72207500Y-59630000D03*
%TO.P,U3,22,IOVDD*%
%TO.N,+3.3V*%
X72207500Y-60030000D03*
%TO.P,U3,23,DVDD*%
%TO.N,+1V1*%
X72207500Y-60430000D03*
%TO.P,U3,24,SWCLK*%
%TO.N,/DEBUG_SWCLK*%
X72207500Y-60830000D03*
%TO.P,U3,25,SWDIO*%
%TO.N,/DEBUG_SWDIO*%
X72207500Y-61230000D03*
%TO.P,U3,26,RUN*%
%TO.N,~{RESET}*%
X72207500Y-61630000D03*
%TO.P,U3,27,GPIO16*%
%TO.N,/D8*%
X72207500Y-62030000D03*
%TO.P,U3,28,GPIO17*%
%TO.N,/D9*%
X72207500Y-62430000D03*
D55*
%TO.P,U3,29,GPIO18*%
%TO.N,/ADC.~{CNVST}*%
X73045000Y-63267500D03*
%TO.P,U3,30,GPIO19*%
%TO.N,/ADC.~{EOC}*%
X73445000Y-63267500D03*
%TO.P,U3,31,GPIO20*%
%TO.N,/ADC.MISO*%
X73845000Y-63267500D03*
%TO.P,U3,32,GPIO21*%
%TO.N,/ADC.~{CS}*%
X74245000Y-63267500D03*
%TO.P,U3,33,IOVDD*%
%TO.N,+3.3V*%
X74645000Y-63267500D03*
%TO.P,U3,34,GPIO22*%
%TO.N,/ADC.SCK*%
X75045000Y-63267500D03*
%TO.P,U3,35,GPIO23*%
%TO.N,/ADC.MOSI*%
X75445000Y-63267500D03*
%TO.P,U3,36,GPIO24*%
%TO.N,/D18*%
X75845000Y-63267500D03*
%TO.P,U3,37,GPIO25*%
%TO.N,/D19*%
X76245000Y-63267500D03*
%TO.P,U3,38,GPIO26/ADC0*%
%TO.N,/A0*%
X76645000Y-63267500D03*
%TO.P,U3,39,GPIO27/ADC1*%
%TO.N,/A1*%
X77045000Y-63267500D03*
%TO.P,U3,40,GPIO28/ADC2*%
%TO.N,/A2*%
X77445000Y-63267500D03*
%TO.P,U3,41,GPIO29/ADC3*%
%TO.N,USBPD_RST*%
X77845000Y-63267500D03*
%TO.P,U3,42,IOVDD*%
%TO.N,+3.3V*%
X78245000Y-63267500D03*
D56*
%TO.P,U3,43,ADC_AVDD*%
%TO.N,+3.3VA*%
X79082500Y-62430000D03*
%TO.P,U3,44,VREG_VIN*%
%TO.N,+3.3V*%
X79082500Y-62030000D03*
%TO.P,U3,45,VREF_OUT*%
%TO.N,+1V1*%
X79082500Y-61630000D03*
%TO.P,U3,46,USB_DM*%
%TO.N,/USB_R_D_N*%
X79082500Y-61230000D03*
%TO.P,U3,47,USB_DP*%
%TO.N,/USB_R_D_P*%
X79082500Y-60830000D03*
%TO.P,U3,48,USB_VDD*%
%TO.N,+3.3V*%
X79082500Y-60430000D03*
%TO.P,U3,49,IOVDD*%
X79082500Y-60030000D03*
%TO.P,U3,50,DVDD*%
%TO.N,+1V1*%
X79082500Y-59630000D03*
%TO.P,U3,51,QSPI_SD3*%
%TO.N,/XIP_SD3*%
X79082500Y-59230000D03*
%TO.P,U3,52,QSPI_SCLK*%
%TO.N,/XIP_SCK*%
X79082500Y-58830000D03*
%TO.P,U3,53,QSPI_SD0*%
%TO.N,/XIP_SD0*%
X79082500Y-58430000D03*
%TO.P,U3,54,QSPI_SD2*%
%TO.N,/XIP_SD2*%
X79082500Y-58030000D03*
%TO.P,U3,55,QSPI_SD1*%
%TO.N,/XIP_SD1*%
X79082500Y-57630000D03*
%TO.P,U3,56,QSPI_SS_N*%
%TO.N,/XIP_~{CS}*%
X79082500Y-57230000D03*
D57*
%TO.P,U3,57,GND*%
%TO.N,GND*%
X75645000Y-59830000D03*
%TD*%
D38*
%TO.P,C35,1*%
%TO.N,Net-(C35-Pad1)*%
X97920000Y-49647500D03*
%TO.P,C35,2*%
%TO.N,VBUS*%
X97920000Y-48512500D03*
%TD*%
D18*
%TO.P,R12,1*%
%TO.N,Net-(D7-K)*%
X82170000Y-48232500D03*
%TO.P,R12,2*%
%TO.N,/USBPD_POK3*%
X82170000Y-49427500D03*
%TD*%
D28*
%TO.P,C9,1*%
%TO.N,+3.3V*%
X56670000Y-59042500D03*
%TO.P,C9,2*%
%TO.N,GND*%
X56670000Y-61117500D03*
%TD*%
D58*
%TO.P,R15,1*%
%TO.N,/VBUS_MONITOR*%
X82170000Y-74330000D03*
%TO.P,R15,2*%
%TO.N,VBUS*%
X80170000Y-74330000D03*
%TD*%
D38*
%TO.P,C21,1*%
%TO.N,+3.3V*%
X78420000Y-54147500D03*
%TO.P,C21,2*%
%TO.N,GND*%
X78420000Y-53012500D03*
%TD*%
D28*
%TO.P,C36,1*%
%TO.N,~{RESET}*%
X98420000Y-75292500D03*
%TO.P,C36,2*%
%TO.N,GND*%
X98420000Y-77367500D03*
%TD*%
D12*
%TO.P,R13,1*%
%TO.N,+3.3V*%
X81670000Y-54177500D03*
%TO.P,R13,2*%
%TO.N,/USBPD.~{INT}*%
X81670000Y-52982500D03*
%TD*%
D17*
%TO.P,R9,1*%
%TO.N,/5V0_DCDC_FB*%
X47670000Y-75330000D03*
%TO.P,R9,2*%
%TO.N,GND*%
X47670000Y-77330000D03*
%TD*%
D28*
%TO.P,C7,1*%
%TO.N,/5V0_DCDC_SS*%
X43170000Y-75292500D03*
%TO.P,C7,2*%
%TO.N,GND*%
X43170000Y-77367500D03*
%TD*%
D31*
%TO.P,R10,1*%
%TO.N,/DCDC_5VOUT*%
X49920000Y-77330000D03*
%TO.P,R10,2*%
%TO.N,/5V0_DCDC_FB*%
X49920000Y-75330000D03*
%TD*%
D51*
%TO.P,C1,1*%
%TO.N,GND*%
X42482500Y-41580000D03*
%TO.P,C1,2*%
%TO.N,VBUS*%
X39357500Y-41580000D03*
%TD*%
D14*
%TO.P,J1,1,Pin_1*%
%TO.N,/DEBUG_SWCLK*%
X50120000Y-34280000D03*
D15*
%TO.P,J1,2,Pin_2*%
%TO.N,GND*%
X47580000Y-34280000D03*
%TO.P,J1,3,Pin_3*%
%TO.N,/DEBUG_SWDIO*%
X45040000Y-34280000D03*
%TO.P,J1,4,Pin_4*%
%TO.N,/DEBUG_UART_TX*%
X42500000Y-34280000D03*
%TO.P,J1,5,Pin_5*%
%TO.N,/DEBUG_UART_RX*%
X39960000Y-34280000D03*
%TD*%
D19*
%TO.P,C29,1*%
%TO.N,GND*%
X83602500Y-54330000D03*
%TO.P,C29,2*%
%TO.N,/USBPD_VREG_1V2*%
X84737500Y-54330000D03*
%TD*%
D31*
%TO.P,R2,1*%
%TO.N,GND*%
X39170000Y-51580000D03*
%TO.P,R2,2*%
%TO.N,/3V3_ENA*%
X39170000Y-49580000D03*
%TD*%
D18*
%TO.P,R50,1*%
%TO.N,/AIN1_A4*%
X87920000Y-77482500D03*
%TO.P,R50,2*%
%TO.N,/A4*%
X87920000Y-78677500D03*
%TD*%
D25*
%TO.P,C32,1*%
%TO.N,GND*%
X90487500Y-54330000D03*
%TO.P,C32,2*%
%TO.N,/+VBUS_SRC*%
X89352500Y-54330000D03*
%TD*%
D18*
%TO.P,R51,1*%
%TO.N,GND*%
X84170000Y-77482500D03*
%TO.P,R51,2*%
%TO.N,/A3*%
X84170000Y-78677500D03*
%TD*%
D19*
%TO.P,C26,1*%
%TO.N,+1V1*%
X81352500Y-63580000D03*
%TO.P,C26,2*%
%TO.N,GND*%
X82487500Y-63580000D03*
%TD*%
D13*
%TO.P,C17,1*%
%TO.N,+1V1*%
X72170000Y-64762500D03*
%TO.P,C17,2*%
%TO.N,GND*%
X72170000Y-65897500D03*
%TD*%
D30*
%TO.P,R44,1*%
%TO.N,/PMUX_OV1*%
X66767500Y-72080000D03*
%TO.P,R44,2*%
%TO.N,/DCDC_5VOUT*%
X65572500Y-72080000D03*
%TD*%
D10*
%TO.P,R42,1*%
%TO.N,GND*%
X65572500Y-70830000D03*
%TO.P,R42,2*%
%TO.N,/PMUX_OV1*%
X66767500Y-70830000D03*
%TD*%
D59*
%TO.N,GND*%
X69370000Y-78830000D03*
X69345000Y-76080000D03*
X64745000Y-69580000D03*
X64745000Y-70830000D03*
X67970000Y-71830000D03*
X67995000Y-70055000D03*
%TO.N,+3.3V*%
X74695000Y-55030000D03*
X98995000Y-44555000D03*
X54920000Y-57580000D03*
X85572500Y-46105000D03*
X78245000Y-64280000D03*
X81070000Y-44690000D03*
X72420000Y-55005000D03*
X80070000Y-62030000D03*
X58170000Y-57580000D03*
X74645000Y-57405000D03*
X71110000Y-60099500D03*
X78420000Y-55030000D03*
X89267500Y-46105000D03*
X95420000Y-74230000D03*
X80145000Y-60030000D03*
X85370000Y-66580000D03*
X78880000Y-56590000D03*
X44495000Y-83055000D03*
X74645000Y-64305000D03*
X99645000Y-77330000D03*
X59670000Y-57580000D03*
X89170000Y-61805000D03*
X80430000Y-54920000D03*
X93770000Y-72080000D03*
X83930000Y-44730000D03*
X85350000Y-59990000D03*
X87370000Y-68055000D03*
X81720000Y-66409500D03*
X70920000Y-64955000D03*
X80970000Y-66880000D03*
X69620000Y-64080000D03*
X56670000Y-57580000D03*
X81740000Y-58580000D03*
%TO.N,GND*%
X38915500Y-83080000D03*
X89180000Y-50550000D03*
X45420000Y-56580000D03*
X86670000Y-76730000D03*
X70095000Y-58480000D03*
X42480000Y-61410000D03*
X73245000Y-58830000D03*
X82740000Y-54340000D03*
X79170000Y-69830000D03*
X87170000Y-49580000D03*
X98995000Y-37655000D03*
X45895000Y-81705000D03*
X90495000Y-55055000D03*
X56345000Y-83080000D03*
X45395000Y-48205000D03*
X45670000Y-70430000D03*
X83295000Y-49330000D03*
X85420000Y-79480000D03*
X85530000Y-55580000D03*
X91670000Y-79480000D03*
X89670000Y-47830000D03*
X45420000Y-78580000D03*
X83345000Y-64830000D03*
X55420000Y-61130000D03*
X71920000Y-71830000D03*
X43170000Y-78580000D03*
X72420000Y-74880000D03*
X87170000Y-51580000D03*
X74420000Y-58580000D03*
X89170000Y-58080000D03*
X47670000Y-56580000D03*
X89170000Y-59330000D03*
X99920000Y-49080000D03*
X90420000Y-79480000D03*
X84600000Y-58580000D03*
X86170000Y-50580000D03*
X89170000Y-76730000D03*
X47670000Y-78580000D03*
X60920000Y-61130000D03*
X43170000Y-56580000D03*
X100170000Y-45455000D03*
X89170000Y-62855000D03*
X78245000Y-67030000D03*
X88010000Y-73199500D03*
X83620000Y-59830000D03*
X66145000Y-60580000D03*
X93795000Y-74580000D03*
X43670000Y-63180000D03*
X89170000Y-56830000D03*
X74420000Y-61080000D03*
X49970000Y-51580000D03*
X66820000Y-64080000D03*
X90470000Y-52397500D03*
X68770000Y-55880000D03*
X76920000Y-58580000D03*
X89445000Y-66580000D03*
X95440000Y-56910000D03*
X42470000Y-43280000D03*
X79170000Y-72080000D03*
X87920000Y-79480000D03*
X85170000Y-51580000D03*
X75670000Y-59830000D03*
X39170000Y-74730000D03*
X94220000Y-77355000D03*
X101970000Y-70205000D03*
X72420000Y-52105000D03*
X84170000Y-76730000D03*
X92620000Y-68505000D03*
X94290000Y-63080000D03*
X40920000Y-52180000D03*
X74695000Y-52080000D03*
X85170000Y-49580000D03*
X42470000Y-39830000D03*
X97145000Y-77355000D03*
X49920000Y-73730000D03*
X76920000Y-61080000D03*
X70920000Y-67680000D03*
X66770000Y-62280000D03*
X88010000Y-70960000D03*
X42480000Y-64960000D03*
X80430000Y-52190000D03*
X74645000Y-67030000D03*
X83345000Y-63580000D03*
X73670000Y-74880000D03*
X87995000Y-55105000D03*
X71895000Y-70330000D03*
X92860000Y-56180000D03*
X39170000Y-52830000D03*
X40920000Y-74080000D03*
X78420000Y-52080000D03*
X85770000Y-54330000D03*
X72170000Y-66705000D03*
%TO.N,Net-(C38-Pad1)*%
X40920000Y-56455000D03*
%TO.N,+5V*%
X70920000Y-74080000D03*
X70920000Y-73080000D03*
%TO.N,/D1*%
X79445000Y-53580000D03*
X94520000Y-38130000D03*
X78170000Y-46555000D03*
%TO.N,/D0*%
X95210000Y-38680000D03*
X79390000Y-51605000D03*
X78970000Y-47530000D03*
%TO.N,/D19*%
X76471940Y-65391531D03*
X68845000Y-51480000D03*
%TO.N,/D18*%
X69345000Y-50680000D03*
X76054980Y-64855000D03*
%TO.N,/AREF*%
X90695000Y-68505000D03*
X68510000Y-47545000D03*
%TO.N,/D10*%
X70095000Y-36880000D03*
%TO.N,/D9*%
X73070000Y-44130000D03*
X71020000Y-63030000D03*
%TO.N,/D8*%
X70995000Y-62105000D03*
X73070000Y-47205000D03*
%TO.N,Net-(D8-A)*%
X103220000Y-46830000D03*
%TO.N,VBUS*%
X68170000Y-67080000D03*
X39360000Y-61400000D03*
X47295000Y-41280000D03*
X39370000Y-39780000D03*
X40420000Y-45580000D03*
X97170000Y-46580000D03*
X93420000Y-46580000D03*
X69670000Y-68580000D03*
X80170000Y-75580000D03*
X39370000Y-43380000D03*
X45995000Y-41280000D03*
X47420000Y-60080000D03*
X95920000Y-46580000D03*
X48670000Y-60080000D03*
X94670000Y-46580000D03*
X48745000Y-41280000D03*
X44920000Y-60080000D03*
X44720000Y-41280000D03*
X39920000Y-81555000D03*
X40370000Y-67580000D03*
X43420000Y-48205000D03*
X68920000Y-67830000D03*
X46170000Y-60080000D03*
X39360000Y-64980000D03*
X43670000Y-70430000D03*
%TO.N,/VBUS_MONITOR*%
X92570000Y-78680000D03*
X82170000Y-75580000D03*
%TO.N,/USBPD_CC1*%
X94420000Y-57055000D03*
X90470000Y-51260000D03*
%TO.N,/USBPD_CC2*%
X90480000Y-49830000D03*
%TO.N,/USBPD.SDA*%
X80450000Y-51280000D03*
X86770000Y-47655000D03*
%TO.N,+1V1*%
X73220000Y-60655000D03*
X78145000Y-61630000D03*
X72170000Y-63905000D03*
X80995000Y-60405000D03*
X78095000Y-59630000D03*
X80495000Y-63580000D03*
%TO.N,/USBPD.SCL*%
X88070000Y-47655000D03*
X79859500Y-50655000D03*
%TO.N,/XIP_SD2*%
X92900000Y-57449500D03*
X84620000Y-57200980D03*
%TO.N,/XIP_SD1*%
X92893944Y-58701566D03*
X82070000Y-56935500D03*
%TO.N,/XIP_~{CS}*%
X92870000Y-59980000D03*
X80345000Y-57005000D03*
%TO.N,/BOOTMODE*%
X99000000Y-42360000D03*
X94150000Y-55720000D03*
%TO.N,/USB_D_P*%
X92020000Y-61980000D03*
X94385464Y-60076389D03*
%TO.N,/USB_D_N*%
X92020000Y-62680000D03*
%TO.N,/LED*%
X98895000Y-46830000D03*
%TO.N,/VBUS_LED*%
X41945000Y-81555000D03*
%TO.N,/3V3_LED*%
X48970000Y-83080000D03*
%TO.N,/5V_LED*%
X60945000Y-83080000D03*
%TO.N,/ADC.~{CNVST}*%
X86520000Y-72205000D03*
X75495000Y-70730000D03*
%TO.N,/ADC.~{EOC}*%
X84195000Y-70980000D03*
X75345000Y-69805000D03*
%TO.N,/ADC.MISO*%
X75870000Y-69230000D03*
X85070000Y-70980000D03*
%TO.N,/ADC.~{CS}*%
X75070000Y-68555000D03*
X86745000Y-70980000D03*
%TO.N,/ADC.SCK*%
X75320000Y-67430000D03*
X86095000Y-68005000D03*
%TO.N,/ADC.MOSI*%
X75945000Y-66955000D03*
X84932500Y-67517500D03*
%TO.N,/D7*%
X67773000Y-36693000D03*
%TO.N,/USBPD_POK2*%
X84470000Y-53400000D03*
X82170000Y-50680000D03*
%TO.N,Net-(C39-Pad1)*%
X40920000Y-78580000D03*
%TO.N,/USBPD_VBUS_VS_DISCH*%
X83080000Y-51830000D03*
X92110000Y-50990000D03*
%TO.N,/USBPD_VBUS_EN_SNK*%
X95695000Y-53330000D03*
X83080000Y-50830000D03*
%TO.N,/USBPD_DISCH*%
X85760000Y-47680000D03*
X92110000Y-49670000D03*
%TO.N,USBPD_RST*%
X82750000Y-55580000D03*
X88940000Y-49330000D03*
X77920000Y-57640000D03*
%TO.N,~{RESET}*%
X72145000Y-67580000D03*
%TO.N,/AIN3_VBUS*%
X91670000Y-76730000D03*
%TO.N,/AIN2_A5*%
X90420000Y-76730000D03*
%TO.N,/AIN0_A3*%
X85420000Y-76730000D03*
%TO.N,/AIN1_A4*%
X87920000Y-76730000D03*
%TO.N,/+VBUS_SRC*%
X93420000Y-54080000D03*
X92420000Y-54080000D03*
X99920000Y-54330000D03*
X94420000Y-53080000D03*
X94420000Y-54080000D03*
%TD*%
D60*
%TO.N,GND*%
X68207500Y-78830000D02*
X69370000Y-78830000D01*
X68207500Y-76080000D02*
X69345000Y-76080000D01*
D61*
%TO.N,/PMUX_LIM*%
X72084681Y-71330000D02*
X71070000Y-71330000D01*
X72420000Y-71665319D02*
X72084681Y-71330000D01*
X72420000Y-72982500D02*
X72420000Y-71665319D01*
%TO.N,~{RESET}*%
X70440000Y-81185000D02*
X70440000Y-82540000D01*
X74495000Y-77130000D02*
X70440000Y-81185000D01*
X74495000Y-71355000D02*
X74495000Y-77130000D01*
X72145000Y-69005000D02*
X74495000Y-71355000D01*
X72145000Y-67580000D02*
X72145000Y-69005000D01*
%TO.N,GND*%
X71070000Y-70330000D02*
X71895000Y-70330000D01*
X71070000Y-71830000D02*
X71920000Y-71830000D01*
X65572500Y-69580000D02*
X64745000Y-69580000D01*
X65572500Y-70830000D02*
X64745000Y-70830000D01*
%TO.N,/PMUX_OV2*%
X66767500Y-69127500D02*
X66767500Y-69580000D01*
X66595000Y-68955000D02*
X66767500Y-69127500D01*
X65745000Y-68955000D02*
X66595000Y-68955000D01*
X65572500Y-68330000D02*
X65572500Y-68782500D01*
X65572500Y-68782500D02*
X65745000Y-68955000D01*
D62*
%TO.N,/DCDC_5VOUT*%
X65572500Y-72080000D02*
X65572500Y-72927500D01*
D61*
%TO.N,/PMUX_OV1*%
X66767500Y-72080000D02*
X66767500Y-70830000D01*
X67895000Y-71330000D02*
X67395000Y-70830000D01*
X68770000Y-71330000D02*
X67895000Y-71330000D01*
X67395000Y-70830000D02*
X66767500Y-70830000D01*
%TO.N,GND*%
X68770000Y-71830000D02*
X67970000Y-71830000D01*
D63*
%TO.N,VBUS*%
X66767500Y-68330000D02*
X67995000Y-68330000D01*
D61*
%TO.N,/PMUX_OV2*%
X66845000Y-69580000D02*
X66767500Y-69580000D01*
X68095000Y-70830000D02*
X66845000Y-69580000D01*
X68770000Y-70830000D02*
X68095000Y-70830000D01*
%TO.N,GND*%
X68270000Y-70330000D02*
X67995000Y-70055000D01*
X68770000Y-70330000D02*
X68270000Y-70330000D01*
%TO.N,+3.3V*%
X80430000Y-54920000D02*
X80430000Y-54147500D01*
X82572500Y-66330000D02*
X81799500Y-66330000D01*
X74645000Y-63267500D02*
X74645000Y-64305000D01*
X70920000Y-65762500D02*
X70920000Y-64955000D01*
X74645000Y-56392500D02*
X74645000Y-57405000D01*
X85572500Y-46105000D02*
X85572500Y-46830000D01*
X68737500Y-64080000D02*
X69620000Y-64080000D01*
X78245000Y-65087500D02*
X78245000Y-64280000D01*
X85500000Y-59990000D02*
X85350000Y-59990000D01*
X78880000Y-56590000D02*
X78720000Y-56590000D01*
X83920000Y-44740000D02*
X83930000Y-44730000D01*
X82572500Y-67580000D02*
X82572500Y-66330000D01*
X78720000Y-56590000D02*
X78522500Y-56392500D01*
X80992500Y-66902500D02*
X80992500Y-67580000D01*
X81799500Y-66330000D02*
X81720000Y-66409500D01*
X79082500Y-60430000D02*
X79895000Y-60430000D01*
D63*
X49920000Y-55330000D02*
X52420000Y-55330000D01*
D61*
X72420000Y-54147500D02*
X72420000Y-55005000D01*
X80145000Y-60180000D02*
X80145000Y-60030000D01*
X95420000Y-75292500D02*
X95420000Y-74230000D01*
D63*
X86470000Y-59985000D02*
X85505000Y-59985000D01*
D61*
X79895000Y-60430000D02*
X80145000Y-60180000D01*
X83920000Y-45507500D02*
X83920000Y-44740000D01*
X79082500Y-60030000D02*
X80145000Y-60030000D01*
X80970000Y-66880000D02*
X80992500Y-66902500D01*
X78420000Y-54147500D02*
X78420000Y-55030000D01*
X87372500Y-68057500D02*
X87370000Y-68055000D01*
X82732500Y-58580000D02*
X81870000Y-58580000D01*
X98995250Y-44554750D02*
X98995000Y-44555000D01*
D63*
X90095000Y-62330000D02*
X89695000Y-62330000D01*
X89695000Y-62330000D02*
X89170000Y-61805000D01*
D61*
X71179500Y-60030000D02*
X72207500Y-60030000D01*
X71110000Y-60099500D02*
X71179500Y-60030000D01*
X74645000Y-65087500D02*
X74645000Y-64305000D01*
X78245000Y-63267500D02*
X78245000Y-64280000D01*
X87372500Y-69425700D02*
X87372500Y-68057500D01*
X78522500Y-56392500D02*
X78245000Y-56392500D01*
X80460000Y-54177500D02*
X80430000Y-54147500D01*
X81070000Y-45507500D02*
X81070000Y-44690000D01*
X81670000Y-54177500D02*
X80460000Y-54177500D01*
X98995250Y-43580000D02*
X98995250Y-44554750D01*
X74695000Y-54147500D02*
X74695000Y-55030000D01*
X85505000Y-59985000D02*
X85500000Y-59990000D01*
X89267500Y-46105000D02*
X89267500Y-46830000D01*
D60*
X92670000Y-72080000D02*
X93770000Y-72080000D01*
D61*
X86382500Y-66580000D02*
X85370000Y-66580000D01*
X79082500Y-62030000D02*
X80070000Y-62030000D01*
%TO.N,GND*%
X69020000Y-58480000D02*
X70095000Y-58480000D01*
X84920000Y-49330000D02*
X85170000Y-49580000D01*
D60*
X42482500Y-63180000D02*
X42482500Y-64957500D01*
X99920000Y-49930000D02*
X99920000Y-49080000D01*
X42482500Y-61412500D02*
X42480000Y-61410000D01*
D61*
X95440000Y-57580000D02*
X95440000Y-56910000D01*
X88007500Y-70957500D02*
X88007500Y-69425700D01*
X100145000Y-46830000D02*
X100145000Y-45480000D01*
X67370000Y-60580000D02*
X66145000Y-60580000D01*
X84767500Y-55580000D02*
X85530000Y-55580000D01*
D60*
X92707500Y-74580000D02*
X93795000Y-74580000D01*
D62*
X82740000Y-54340000D02*
X83592500Y-54340000D01*
X39170000Y-51580000D02*
X39170000Y-52830000D01*
D61*
X98995250Y-37655250D02*
X98995000Y-37655000D01*
X67602500Y-64080000D02*
X66820000Y-64080000D01*
X88457500Y-66580000D02*
X89445000Y-66580000D01*
D62*
X49955000Y-51545000D02*
X49970000Y-51560000D01*
D61*
X78245000Y-66222500D02*
X78245000Y-67030000D01*
X100145000Y-45480000D02*
X100170000Y-45455000D01*
D63*
X88645000Y-62330000D02*
X89170000Y-62855000D01*
D61*
X80132500Y-69830000D02*
X79170000Y-69830000D01*
D63*
X45895000Y-83080000D02*
X45895000Y-81705000D01*
X91870000Y-56175000D02*
X92855000Y-56175000D01*
D61*
X72170000Y-65897500D02*
X72170000Y-66705000D01*
D60*
X42482500Y-39842500D02*
X42470000Y-39830000D01*
X49920000Y-72730000D02*
X49920000Y-73730000D01*
D61*
X72420000Y-53012500D02*
X72420000Y-52105000D01*
X84920000Y-48617500D02*
X84920000Y-49330000D01*
X68762500Y-55887500D02*
X68770000Y-55880000D01*
X70920000Y-66897500D02*
X70920000Y-67680000D01*
X88010000Y-70960000D02*
X88007500Y-70957500D01*
X88010000Y-73199500D02*
X88007500Y-73202000D01*
X84207500Y-49330000D02*
X83295000Y-49330000D01*
D63*
X39895000Y-83080000D02*
X38915500Y-83080000D01*
D60*
X56670000Y-61117500D02*
X55432500Y-61117500D01*
D61*
X84170000Y-77482500D02*
X84170000Y-76730000D01*
X98420000Y-77367500D02*
X97157500Y-77367500D01*
D63*
X92620000Y-69767500D02*
X92620000Y-68505000D01*
D61*
X67627500Y-62280000D02*
X66770000Y-62280000D01*
D60*
X49955000Y-50480000D02*
X49955000Y-51545000D01*
D63*
X57645000Y-83080000D02*
X56345000Y-83080000D01*
D61*
X88007500Y-73202000D02*
X88007500Y-74734300D01*
D62*
X86420000Y-53305000D02*
X85770000Y-53955000D01*
X47670000Y-77330000D02*
X47670000Y-78580000D01*
X85770000Y-53955000D02*
X85770000Y-54330000D01*
D63*
X88245000Y-62330000D02*
X88645000Y-62330000D01*
D62*
X45420000Y-77367500D02*
X45420000Y-78580000D01*
D61*
X88900000Y-50830000D02*
X89180000Y-50550000D01*
D60*
X47145000Y-70445000D02*
X45685000Y-70445000D01*
D61*
X60907500Y-61117500D02*
X60920000Y-61130000D01*
D62*
X45420000Y-55367500D02*
X45420000Y-56580000D01*
X49970000Y-51560000D02*
X49970000Y-51580000D01*
D61*
X90470000Y-52397500D02*
X89670000Y-52397500D01*
X85920000Y-48617500D02*
X85920000Y-50330000D01*
X74695000Y-53012500D02*
X74695000Y-52080000D01*
X82487500Y-63580000D02*
X83345000Y-63580000D01*
D60*
X42482500Y-64957500D02*
X42480000Y-64960000D01*
X42482500Y-63180000D02*
X42482500Y-61412500D01*
D62*
X45685000Y-70445000D02*
X45670000Y-70430000D01*
D61*
X90487500Y-55047500D02*
X90495000Y-55055000D01*
X83867500Y-58580000D02*
X84730000Y-58580000D01*
X80170000Y-72080000D02*
X79170000Y-72080000D01*
X86670000Y-77482500D02*
X86670000Y-76730000D01*
X95440000Y-63080000D02*
X94290000Y-63080000D01*
X72207500Y-58830000D02*
X73245000Y-58830000D01*
D60*
X42482500Y-41580000D02*
X42482500Y-43267500D01*
D61*
X98995250Y-38580000D02*
X98995250Y-37655250D01*
X82737500Y-59830000D02*
X83620000Y-59830000D01*
X97157500Y-77367500D02*
X97145000Y-77355000D01*
D62*
X43170000Y-55367500D02*
X43170000Y-56580000D01*
D61*
X95420000Y-77367500D02*
X94232500Y-77367500D01*
X89170000Y-77482500D02*
X89170000Y-76730000D01*
X83592500Y-54340000D02*
X83602500Y-54330000D01*
X92855000Y-56175000D02*
X92860000Y-56180000D01*
D62*
X39170000Y-73580000D02*
X39170000Y-74730000D01*
D60*
X42482500Y-43267500D02*
X42470000Y-43280000D01*
X59670000Y-61117500D02*
X60907500Y-61117500D01*
D61*
X88132500Y-50830000D02*
X88900000Y-50830000D01*
D60*
X42482500Y-63180000D02*
X43670000Y-63180000D01*
D61*
X68762500Y-56780000D02*
X68762500Y-55887500D01*
D62*
X82487500Y-64830000D02*
X83345000Y-64830000D01*
D61*
X94232500Y-77367500D02*
X94220000Y-77355000D01*
D60*
X42482500Y-41580000D02*
X42482500Y-39842500D01*
D62*
X47670000Y-55330000D02*
X47670000Y-56580000D01*
D61*
X85920000Y-50330000D02*
X86170000Y-50580000D01*
X87995000Y-54337500D02*
X87987500Y-54330000D01*
X72420000Y-74177500D02*
X72420000Y-74880000D01*
D62*
X87995000Y-55105000D02*
X87995000Y-54337500D01*
D61*
X78420000Y-53012500D02*
X78420000Y-52080000D01*
X80430000Y-52190000D02*
X80430000Y-53012500D01*
D60*
X46895000Y-48195000D02*
X45405000Y-48195000D01*
D61*
X55432500Y-61117500D02*
X55420000Y-61130000D01*
D63*
X90487500Y-54330000D02*
X90487500Y-55047500D01*
D62*
X43170000Y-77367500D02*
X43170000Y-78580000D01*
D61*
X73670000Y-74147500D02*
X73670000Y-74880000D01*
D62*
X86420000Y-52542500D02*
X86420000Y-53305000D01*
D61*
X89670000Y-47830000D02*
X89670000Y-48695000D01*
D62*
X45405000Y-48195000D02*
X45395000Y-48205000D01*
D61*
X74645000Y-66222500D02*
X74645000Y-67030000D01*
%TO.N,/CPU_XIN*%
X67620000Y-56787500D02*
X67620000Y-58230000D01*
X67627500Y-56780000D02*
X67620000Y-56787500D01*
X69895000Y-59380000D02*
X68270000Y-59380000D01*
X72207500Y-59230000D02*
X70045000Y-59230000D01*
X68270000Y-59380000D02*
X67370000Y-58480000D01*
X67620000Y-58230000D02*
X67370000Y-58480000D01*
X70045000Y-59230000D02*
X69895000Y-59380000D01*
%TO.N,/CPU_XOUT*%
X68762500Y-62280000D02*
X68762500Y-60837500D01*
X69970000Y-59630000D02*
X69020000Y-60580000D01*
X72207500Y-59630000D02*
X69970000Y-59630000D01*
X68762500Y-60837500D02*
X69020000Y-60580000D01*
D62*
%TO.N,Net-(C35-Pad1)*%
X97920000Y-50982500D02*
X97920000Y-49647500D01*
%TO.N,Net-(C38-Pad1)*%
X40920000Y-55330000D02*
X40920000Y-56455000D01*
D64*
%TO.N,+5V*%
X70270000Y-72430000D02*
X70920000Y-73080000D01*
X70270000Y-70455000D02*
X70270000Y-71705000D01*
X70270000Y-71705000D02*
X70270000Y-72430000D01*
D62*
%TO.N,+3.3VA*%
X81352500Y-64830000D02*
X79995000Y-64830000D01*
D61*
X79847500Y-66152500D02*
X79920000Y-66080000D01*
D62*
X79082500Y-63917500D02*
X79082500Y-62430000D01*
D63*
X79847500Y-67580000D02*
X79847500Y-66152500D01*
D61*
%TO.N,/D1*%
X77845000Y-55705000D02*
X77845000Y-56392500D01*
X79445000Y-54905000D02*
X78850489Y-55499511D01*
X79445000Y-53580000D02*
X79445000Y-54905000D01*
X84970000Y-38150000D02*
X94500000Y-38150000D01*
X78050489Y-55499511D02*
X77845000Y-55705000D01*
X94500000Y-38150000D02*
X94520000Y-38130000D01*
X98380000Y-34280000D02*
X94530000Y-38130000D01*
X78850489Y-55499511D02*
X78050489Y-55499511D01*
X78170000Y-46555000D02*
X78170000Y-44950000D01*
X78170000Y-44950000D02*
X84970000Y-38150000D01*
X94530000Y-38130000D02*
X94520000Y-38130000D01*
%TO.N,/D0*%
X96520000Y-38680000D02*
X100920000Y-34280000D01*
X79390000Y-51605000D02*
X77920000Y-51605000D01*
X77920000Y-51605000D02*
X77445000Y-52080000D01*
X78970000Y-47530000D02*
X78970000Y-44740000D01*
X85030000Y-38680000D02*
X95210000Y-38680000D01*
X95210000Y-38680000D02*
X96520000Y-38680000D01*
X78970000Y-44740000D02*
X85030000Y-38680000D01*
X77445000Y-52080000D02*
X77445000Y-56392500D01*
%TO.N,/D19*%
X66510000Y-39530000D02*
X64480000Y-37500000D01*
X76524491Y-64384491D02*
X76245000Y-64105000D01*
X76471940Y-65391531D02*
X76524491Y-65338980D01*
X68845000Y-51480000D02*
X66510000Y-49145000D01*
X76524491Y-65338980D02*
X76524491Y-64384491D01*
X59440000Y-37500000D02*
X56220000Y-34280000D01*
X76245000Y-64105000D02*
X76245000Y-63267500D01*
X64480000Y-37500000D02*
X59440000Y-37500000D01*
X66510000Y-49145000D02*
X66510000Y-39530000D01*
%TO.N,/D18*%
X61490000Y-37010000D02*
X58760000Y-34280000D01*
X75845000Y-64205000D02*
X76054980Y-64414980D01*
X76054980Y-64414980D02*
X76054980Y-64855000D01*
X67070000Y-39160000D02*
X64920000Y-37010000D01*
X67070000Y-48405000D02*
X67070000Y-39160000D01*
X64920000Y-37010000D02*
X61490000Y-37010000D01*
X69345000Y-50680000D02*
X67070000Y-48405000D01*
X75845000Y-63267500D02*
X75845000Y-64205000D01*
D60*
%TO.N,/AREF*%
X90720000Y-69767500D02*
X90720000Y-72030000D01*
X90720000Y-69767500D02*
X90720000Y-68530000D01*
X68510000Y-47545000D02*
X68510000Y-39010000D01*
X68510000Y-39010000D02*
X65350000Y-35850000D01*
X90632500Y-74580000D02*
X90632500Y-72117500D01*
D64*
X89465700Y-69425700D02*
X88642500Y-69425700D01*
X90720000Y-69767500D02*
X89807500Y-69767500D01*
D63*
X90720000Y-72030000D02*
X90670000Y-72080000D01*
D60*
X62870000Y-35850000D02*
X61300000Y-34280000D01*
D61*
X90632500Y-72117500D02*
X90670000Y-72080000D01*
D63*
X90720000Y-68530000D02*
X90695000Y-68505000D01*
D60*
X65350000Y-35850000D02*
X62870000Y-35850000D01*
D64*
X89807500Y-69767500D02*
X89465700Y-69425700D01*
D61*
%TO.N,/D13*%
X70645000Y-38545000D02*
X66380000Y-34280000D01*
X71295000Y-58030000D02*
X70645000Y-57380000D01*
X70645000Y-57380000D02*
X70645000Y-38545000D01*
X72207500Y-58030000D02*
X71295000Y-58030000D01*
%TO.N,/D12*%
X71320000Y-56955000D02*
X71595000Y-57230000D01*
X68920000Y-34280000D02*
X71320000Y-36680000D01*
X71320000Y-36680000D02*
X71320000Y-56955000D01*
X71595000Y-57230000D02*
X72207500Y-57230000D01*
%TO.N,/D11*%
X72120000Y-50430000D02*
X72120000Y-36255000D01*
X72120000Y-36255000D02*
X71460000Y-35595000D01*
X73045000Y-56392500D02*
X73045000Y-51355000D01*
X71460000Y-35595000D02*
X71460000Y-34280000D01*
X73045000Y-51355000D02*
X72120000Y-50430000D01*
%TO.N,/D10*%
X70095000Y-36880000D02*
X71020000Y-37805000D01*
X71020000Y-37805000D02*
X71020000Y-57155000D01*
X71495000Y-57630000D02*
X72207500Y-57630000D01*
X71020000Y-57155000D02*
X71495000Y-57630000D01*
%TO.N,/D9*%
X71620000Y-62430000D02*
X71020000Y-63030000D01*
X73070000Y-44130000D02*
X73070000Y-39370000D01*
X73070000Y-39370000D02*
X76540000Y-35900000D01*
X72207500Y-62430000D02*
X71620000Y-62430000D01*
X76540000Y-35900000D02*
X76540000Y-34280000D01*
%TO.N,/D8*%
X79080000Y-35810000D02*
X79080000Y-34280000D01*
X73930000Y-40960000D02*
X79080000Y-35810000D01*
X72207500Y-62030000D02*
X71070000Y-62030000D01*
X73930000Y-46345000D02*
X73930000Y-40960000D01*
X73070000Y-47205000D02*
X73930000Y-46345000D01*
X71070000Y-62030000D02*
X70995000Y-62105000D01*
%TO.N,/A0*%
X76941451Y-66488549D02*
X76495000Y-66935000D01*
X84470000Y-80755000D02*
X86255000Y-82540000D01*
X86255000Y-82540000D02*
X88220000Y-82540000D01*
X76495000Y-76155000D02*
X81095000Y-80755000D01*
X76495000Y-66935000D02*
X76495000Y-76155000D01*
X76941451Y-64293467D02*
X76941451Y-66488549D01*
X76645000Y-63267500D02*
X76645000Y-63997016D01*
X76645000Y-63997016D02*
X76941451Y-64293467D01*
X81095000Y-80755000D02*
X84470000Y-80755000D01*
%TO.N,/A1*%
X81495000Y-80180000D02*
X84670000Y-80180000D01*
X89550000Y-81330000D02*
X90760000Y-82540000D01*
X77045000Y-67065000D02*
X77045000Y-75730000D01*
X77045000Y-64030000D02*
X77310000Y-64295000D01*
X85820000Y-81330000D02*
X89550000Y-81330000D01*
X77045000Y-75730000D02*
X81495000Y-80180000D01*
X77045000Y-63267500D02*
X77045000Y-64030000D01*
X84670000Y-80180000D02*
X85820000Y-81330000D01*
X77310000Y-66800000D02*
X77045000Y-67065000D01*
X77310000Y-64295000D02*
X77310000Y-66800000D01*
%TO.N,/A2*%
X84870000Y-79630000D02*
X86220000Y-80980000D01*
X81820000Y-79630000D02*
X84870000Y-79630000D01*
X77620000Y-75430000D02*
X81820000Y-79630000D01*
X77445000Y-63267500D02*
X77480960Y-63303460D01*
X77480960Y-64000960D02*
X77620000Y-64140000D01*
X77480960Y-63303460D02*
X77480960Y-64000960D01*
X91740000Y-80980000D02*
X93300000Y-82540000D01*
X86220000Y-80980000D02*
X91740000Y-80980000D01*
X77620000Y-64140000D02*
X77620000Y-75430000D01*
%TO.N,/A3*%
X85420000Y-78677500D02*
X84170000Y-78677500D01*
X93930000Y-80630000D02*
X87345319Y-80630000D01*
X87345319Y-80630000D02*
X87345319Y-80602819D01*
X95840000Y-82540000D02*
X93930000Y-80630000D01*
X87345319Y-80602819D02*
X85420000Y-78677500D01*
%TO.N,/A4*%
X96120000Y-80280000D02*
X89522500Y-80280000D01*
X98380000Y-82540000D02*
X96120000Y-80280000D01*
X87920000Y-78677500D02*
X86670000Y-78677500D01*
X89522500Y-80280000D02*
X87920000Y-78677500D01*
%TO.N,/A5*%
X91045000Y-79302500D02*
X90420000Y-78677500D01*
X91340000Y-79950000D02*
X91045000Y-79655000D01*
X91045000Y-79655000D02*
X91045000Y-79302500D01*
X90420000Y-78677500D02*
X89170000Y-78677500D01*
X98330000Y-79950000D02*
X91340000Y-79950000D01*
X100920000Y-82540000D02*
X98330000Y-79950000D01*
%TO.N,Net-(D6-K)*%
X80920000Y-48232500D02*
X80920000Y-47605000D01*
X80920000Y-47605000D02*
X81070000Y-47455000D01*
X81070000Y-47455000D02*
X81070000Y-46652500D01*
%TO.N,Net-(D8-A)*%
X103220000Y-46830000D02*
X102195000Y-46830000D01*
%TO.N,VBUS*%
X80170000Y-74330000D02*
X80170000Y-75580000D01*
X43655000Y-70445000D02*
X43670000Y-70430000D01*
D62*
X43410000Y-48195000D02*
X43420000Y-48205000D01*
X39170000Y-45580000D02*
X40420000Y-45580000D01*
D60*
X39357500Y-63180000D02*
X39357500Y-61402500D01*
X41945000Y-48195000D02*
X43410000Y-48195000D01*
D63*
X96395000Y-48330000D02*
X96395000Y-47355000D01*
X95745000Y-48330000D02*
X95745000Y-47405000D01*
D62*
X97920000Y-48512500D02*
X97920000Y-47330000D01*
X92920000Y-48482500D02*
X92920000Y-47330000D01*
D60*
X39357500Y-41580000D02*
X39357500Y-39792500D01*
D64*
X69570000Y-70455000D02*
X69570000Y-69230000D01*
D60*
X39357500Y-41580000D02*
X39357500Y-43367500D01*
D62*
X39357500Y-39792500D02*
X39370000Y-39780000D01*
D63*
X94445000Y-48330000D02*
X94445000Y-47355000D01*
D61*
X39357500Y-64977500D02*
X39360000Y-64980000D01*
D60*
X39357500Y-63180000D02*
X39357500Y-64977500D01*
X42195000Y-70445000D02*
X43655000Y-70445000D01*
D63*
X95095000Y-48330000D02*
X95095000Y-47405000D01*
D61*
X39357500Y-61402500D02*
X39360000Y-61400000D01*
D64*
X69570000Y-69230000D02*
X69420000Y-69080000D01*
D62*
X39357500Y-43367500D02*
X39370000Y-43380000D01*
D61*
X39170000Y-67580000D02*
X40370000Y-67580000D01*
%TO.N,/VBUS_MONITOR*%
X92570000Y-78680000D02*
X91672500Y-78680000D01*
X82170000Y-74330000D02*
X82170000Y-72080000D01*
X82170000Y-74330000D02*
X82170000Y-75580000D01*
X82207500Y-72042500D02*
X82170000Y-72080000D01*
X82207500Y-69830000D02*
X82207500Y-72042500D01*
X91672500Y-78680000D02*
X91670000Y-78677500D01*
%TO.N,/USBPD_CC1*%
X93845000Y-59923888D02*
X94420000Y-59348888D01*
X89670000Y-51262500D02*
X90467500Y-51262500D01*
X88132500Y-51330000D02*
X88132500Y-51830000D01*
X89602500Y-51330000D02*
X89670000Y-51262500D01*
X95440000Y-61080000D02*
X94295000Y-61080000D01*
X88132500Y-51330000D02*
X89602500Y-51330000D01*
X94295000Y-61080000D02*
X93845000Y-60630000D01*
X90467500Y-51262500D02*
X90470000Y-51260000D01*
X94420000Y-59348888D02*
X94420000Y-57055000D01*
X93845000Y-60630000D02*
X93845000Y-59923888D01*
%TO.N,/USBPD_CC2*%
X89210000Y-49830000D02*
X89670000Y-49830000D01*
X88132500Y-50330000D02*
X88710000Y-50330000D01*
X88710000Y-50330000D02*
X89210000Y-49830000D01*
X88132500Y-50330000D02*
X88132500Y-49830000D01*
X89670000Y-49830000D02*
X90480000Y-49830000D01*
%TO.N,/DEBUG_SWDIO*%
X70800000Y-61230000D02*
X72207500Y-61230000D01*
X49870000Y-39110000D02*
X62140000Y-39110000D01*
X66270000Y-63390000D02*
X69577016Y-63390000D01*
X65320000Y-55860000D02*
X65160000Y-56020000D01*
X45040000Y-34280000D02*
X49870000Y-39110000D01*
X65160000Y-56020000D02*
X65160000Y-62280000D01*
X65320000Y-42290000D02*
X65320000Y-55860000D01*
X62140000Y-39110000D02*
X65320000Y-42290000D01*
X70204520Y-62762496D02*
X70204520Y-61825480D01*
X65160000Y-62280000D02*
X66270000Y-63390000D01*
X69577016Y-63390000D02*
X70204520Y-62762496D01*
X70204520Y-61825480D02*
X70800000Y-61230000D01*
%TO.N,/DEBUG_SWCLK*%
X69370000Y-63080000D02*
X69945001Y-62504999D01*
X62320000Y-38130000D02*
X65750000Y-41560000D01*
X53960000Y-38130000D02*
X62320000Y-38130000D01*
X65470000Y-62070000D02*
X66480000Y-63080000D01*
X65750000Y-41560000D02*
X65750000Y-56080000D01*
X69945001Y-62504999D02*
X69945001Y-61717983D01*
X70832984Y-60830000D02*
X72207500Y-60830000D01*
X66480000Y-63080000D02*
X69370000Y-63080000D01*
X69945001Y-61717983D02*
X70832984Y-60830000D01*
X65470000Y-56360000D02*
X65470000Y-62070000D01*
X50120000Y-34290000D02*
X53960000Y-38130000D01*
X50120000Y-34280000D02*
X50120000Y-34290000D01*
X65750000Y-56080000D02*
X65470000Y-56360000D01*
D62*
%TO.N,/3V3_ENA*%
X39285000Y-49465000D02*
X39170000Y-49580000D01*
X39170000Y-47580000D02*
X39170000Y-49580000D01*
X41945000Y-49465000D02*
X39285000Y-49465000D01*
D61*
%TO.N,/USBPD.~{INT}*%
X77470000Y-50055000D02*
X80120000Y-50055000D01*
X84920000Y-52542500D02*
X83232500Y-52542500D01*
X80120000Y-50055000D02*
X81670000Y-51605000D01*
X82795000Y-52980000D02*
X81672500Y-52980000D01*
X76245000Y-56392500D02*
X76245000Y-51280000D01*
X83232500Y-52542500D02*
X82795000Y-52980000D01*
X81670000Y-51602500D02*
X81670000Y-52980000D01*
X76245000Y-51280000D02*
X77470000Y-50055000D01*
%TO.N,/USBPD.SDA*%
X86767500Y-47652500D02*
X86770000Y-47655000D01*
X79529681Y-51080000D02*
X77720000Y-51080000D01*
X77045000Y-51755000D02*
X77045000Y-56392500D01*
X86920000Y-48617500D02*
X86920000Y-48105000D01*
X86920000Y-48105000D02*
X86770000Y-47955000D01*
X77720000Y-51080000D02*
X77045000Y-51755000D01*
X86767500Y-46830000D02*
X86767500Y-47652500D01*
X86770000Y-47955000D02*
X86770000Y-47655000D01*
X80450000Y-51280000D02*
X79729681Y-51280000D01*
X79729681Y-51280000D02*
X79529681Y-51080000D01*
%TO.N,+1V1*%
X79082500Y-61630000D02*
X78145000Y-61630000D01*
X81352500Y-63580000D02*
X80495000Y-63580000D01*
X72170000Y-64762500D02*
X72170000Y-63905000D01*
X72207500Y-60430000D02*
X72995000Y-60430000D01*
X81602500Y-59830000D02*
X81570000Y-59830000D01*
X79082500Y-59630000D02*
X78095000Y-59630000D01*
X72995000Y-60430000D02*
X73220000Y-60655000D01*
X81570000Y-59830000D02*
X80995000Y-60405000D01*
%TO.N,/USBPD.SCL*%
X76645000Y-51530000D02*
X76645000Y-56392500D01*
X77520000Y-50655000D02*
X76645000Y-51530000D01*
X87420000Y-48330000D02*
X88070000Y-47680000D01*
X79859500Y-50655000D02*
X77520000Y-50655000D01*
X88072500Y-47652500D02*
X88070000Y-47655000D01*
X87420000Y-48617500D02*
X87420000Y-48330000D01*
X88070000Y-47680000D02*
X88070000Y-47655000D01*
X88072500Y-46830000D02*
X88072500Y-47652500D01*
%TO.N,/XIP_SD3*%
X85582500Y-59230000D02*
X79082500Y-59230000D01*
X86470000Y-58715000D02*
X86097500Y-58715000D01*
X86097500Y-58715000D02*
X85582500Y-59230000D01*
%TO.N,/XIP_SCK*%
X81625319Y-58030000D02*
X85495000Y-58030000D01*
X81270000Y-58390000D02*
X81270000Y-58385319D01*
X86080000Y-57445000D02*
X86470000Y-57445000D01*
X85495000Y-58030000D02*
X86080000Y-57445000D01*
X79082500Y-58830000D02*
X80830000Y-58830000D01*
X80830000Y-58830000D02*
X81270000Y-58390000D01*
X81270000Y-58385319D02*
X81625319Y-58030000D01*
%TO.N,/XIP_SD0*%
X80657500Y-58430000D02*
X81367500Y-57720000D01*
X84840000Y-57720000D02*
X85520000Y-57040000D01*
X85520000Y-56755000D02*
X86105000Y-56170000D01*
X86105000Y-56170000D02*
X86340000Y-56170000D01*
X79082500Y-58430000D02*
X80657500Y-58430000D01*
X81367500Y-57720000D02*
X84840000Y-57720000D01*
X86340000Y-56170000D02*
X86345000Y-56175000D01*
X85520000Y-57040000D02*
X85520000Y-56755000D01*
%TO.N,/XIP_SD2*%
X82795000Y-57205000D02*
X84615980Y-57205000D01*
X79082500Y-58030000D02*
X80495000Y-58030000D01*
X92900000Y-57449500D02*
X92895500Y-57445000D01*
X92895500Y-57445000D02*
X91870000Y-57445000D01*
X80495000Y-58030000D02*
X81120000Y-57405000D01*
X82595000Y-57405000D02*
X82795000Y-57205000D01*
X81120000Y-57405000D02*
X82595000Y-57405000D01*
X84615980Y-57205000D02*
X84620000Y-57200980D01*
%TO.N,/XIP_SD1*%
X79082500Y-57630000D02*
X80384681Y-57630000D01*
X80384681Y-57630000D02*
X81079181Y-56935500D01*
X92893944Y-58701566D02*
X92880510Y-58715000D01*
X92880510Y-58715000D02*
X91870000Y-58715000D01*
X81079181Y-56935500D02*
X82070000Y-56935500D01*
%TO.N,/XIP_~{CS}*%
X93340000Y-59980000D02*
X92870000Y-59980000D01*
X93670000Y-59177500D02*
X93670000Y-59650000D01*
X79945000Y-57005000D02*
X80345000Y-57005000D01*
X93670000Y-59650000D02*
X93340000Y-59980000D01*
X92870000Y-59980000D02*
X92865000Y-59985000D01*
X79720000Y-57230000D02*
X79945000Y-57005000D01*
X92865000Y-59985000D02*
X91870000Y-59985000D01*
X79082500Y-57230000D02*
X79720000Y-57230000D01*
D62*
%TO.N,/5V_ENA*%
X40605000Y-71715000D02*
X40470000Y-71580000D01*
X42195000Y-71715000D02*
X40605000Y-71715000D01*
X39170000Y-71580000D02*
X39170000Y-69580000D01*
X40470000Y-71580000D02*
X39170000Y-71580000D01*
%TO.N,/3V3_DCDC_SS*%
X41945000Y-51255000D02*
X43170000Y-52480000D01*
X43170000Y-52480000D02*
X43170000Y-53292500D01*
X43170000Y-53292500D02*
X40957500Y-53292500D01*
X41945000Y-50735000D02*
X41945000Y-51255000D01*
X40957500Y-53292500D02*
X40920000Y-53330000D01*
%TO.N,/3V3_DCDC_COMP*%
X46895000Y-49465000D02*
X45685000Y-49465000D01*
X45420000Y-49730000D02*
X45420000Y-53292500D01*
X45685000Y-49465000D02*
X45420000Y-49730000D01*
D60*
%TO.N,/3V3_DCDC_SW*%
X46895000Y-46925000D02*
X46895000Y-45105000D01*
X49955000Y-47180000D02*
X49955000Y-45115000D01*
D63*
X45457500Y-44580000D02*
X46920000Y-44580000D01*
D62*
%TO.N,/3V3_DCDC_BOOST*%
X42420000Y-44580000D02*
X43382500Y-44580000D01*
X41945000Y-45055000D02*
X42420000Y-44580000D01*
X41945000Y-46925000D02*
X41945000Y-45055000D01*
%TO.N,/3V3_DCDC_FB*%
X47670000Y-52330000D02*
X47670000Y-53330000D01*
X47670000Y-53330000D02*
X49920000Y-53330000D01*
X46895000Y-50735000D02*
X46895000Y-51555000D01*
X46895000Y-51555000D02*
X47670000Y-52330000D01*
%TO.N,/5V0_DCDC_SS*%
X40920000Y-75330000D02*
X43132500Y-75330000D01*
X42195000Y-73505000D02*
X43170000Y-74480000D01*
X43170000Y-74480000D02*
X43170000Y-75292500D01*
X42195000Y-72985000D02*
X42195000Y-73505000D01*
D61*
X43132500Y-75330000D02*
X43170000Y-75292500D01*
D62*
%TO.N,/5V0_DCDC_COMP*%
X47145000Y-71715000D02*
X45785000Y-71715000D01*
X45420000Y-72080000D02*
X45420000Y-75292500D01*
X45785000Y-71715000D02*
X45420000Y-72080000D01*
D60*
%TO.N,/5V0_DCDC_SW*%
X49920000Y-69430000D02*
X49920000Y-67580000D01*
X47145000Y-69175000D02*
X47145000Y-67745000D01*
D63*
X45707500Y-67080000D02*
X47540000Y-67080000D01*
%TO.N,/5V0_DCDC_BOOST*%
X42195000Y-69175000D02*
X42195000Y-67555000D01*
X42670000Y-67080000D02*
X43632500Y-67080000D01*
X42195000Y-67555000D02*
X42670000Y-67080000D01*
D62*
%TO.N,/5V0_DCDC_FB*%
X47145000Y-73555000D02*
X47670000Y-74080000D01*
X47670000Y-74080000D02*
X47670000Y-75330000D01*
X47145000Y-72985000D02*
X47145000Y-73555000D01*
D61*
X49920000Y-75330000D02*
X47670000Y-75330000D01*
%TO.N,/BOOTMODE*%
X99000000Y-42360000D02*
X99000000Y-41084750D01*
X99000000Y-41084750D02*
X98995250Y-41080000D01*
X94150000Y-56390000D02*
X93670000Y-56870000D01*
X94150000Y-55720000D02*
X94150000Y-56390000D01*
X93670000Y-56870000D02*
X93670000Y-57982500D01*
D62*
%TO.N,/USB_D_P*%
X90020000Y-61792500D02*
X90395001Y-61792500D01*
X91545000Y-61980000D02*
X92020000Y-61980000D01*
X94590000Y-60280925D02*
X94385464Y-60076389D01*
X94590000Y-60480000D02*
X94590000Y-60280925D01*
X90395001Y-61792500D02*
X90757501Y-62155000D01*
X91370000Y-62155000D02*
X91545000Y-61980000D01*
X90757501Y-62155000D02*
X91370000Y-62155000D01*
X95440000Y-60580000D02*
X94690000Y-60580000D01*
X94690000Y-60580000D02*
X94590000Y-60480000D01*
%TO.N,/USB_D_N*%
X96459521Y-60499521D02*
X96690000Y-60730000D01*
X91370000Y-62505000D02*
X91545000Y-62680000D01*
X95440000Y-60080000D02*
X96040000Y-60080000D01*
X90757501Y-62505000D02*
X91370000Y-62505000D01*
X90395001Y-62867500D02*
X90757501Y-62505000D01*
X96040000Y-60080000D02*
X96120479Y-60160479D01*
X96120479Y-60165904D02*
X96454096Y-60499521D01*
X96120479Y-60160479D02*
X96120479Y-60165904D01*
X91545000Y-62680000D02*
X92020000Y-62680000D01*
X90020000Y-62867500D02*
X90395001Y-62867500D01*
X96454096Y-60499521D02*
X96459521Y-60499521D01*
%TO.N,/USB_R_D_N*%
X80222512Y-61230000D02*
X79082500Y-61230000D01*
X80872512Y-61880000D02*
X80222512Y-61230000D01*
X81595000Y-61880000D02*
X80872512Y-61880000D01*
X82572500Y-62330000D02*
X82045000Y-62330000D01*
X82045000Y-62330000D02*
X81595000Y-61880000D01*
%TO.N,/USB_R_D_P*%
X82572500Y-61080000D02*
X82020000Y-61080000D01*
X81017488Y-61530000D02*
X80317488Y-60830000D01*
X82020000Y-61080000D02*
X81570000Y-61530000D01*
X81570000Y-61530000D02*
X81017488Y-61530000D01*
X80317488Y-60830000D02*
X79082500Y-60830000D01*
D61*
%TO.N,/LED*%
X75840000Y-55470000D02*
X75910000Y-55400000D01*
X79920000Y-47830000D02*
X79920000Y-44955000D01*
X75910000Y-55400000D02*
X75910000Y-50660000D01*
X75845000Y-56392500D02*
X75840000Y-56387500D01*
X78730000Y-49020000D02*
X79920000Y-47830000D01*
X98895000Y-45555000D02*
X98895000Y-46830000D01*
X75910000Y-50660000D02*
X77550000Y-49020000D01*
X77550000Y-49020000D02*
X78730000Y-49020000D01*
X79920000Y-44955000D02*
X81545000Y-43330000D01*
X96670000Y-43330000D02*
X98895000Y-45555000D01*
X81545000Y-43330000D02*
X96670000Y-43330000D01*
X75840000Y-56387500D02*
X75840000Y-55470000D01*
D63*
%TO.N,/VBUS_LED*%
X41945000Y-83080000D02*
X41945000Y-81555000D01*
%TO.N,/3V3_LED*%
X47945000Y-83080000D02*
X48970000Y-83080000D01*
D62*
%TO.N,/5V_LED*%
X60945000Y-83080000D02*
X59695000Y-83080000D01*
D61*
%TO.N,/ADC.~{CNVST}*%
X88642500Y-72827500D02*
X88020000Y-72205000D01*
X73045000Y-68630000D02*
X73045000Y-63267500D01*
X88020000Y-72205000D02*
X86520000Y-72205000D01*
X74695000Y-70280000D02*
X73045000Y-68630000D01*
X75020000Y-70280000D02*
X74695000Y-70280000D01*
X88642500Y-74734300D02*
X88642500Y-72827500D01*
X75470000Y-70730000D02*
X75020000Y-70280000D01*
X75495000Y-70730000D02*
X75470000Y-70730000D01*
%TO.N,/ADC.~{EOC}*%
X84197500Y-69425700D02*
X84197500Y-70977500D01*
X75345000Y-69805000D02*
X74895000Y-69805000D01*
X84197500Y-70977500D02*
X84195000Y-70980000D01*
X73445000Y-68355000D02*
X73445000Y-63267500D01*
X74895000Y-69805000D02*
X73445000Y-68355000D01*
%TO.N,/ADC.MISO*%
X73745000Y-64005000D02*
X73845000Y-63905000D01*
X84832500Y-69425700D02*
X84832500Y-70742500D01*
X73845000Y-63905000D02*
X73845000Y-63267500D01*
X83767500Y-67580000D02*
X84320000Y-67580000D01*
X84832500Y-68092500D02*
X84832500Y-69425700D01*
X84320000Y-67580000D02*
X84832500Y-68092500D01*
X75045000Y-69230000D02*
X73745000Y-67930000D01*
X75870000Y-69230000D02*
X75045000Y-69230000D01*
X73745000Y-67930000D02*
X73745000Y-64005000D01*
X84832500Y-70742500D02*
X85070000Y-70980000D01*
%TO.N,/ADC.~{CS}*%
X74045000Y-64205000D02*
X74245000Y-64005000D01*
X74245000Y-64005000D02*
X74245000Y-63267500D01*
X86737500Y-69425700D02*
X86737500Y-70972500D01*
X86737500Y-70972500D02*
X86745000Y-70980000D01*
X75070000Y-68555000D02*
X74045000Y-67530000D01*
X74045000Y-67530000D02*
X74045000Y-64205000D01*
%TO.N,/ADC.SCK*%
X86102500Y-69425700D02*
X86102500Y-68012500D01*
X75320000Y-67430000D02*
X75320000Y-64331536D01*
X75320000Y-64331536D02*
X75045000Y-64056536D01*
X75045000Y-64056536D02*
X75045000Y-63267500D01*
X86102500Y-68012500D02*
X86095000Y-68005000D01*
%TO.N,/ADC.MOSI*%
X84932500Y-67517500D02*
X84932500Y-66892500D01*
X75945000Y-65730000D02*
X75585000Y-65370000D01*
X75585000Y-65370000D02*
X75585000Y-64095000D01*
X75585000Y-64095000D02*
X75445000Y-63955000D01*
X84932500Y-67517500D02*
X85467500Y-68052500D01*
X75445000Y-63955000D02*
X75445000Y-63267500D01*
X75945000Y-66955000D02*
X75945000Y-65730000D01*
X85467500Y-68052500D02*
X85467500Y-69425700D01*
X84932500Y-66892500D02*
X84370000Y-66330000D01*
X84370000Y-66330000D02*
X83767500Y-66330000D01*
%TO.N,/D2*%
X77345000Y-45085000D02*
X85410000Y-37020000D01*
X95840000Y-34285000D02*
X95840000Y-34280000D01*
X75445000Y-55355000D02*
X75570000Y-55230000D01*
X75570000Y-50130000D02*
X77345000Y-48355000D01*
X75570000Y-55230000D02*
X75570000Y-50130000D01*
X77345000Y-48355000D02*
X77345000Y-45085000D01*
X75445000Y-56392500D02*
X75445000Y-55355000D01*
X85410000Y-37020000D02*
X93105000Y-37020000D01*
X93105000Y-37020000D02*
X95840000Y-34285000D01*
%TO.N,/D3*%
X85290000Y-36600000D02*
X90975000Y-36600000D01*
X75270000Y-49300000D02*
X76795000Y-47775000D01*
X76795000Y-45095000D02*
X85290000Y-36600000D01*
X93295000Y-34280000D02*
X93300000Y-34280000D01*
X75270000Y-55118990D02*
X75270000Y-49300000D01*
X90975000Y-36600000D02*
X93295000Y-34280000D01*
X75045000Y-55343990D02*
X75270000Y-55118990D01*
X76795000Y-47775000D02*
X76795000Y-45095000D01*
X75045000Y-56392500D02*
X75045000Y-55343990D01*
%TO.N,/D4*%
X76170000Y-47540000D02*
X76170000Y-45020000D01*
X74245000Y-55455000D02*
X74104520Y-55314520D01*
X88930000Y-36110000D02*
X90760000Y-34280000D01*
X85080000Y-36110000D02*
X88930000Y-36110000D01*
X74104520Y-55314520D02*
X74104520Y-49605480D01*
X74104520Y-49605480D02*
X76170000Y-47540000D01*
X76170000Y-45020000D02*
X85080000Y-36110000D01*
X74245000Y-56392500D02*
X74245000Y-55455000D01*
%TO.N,/D5*%
X84940000Y-35590000D02*
X86910000Y-35590000D01*
X73745000Y-55380000D02*
X73745000Y-49125000D01*
X73845000Y-55480000D02*
X73745000Y-55380000D01*
X73745000Y-49125000D02*
X75670000Y-47200000D01*
X73845000Y-56392500D02*
X73845000Y-55480000D01*
X75670000Y-44860000D02*
X84940000Y-35590000D01*
X86910000Y-35590000D02*
X88220000Y-34280000D01*
X75670000Y-47200000D02*
X75670000Y-44860000D01*
%TO.N,/D6*%
X75170000Y-44790000D02*
X85680000Y-34280000D01*
X73445000Y-56392500D02*
X73445000Y-48765000D01*
X73445000Y-48765000D02*
X75170000Y-47040000D01*
X75170000Y-47040000D02*
X75170000Y-44790000D01*
%TO.N,/D7*%
X70045000Y-38965000D02*
X70045000Y-57305000D01*
X70045000Y-57305000D02*
X71170000Y-58430000D01*
X71170000Y-58430000D02*
X72207500Y-58430000D01*
X67773000Y-36693000D02*
X70045000Y-38965000D01*
%TO.N,/USBPD_VREG_2V7*%
X86920000Y-54262500D02*
X86852500Y-54330000D01*
D62*
X86920000Y-52542500D02*
X86920000Y-54262500D01*
%TO.N,/USBPD_VREG_1V2*%
X85920000Y-53230000D02*
X84820000Y-54330000D01*
X84820000Y-54330000D02*
X84737500Y-54330000D01*
X85920000Y-52542500D02*
X85920000Y-53230000D01*
D61*
%TO.N,Net-(D7-K)*%
X82170000Y-48205000D02*
X82895000Y-47480000D01*
X82895000Y-47480000D02*
X83145000Y-47480000D01*
X83920000Y-46705000D02*
X83920000Y-46652500D01*
X83145000Y-47480000D02*
X83920000Y-46705000D01*
X82170000Y-48232500D02*
X82170000Y-48205000D01*
%TO.N,/USBPD_POK2*%
X85220000Y-53400000D02*
X84470000Y-53400000D01*
X85420000Y-52542500D02*
X85420000Y-53200000D01*
X80920000Y-49430000D02*
X80920000Y-49427500D01*
X82170000Y-50680000D02*
X80920000Y-49430000D01*
X85420000Y-53200000D02*
X85220000Y-53400000D01*
D62*
%TO.N,Net-(C39-Pad1)*%
X40920000Y-77330000D02*
X40920000Y-78580000D01*
%TO.N,/USBPD_SINK_G*%
X97192500Y-52177500D02*
X97045000Y-52030000D01*
X97767500Y-53330000D02*
X97767500Y-54580000D01*
D61*
X97767500Y-53330000D02*
X97920000Y-53177500D01*
D62*
X97920000Y-52177500D02*
X97192500Y-52177500D01*
X96870000Y-51230000D02*
X96395000Y-51230000D01*
X97045000Y-51405000D02*
X96870000Y-51230000D01*
X97920000Y-53177500D02*
X97920000Y-52177500D01*
X97045000Y-52030000D02*
X97045000Y-51405000D01*
D61*
%TO.N,/USBPD_VBUS_VS_DISCH*%
X92920000Y-50982500D02*
X92117500Y-50982500D01*
X83080000Y-51830000D02*
X84207500Y-51830000D01*
X92117500Y-50982500D02*
X92110000Y-50990000D01*
%TO.N,/USBPD_VBUS_EN_SNK*%
X96572500Y-53330000D02*
X95695000Y-53330000D01*
X84207500Y-50830000D02*
X83080000Y-50830000D01*
%TO.N,/USBPD_DISCH*%
X85760000Y-47680000D02*
X86420000Y-48340000D01*
X92117500Y-49677500D02*
X92110000Y-49670000D01*
X86420000Y-48340000D02*
X86420000Y-48617500D01*
X92920000Y-49677500D02*
X92117500Y-49677500D01*
%TO.N,USBPD_RST*%
X88132500Y-49330000D02*
X88940000Y-49330000D01*
X77920000Y-58910000D02*
X77600000Y-59230000D01*
X77845000Y-62365000D02*
X77845000Y-63267500D01*
X77920000Y-57640000D02*
X77920000Y-58910000D01*
X77600000Y-59230000D02*
X77600000Y-62120000D01*
X77600000Y-62120000D02*
X77845000Y-62365000D01*
X83572500Y-55580000D02*
X82750000Y-55580000D01*
%TO.N,~{RESET}*%
X98420000Y-75292500D02*
X98420000Y-74530000D01*
X97670000Y-73780000D02*
X97670000Y-72530000D01*
X70470000Y-61966010D02*
X70806010Y-61630000D01*
X70470000Y-63530000D02*
X70470000Y-61966010D01*
X72145000Y-67580000D02*
X71545000Y-66980000D01*
X70806010Y-61630000D02*
X72207500Y-61630000D01*
X71545000Y-64605000D02*
X70470000Y-63530000D01*
X98420000Y-74530000D02*
X97670000Y-73780000D01*
X71545000Y-66980000D02*
X71545000Y-64605000D01*
X104170000Y-72530000D02*
X97670000Y-72530000D01*
%TO.N,/USBPD_POK3*%
X84207500Y-49830000D02*
X83130319Y-49830000D01*
X82727819Y-49427500D02*
X82170000Y-49427500D01*
X83130319Y-49830000D02*
X82727819Y-49427500D01*
%TO.N,/PMUX_SS*%
X73670000Y-73012500D02*
X73670000Y-71905000D01*
X73670000Y-71905000D02*
X72595000Y-70830000D01*
X72595000Y-70830000D02*
X71070000Y-70830000D01*
%TO.N,/AIN3_VBUS*%
X86102500Y-75612500D02*
X86219300Y-75729300D01*
X91170000Y-76730000D02*
X91670000Y-76730000D01*
X91670000Y-77482500D02*
X91670000Y-76730000D01*
X86102500Y-74734300D02*
X86102500Y-75612500D01*
X86219300Y-75729300D02*
X90169300Y-75729300D01*
X90169300Y-75729300D02*
X91170000Y-76730000D01*
%TO.N,/AIN2_A5*%
X89359681Y-76255000D02*
X89834681Y-76730000D01*
X85467500Y-74734300D02*
X85467500Y-75802500D01*
X88457500Y-76255000D02*
X89359681Y-76255000D01*
X90420000Y-77482500D02*
X90420000Y-76730000D01*
X88202500Y-76000000D02*
X88457500Y-76255000D01*
X85467500Y-75802500D02*
X85665000Y-76000000D01*
X89834681Y-76730000D02*
X90420000Y-76730000D01*
X85665000Y-76000000D02*
X88202500Y-76000000D01*
%TO.N,/AIN0_A3*%
X84197500Y-76032500D02*
X84197500Y-74734300D01*
X84895000Y-76730000D02*
X84197500Y-76032500D01*
X85420000Y-76730000D02*
X84895000Y-76730000D01*
X85420000Y-77482500D02*
X85420000Y-76730000D01*
%TO.N,/AIN1_A4*%
X86900000Y-76260000D02*
X85200000Y-76260000D01*
X85200000Y-76260000D02*
X84832500Y-75892500D01*
X87920000Y-77482500D02*
X87920000Y-76730000D01*
X87920000Y-76730000D02*
X87370000Y-76730000D01*
X87370000Y-76730000D02*
X86900000Y-76260000D01*
X84832500Y-75892500D02*
X84832500Y-74734300D01*
D64*
%TO.N,/DCDC_5VOUT*%
X69570000Y-71705000D02*
X69570000Y-72680000D01*
X69570000Y-72680000D02*
X69420000Y-72830000D01*
D62*
X50420000Y-77330000D02*
X53170000Y-77330000D01*
D61*
%TO.N,/+VBUS_SRC*%
X96640000Y-59080000D02*
X96690000Y-59130000D01*
D60*
X99920000Y-53230000D02*
X99920000Y-54330000D01*
D63*
X89352500Y-54330000D02*
X89352500Y-53582500D01*
X92920000Y-52177500D02*
X92920000Y-53110000D01*
X95745000Y-51230000D02*
X95745000Y-52005000D01*
X95095000Y-51230000D02*
X95095000Y-52005000D01*
X95440000Y-59080000D02*
X96640000Y-59080000D01*
D62*
X87420000Y-52542500D02*
X88117500Y-52542500D01*
X96572500Y-54580000D02*
X95420000Y-54580000D01*
D61*
X96640000Y-61580000D02*
X96690000Y-61530000D01*
D63*
X94445000Y-51230000D02*
X94445000Y-52055000D01*
X95440000Y-61580000D02*
X96640000Y-61580000D01*
D62*
%TO.N,/USB_SP_D_P*%
X85417488Y-61530000D02*
X86042488Y-62155000D01*
X86042488Y-62155000D02*
X87420000Y-62155000D01*
X87782500Y-61792500D02*
X88320000Y-61792500D01*
X84303751Y-61080000D02*
X84753751Y-61530000D01*
X84753751Y-61530000D02*
X85417488Y-61530000D01*
X83767500Y-61080000D02*
X84303751Y-61080000D01*
X87420000Y-62155000D02*
X87782500Y-61792500D01*
%TO.N,/USB_SP_D_N*%
X84753751Y-61880000D02*
X85272512Y-61880000D01*
X84303751Y-62330000D02*
X84753751Y-61880000D01*
X87782500Y-62867500D02*
X88320000Y-62867500D01*
X83767500Y-62330000D02*
X84303751Y-62330000D01*
X85897512Y-62505000D02*
X87420000Y-62505000D01*
X87420000Y-62505000D02*
X87782500Y-62867500D01*
X85272512Y-61880000D02*
X85897512Y-62505000D01*
%TD*%
%TA.AperFunction,Conductor*%
%TO.N,/5V0_DCDC_SW*%
G36*
X54862121Y-63350002D02*
G01*
X54908614Y-63403658D01*
X54920000Y-63456000D01*
X54920000Y-65330000D01*
X58794000Y-65330000D01*
X58862121Y-65350002D01*
X58908614Y-65403658D01*
X58920000Y-65456000D01*
X58920000Y-66704000D01*
X58899998Y-66772121D01*
X58846342Y-66818614D01*
X58794000Y-66830000D01*
X54920000Y-66830000D01*
X54920000Y-68877837D01*
X54926741Y-68940531D01*
X54914135Y-69010400D01*
X54865757Y-69062362D01*
X54801463Y-69080000D01*
X52046000Y-69080000D01*
X51977879Y-69059998D01*
X51931386Y-69006342D01*
X51920000Y-68954000D01*
X51920000Y-68080000D01*
X46828129Y-68080000D01*
X46760008Y-68059998D01*
X46713515Y-68006342D01*
X46703411Y-67936068D01*
X46720888Y-67887853D01*
X46729357Y-67874122D01*
X46784506Y-67707691D01*
X46788613Y-67667500D01*
X46670000Y-67667500D01*
X46670000Y-66492500D01*
X46788612Y-66492500D01*
X46788611Y-66492499D01*
X46784506Y-66452308D01*
X46729357Y-66285878D01*
X46688758Y-66220055D01*
X46670000Y-66153909D01*
X46670000Y-63456000D01*
X46690002Y-63387879D01*
X46743658Y-63341386D01*
X46796000Y-63330000D01*
X54794000Y-63330000D01*
X54862121Y-63350002D01*
G37*
%TD.AperFunction*%
%TD*%
%TA.AperFunction,Conductor*%
%TO.N,VBUS*%
G36*
X70068691Y-66598907D02*
G01*
X70104655Y-66648407D01*
X70109500Y-66679000D01*
X70109501Y-67176202D01*
X70112424Y-67213358D01*
X70112425Y-67213365D01*
X70158631Y-67372403D01*
X70161105Y-67378121D01*
X70159123Y-67378978D01*
X70170000Y-67418711D01*
X70169999Y-67458541D01*
X70164446Y-67491230D01*
X70159159Y-67506340D01*
X70159159Y-67506343D01*
X70139593Y-67680000D01*
X70159159Y-67853657D01*
X70164444Y-67868761D01*
X70170000Y-67901459D01*
X70170000Y-69337498D01*
X70151093Y-69395689D01*
X70101593Y-69431653D01*
X70083921Y-69435651D01*
X70013241Y-69444955D01*
X70013233Y-69444957D01*
X69867161Y-69505462D01*
X69840809Y-69525682D01*
X69796682Y-69559542D01*
X69739008Y-69579966D01*
X69736416Y-69580000D01*
X68657731Y-69580000D01*
X68599540Y-69561093D01*
X68587728Y-69551004D01*
X68481577Y-69444854D01*
X68481573Y-69444850D01*
X68333606Y-69351878D01*
X68333601Y-69351875D01*
X68168663Y-69294160D01*
X68168659Y-69294159D01*
X68052885Y-69281114D01*
X67995000Y-69274593D01*
X67994999Y-69274593D01*
X67821340Y-69294159D01*
X67821337Y-69294160D01*
X67801696Y-69301033D01*
X67740526Y-69302405D01*
X67690232Y-69267560D01*
X67670025Y-69209808D01*
X67670000Y-69207588D01*
X67670000Y-66679000D01*
X67688907Y-66620809D01*
X67738407Y-66584845D01*
X67769000Y-66580000D01*
X70010500Y-66580000D01*
X70068691Y-66598907D01*
G37*
%TD.AperFunction*%
%TD*%
%TA.AperFunction,Conductor*%
%TO.N,VBUS*%
G36*
X98113039Y-45599685D02*
G01*
X98158794Y-45652489D01*
X98170000Y-45704000D01*
X98170000Y-47706000D01*
X98150315Y-47773039D01*
X98097511Y-47818794D01*
X98046000Y-47830000D01*
X92544000Y-47830000D01*
X92476961Y-47810315D01*
X92431206Y-47757511D01*
X92420000Y-47706000D01*
X92420000Y-45704000D01*
X92439685Y-45636961D01*
X92492489Y-45591206D01*
X92544000Y-45580000D01*
X98046000Y-45580000D01*
X98113039Y-45599685D01*
G37*
%TD.AperFunction*%
%TD*%
%TA.AperFunction,Conductor*%
%TO.N,/DCDC_5VOUT*%
G36*
X66000785Y-72600002D02*
G01*
X66040490Y-72640812D01*
X66046247Y-72650335D01*
X66046249Y-72650338D01*
X66159658Y-72763747D01*
X66159663Y-72763751D01*
X66159665Y-72763753D01*
X66159667Y-72763754D01*
X66159668Y-72763755D01*
X66179166Y-72775542D01*
X66296931Y-72846733D01*
X66450067Y-72894452D01*
X66516619Y-72900500D01*
X67018380Y-72900499D01*
X67084933Y-72894452D01*
X67238069Y-72846733D01*
X67375335Y-72763753D01*
X67488753Y-72650335D01*
X67494509Y-72640812D01*
X67546868Y-72592866D01*
X67602336Y-72580000D01*
X67743953Y-72580000D01*
X67785568Y-72587071D01*
X67796333Y-72590838D01*
X67796336Y-72590838D01*
X67796343Y-72590841D01*
X67970000Y-72610407D01*
X68143657Y-72590841D01*
X68143666Y-72590838D01*
X68154432Y-72587071D01*
X68196047Y-72580000D01*
X69487867Y-72580000D01*
X69555988Y-72600002D01*
X69602481Y-72653658D01*
X69602684Y-72654107D01*
X69608545Y-72667128D01*
X69621749Y-72696470D01*
X69623205Y-72699984D01*
X69647884Y-72765055D01*
X69646203Y-72765692D01*
X69658260Y-72825903D01*
X69632350Y-72892003D01*
X69621845Y-72903926D01*
X69584537Y-72941236D01*
X69571065Y-72955809D01*
X69554532Y-72975164D01*
X69554533Y-72975164D01*
X69521631Y-73018147D01*
X69521626Y-73018154D01*
X69458149Y-73147261D01*
X69458145Y-73147270D01*
X69439240Y-73205459D01*
X69434977Y-73219243D01*
X69434976Y-73219244D01*
X69414500Y-73361666D01*
X69414500Y-74454000D01*
X69394498Y-74522121D01*
X69340842Y-74568614D01*
X69288500Y-74580000D01*
X66670000Y-74580000D01*
X66669999Y-74931810D01*
X66649997Y-74999931D01*
X66596341Y-75046424D01*
X66528978Y-75056911D01*
X66513067Y-75055000D01*
X66332500Y-75055000D01*
X66332500Y-77105000D01*
X66513054Y-77105000D01*
X66528970Y-77103088D01*
X66598990Y-77114823D01*
X66651551Y-77162550D01*
X66669998Y-77228189D01*
X66669998Y-77681810D01*
X66649996Y-77749931D01*
X66596340Y-77796424D01*
X66528976Y-77806911D01*
X66513065Y-77805000D01*
X66332500Y-77805000D01*
X66332500Y-79855000D01*
X66513055Y-79855000D01*
X66528972Y-79853088D01*
X66598992Y-79864823D01*
X66651552Y-79912551D01*
X66669999Y-79978189D01*
X66670000Y-80704000D01*
X66649998Y-80772121D01*
X66596342Y-80818614D01*
X66544000Y-80830000D01*
X52129997Y-80830000D01*
X52076516Y-80818086D01*
X52052824Y-80806980D01*
X52052822Y-80806979D01*
X52009697Y-80794004D01*
X51950228Y-80755223D01*
X51921166Y-80690447D01*
X51920000Y-80673347D01*
X51920000Y-76830000D01*
X54920000Y-76830000D01*
X54920000Y-78877840D01*
X54926400Y-78937371D01*
X54976647Y-79072089D01*
X55062810Y-79187189D01*
X55177910Y-79273352D01*
X55312628Y-79323599D01*
X55372159Y-79329999D01*
X55372176Y-79330000D01*
X57420000Y-79330000D01*
X57420000Y-76830000D01*
X58920000Y-76830000D01*
X58920000Y-79330000D01*
X60967824Y-79330000D01*
X60967840Y-79329999D01*
X61027371Y-79323599D01*
X61162089Y-79273352D01*
X61277189Y-79187189D01*
X61363352Y-79072089D01*
X61379050Y-79030000D01*
X65245000Y-79030000D01*
X65245000Y-79348062D01*
X65255613Y-79436441D01*
X65255614Y-79436447D01*
X65311080Y-79577097D01*
X65402434Y-79697565D01*
X65522902Y-79788919D01*
X65663552Y-79844385D01*
X65663558Y-79844386D01*
X65751937Y-79854999D01*
X65751943Y-79855000D01*
X65932500Y-79855000D01*
X65932500Y-79030000D01*
X65245000Y-79030000D01*
X61379050Y-79030000D01*
X61413599Y-78937371D01*
X61419999Y-78877840D01*
X61420000Y-78877823D01*
X61420000Y-78630000D01*
X65245000Y-78630000D01*
X65932500Y-78630000D01*
X65932500Y-77805000D01*
X65751937Y-77805000D01*
X65663558Y-77815613D01*
X65663552Y-77815614D01*
X65522902Y-77871080D01*
X65402434Y-77962434D01*
X65311080Y-78082902D01*
X65255614Y-78223552D01*
X65255613Y-78223558D01*
X65245000Y-78311937D01*
X65245000Y-78630000D01*
X61420000Y-78630000D01*
X61420000Y-76830000D01*
X58920000Y-76830000D01*
X57420000Y-76830000D01*
X54920000Y-76830000D01*
X51920000Y-76830000D01*
X51920000Y-76280000D01*
X65245000Y-76280000D01*
X65245000Y-76598062D01*
X65255613Y-76686441D01*
X65255614Y-76686447D01*
X65311080Y-76827097D01*
X65402434Y-76947565D01*
X65522902Y-77038919D01*
X65663552Y-77094385D01*
X65663558Y-77094386D01*
X65751937Y-77104999D01*
X65751943Y-77105000D01*
X65932500Y-77105000D01*
X65932500Y-76280000D01*
X65245000Y-76280000D01*
X51920000Y-76280000D01*
X51920000Y-75880000D01*
X65245000Y-75880000D01*
X65932500Y-75880000D01*
X65932500Y-75055000D01*
X65751937Y-75055000D01*
X65663558Y-75065613D01*
X65663552Y-75065614D01*
X65522902Y-75121080D01*
X65402434Y-75212434D01*
X65311080Y-75332902D01*
X65255614Y-75473552D01*
X65255613Y-75473558D01*
X65245000Y-75561937D01*
X65245000Y-75880000D01*
X51920000Y-75880000D01*
X51920000Y-73706000D01*
X51940002Y-73637879D01*
X51993658Y-73591386D01*
X52046000Y-73580000D01*
X54794000Y-73580000D01*
X54862121Y-73600002D01*
X54908614Y-73653658D01*
X54920000Y-73706000D01*
X54920000Y-75330000D01*
X61420000Y-75330000D01*
X61420000Y-72706000D01*
X61440002Y-72637879D01*
X61493658Y-72591386D01*
X61546000Y-72580000D01*
X65932664Y-72580000D01*
X66000785Y-72600002D01*
G37*
%TD.AperFunction*%
%TD*%
%TA.AperFunction,Conductor*%
%TO.N,+5V*%
G36*
X71563065Y-72598907D02*
G01*
X71599029Y-72648407D01*
X71603467Y-72687958D01*
X71600524Y-72720345D01*
X71599500Y-72731617D01*
X71599500Y-73233372D01*
X71599501Y-73233387D01*
X71605547Y-73299931D01*
X71605549Y-73299937D01*
X71653264Y-73453063D01*
X71653267Y-73453069D01*
X71655720Y-73457126D01*
X71670000Y-73508346D01*
X71670000Y-73651652D01*
X71655724Y-73702866D01*
X71653268Y-73706927D01*
X71653264Y-73706936D01*
X71605548Y-73860064D01*
X71599500Y-73926614D01*
X71599500Y-74428372D01*
X71599501Y-74428388D01*
X71603468Y-74472042D01*
X71589904Y-74531705D01*
X71543861Y-74572000D01*
X71504874Y-74580000D01*
X70019000Y-74580000D01*
X69960809Y-74561093D01*
X69924845Y-74511593D01*
X69920000Y-74481000D01*
X69920000Y-73361664D01*
X69938907Y-73303473D01*
X69948996Y-73291661D01*
X70049319Y-73191337D01*
X70051474Y-73189307D01*
X70098183Y-73147929D01*
X70133625Y-73096582D01*
X70135398Y-73094172D01*
X70173877Y-73045058D01*
X70173876Y-73045058D01*
X70173878Y-73045057D01*
X70178965Y-73033750D01*
X70187768Y-73018142D01*
X70194818Y-73007930D01*
X70216943Y-72949588D01*
X70218075Y-72946854D01*
X70243695Y-72889932D01*
X70245931Y-72877725D01*
X70250745Y-72860459D01*
X70255140Y-72848872D01*
X70262661Y-72786924D01*
X70263103Y-72784019D01*
X70274358Y-72722606D01*
X70272081Y-72684978D01*
X70287441Y-72625752D01*
X70334679Y-72586865D01*
X70370901Y-72580000D01*
X71504874Y-72580000D01*
X71563065Y-72598907D01*
G37*
%TD.AperFunction*%
%TD*%
%TA.AperFunction,Conductor*%
%TO.N,/3V3_DCDC_SW*%
G36*
X60947971Y-39787029D02*
G01*
X60955000Y-39804000D01*
X60955000Y-40506000D01*
X60947971Y-40522971D01*
X60931000Y-40530000D01*
X58945000Y-40530000D01*
X58945000Y-44506000D01*
X58937971Y-44522971D01*
X58921000Y-44530000D01*
X54945001Y-44530000D01*
X54945000Y-44530001D01*
X54945000Y-46506000D01*
X54937971Y-46522971D01*
X54921000Y-46530000D01*
X51979000Y-46530000D01*
X51962029Y-46522971D01*
X51955000Y-46506000D01*
X51955000Y-45530001D01*
X51955000Y-45530000D01*
X51954999Y-45530000D01*
X46479000Y-45530000D01*
X46462029Y-45522971D01*
X46455000Y-45506000D01*
X46455000Y-45420419D01*
X46458573Y-45407819D01*
X46479357Y-45374122D01*
X46534506Y-45207694D01*
X46538613Y-45167500D01*
X46455000Y-45167500D01*
X46455000Y-43992500D01*
X46538612Y-43992500D01*
X46538611Y-43992499D01*
X46534506Y-43952306D01*
X46479356Y-43785874D01*
X46458573Y-43752179D01*
X46455000Y-43739580D01*
X46455000Y-43029999D01*
X54945000Y-43029999D01*
X54945001Y-43030000D01*
X57444999Y-43030000D01*
X57445000Y-43029999D01*
X57445000Y-40530001D01*
X57444999Y-40530000D01*
X55397169Y-40530000D01*
X55337631Y-40536400D01*
X55337626Y-40536401D01*
X55202911Y-40586647D01*
X55202907Y-40586649D01*
X55087813Y-40672809D01*
X55087809Y-40672813D01*
X55001649Y-40787907D01*
X55001647Y-40787911D01*
X54951401Y-40922626D01*
X54951400Y-40922631D01*
X54945000Y-40982169D01*
X54945000Y-43029999D01*
X46455000Y-43029999D01*
X46455000Y-42804000D01*
X46462029Y-42787029D01*
X46479000Y-42780000D01*
X50204999Y-42780000D01*
X50205000Y-42780000D01*
X50205000Y-39804000D01*
X50212029Y-39787029D01*
X50229000Y-39780000D01*
X60931000Y-39780000D01*
X60947971Y-39787029D01*
G37*
%TD.AperFunction*%
%TD*%
%TA.AperFunction,Conductor*%
%TO.N,+3.3VA*%
G36*
X79912971Y-63087029D02*
G01*
X79920000Y-63104000D01*
X79920000Y-63537691D01*
X79919897Y-63539258D01*
X79914534Y-63579999D01*
X79919897Y-63620739D01*
X79920000Y-63622306D01*
X79920000Y-64330000D01*
X80396000Y-64330000D01*
X80412971Y-64337029D01*
X80420000Y-64354000D01*
X80420000Y-66556000D01*
X80412971Y-66572971D01*
X80396000Y-66580000D01*
X78944000Y-66580000D01*
X78927029Y-66572971D01*
X78920000Y-66556000D01*
X78920000Y-63104000D01*
X78927029Y-63087029D01*
X78944000Y-63080000D01*
X79896000Y-63080000D01*
X79912971Y-63087029D01*
G37*
%TD.AperFunction*%
%TD*%
%TA.AperFunction,Conductor*%
%TO.N,/+VBUS_SRC*%
G36*
X96113039Y-51849685D02*
G01*
X96158794Y-51902489D01*
X96170000Y-51954000D01*
X96170000Y-52456000D01*
X96150315Y-52523039D01*
X96097511Y-52568794D01*
X96046000Y-52580000D01*
X95170000Y-52580000D01*
X95170000Y-53068942D01*
X95160561Y-53116394D01*
X95134314Y-53179760D01*
X95134312Y-53179765D01*
X95114534Y-53329999D01*
X95114534Y-53330000D01*
X95134312Y-53480234D01*
X95134313Y-53480236D01*
X95160561Y-53543603D01*
X95170000Y-53591056D01*
X95170000Y-54080000D01*
X95796000Y-54080000D01*
X95863039Y-54099685D01*
X95908794Y-54152489D01*
X95920000Y-54204000D01*
X95920000Y-54956000D01*
X95900315Y-55023039D01*
X95847511Y-55068794D01*
X95796000Y-55080000D01*
X91544000Y-55080000D01*
X91476961Y-55060315D01*
X91431206Y-55007511D01*
X91420000Y-54956000D01*
X91420000Y-53830000D01*
X91040412Y-53830000D01*
X90973373Y-53810315D01*
X90966779Y-53805770D01*
X90915245Y-53767737D01*
X90785640Y-53722385D01*
X90754868Y-53719500D01*
X90754864Y-53719500D01*
X90220136Y-53719500D01*
X90220132Y-53719500D01*
X90189360Y-53722385D01*
X90189358Y-53722385D01*
X90059754Y-53767737D01*
X90059753Y-53767737D01*
X90008221Y-53805770D01*
X89942592Y-53829741D01*
X89934588Y-53830000D01*
X88540412Y-53830000D01*
X88473373Y-53810315D01*
X88466779Y-53805770D01*
X88415245Y-53767737D01*
X88285640Y-53722385D01*
X88254868Y-53719500D01*
X88254864Y-53719500D01*
X88044000Y-53719500D01*
X87976961Y-53699815D01*
X87931206Y-53647011D01*
X87920000Y-53595500D01*
X87920000Y-52454000D01*
X87939685Y-52386961D01*
X87992489Y-52341206D01*
X88044000Y-52330000D01*
X88796000Y-52330000D01*
X88863039Y-52349685D01*
X88908794Y-52402489D01*
X88920000Y-52454000D01*
X88919999Y-52829999D01*
X88920000Y-52830000D01*
X89048648Y-52830000D01*
X89115687Y-52849685D01*
X89148418Y-52880366D01*
X89189272Y-52935722D01*
X89189273Y-52935723D01*
X89189275Y-52935725D01*
X89299755Y-53017263D01*
X89342957Y-53032380D01*
X89429359Y-53062614D01*
X89460132Y-53065500D01*
X89460136Y-53065500D01*
X89879868Y-53065500D01*
X89910639Y-53062614D01*
X89910641Y-53062614D01*
X89975932Y-53039767D01*
X90040245Y-53017263D01*
X90135635Y-52946861D01*
X90201260Y-52922892D01*
X90256715Y-52932071D01*
X90319764Y-52958187D01*
X90394881Y-52968076D01*
X90469999Y-52977966D01*
X90470000Y-52977966D01*
X90470001Y-52977966D01*
X90520078Y-52971372D01*
X90620236Y-52958187D01*
X90760233Y-52900198D01*
X90818321Y-52855624D01*
X90883490Y-52830430D01*
X90893808Y-52830000D01*
X93670000Y-52830000D01*
X93670000Y-51954000D01*
X93689685Y-51886961D01*
X93742489Y-51841206D01*
X93794000Y-51830000D01*
X96046000Y-51830000D01*
X96113039Y-51849685D01*
G37*
%TD.AperFunction*%
%TD*%
%TA.AperFunction,Conductor*%
%TO.N,+3.3V*%
G36*
X54937971Y-51587029D02*
G01*
X54945000Y-51604000D01*
X54945000Y-53029999D01*
X54945001Y-53030000D01*
X58921000Y-53030000D01*
X58937971Y-53037029D01*
X58945000Y-53054000D01*
X58945000Y-57029999D01*
X58945001Y-57030000D01*
X60992831Y-57030000D01*
X61052372Y-57023598D01*
X61137613Y-56991805D01*
X61155970Y-56992461D01*
X61168487Y-57005905D01*
X61170000Y-57014292D01*
X61170000Y-59306000D01*
X61162971Y-59322971D01*
X61146000Y-59330000D01*
X60719000Y-59330000D01*
X60702029Y-59322971D01*
X60695000Y-59306000D01*
X60695000Y-59242501D01*
X60694999Y-59242500D01*
X58645001Y-59242500D01*
X58645000Y-59242501D01*
X58645000Y-59306000D01*
X58637971Y-59322971D01*
X58621000Y-59330000D01*
X57719000Y-59330000D01*
X57702029Y-59322971D01*
X57695000Y-59306000D01*
X57695000Y-59242501D01*
X57694999Y-59242500D01*
X55645001Y-59242500D01*
X55645000Y-59242501D01*
X55645000Y-59306000D01*
X55637971Y-59322971D01*
X55621000Y-59330000D01*
X51944000Y-59330000D01*
X51927029Y-59322971D01*
X51920000Y-59306000D01*
X51920000Y-58842499D01*
X55645000Y-58842499D01*
X55645001Y-58842500D01*
X56469999Y-58842500D01*
X56470000Y-58842499D01*
X56870000Y-58842499D01*
X56870001Y-58842500D01*
X57694999Y-58842500D01*
X57694999Y-58842499D01*
X58645000Y-58842499D01*
X58645001Y-58842500D01*
X59469999Y-58842500D01*
X59470000Y-58842498D01*
X59470000Y-58155001D01*
X59469999Y-58155000D01*
X59870000Y-58155000D01*
X59870000Y-58842499D01*
X59870001Y-58842500D01*
X60694999Y-58842500D01*
X60694999Y-58842499D01*
X60695000Y-58661946D01*
X60694999Y-58661944D01*
X60684385Y-58573555D01*
X60684384Y-58573551D01*
X60628920Y-58432904D01*
X60628919Y-58432902D01*
X60537567Y-58312438D01*
X60537561Y-58312432D01*
X60417097Y-58221080D01*
X60417095Y-58221079D01*
X60276448Y-58165615D01*
X60276444Y-58165614D01*
X60188055Y-58155000D01*
X59870000Y-58155000D01*
X59469999Y-58155000D01*
X59151944Y-58155000D01*
X59063555Y-58165614D01*
X59063551Y-58165615D01*
X58922904Y-58221079D01*
X58922902Y-58221080D01*
X58802438Y-58312432D01*
X58802432Y-58312438D01*
X58711080Y-58432902D01*
X58711079Y-58432904D01*
X58655615Y-58573551D01*
X58655614Y-58573555D01*
X58645000Y-58661944D01*
X58645000Y-58842499D01*
X57694999Y-58842499D01*
X57695000Y-58661946D01*
X57694999Y-58661944D01*
X57684385Y-58573555D01*
X57684384Y-58573551D01*
X57628920Y-58432904D01*
X57628919Y-58432902D01*
X57537567Y-58312438D01*
X57537561Y-58312432D01*
X57417097Y-58221080D01*
X57417095Y-58221079D01*
X57276448Y-58165615D01*
X57276444Y-58165614D01*
X57188055Y-58155000D01*
X56870001Y-58155000D01*
X56870000Y-58155001D01*
X56870000Y-58842499D01*
X56470000Y-58842499D01*
X56470000Y-58842498D01*
X56470000Y-58155001D01*
X56469999Y-58155000D01*
X56151944Y-58155000D01*
X56063555Y-58165614D01*
X56063551Y-58165615D01*
X55922904Y-58221079D01*
X55922902Y-58221080D01*
X55802438Y-58312432D01*
X55802432Y-58312438D01*
X55711080Y-58432902D01*
X55711079Y-58432904D01*
X55655615Y-58573551D01*
X55655614Y-58573555D01*
X55645000Y-58661944D01*
X55645000Y-58842499D01*
X51920000Y-58842499D01*
X51920000Y-56577830D01*
X54945000Y-56577830D01*
X54951400Y-56637368D01*
X54951401Y-56637373D01*
X55001647Y-56772088D01*
X55001649Y-56772092D01*
X55087809Y-56887186D01*
X55087813Y-56887190D01*
X55202907Y-56973350D01*
X55202911Y-56973352D01*
X55337626Y-57023598D01*
X55337631Y-57023599D01*
X55397169Y-57030000D01*
X57444999Y-57030000D01*
X57445000Y-57029999D01*
X57445000Y-54530001D01*
X57444999Y-54530000D01*
X54945001Y-54530000D01*
X54945000Y-54530001D01*
X54945000Y-56577830D01*
X51920000Y-56577830D01*
X51920000Y-51604000D01*
X51927029Y-51587029D01*
X51944000Y-51580000D01*
X54921000Y-51580000D01*
X54937971Y-51587029D01*
G37*
%TD.AperFunction*%
%TD*%
M02*
