<?xml version="1.0" encoding="UTF-8" standalone="no"?>
<!-- Created with Inkscape (http://www.inkscape.org/) -->

<svg
   width="22mm"
   height="22mm"
   viewBox="0 0 22 22"
   version="1.1"
   id="svg1"
   inkscape:version="1.4.3 (fcd0343856, 2026-01-01)"
   sodipodi:docname="gihub_qr_code.svg"
   xmlns:inkscape="http://www.inkscape.org/namespaces/inkscape"
   xmlns:sodipodi="http://sodipodi.sourceforge.net/DTD/sodipodi-0.dtd"
   xmlns="http://www.w3.org/2000/svg"
   xmlns:svg="http://www.w3.org/2000/svg">
  <sodipodi:namedview
     id="namedview1"
     pagecolor="#ffffff"
     bordercolor="#000000"
     borderopacity="0.25"
     inkscape:showpageshadow="2"
     inkscape:pageopacity="0.0"
     inkscape:pagecheckerboard="0"
     inkscape:deskcolor="#d1d1d1"
     inkscape:document-units="mm"
     inkscape:zoom="6.3419174"
     inkscape:cx="74.977325"
     inkscape:cy="42.810397"
     inkscape:window-width="1920"
     inkscape:window-height="961"
     inkscape:window-x="0"
     inkscape:window-y="32"
     inkscape:window-maximized="1"
     inkscape:current-layer="layer1" />
  <defs
     id="defs1" />
  <g
     inkscape:label="Layer 1"
     inkscape:groupmode="layer"
     id="layer1"
     transform="translate(-105.114,-148.5)">
    <g
       inkscape:label="QR Code: https://github.com/perc-sw/phydunio_pico"
       transform="matrix(0.14864865,0,0,0.14864865,105.114,148.5)"
       id="g2">
      <g
         style="fill:#000000;stroke:none"
         id="g1">
        <path
           d="m 127.6,132 h -3.2 c -0.221,0 -0.4,-0.179 -0.4,-0.4 v -7.2 c 0,-0.221 -0.179,-0.4 -0.4,-0.4 h -3.2 c -0.221,0 -0.4,0.179 -0.4,0.4 v 7.2 c 0,0.221 -0.179,0.4 -0.4,0.4 H 96.4 c -0.2209,0 -0.4,-0.179 -0.4,-0.4 v -7.2 C 96,124.179 95.8209,124 95.6,124 H 92.4 C 92.1791,124 92,123.821 92,123.6 V 120 h 7.6 c 0.2209,0 0.4,-0.179 0.4,-0.4 v -3.2 c 0,-0.221 -0.1791,-0.4 -0.4,-0.4 H 92 v -15.6 c 0,-0.221 0.1791,-0.4 0.4,-0.4 h 3.2 c 0.2209,0 0.4,-0.1791 0.4,-0.4 V 80.4 C 96,80.1791 95.8209,80 95.6,80 H 92.4 C 92.1791,80 92,80.1791 92,80.4 V 95.6 C 92,95.8209 91.8209,96 91.6,96 H 88.4 C 88.1791,96 88,96.1791 88,96.4 v 3.2 c 0,0.2209 -0.1791,0.4 -0.4,0.4 h -3.2 c -0.2209,0 -0.4,0.179 -0.4,0.4 v 3.2 c 0,0.221 0.1791,0.4 0.4,0.4 h 3.2 c 0.2209,0 0.4,0.179 0.4,0.4 v 11.2 c 0,0.221 0.1791,0.4 0.4,0.4 H 92 v 4 h -3.6 c -0.2209,0 -0.4,0.179 -0.4,0.4 v 11.2 c 0,0.221 -0.1791,0.4 -0.4,0.4 H 76.4 c -0.2209,0 -0.4,-0.179 -0.4,-0.4 v -7.2 c 0,-0.221 -0.1791,-0.4 -0.4,-0.4 h -3.2 c -0.2209,0 -0.4,0.179 -0.4,0.4 v 7.2 c 0,0.221 -0.1791,0.4 -0.4,0.4 H 64.4 C 64.1791,132 64,131.821 64,131.6 V 128 h 3.6 c 0.2209,0 0.4,-0.179 0.4,-0.4 v -3.2 c 0,-0.221 -0.1791,-0.4 -0.4,-0.4 h -3.2 c -0.2209,0 -0.4,0.179 -0.4,0.4 v 3.6 h -7.6 c -0.2209,0 -0.4,0.179 -0.4,0.4 v 3.2 c 0,0.221 -0.1791,0.4 -0.4,0.4 h -7.2 c -0.2209,0 -0.4,-0.179 -0.4,-0.4 v -7.2 c 0,-0.221 0.1791,-0.4 0.4,-0.4 h 3.2 c 0.2209,0 0.4,-0.179 0.4,-0.4 v -3.2 c 0,-0.221 0.1791,-0.4 0.4,-0.4 h 11.2 c 0.2209,0 0.4,-0.179 0.4,-0.4 V 116 h 4 v 3.6 c 0,0.221 0.1791,0.4 0.4,0.4 h 7.2 c 0.2209,0 0.4,-0.179 0.4,-0.4 V 116 h 7.6 c 0.2209,0 0.4,-0.179 0.4,-0.4 v -7.2 c 0,-0.221 -0.1791,-0.4 -0.4,-0.4 h -3.2 c -0.2209,0 -0.4,0.179 -0.4,0.4 v 3.2 c 0,0.221 -0.1791,0.4 -0.4,0.4 h -3.2 c -0.2209,0 -0.4,0.179 -0.4,0.4 v 3.6 h -8 v -4 h 3.6 c 0.2209,0 0.4,-0.179 0.4,-0.4 v -3.2 c 0,-0.221 0.1791,-0.4 0.4,-0.4 h 3.2 c 0.2209,0 0.4,-0.179 0.4,-0.4 v -3.2 c 0,-0.221 -0.1791,-0.4 -0.4,-0.4 h -7.2 c -0.2209,0 -0.4,-0.179 -0.4,-0.4 v -3.2 C 68,100.179 67.8209,100 67.6,100 H 64.4 C 64.1791,100 64,99.8209 64,99.6 V 96 h 3.6 C 67.8209,96 68,95.8209 68,95.6 V 92.4 C 68,92.1791 67.8209,92 67.6,92 H 64.4 C 64.1791,92 64,92.1791 64,92.4 V 96 h -4 v -8 h 3.6 C 63.8209,88 64,87.8209 64,87.6 V 84 h 4 v 3.6 c 0,0.2209 0.1791,0.4 0.4,0.4 h 3.2 C 71.8209,88 72,87.8209 72,87.6 V 84.4 C 72,84.1791 71.8209,84 71.6,84 H 68 v -4 h 3.6 C 71.8209,80 72,79.8209 72,79.6 V 76.4 C 72,76.1791 71.8209,76 71.6,76 H 68 V 72.4 C 68,72.1791 68.1791,72 68.4,72 h 3.2 C 71.8209,72 72,71.8209 72,71.6 V 68.4 C 72,68.1791 72.1791,68 72.4,68 h 3.2 C 75.8209,68 76,67.8209 76,67.6 V 64.4 C 76,64.1791 75.8209,64 75.6,64 H 72.4 C 72.1791,64 72,63.8209 72,63.6 V 60 h 3.6 C 75.8209,60 76,59.8209 76,59.6 V 56.4 C 76,56.1791 75.8209,56 75.6,56 H 72.4 C 72.1791,56 72,56.1791 72,56.4 V 60 H 64.4 C 64.1791,60 64,60.1791 64,60.4 V 64 H 60.4 C 60.1791,64 60,64.1791 60,64.4 v 3.2 C 60,67.8209 59.8209,68 59.6,68 H 56 V 60.4 C 56,60.1791 56.1791,60 56.4,60 h 3.2 C 59.8209,60 60,59.8209 60,59.6 V 56 h 3.6 C 63.8209,56 64,55.8209 64,55.6 V 52 H 75.6 C 75.8209,52 76,51.8209 76,51.6 V 48 h 3.6 c 0.2209,0 0.4,0.1791 0.4,0.4 v 3.2 c 0,0.2209 0.1791,0.4 0.4,0.4 H 84 v 3.6 C 84,55.8209 83.8209,56 83.6,56 H 80.4 C 80.1791,56 80,56.1791 80,56.4 v 3.2 c 0,0.2209 0.1791,0.4 0.4,0.4 h 11.2 c 0.2209,0 0.4,0.1791 0.4,0.4 V 64 H 88.4 C 88.1791,64 88,64.1791 88,64.4 v 3.2 C 88,67.8209 87.8209,68 87.6,68 H 84 V 64.4 C 84,64.1791 83.8209,64 83.6,64 H 80.4 C 80.1791,64 80,64.1791 80,64.4 v 3.2 c 0,0.2209 0.1791,0.4 0.4,0.4 H 84 v 8 H 76.4 C 76.1791,76 76,76.1791 76,76.4 v 3.2 c 0,0.2209 0.1791,0.4 0.4,0.4 h 3.2 c 0.2209,0 0.4,0.1791 0.4,0.4 v 3.2 c 0,0.2209 0.1791,0.4 0.4,0.4 h 3.2 C 83.8209,84 84,83.8209 84,83.6 V 76 h 3.6 C 87.8209,76 88,75.8209 88,75.6 V 72.4 C 88,72.1791 88.1791,72 88.4,72 h 3.2 c 0.2209,0 0.4,0.1791 0.4,0.4 v 3.2 c 0,0.2209 0.1791,0.4 0.4,0.4 h 3.2 C 95.8209,76 96,75.8209 96,75.6 V 72.4 C 96,72.1791 96.1791,72 96.4,72 h 7.2 c 0.221,0 0.4,-0.1791 0.4,-0.4 V 68 h 19.6 c 0.221,0 0.4,-0.1791 0.4,-0.4 v -7.2 c 0,-0.2209 0.179,-0.4 0.4,-0.4 h 3.2 c 0.221,0 0.4,-0.1791 0.4,-0.4 v -3.2 c 0,-0.2209 -0.179,-0.4 -0.4,-0.4 h -15.2 c -0.221,0 -0.4,0.1791 -0.4,0.4 v 3.2 c 0,0.2209 0.179,0.4 0.4,0.4 h 7.2 c 0.221,0 0.4,0.1791 0.4,0.4 v 3.2 c 0,0.2209 -0.179,0.4 -0.4,0.4 H 104 v -7.6 c 0,-0.2209 -0.179,-0.4 -0.4,-0.4 h -3.2 C 100.179,56 100,55.8209 100,55.6 V 52 h 7.6 c 0.221,0 0.4,-0.1791 0.4,-0.4 v -3.2 c 0,-0.2209 0.179,-0.4 0.4,-0.4 h 3.2 c 0.221,0 0.4,0.1791 0.4,0.4 v 3.2 c 0,0.2209 0.179,0.4 0.4,0.4 h 3.2 c 0.221,0 0.4,-0.1791 0.4,-0.4 v -3.2 c 0,-0.2209 0.179,-0.4 0.4,-0.4 h 15.2 c 0.221,0 0.4,0.1791 0.4,0.4 v 15.2 c 0,0.2209 -0.179,0.4 -0.4,0.4 h -3.2 c -0.221,0 -0.4,0.1791 -0.4,0.4 v 3.2 c 0,0.2209 0.179,0.4 0.4,0.4 h 3.2 c 0.221,0 0.4,0.1791 0.4,0.4 v 11.2 c 0,0.2209 -0.179,0.4 -0.4,0.4 h -3.2 c -0.221,0 -0.4,0.1791 -0.4,0.4 v 3.2 c 0,0.2209 0.179,0.4 0.4,0.4 h 3.2 c 0.221,0 0.4,0.1791 0.4,0.4 v 43.2 c 0,0.221 -0.179,0.4 -0.4,0.4 h -3.2 c -0.221,0 -0.4,0.179 -0.4,0.4 v 3.2 c 0,0.221 -0.179,0.4 -0.4,0.4 z m -84,0 H 16.4 c -0.2209,0 -0.4,-0.179 -0.4,-0.4 v -27.2 c 0,-0.221 0.1791,-0.4 0.4,-0.4 h 27.2 c 0.2209,0 0.4,0.179 0.4,0.4 v 27.2 c 0,0.221 -0.1791,0.4 -0.4,0.4 z m 68.4,-4.4 v -3.2 c 0,-0.221 0.179,-0.4 0.4,-0.4 h 3.2 c 0.221,0 0.4,-0.179 0.4,-0.4 v -3.2 c 0,-0.221 0.179,-0.4 0.4,-0.4 h 11.2 c 0.221,0 0.4,-0.179 0.4,-0.4 v -7.2 c 0,-0.221 -0.179,-0.4 -0.4,-0.4 h -3.2 c -0.221,0 -0.4,-0.179 -0.4,-0.4 V 108 h 3.6 c 0.221,0 0.4,-0.179 0.4,-0.4 V 96.4 c 0,-0.2209 -0.179,-0.4 -0.4,-0.4 h -3.2 C 124.179,96 124,95.8209 124,95.6 V 92 h 3.6 c 0.221,0 0.4,-0.1791 0.4,-0.4 V 88.4 C 128,88.1791 127.821,88 127.6,88 H 124 V 76 h 3.6 c 0.221,0 0.4,-0.1791 0.4,-0.4 v -3.2 c 0,-0.2209 -0.179,-0.4 -0.4,-0.4 h -3.2 c -0.221,0 -0.4,0.1791 -0.4,0.4 V 76 h -7.6 c -0.221,0 -0.4,-0.1791 -0.4,-0.4 v -3.2 c 0,-0.2209 -0.179,-0.4 -0.4,-0.4 h -3.2 c -0.221,0 -0.4,0.1791 -0.4,0.4 v 3.2 c 0,0.2209 -0.179,0.4 -0.4,0.4 h -7.2 c -0.221,0 -0.4,0.1791 -0.4,0.4 v 3.2 c 0,0.2209 -0.179,0.4 -0.4,0.4 h -3.2 c -0.221,0 -0.4,0.1791 -0.4,0.4 v 11.2 c 0,0.2209 0.179,0.4 0.4,0.4 h 3.2 c 0.221,0 0.4,0.1791 0.4,0.4 v 3.2 c 0,0.2209 0.179,0.4 0.4,0.4 h 3.2 c 0.221,0 0.4,-0.1791 0.4,-0.4 v -3.2 c 0,-0.2209 0.179,-0.4 0.4,-0.4 h 7.2 c 0.221,0 0.4,0.1791 0.4,0.4 v 3.2 c 0,0.2209 0.179,0.4 0.4,0.4 h 3.2 c 0.221,0 0.4,0.1791 0.4,0.4 v 3.2 c 0,0.2209 -0.179,0.4 -0.4,0.4 h -3.2 c -0.221,0 -0.4,0.179 -0.4,0.4 v 3.2 c 0,0.221 0.179,0.4 0.4,0.4 h 7.2 c 0.221,0 0.4,0.179 0.4,0.4 v 3.6 h -7.6 c -0.221,0 -0.4,0.179 -0.4,0.4 v 3.2 c 0,0.221 0.179,0.4 0.4,0.4 h 3.2 c 0.221,0 0.4,0.179 0.4,0.4 v 3.2 c 0,0.221 -0.179,0.4 -0.4,0.4 h -15.2 c -0.221,0 -0.4,0.179 -0.4,0.4 v 7.2 c 0,0.221 0.179,0.4 0.4,0.4 h 3.2 c 0.221,0 0.4,0.179 0.4,0.4 v 3.2 c 0,0.221 0.179,0.4 0.4,0.4 h 3.2 c 0.221,0 0.4,-0.179 0.4,-0.4 z m -72,0 V 108.4 C 40,108.179 39.8209,108 39.6,108 H 20.4 c -0.2209,0 -0.4,0.179 -0.4,0.4 v 19.2 c 0,0.221 0.1791,0.4 0.4,0.4 h 19.2 c 0.2209,0 0.4,-0.179 0.4,-0.4 z m 44,-4 v -3.2 c 0,-0.221 -0.1791,-0.4 -0.4,-0.4 h -3.2 c -0.2209,0 -0.4,0.179 -0.4,0.4 v 3.2 c 0,0.221 0.1791,0.4 0.4,0.4 h 3.2 c 0.2209,0 0.4,-0.179 0.4,-0.4 z M 35.6,124 H 24.4 c -0.2209,0 -0.4,-0.179 -0.4,-0.4 v -11.2 c 0,-0.221 0.1791,-0.4 0.4,-0.4 h 11.2 c 0.2209,0 0.4,0.179 0.4,0.4 v 11.2 c 0,0.221 -0.1791,0.4 -0.4,0.4 z m 28,-8 H 48.4 c -0.2209,0 -0.4,-0.179 -0.4,-0.4 v -7.2 c 0,-0.221 0.1791,-0.4 0.4,-0.4 h 11.2 c 0.2209,0 0.4,0.179 0.4,0.4 v 3.2 c 0,0.221 0.1791,0.4 0.4,0.4 H 64 v 4 z m 48.4,-4.4 v -11.2 c 0,-0.221 -0.179,-0.4 -0.4,-0.4 h -11.2 c -0.221,0 -0.4,0.179 -0.4,0.4 v 11.2 c 0,0.221 0.179,0.4 0.4,0.4 h 11.2 c 0.221,0 0.4,-0.179 0.4,-0.4 z M 67.6,112 H 64 v -3.6 c 0,-0.221 0.1791,-0.4 0.4,-0.4 h 3.2 c 0.2209,0 0.4,0.179 0.4,0.4 v 3.6 z m 40,-4 h -3.2 c -0.221,0 -0.4,-0.179 -0.4,-0.4 v -3.2 c 0,-0.221 0.179,-0.4 0.4,-0.4 h 3.2 c 0.221,0 0.4,0.179 0.4,0.4 v 3.2 c 0,0.221 -0.179,0.4 -0.4,0.4 z m -52,-4 H 48.4 C 48.1791,104 48,103.821 48,103.6 V 96 h 4 v 3.6 c 0,0.2209 0.1791,0.4 0.4,0.4 H 56 v 3.6 c 0,0.221 -0.1791,0.4 -0.4,0.4 z M 80,99.6 V 96 h 3.6 C 83.8209,96 84,95.8209 84,95.6 V 92.4 C 84,92.1791 84.1791,92 84.4,92 h 3.2 C 87.8209,92 88,91.8209 88,91.6 V 88.4 C 88,88.1791 87.8209,88 87.6,88 H 80.4 C 80.1791,88 80,88.1791 80,88.4 V 96 H 76.4 C 76.1791,96 76,95.8209 76,95.6 V 92.4 C 76,92.1791 75.8209,92 75.6,92 H 72.4 C 72.1791,92 72,92.1791 72,92.4 v 7.2 c 0,0.2209 0.1791,0.4 0.4,0.4 h 7.2 c 0.2209,0 0.4,-0.1791 0.4,-0.4 z M 59.6,100 H 56 v -4 h 4 v 3.6 c 0,0.2209 -0.1791,0.4 -0.4,0.4 z m -16,0 H 16.4 C 16.1791,100 16,99.8209 16,99.6 V 96.4 C 16,96.1791 16.1791,96 16.4,96 H 44 v 3.6 c 0,0.2209 -0.1791,0.4 -0.4,0.4 z m 12,-4 H 52 v -8 h 4 v 8 z m -8,0 H 44 v -4 h 3.6 c 0.2209,0 0.4,0.1791 0.4,0.4 V 96 Z m 76,-4 h -3.2 C 120.179,92 120,91.8209 120,91.6 V 88 h 4 v 4 z m -80,0 H 40.4 C 40.1791,92 40,91.8209 40,91.6 V 88 h 3.6 c 0.2209,0 0.4,0.1791 0.4,0.4 V 92 Z m -8,0 H 32.4 C 32.1791,92 32,91.8209 32,91.6 V 84 h 8 v 4 H 36.4 C 36.1791,88 36,88.1791 36,88.4 v 3.2 c 0,0.2209 -0.1791,0.4 -0.4,0.4 z m 84,-4 h -15.2 c -0.221,0 -0.4,-0.1791 -0.4,-0.4 v -3.2 c 0,-0.2209 0.179,-0.4 0.4,-0.4 h 3.2 c 0.221,0 0.4,-0.1791 0.4,-0.4 v -3.2 c 0,-0.2209 0.179,-0.4 0.4,-0.4 h 3.2 c 0.221,0 0.4,0.1791 0.4,0.4 v 3.2 c 0,0.2209 0.179,0.4 0.4,0.4 h 7.2 c 0.221,0 0.4,0.1791 0.4,0.4 V 88 Z m -60,0 H 56 V 84.4 C 56,84.1791 56.1791,84 56.4,84 H 60 v 4 z m -8,0 H 48.4 C 48.1791,88 48,87.8209 48,87.6 V 84 h 3.6 c 0.2209,0 0.4,0.1791 0.4,0.4 V 88 Z m -24,0 H 24.4 C 24.1791,88 24,87.8209 24,87.6 V 80 h 3.6 C 27.8209,80 28,79.8209 28,79.6 V 76.4 C 28,76.1791 28.1791,76 28.4,76 H 32 v 8 H 28.4 C 28.1791,84 28,84.1791 28,84.4 v 3.2 c 0,0.2209 -0.1791,0.4 -0.4,0.4 z m -8,0 H 16.4 C 16.1791,88 16,87.8209 16,87.6 V 84.4 C 16,84.1791 16.1791,84 16.4,84 h 3.2 c 0.2209,0 0.4,0.1791 0.4,0.4 v 3.2 c 0,0.2209 -0.1791,0.4 -0.4,0.4 z m 44,-4 H 60 V 80.4 C 60,80.1791 60.1791,80 60.4,80 H 64 v 4 z m -16,0 H 40 v -4 h 7.6 c 0.2209,0 0.4,0.1791 0.4,0.4 V 84 Z m 20,-4 H 64 V 76.4 C 64,76.1791 64.1791,76 64.4,76 H 68 v 4 z m -12,0 H 52.4 C 52.1791,80 52,79.8209 52,79.6 V 76.4 C 52,76.1791 51.8209,76 51.6,76 H 40 V 72 H 51.6 C 51.8209,72 52,71.8209 52,71.6 V 68 h 4 v 3.6 c 0,0.2209 0.1791,0.4 0.4,0.4 h 3.2 c 0.2209,0 0.4,0.1791 0.4,0.4 v 3.2 C 60,75.8209 59.8209,76 59.6,76 H 56.4 C 56.1791,76 56,76.1791 56,76.4 v 3.2 c 0,0.2209 -0.1791,0.4 -0.4,0.4 z m -16,0 H 36.4 C 36.1791,80 36,79.8209 36,79.6 V 76 h 4 v 4 z m -16,0 H 20.4 C 20.1791,80 20,79.8209 20,79.6 V 76 h 3.6 c 0.2209,0 0.4,0.1791 0.4,0.4 V 80 Z m 12,-4 H 32 V 72.4 C 32,72.1791 31.8209,72 31.6,72 H 20 V 68.4 C 20,68.1791 20.1791,68 20.4,68 h 3.2 C 23.8209,68 24,67.8209 24,67.6 V 60 h 3.6 C 27.8209,60 28,59.8209 28,59.6 V 56.4 C 28,56.1791 28.1791,56 28.4,56 h 3.2 c 0.2209,0 0.4,0.1791 0.4,0.4 v 3.2 c 0,0.2209 0.1791,0.4 0.4,0.4 h 3.2 C 35.8209,60 36,59.8209 36,59.6 V 52.4 C 36,52.1791 35.8209,52 35.6,52 H 32.4 C 32.1791,52 32,51.8209 32,51.6 V 48.4 C 32,48.1791 32.1791,48 32.4,48 h 11.2 c 0.2209,0 0.4,0.1791 0.4,0.4 v 3.2 C 44,51.8209 43.8209,52 43.6,52 H 40.4 C 40.1791,52 40,52.1791 40,52.4 v 3.2 c 0,0.2209 0.1791,0.4 0.4,0.4 h 3.2 c 0.2209,0 0.4,0.1791 0.4,0.4 v 3.2 C 44,59.8209 43.8209,60 43.6,60 H 40.4 C 40.1791,60 40,60.1791 40,60.4 v 3.2 c 0,0.2209 0.1791,0.4 0.4,0.4 h 7.2 C 47.8209,64 48,63.8209 48,63.6 V 52.4 C 48,52.1791 48.1791,52 48.4,52 H 60 v 4 H 52.4 C 52.1791,56 52,56.1791 52,56.4 V 68 H 40.4 C 40.1791,68 40,68.1791 40,68.4 V 72 H 36.4 C 36.1791,72 36,72.1791 36,72.4 V 76 Z m -16,0 H 16.4 C 16.1791,76 16,75.8209 16,75.6 V 72.4 C 16,72.1791 16.1791,72 16.4,72 H 20 v 4 z m 84,-8 h -3.2 c -0.221,0 -0.4,-0.1791 -0.4,-0.4 v -3.2 c 0,-0.2209 0.179,-0.4 0.4,-0.4 h 3.6 v 4 z m -8,0 H 92.4 C 92.1791,68 92,67.8209 92,67.6 V 64 h 3.6 c 0.2209,0 0.4,0.1791 0.4,0.4 v 3.2 c 0,0.2209 -0.1791,0.4 -0.4,0.4 z m -28,0 H 64.4 C 64.1791,68 64,67.8209 64,67.6 V 64 h 3.6 c 0.2209,0 0.4,0.1791 0.4,0.4 v 3.2 C 68,67.8209 67.8209,68 67.6,68 Z M 32,67.6 V 64.4 C 32,64.1791 31.8209,64 31.6,64 H 28.4 C 28.1791,64 28,64.1791 28,64.4 v 3.2 c 0,0.2209 0.1791,0.4 0.4,0.4 h 3.2 C 31.8209,68 32,67.8209 32,67.6 Z M 23.6,60 H 20.4 C 20.1791,60 20,59.8209 20,59.6 V 56.4 C 20,56.1791 19.8209,56 19.6,56 H 16.4 C 16.1791,56 16,55.8209 16,55.6 V 48.4 C 16,48.1791 16.1791,48 16.4,48 h 7.2 c 0.2209,0 0.4,0.1791 0.4,0.4 V 60 Z m 76,-8 H 92.4 C 92.1791,52 92,51.8209 92,51.6 V 48 h 3.6 C 95.8209,48 96,47.8209 96,47.6 V 40 h 3.6 c 0.2209,0 0.4,0.1791 0.4,0.4 V 52 Z m -12,0 H 84 v -8 h 3.6 C 87.8209,44 88,43.8209 88,43.6 V 40.4 C 88,40.1791 88.1791,40 88.4,40 H 92 v 8 H 88.4 C 88.1791,48 88,48.1791 88,48.4 v 3.2 c 0,0.2209 -0.1791,0.4 -0.4,0.4 z m -24,0 H 60 V 48.4 C 60,48.1791 60.1791,48 60.4,48 H 64 v 4 z m 12,-4 H 72.4 C 72.1791,48 72,47.8209 72,47.6 V 40.4 C 72,40.1791 71.8209,40 71.6,40 H 68.4 C 68.1791,40 68,40.1791 68,40.4 v 7.2 C 68,47.8209 67.8209,48 67.6,48 H 64 V 40.4 C 64,40.1791 63.8209,40 63.6,40 H 60 V 36.4 C 60,36.1791 60.1791,36 60.4,36 H 71.6 C 71.8209,36 72,35.8209 72,35.6 V 32.4 C 72,32.1791 71.8209,32 71.6,32 H 68.4 C 68.1791,32 68,31.8209 68,31.6 V 28.4 C 68,28.1791 68.1791,28 68.4,28 h 7.2 c 0.2209,0 0.4,0.1791 0.4,0.4 V 48 Z m -20,0 H 52.4 C 52.1791,48 52,47.8209 52,47.6 V 44 h 4 v 3.6 c 0,0.2209 -0.1791,0.4 -0.4,0.4 z m 76,-4 H 104.4 C 104.179,44 104,43.8209 104,43.6 V 16.4 c 0,-0.2209 0.179,-0.4 0.4,-0.4 h 27.2 c 0.221,0 0.4,0.1791 0.4,0.4 v 27.2 c 0,0.2209 -0.179,0.4 -0.4,0.4 z m -48,0 H 80.4 C 80.1791,44 80,43.8209 80,43.6 V 32.4 C 80,32.1791 80.1791,32 80.4,32 h 11.2 c 0.2209,0 0.4,0.1791 0.4,0.4 V 36 H 84.4 C 84.1791,36 84,36.1791 84,36.4 V 44 Z m -24,0 H 56 V 40.4 C 56,40.1791 56.1791,40 56.4,40 H 60 v 3.6 c 0,0.2209 -0.1791,0.4 -0.4,0.4 z m -8,0 H 48.4 C 48.1791,44 48,43.8209 48,43.6 V 36.4 C 48,36.1791 48.1791,36 48.4,36 h 3.2 c 0.2209,0 0.4,0.1791 0.4,0.4 V 44 Z m -8,0 H 16.4 C 16.1791,44 16,43.8209 16,43.6 V 16.4 C 16,16.1791 16.1791,16 16.4,16 h 27.2 c 0.2209,0 0.4,0.1791 0.4,0.4 V 43.6 C 44,43.8209 43.8209,44 43.6,44 Z M 128,39.6 V 20.4 c 0,-0.2209 -0.179,-0.4 -0.4,-0.4 h -19.2 c -0.221,0 -0.4,0.1791 -0.4,0.4 v 19.2 c 0,0.2209 0.179,0.4 0.4,0.4 h 19.2 c 0.221,0 0.4,-0.1791 0.4,-0.4 z M 95.6,40 H 92 v -4 h 3.6 c 0.2209,0 0.4,0.1791 0.4,0.4 V 40 Z M 40,39.6 V 20.4 C 40,20.1791 39.8209,20 39.6,20 H 20.4 C 20.1791,20 20,20.1791 20,20.4 v 19.2 c 0,0.2209 0.1791,0.4 0.4,0.4 H 39.6 C 39.8209,40 40,39.8209 40,39.6 Z M 123.6,36 H 112.4 C 112.179,36 112,35.8209 112,35.6 V 24.4 c 0,-0.2209 0.179,-0.4 0.4,-0.4 h 11.2 c 0.221,0 0.4,0.1791 0.4,0.4 v 11.2 c 0,0.2209 -0.179,0.4 -0.4,0.4 z m -88,0 H 24.4 C 24.1791,36 24,35.8209 24,35.6 V 24.4 C 24,24.1791 24.1791,24 24.4,24 h 11.2 c 0.2209,0 0.4,0.1791 0.4,0.4 v 11.2 c 0,0.2209 -0.1791,0.4 -0.4,0.4 z m 64,-4 H 96.4 C 96.1791,32 96,31.8209 96,31.6 V 28 h 3.6 c 0.2209,0 0.4,0.1791 0.4,0.4 v 3.2 c 0,0.2209 -0.1791,0.4 -0.4,0.4 z m -36,0 H 60.4 C 60.1791,32 60,31.8209 60,31.6 V 28.4 C 60,28.1791 59.8209,28 59.6,28 H 56 V 24.4 C 56,24.1791 55.8209,24 55.6,24 H 52.4 C 52.1791,24 52,24.1791 52,24.4 v 3.2 c 0,0.2209 0.1791,0.4 0.4,0.4 H 56 v 3.6 C 56,31.8209 55.8209,32 55.6,32 H 48.4 C 48.1791,32 48,31.8209 48,31.6 V 16.4 C 48,16.1791 48.1791,16 48.4,16 h 11.2 c 0.2209,0 0.4,0.1791 0.4,0.4 v 7.2 c 0,0.2209 0.1791,0.4 0.4,0.4 h 3.2 c 0.2209,0 0.4,0.1791 0.4,0.4 v 7.2 c 0,0.2209 -0.1791,0.4 -0.4,0.4 z m 32,-4 H 84.4 C 84.1791,28 84,27.8209 84,27.6 V 24.4 C 84,24.1791 83.8209,24 83.6,24 H 80.4 C 80.1791,24 80,23.8209 80,23.6 V 20.4 C 80,20.1791 79.8209,20 79.6,20 H 76 V 16.4 C 76,16.1791 76.1791,16 76.4,16 h 7.2 c 0.2209,0 0.4,0.1791 0.4,0.4 v 3.2 c 0,0.2209 0.1791,0.4 0.4,0.4 h 3.2 C 87.8209,20 88,19.8209 88,19.6 V 16.4 C 88,16.1791 88.1791,16 88.4,16 h 3.2 c 0.2209,0 0.4,0.1791 0.4,0.4 v 3.2 c 0,0.2209 0.1791,0.4 0.4,0.4 h 7.2 c 0.2209,0 0.4,0.1791 0.4,0.4 v 3.2 c 0,0.2209 -0.1791,0.4 -0.4,0.4 H 96.4 C 96.1791,24 96,24.1791 96,24.4 V 28 Z m -20,-4 H 68.4 C 68.1791,24 68,23.8209 68,23.6 V 20.4 C 68,20.1791 67.8209,20 67.6,20 H 64.4 C 64.1791,20 64,19.8209 64,19.6 V 16.4 C 64,16.1791 64.1791,16 64.4,16 h 7.2 c 0.2209,0 0.4,0.1791 0.4,0.4 v 3.2 c 0,0.2209 0.1791,0.4 0.4,0.4 H 76 v 3.6 c 0,0.2209 -0.1791,0.4 -0.4,0.4 z"
           id="path1" />
      </g>
    </g>
  </g>
</svg>
